<svg width="16" height="16" viewBox="0 0 16 16" fill="none" xmlns="http://www.w3.org/2000/svg">
<path d="M6.06668 1.60015C5.60001 1.46681 5.06668 1.40015 4.60001 1.40015C4.26668 1.40015 4.00001 1.46681 3.73334 1.73348C3.53334 1.93348 3.40001 2.26681 3.40001 2.60015V2.80015H3.20001C2.20001 2.80015 1.33334 3.60015 1.33334 4.66681V11.5335C1.33334 12.5335 2.20001 13.4001 3.20001 13.4001H8.13334V2.80015C7.53334 2.26681 6.80001 1.86681 6.06668 1.60015ZM3.20001 12.4001C2.73334 12.4001 2.33334 12.0001 2.33334 11.5335V4.66681C2.33334 4.20015 2.73334 3.80015 3.20001 3.80015H3.40001V10.2001C3.40001 10.8668 3.93334 11.3335 4.53334 11.4001C5.00001 11.4001 5.40001 11.5335 5.80001 11.6668C6.26668 11.8668 6.66668 12.1335 6.93334 12.4001H3.20001ZM12.8 2.80015H8.80001V13.4001H12.8C13.8 13.4001 14.6667 12.5335 14.6667 11.5335V4.66681C14.6667 3.60015 13.8 2.80015 12.8 2.80015ZM12.1333 11.3335H10.0667C9.80001 11.3335 9.53334 11.1335 9.53334 10.8001C9.53334 10.5335 9.73334 10.2668 10.0667 10.2668H12.1333C12.4 10.2668 12.6667 10.4668 12.6667 10.8001C12.6 11.1335 12.4 11.3335 12.1333 11.3335ZM12.1333 8.60015H10.0667C9.80001 8.60015 9.53334 8.40015 9.53334 8.06681C9.53334 7.80015 9.73334 7.53348 10.0667 7.53348H12.1333C12.4 7.53348 12.6667 7.73348 12.6667 8.06681C12.6 8.33348 12.4 8.60015 12.1333 8.60015ZM12.1333 5.80015H10.0667C9.80001 5.80015 9.53334 5.60015 9.53334 5.26681C9.53334 5.00015 9.73334 4.73348 10.0667 4.73348H12.1333C12.4 4.73348 12.6667 4.93348 12.6667 5.26681C12.6 5.60015 12.4 5.80015 12.1333 5.80015Z" fill="white"/>
</svg>
