<svg width="16" height="16" viewBox="0 0 16 16" fill="none" xmlns="http://www.w3.org/2000/svg">
<path d="M11.9733 2.83993C11.76 3.01326 11.4466 2.97992 11.2666 2.77325C11.04 2.49325 10.7066 2.33325 10.3466 2.33325H3.52665C2.87332 2.33325 2.33331 2.86659 2.33331 3.52659V10.3466C2.33331 10.6666 2.45998 10.9666 2.68665 11.1933C2.87998 11.3866 2.87998 11.6999 2.68665 11.8999C2.58665 11.9933 2.45998 12.0466 2.33331 12.0466C2.19998 12.0466 2.07331 11.9933 1.97998 11.8999C1.55998 11.4799 1.33331 10.9332 1.33331 10.3466V3.52659C1.33331 2.31992 2.31999 1.33325 3.52665 1.33325H10.3466C11.0066 1.33325 11.6266 1.62659 12.04 2.13326C12.22 2.34659 12.1866 2.66659 11.9733 2.83993Z" fill="white"/>
<path d="M2.68665 11.1933C2.87998 11.3866 2.87998 11.6999 2.68665 11.8999C2.58665 11.9933 2.45998 12.0466 2.33331 12.0466C2.19998 12.0466 2.07331 11.9933 1.97998 11.8999C1.55998 11.4799 1.33331 10.9332 1.33331 10.3466V3.52659C1.33331 2.31992 2.31999 1.33325 3.52665 1.33325H10.3466C11.0066 1.33325 11.6266 1.62659 12.04 2.13326C12.22 2.34659 12.1866 2.66659 11.9733 2.83993C11.76 3.01326 11.4466 2.97992 11.2666 2.77325C11.04 2.49325 10.7066 2.33325 10.3466 2.33325H3.52665C2.87332 2.33325 2.33331 2.86659 2.33331 3.52659V10.3466C2.33331 10.6666 2.45998 10.9666 2.68665 11.1933Z" fill="white"/>
<path d="M12.4736 3.45996H5.65361C4.44694 3.45996 3.46027 4.44663 3.46027 5.6533V12.4733C3.46027 13.68 4.44694 14.6666 5.65361 14.6666H12.4736C13.6803 14.6666 14.6669 13.68 14.6669 12.4733V5.6533C14.6669 4.44663 13.6803 3.45996 12.4736 3.45996ZM6.94027 5.6133C7.44693 5.6133 7.86027 6.02662 7.86027 6.53996C7.86027 7.05329 7.44693 7.46663 6.94027 7.46663C6.42693 7.46663 6.01359 7.05329 6.01359 6.53996C6.01359 6.02662 6.42693 5.6133 6.94027 5.6133ZM13.6669 12.4733C13.6669 13.1333 13.1336 13.6666 12.4736 13.6666H5.65361C4.99361 13.6666 4.46027 13.1333 4.46027 12.4733V12.2733L6.26693 10.4733C6.40026 10.3333 6.62694 10.3333 6.76027 10.4733L7.26027 10.9733C7.76694 11.48 8.66026 11.48 9.16693 10.9733L11.3669 8.7733C11.5003 8.63996 11.7336 8.63996 11.8669 8.7733L13.6669 10.5733V12.4733Z" fill="white"/>
</svg>
