<svg width="16" height="16" viewBox="0 0 16 16" fill="none" xmlns="http://www.w3.org/2000/svg">
<path d="M12.7133 3.28682C11.5067 2.08016 9.83998 1.3335 7.99998 1.3335C6.15998 1.3335 4.49331 2.08016 3.28664 3.28682C2.07997 4.49349 1.33331 6.16016 1.33331 8.00016C1.33331 11.6802 4.31998 14.6668 7.99998 14.6668C9.83998 14.6668 11.5067 13.9202 12.7133 12.7135C13.92 11.5068 14.6666 9.84016 14.6666 8.00016C14.6666 6.16016 13.92 4.49349 12.7133 3.28682ZM10.2333 8.48016L7.08665 10.0935C7.01332 10.1335 6.92665 10.1535 6.83999 10.1535C6.74665 10.1535 6.64664 10.1268 6.55998 10.0735C6.39998 9.97349 6.29999 9.80017 6.29999 9.61351V6.38682C6.29999 6.20015 6.39998 6.02684 6.55998 5.92684C6.71998 5.82684 6.91998 5.82015 7.08665 5.90682L10.2333 7.52016C10.42 7.6135 10.5267 7.7935 10.5267 8.00016C10.5267 8.20683 10.42 8.38683 10.2333 8.48016Z" fill="white"/>
</svg>
