<svg width="36" height="36" viewBox="0 0 36 36" fill="none" xmlns="http://www.w3.org/2000/svg">
<path d="M18 0.5C27.6425 0.5 35.5 8.3575 35.5 18C35.5 27.6425 27.6425 35.5 18 35.5C8.3575 35.5 0.5 27.6425 0.5 18C0.5 8.3575 8.3575 0.5 18 0.5ZM15.235 18.84L18.735 23.0575C18.9975 23.3725 19.365 23.53 19.75 23.53C20.0475 23.53 20.345 23.4425 20.59 23.2325C21.1325 22.7775 21.22 21.955 20.765 21.395L17.9475 18L20.765 14.605C21.22 14.045 21.1325 13.2225 20.59 12.7675C20.03 12.295 19.19 12.3825 18.735 12.9425L15.235 17.16C14.8325 17.65 14.8325 18.35 15.235 18.84Z" fill="white"/>
</svg>
