<svg width="24" height="24" viewBox="0 0 24 24" fill="none" xmlns="http://www.w3.org/2000/svg">
<path d="M21.25 8.72009C21.25 9.88009 20.81 11.0501 19.92 11.9401L18.44 13.4201L12.07 19.7901C12.04 19.8201 12.03 19.8301 12 19.8501C11.97 19.8301 11.96 19.8201 11.93 19.7901L4.08 11.9401C3.19 11.0501 2.75 9.89009 2.75 8.72009C2.75 7.55009 3.19 6.3801 4.08 5.4901C5.86 3.7201 8.74 3.7201 10.52 5.4901L11.99 6.97009L13.47 5.4901C15.25 3.7201 18.12 3.7201 19.9 5.4901C20.81 6.3801 21.25 7.54009 21.25 8.72009Z" stroke="#E85323" stroke-width="1.5" stroke-linecap="round" stroke-linejoin="round"/>
</svg>
