<svg width="72" height="72" viewBox="0 0 72 72" fill="none" xmlns="http://www.w3.org/2000/svg">
<path d="M61.452 10.548C54.936 4.03197 45.936 0 36 0C26.064 0 17.064 4.03197 10.548 10.548C4.03197 17.064 0 26.064 0 36C0 55.872 16.128 72 36 72C45.936 72 54.936 67.968 61.452 61.452C67.968 54.936 72 45.936 72 36C72 26.064 67.968 17.064 61.452 10.548ZM48.06 38.592L31.068 47.3041C30.672 47.5201 30.204 47.628 29.736 47.628C29.232 47.628 28.692 47.4839 28.224 47.1959C27.36 46.6559 26.82 45.7201 26.82 44.7121V27.288C26.82 26.28 27.36 25.3441 28.224 24.8041C29.088 24.2641 30.168 24.2279 31.068 24.6959L48.06 33.408C49.068 33.912 49.644 34.884 49.644 36C49.644 37.116 49.068 38.088 48.06 38.592Z" fill="#E85323"/>
</svg>
