<svg width="20" height="20" viewBox="0 0 20 20" fill="none" xmlns="http://www.w3.org/2000/svg">
<path d="M13.4251 2.29163H6.57515C6.10015 2.29163 5.7168 2.67496 5.7168 3.14996V6.57496H14.2835V3.14996C14.2835 2.67496 13.9001 2.29163 13.4251 2.29163Z" stroke="black" stroke-width="1.5" stroke-linecap="round" stroke-linejoin="round"/>
<path d="M2.91699 8.51662C2.91699 7.78679 3.50383 7.19995 4.23365 7.19995H15.767C16.4968 7.19995 17.0837 7.78679 17.0837 8.51662V12.3416C17.0837 13.0714 16.4968 13.6583 15.767 13.6583H14.2837V14.9083H15.767C17.1872 14.9083 18.3337 13.7618 18.3337 12.3416V8.51662C18.3337 7.09645 17.1872 5.94995 15.767 5.94995H4.23365C2.81346 5.94995 1.66699 7.09645 1.66699 8.51662V12.3416C1.66699 13.7618 2.81347 14.9083 4.23365 14.9083H5.71698V13.6583H4.23365C3.50383 13.6583 2.91699 13.0714 2.91699 12.3416V8.51662Z" fill="black"/>
<path d="M14.2835 10H5.7168V16.5583C5.7168 17.1917 6.23347 17.7083 6.8668 17.7083H13.1335C13.7668 17.7083 14.2835 17.1917 14.2835 16.5583V10Z" stroke="black" stroke-width="1.5" stroke-linecap="round" stroke-linejoin="round"/>
<path d="M8.2832 15.1417H9.14154" stroke="black" stroke-width="1.5" stroke-linecap="round" stroke-linejoin="round"/>
<path d="M8.2832 12.5667H11.7165" stroke="black" stroke-width="1.5" stroke-linecap="round" stroke-linejoin="round"/>
</svg>
