<svg width="42" height="42" viewBox="0 0 42 42" fill="none" xmlns="http://www.w3.org/2000/svg">
<path d="M16.1118 8.86236H6.51896C4.82069 8.86236 3.44727 10.2358 3.44727 11.9341V21.531C3.44727 23.2249 4.82069 24.5984 6.51466 24.5984H12.3644C12.5005 25.5638 12.6146 27.2708 12.031 29.2631C11.715 30.3426 11.2718 31.251 10.8154 31.9839C10.4293 32.607 11.0788 33.3619 11.7502 33.0722C13.2334 32.4314 14.2339 31.6548 14.7956 31.1589C18.2842 28.0826 18.903 23.6066 19.096 22.2286C19.1355 21.9301 19.1618 21.6845 19.1795 21.5266L19.1793 11.9296C19.1793 10.2357 17.8056 8.86225 16.1119 8.86225L16.1118 8.86236Z" fill="#E85323"/>
<path d="M35.4812 8.86201H25.893C24.1947 8.86201 22.8213 10.2354 22.8213 11.9337V21.5306C22.8213 23.2246 24.1947 24.598 25.8887 24.598H31.7385C31.8746 25.5634 31.9887 27.2705 31.405 29.2628C31.0891 30.3422 30.6458 31.2507 30.1894 31.9835C29.8034 32.6066 30.4528 33.3615 31.1242 33.0719C32.6074 32.4311 33.608 31.6544 34.1696 31.1586C37.6582 28.0823 38.277 23.6062 38.4701 22.2283C38.5095 21.9298 38.5359 21.6841 38.5535 21.5262L38.5533 11.9334C38.5533 10.2351 37.1797 8.86166 35.4814 8.86166L35.4812 8.86201Z" fill="#E85323"/>
</svg>
