<svg width="20" height="20" viewBox="0 0 20 20" fill="none" xmlns="http://www.w3.org/2000/svg">
<path d="M5.82513 11.6833C6.78242 11.6833 7.55846 10.9297 7.55846 9.99999C7.55846 9.07031 6.78242 8.31665 5.82513 8.31665C4.86783 8.31665 4.0918 9.07031 4.0918 9.99999C4.0918 10.9297 4.86783 11.6833 5.82513 11.6833Z" stroke="black" stroke-width="1.5" stroke-linecap="round" stroke-linejoin="round"/>
<path d="M14.2243 5.83334C15.154 5.83334 15.9077 5.07968 15.9077 4.15C15.9077 3.22032 15.154 2.46667 14.2243 2.46667C13.2947 2.46667 12.541 3.22032 12.541 4.15C12.541 5.07968 13.2947 5.83334 14.2243 5.83334Z" stroke="black" stroke-width="1.5" stroke-linecap="round" stroke-linejoin="round"/>
<path d="M14.2243 17.5333C15.154 17.5333 15.9077 16.7796 15.9077 15.85C15.9077 14.9203 15.154 14.1666 14.2243 14.1666C13.2947 14.1666 12.541 14.9203 12.541 15.85C12.541 16.7796 13.2947 17.5333 14.2243 17.5333Z" stroke="black" stroke-width="1.5" stroke-linecap="round" stroke-linejoin="round"/>
<path d="M7.69238 8.69996L12.359 5.44995" stroke="black" stroke-width="1.5" stroke-linecap="round" stroke-linejoin="round"/>
<path d="M12.359 14.5499L7.69238 11.2999" stroke="black" stroke-width="1.5" stroke-linecap="round" stroke-linejoin="round"/>
</svg>
