<svg width="18" height="18" viewBox="0 0 18 18" fill="none" xmlns="http://www.w3.org/2000/svg">
<path d="M16.16 5.24994H13.6922C13.5915 5.24994 13.4926 5.27725 13.4062 5.32896C13.3197 5.38068 13.2489 5.45486 13.2013 5.54361C13.2013 5.54361 12.217 7.35631 11.9009 7.96686C11.0503 9.60932 10.4995 9.09369 10.4995 8.33141V5.70307C10.4995 5.48344 10.4123 5.2728 10.257 5.11749C10.1017 4.96219 9.89103 4.87494 9.6714 4.87494H7.8159C7.56321 4.85615 7.30992 4.90228 7.08007 5.00893C6.85022 5.11558 6.65146 5.27923 6.50265 5.48432C6.50265 5.48432 7.44485 5.33198 7.44485 6.6015C7.44485 6.91631 7.46106 7.82192 7.47584 8.5815C7.47862 8.69343 7.44699 8.80353 7.38523 8.89691C7.32346 8.9903 7.23452 9.06249 7.13042 9.10373C7.02633 9.14496 6.91209 9.15327 6.80312 9.12752C6.69415 9.10177 6.59571 9.04321 6.52109 8.95973C5.7616 7.90342 5.13249 6.75924 4.64744 5.55204C4.60578 5.46174 4.53909 5.38527 4.45529 5.33173C4.37148 5.27818 4.27408 5.2498 4.17463 5.24994C3.63943 5.24994 2.56844 5.24994 1.93242 5.24994C1.87075 5.24952 1.80989 5.26408 1.75508 5.29237C1.70028 5.32066 1.65316 5.36183 1.61777 5.41234C1.58238 5.46286 1.55979 5.52121 1.55193 5.58239C1.54407 5.64356 1.55119 5.70573 1.57265 5.76355C2.2535 7.63109 5.18635 13.4999 8.53391 13.4999H9.94289C10.0905 13.4999 10.2321 13.4413 10.3365 13.3369C10.4409 13.2325 10.4995 13.0909 10.4995 12.9433V12.0925C10.4995 11.9858 10.5308 11.8814 10.5894 11.7922C10.648 11.703 10.7314 11.6329 10.8293 11.5905C10.9273 11.5481 11.0355 11.5353 11.1407 11.5537C11.2458 11.5721 11.3433 11.6208 11.421 11.6939L13.1075 13.2784C13.259 13.4207 13.459 13.4999 13.6668 13.4999H15.8814C16.9495 13.4999 16.9495 12.7588 16.3671 12.1852C15.9573 11.7816 14.4784 10.2228 14.4784 10.2228C14.3518 10.0916 14.2762 9.91938 14.2654 9.73735C14.2547 9.55531 14.3094 9.37542 14.4196 9.23019C14.8977 8.60112 15.6795 7.57138 16.0111 7.13024C16.4644 6.52729 17.2847 5.24994 16.16 5.24994Z" fill="#151A25"/>
</svg>
