<svg width="18" height="18" viewBox="0 0 18 18" fill="none" xmlns="http://www.w3.org/2000/svg">
<path d="M16.3555 5.85375C16.3114 5.36227 16.0957 4.902 15.7461 4.55377C15.3964 4.20553 14.9353 3.99157 14.4437 3.94946C13.268 3.8519 11.5253 3.75 9.37509 3.75C6.78571 3.75 4.8311 3.85579 3.56744 3.95499C3.07348 3.99467 2.60948 4.2078 2.25753 4.55667C1.90559 4.90554 1.68839 5.36766 1.64438 5.86125C1.56702 6.67516 1.5 7.75008 1.5 9.03173C1.5 10.2815 1.56646 11.3374 1.64346 12.1412C1.68792 12.6343 1.9053 13.0959 2.25717 13.4443C2.60905 13.7927 3.07276 14.0054 3.56634 14.0449C4.82996 14.1441 6.78493 14.25 9.37509 14.25C11.5253 14.25 13.268 14.1481 14.4437 14.0505C14.9353 14.0084 15.3964 13.7945 15.7461 13.4462C16.0957 13.098 16.3114 12.6377 16.3555 12.1463C16.4329 11.3366 16.5 10.2689 16.5 9C16.5 7.73108 16.4329 6.66339 16.3555 5.85375ZM7.33196 11.2041V6.79592L11.6805 9L7.33196 11.2041Z" fill="#151A25"/>
</svg>
