<svg width="66" height="66" viewBox="0 0 66 66" fill="none" xmlns="http://www.w3.org/2000/svg">
<path d="M32.9957 52.866C39.1907 52.866 44.1957 47.796 44.1957 41.666C44.1957 35.47 39.1067 30.475 32.9957 30.475C26.9047 30.475 21.7937 35.402 21.8047 41.666C21.8037 47.857 26.8777 52.866 32.9957 52.866ZM42.1957 41.666C42.1957 44.297 41.0797 46.667 39.3027 48.346C38.8547 47.718 38.4817 47.052 38.1757 46.361L38.2317 46.33C38.7147 46.063 38.8907 45.455 38.6237 44.971C38.4047 44.573 37.9567 44.4 37.5337 44.495C37.3817 43.888 37.2747 43.271 37.2227 42.65C37.7277 42.599 38.1257 42.187 38.1257 41.67C38.1257 41.153 37.7277 40.741 37.2227 40.69C37.2877 39.914 37.4397 39.147 37.6597 38.396C37.6957 38.4 37.7317 38.409 37.7667 38.409C38.1197 38.409 38.4607 38.222 38.6427 37.892C38.8897 37.447 38.7467 36.907 38.3457 36.614C38.6187 36.054 38.9337 35.51 39.3027 34.993C41.0797 36.67 42.1957 39.037 42.1957 41.666ZM37.7087 33.786C37.2827 34.373 36.9157 34.987 36.5957 35.618L36.5587 35.597C36.0747 35.33 35.4657 35.506 35.2007 35.989C34.9327 36.472 35.1087 37.081 35.5927 37.348L35.8227 37.475C35.4777 38.518 35.2587 39.59 35.1777 40.672C34.6327 40.681 34.1927 41.122 34.1927 41.669C34.1927 42.216 34.6327 42.657 35.1777 42.666C35.2477 43.605 35.4217 44.537 35.6917 45.449L35.5737 45.514C35.0907 45.781 34.9147 46.389 35.1817 46.873C35.3637 47.203 35.7047 47.39 36.0577 47.39C36.1697 47.39 36.2827 47.363 36.3927 47.324C36.7537 48.096 37.1937 48.842 37.7107 49.553C36.3307 50.381 34.7217 50.866 32.9977 50.866C31.2747 50.866 29.6667 50.38 28.2867 49.551C28.7377 48.929 29.1247 48.279 29.4577 47.61C29.5347 47.629 29.6137 47.639 29.6907 47.639C30.0437 47.639 30.3847 47.452 30.5667 47.122C30.8287 46.648 30.6607 46.058 30.1987 45.783C30.5287 44.765 30.7397 43.721 30.8187 42.666C31.3637 42.657 31.8037 42.216 31.8037 41.669C31.8037 41.122 31.3637 40.681 30.8187 40.672C30.7327 39.518 30.4947 38.374 30.1077 37.266L30.1517 37.242C30.6347 36.975 30.8107 36.367 30.5437 35.883C30.3007 35.44 29.7717 35.273 29.3117 35.451C29.0107 34.878 28.6737 34.319 28.2837 33.782C29.6957 32.935 31.3097 32.473 32.9987 32.473C34.7197 32.474 36.3277 32.959 37.7087 33.786ZM26.4867 35.173C26.5507 35.109 26.6217 35.053 26.6867 34.991C27.0087 35.442 27.2857 35.916 27.5347 36.401L27.4887 36.427C27.0057 36.694 26.8297 37.302 27.0967 37.786C27.2787 38.116 27.6197 38.303 27.9727 38.303C28.0777 38.303 28.1827 38.28 28.2857 38.246C28.5317 39.044 28.6997 39.863 28.7697 40.69C28.2647 40.741 27.8667 41.153 27.8667 41.67C27.8667 42.188 28.2647 42.599 28.7697 42.65C28.7087 43.374 28.5757 44.093 28.3787 44.796C27.9127 44.601 27.3697 44.769 27.1217 45.22C26.8537 45.703 27.0297 46.312 27.5137 46.579L27.6757 46.669C27.3977 47.248 27.0717 47.81 26.6917 48.343C24.9187 46.665 23.8047 44.295 23.8047 41.664C23.7997 39.215 24.7537 36.91 26.4867 35.173Z" fill="#E85323"/>
<path d="M55.4598 25.657C50.6138 23.415 47.4828 18.502 47.4828 13.142V2C47.4828 1.448 47.0358 1 46.4828 1H39.6548C39.6538 1 39.6528 1.001 39.6518 1.001C39.2488 1.003 38.8838 1.253 38.7318 1.617L38.7308 1.619C37.5068 4.58 35.3128 6.419 33.0018 6.419C30.6938 6.419 28.4938 4.579 27.2598 1.616C27.2598 1.616 27.2598 1.615 27.2588 1.615C27.1068 1.25 26.7328 1.001 26.3388 1H26.3378H19.5218C18.9688 1 18.5218 1.448 18.5218 2V13.143C18.5218 18.497 15.3908 23.41 10.5438 25.658C10.1898 25.822 9.96484 26.176 9.96484 26.565V64C9.96484 64.552 10.4118 65 10.9648 65H55.0398C55.5928 65 56.0398 64.552 56.0398 64V26.565C56.0398 26.175 55.8128 25.821 55.4598 25.657ZM33.0018 8.418C35.0238 8.418 36.9428 7.445 38.4678 5.764C37.7868 12.749 35.2868 17.361 33.0018 17.361C30.7108 17.361 28.2038 12.743 27.5218 5.749C29.0538 7.44 30.9778 8.418 33.0018 8.418ZM20.5208 13.143V3H25.3488C25.5628 12.396 28.7808 19.361 33.0018 19.361C37.2158 19.361 40.4298 12.395 40.6428 3H45.4828V13.143C45.4828 15.381 45.9608 17.55 46.8368 19.528V62.996H19.1588V19.542C20.0388 17.559 20.5208 15.385 20.5208 13.143ZM11.9638 27.189C14.0188 26.131 15.7758 24.641 17.1578 22.868V63H11.9638V27.189ZM54.0398 63H48.8368V22.86C50.2208 24.638 51.9808 26.131 54.0398 27.189V63Z" fill="#E85323"/>
</svg>
