<svg width="66" height="66" viewBox="0 0 66 66" fill="none" xmlns="http://www.w3.org/2000/svg">
<path d="M44.0421 25.806V20.31L53.8411 2.481C54.0111 2.171 54.0051 1.795 53.8251 1.49C53.6451 1.187 53.3181 1 52.9651 1H42.9191C42.5541 1 42.2181 1.199 42.0431 1.519L32.9971 17.978L23.9521 1.519C23.7761 1.199 23.4401 1 23.0751 1H13.0301C12.6761 1 12.3491 1.187 12.1691 1.491C11.9891 1.796 11.9831 2.172 12.1531 2.482L21.9521 20.311V25.805C15.8921 29.533 11.8281 36.208 11.8281 43.831C11.8291 55.503 21.3231 65 32.9941 65C44.6691 65 54.1681 55.503 54.1681 43.831C54.1671 36.208 50.1041 29.535 44.0421 25.806ZM43.5111 3H51.2741L42.4511 19.054H34.6881L43.5111 3ZM22.4841 3L31.3071 19.054H23.5441L14.7211 3H22.4841ZM23.9521 21.054C30.2791 21.054 35.7151 21.054 42.0421 21.054V24.721C39.2941 23.415 36.2331 22.662 32.9931 22.662C29.7561 22.662 26.6981 23.414 23.9511 24.72V21.054H23.9521ZM32.9941 63C22.4261 63 13.8291 54.4 13.8291 43.831C13.8291 33.262 22.4261 24.662 32.9941 24.662C43.5661 24.662 52.1681 33.262 52.1681 43.831C52.1681 54.4 43.5661 63 32.9941 63Z" fill="#E85323"/>
<path d="M32.9931 27.661C24.0791 27.661 16.8281 34.914 16.8281 43.83C16.8281 52.746 24.0791 60 32.9931 60C41.9111 60 49.1671 52.747 49.1671 43.831C49.1671 34.915 41.9111 27.661 32.9931 27.661ZM33.9931 29.711C37.4571 29.955 40.5821 31.437 42.9181 33.731C40.5221 36.101 37.3571 37.535 33.9931 37.773V29.711ZM31.9931 37.773C28.6321 37.533 25.4701 36.1 23.0751 33.731C25.4091 31.437 28.5321 29.955 31.9931 29.712V37.773ZM31.9931 39.773V42.83H18.8781C19.0781 39.985 20.1181 37.375 21.7551 35.238C24.5131 37.924 28.1441 39.532 31.9931 39.773ZM31.9931 44.83V47.88C28.1491 48.121 24.5191 49.732 21.7571 52.424C20.1191 50.286 19.0791 47.675 18.8791 44.83H31.9931ZM31.9931 49.88V57.948C28.5321 57.704 25.4101 56.223 23.0761 53.93C25.4741 51.557 28.6361 50.121 31.9931 49.88ZM33.9931 49.88C37.3521 50.119 40.5161 51.556 42.9161 53.93C40.5811 56.223 37.4561 57.705 33.9931 57.948V49.88ZM33.9931 47.88V44.83H47.1161C46.9161 47.675 45.8751 50.286 44.2361 52.424C41.4721 49.731 37.8401 48.12 33.9931 47.88ZM33.9931 42.83V39.773C37.8441 39.534 41.4771 37.925 44.2371 35.237C45.8751 37.375 46.9161 39.985 47.1161 42.829H33.9931V42.83Z" fill="#E85323"/>
</svg>
