<svg width="66" height="66" viewBox="0 0 66 66" fill="none" xmlns="http://www.w3.org/2000/svg">
<path d="M41.077 1C27.893 1 17.168 11.726 17.168 24.91C17.168 38.123 27.853 48.831 41.077 48.831C54.267 48.831 64.999 38.1 64.999 24.91C64.999 11.726 54.267 1 41.077 1ZM24.169 38.94C21.101 35.252 19.364 30.708 19.154 25.885H31.988C32.109 28.428 32.686 30.863 33.567 33.151C30.052 34.316 26.823 36.288 24.169 38.94ZM33.563 16.69C32.686 18.973 32.111 21.402 31.989 23.94H19.132C19.348 18.995 21.204 14.469 24.172 10.895C26.822 13.549 30.049 15.523 33.563 16.69ZM33.93 23.94C34.053 21.597 34.602 19.346 35.432 17.223C37.267 17.671 39.16 17.911 41.077 17.911C52.597 17.911 56.811 13.622 58.265 11.237C61.073 14.756 62.826 19.15 63.035 23.94H33.93ZM33.929 25.885H63.035C62.824 30.677 61.071 35.072 58.263 38.592C56.807 36.21 52.592 31.932 41.077 31.932C39.161 31.932 37.27 32.171 35.436 32.618C34.602 30.491 34.051 28.234 33.929 25.885ZM56.907 9.689C56.178 11.23 52.966 15.971 41.077 15.971C39.428 15.971 37.798 15.778 36.214 15.417C38.677 10.263 42.582 6.027 45.441 3.376C49.899 4.277 53.867 6.532 56.907 9.689ZM41.077 2.939C41.725 2.939 42.365 2.973 43 3.028C40.112 5.868 36.604 9.982 34.32 14.901C31.004 13.826 27.963 11.966 25.478 9.456C29.462 5.435 34.983 2.939 41.077 2.939ZM25.475 40.38C27.963 37.871 31.008 36.013 34.325 34.939C36.61 39.853 40.118 43.964 43.005 46.802C42.369 46.858 41.727 46.892 41.077 46.892C35.264 46.892 29.701 44.648 25.475 40.38ZM45.447 46.454C42.59 43.805 38.685 39.572 36.22 34.424C37.803 34.064 39.43 33.872 41.077 33.872C52.838 33.872 56.135 38.604 56.898 40.148C53.861 43.3 49.897 45.553 45.447 46.454Z" fill="#E85323"/>
<path d="M31.208 49.233L20.585 59.856C20.206 60.235 20.206 60.848 20.585 61.227C20.964 61.606 21.577 61.606 21.956 61.227L32.579 50.604C32.958 50.225 32.958 49.612 32.579 49.233C32.2 48.854 31.586 48.854 31.208 49.233Z" fill="#E85323"/>
<path d="M25.0648 48.844C24.6858 48.465 24.0728 48.465 23.6938 48.844L10.4678 62.07C10.0888 62.449 10.0888 63.062 10.4678 63.441C10.8468 63.82 11.4598 63.82 11.8388 63.441L25.0638 50.215C25.4438 49.836 25.4438 49.223 25.0648 48.844Z" fill="#E85323"/>
<path d="M3.93259 55.537L17.1576 42.311C17.5366 41.932 17.5366 41.319 17.1576 40.94C16.7786 40.561 16.1656 40.561 15.7866 40.94L2.56159 54.166C2.18259 54.545 2.18259 55.158 2.56159 55.537C2.94059 55.916 3.55459 55.916 3.93259 55.537Z" fill="#E85323"/>
<path d="M6.14744 45.42L16.7704 34.796C17.1494 34.417 17.1494 33.804 16.7704 33.425C16.3914 33.046 15.7784 33.046 15.3994 33.425L4.77644 44.048C4.39744 44.427 4.39744 45.04 4.77644 45.419C5.15544 45.798 5.76844 45.798 6.14744 45.42Z" fill="#E85323"/>
<path d="M15.8852 50.119C15.5062 49.74 14.8932 49.74 14.5142 50.119L1.28816 63.345C0.909156 63.724 0.909156 64.337 1.28816 64.716C1.66716 65.095 2.28016 65.095 2.65916 64.716L15.8852 51.49C16.2642 51.111 16.2642 50.498 15.8852 50.119Z" fill="#E85323"/>
</svg>
