<svg width="66" height="66" viewBox="0 0 66 66" fill="none" xmlns="http://www.w3.org/2000/svg">
<path d="M41.4836 51.754H24.5156C23.9626 51.754 23.5156 52.202 23.5156 52.754V59.658C23.5156 60.21 23.9626 60.658 24.5156 60.658H41.4846C42.0376 60.658 42.4846 60.21 42.4846 59.658V52.754C42.4836 52.202 42.0366 51.754 41.4836 51.754ZM40.4836 58.658H25.5156V53.754H40.4846V58.658H40.4836Z" fill="#E85323"/>
<path d="M49.2289 63H46.8279V48.412C46.8279 47.86 46.3809 47.412 45.8279 47.412H39.2109V41.604C45.9379 39.064 50.6649 32.56 50.6649 25.085C50.6649 15.327 42.6359 7.42499 32.9959 7.42499C23.2769 7.42499 15.3359 15.394 15.3359 25.085C15.3359 32.594 20.0959 39.08 26.7899 41.606V47.412H20.1749C19.6219 47.412 19.1749 47.86 19.1749 48.412V63H16.7739C16.2209 63 15.7739 63.448 15.7739 64C15.7739 64.552 16.2209 65 16.7739 65C28.8909 65 37.1079 65 49.2289 65C49.7819 65 50.2289 64.552 50.2289 64C50.2289 63.448 49.7809 63 49.2289 63ZM36.0639 40.449C33.1829 39.272 30.9769 36.281 29.8139 32.222C34.9779 31.146 40.2119 32.76 43.8909 36.322C41.7699 38.381 39.0739 39.848 36.0639 40.449ZM22.1079 36.324C23.7649 34.719 25.7409 33.506 27.8949 32.762C28.8779 36.171 30.5499 38.944 32.7239 40.741C28.6029 40.669 24.8679 39.001 22.1079 36.324ZM17.3869 26.085H26.9169C26.9599 27.736 27.1349 29.315 27.4309 30.801C24.9499 31.627 22.6729 33.009 20.7659 34.843C18.8199 32.409 17.5959 29.385 17.3869 26.085ZM20.7619 15.336C22.6899 17.195 24.9969 18.595 27.5139 19.419C27.1899 20.96 26.9909 22.536 26.9249 24.086H17.3869C17.5959 20.789 18.8199 17.768 20.7619 15.336ZM43.8939 13.857C40.3139 17.334 35.1559 19.041 29.9109 17.982C31.0049 14.233 33.0179 11.031 36.0689 9.73199C39.0779 10.332 41.7729 11.8 43.8939 13.857ZM48.6139 24.085H28.9279C28.9899 22.7 29.1599 21.297 29.4369 19.928C35.3459 21.15 41.1849 19.243 45.2379 15.337C47.1809 17.77 48.4049 20.79 48.6139 24.085ZM45.2349 34.842C41.1179 30.885 35.2219 29.032 29.3559 30.273C29.1049 28.956 28.9559 27.554 28.9159 26.086H48.6149C48.4049 29.384 47.1799 32.408 45.2349 34.842ZM27.9979 17.466C25.8019 16.724 23.7889 15.491 22.1059 13.855C24.8819 11.163 28.6439 9.48799 32.7939 9.43499C30.5239 11.343 28.9439 14.242 27.9979 17.466ZM28.7899 42.227C30.1409 42.559 31.5439 42.755 32.9959 42.755C34.3989 42.755 35.9279 42.541 37.2109 42.226V47.413H28.7899V42.227ZM21.1749 63V49.412C30.1079 49.412 36.9599 49.412 44.8269 49.412V63H21.1749Z" fill="#E85323"/>
<path d="M56.0915 24.085H53.2695C52.7165 24.085 52.2695 24.533 52.2695 25.085C52.2695 25.637 52.7165 26.085 53.2695 26.085H56.0915C56.6445 26.085 57.0915 25.637 57.0915 25.085C57.0915 24.533 56.6445 24.085 56.0915 24.085Z" fill="#E85323"/>
<path d="M51.0515 15.818L53.4955 14.407C53.9745 14.131 54.1385 13.519 53.8615 13.041C53.5855 12.562 52.9715 12.398 52.4955 12.675L50.0515 14.086C49.5725 14.362 49.4085 14.974 49.6855 15.452C49.9635 15.933 50.5765 16.093 51.0515 15.818Z" fill="#E85323"/>
<path d="M42.6296 8.40101C43.1046 8.67501 43.7176 8.51501 43.9956 8.03501L45.4066 5.59101C45.6826 5.11301 45.5186 4.50101 45.0406 4.22501C44.5626 3.95001 43.9506 4.11301 43.6746 4.59101L42.2636 7.03501C41.9866 7.51301 42.1506 8.12501 42.6296 8.40101Z" fill="#E85323"/>
<path d="M32.9961 5.822C33.5491 5.822 33.9961 5.374 33.9961 4.822V2C33.9961 1.448 33.5491 1 32.9961 1C32.4431 1 31.9961 1.448 31.9961 2V4.822C31.9961 5.375 32.4431 5.822 32.9961 5.822Z" fill="#E85323"/>
<path d="M21.9949 8.04C22.2729 8.521 22.8859 8.681 23.3609 8.406C23.8399 8.13 24.0039 7.518 23.7269 7.04L22.3159 4.596C22.0389 4.117 21.4249 3.954 20.9499 4.23C20.4709 4.506 20.3069 5.118 20.5839 5.596L21.9949 8.04Z" fill="#E85323"/>
<path d="M12.5002 14.415L14.9442 15.826C15.4192 16.1 16.0322 15.94 16.3102 15.46C16.5862 14.981 16.4222 14.37 15.9442 14.094L13.5002 12.683C13.0222 12.407 12.4102 12.571 12.1342 13.049C11.8582 13.527 12.0212 14.139 12.5002 14.415Z" fill="#E85323"/>
<path d="M13.7322 25.094C13.7322 24.542 13.2852 24.094 12.7322 24.094H9.91016C9.35716 24.094 8.91016 24.542 8.91016 25.094C8.91016 25.646 9.35716 26.094 9.91016 26.094H12.7322C13.2852 26.094 13.7322 25.646 13.7322 25.094Z" fill="#E85323"/>
<path d="M16.3146 34.728C16.0376 34.249 15.4246 34.086 14.9486 34.362L12.5046 35.773C12.0256 36.049 11.8616 36.661 12.1386 37.139C12.4166 37.62 13.0296 37.78 13.5046 37.505L15.9486 36.094C16.4276 35.817 16.5916 35.206 16.3146 34.728Z" fill="#E85323"/>
<path d="M22.327 45.589L23.738 43.145C24.014 42.666 23.85 42.055 23.372 41.779C22.894 41.503 22.282 41.667 22.006 42.145L20.595 44.589C20.319 45.068 20.483 45.679 20.961 45.955C21.436 46.229 22.049 46.069 22.327 45.589Z" fill="#E85323"/>
<path d="M44.0034 42.14C43.7264 41.661 43.1134 41.498 42.6374 41.774C42.1584 42.05 41.9944 42.662 42.2714 43.14L43.6824 45.584C43.9604 46.065 44.5734 46.225 45.0484 45.95C45.5274 45.674 45.6914 45.062 45.4144 44.584L44.0034 42.14Z" fill="#E85323"/>
<path d="M53.4987 35.765L51.0547 34.354C50.5757 34.077 49.9647 34.242 49.6887 34.72C49.4127 35.198 49.5767 35.81 50.0547 36.086L52.4987 37.497C52.9737 37.771 53.5867 37.611 53.8647 37.131C54.1417 36.652 53.9777 36.041 53.4987 35.765Z" fill="#E85323"/>
</svg>
