<?xml version="1.0" encoding="UTF-8"?>
<!DOCTYPE svg PUBLIC "-//W3C//DTD SVG 1.1//EN" "http://www.w3.org/Graphics/SVG/1.1/DTD/svg11.dtd">
<!-- Creator: CorelDRAW 2021 (64-Bit Оценочная версия) -->
<svg xmlns="http://www.w3.org/2000/svg" xml:space="preserve" width="68mm" height="56.5mm" version="1.1" style="shape-rendering:geometricPrecision; text-rendering:geometricPrecision; image-rendering:optimizeQuality; fill-rule:evenodd; clip-rule:evenodd"
viewBox="0 0 6800 5650"
 xmlns:xlink="http://www.w3.org/1999/xlink"
 xmlns:xodm="http://www.corel.com/coreldraw/odm/2003">
 <defs>
  <style type="text/css">
   <![CDATA[
    .fil2 {fill:#ED6D44;fill-rule:nonzero}
    .fil0 {fill:#EB5F33;fill-rule:nonzero}
    .fil1 {fill:#747F86;fill-rule:nonzero}
   ]]>
  </style>
 </defs>
 <g id="Слой_x0020_1">
  <metadata id="CorelCorpID_0Corel-Layer"/>
  <path class="fil0" d="M451.53 998.32l0 206.2 26.31 0 0 -94.53 8.57 0c34.87,0 48.03,18.66 57.51,45.89 5.51,16.21 11.32,34.57 18.66,48.64l28.76 0c-9.18,-18.36 -14.99,-37.32 -22.64,-58.43 -10.71,-27.84 -23.86,-48.65 -57.82,-53.23l78.01 -94.54 -32.12 0 -70.67 91.48 -8.26 0 0 -91.48 -26.31 0zm203.45 0l0 86.89c0,33.04 -1.53,73.11 -18.05,89.33 -4.9,4.59 -13.46,9.48 -21.72,11.01l3.36 21.42c11.93,0 23.87,-4.9 31.51,-9.79 29.07,-19.58 30.9,-69.45 30.9,-114.11l0 -62.41 68.23 0 0 183.86 26.92 0 0 -206.2 -121.15 0zm167.34 0l0 206.2 28.45 0 64.55 -102.49c14.08,-22.94 28.15,-46.8 38.24,-69.44l0.92 0.3c-2.14,26.01 -2.45,50.48 -2.45,83.83l0 87.8 25.09 0 0 -206.2 -26.61 0 -66.7 106.16c-14.99,24.48 -27.84,46.81 -38.24,68.22l-0.61 -0.3c1.84,-27.54 2.45,-54.46 2.45,-87.19l0 -86.89 -25.09 0zm308.07 87.5l-80.15 0 0 -65.16 84.74 0 0 -22.34 -111.36 0 0 206.2 115.95 0 0 -22.33 -89.33 0 0 -74.34 80.15 0 0 -22.03zm43.75 -87.5l0 206.2 26.62 0 0 -96.67 99.73 0 0 96.67 26.92 0 0 -206.2 -26.92 0 0 86.28 -99.73 0 0 -86.28 -26.62 0zm238.63 206.2l26.92 0 0 -183.56 63.02 0 0 -22.64 -152.66 0 0 22.64 62.72 0 0 183.56zm112.89 -206.2l0 205.59c8.87,1.22 22.95,2.45 41.3,2.45 27.84,0 56.6,-6.43 73.42,-24.17 9.79,-10.71 15.91,-24.78 15.91,-43.75 0,-45.89 -37.01,-64.55 -79.54,-64.55 -6.73,0 -18.35,0.61 -24.47,1.53l0 -77.1 -26.62 0zm26.62 98.21c3.36,-0.62 11.32,-1.53 21.11,-1.53 27.53,0 55.06,12.23 55.06,44.36 0,31.2 -25.39,46.19 -54.76,46.19 -9.18,0 -15.91,-0.3 -21.41,-1.53l0 -87.49zm126.96 -98.21l0 206.2 26.92 0 0 -206.2 -26.92 0z"/>
  <path class="fil0" d="M262.45 2856.99l0 18.36c-39.77,2.45 -87.5,26.61 -87.5,94.23 0,65.16 43.75,88.1 86.89,90.86l0 19.27 25.7 0 0 -19.27c43.74,-2.45 87.19,-27.23 87.19,-92.09 0,-64.86 -43.45,-91.17 -86.89,-93l0 -18.36 -25.39 0zm-0.31 184.48c-30.28,-3.06 -59.65,-23.86 -59.65,-73.12 0,-53.54 32.73,-72.2 59.65,-73.73l0 146.85zm25.4 -146.85c29.67,1.53 59.65,20.5 59.65,73.43 0,51.09 -29.98,70.97 -59.65,73.42l0 -146.85zm121.45 -29.37l0 206.2 28.45 0 64.55 -102.49c14.08,-22.94 28.15,-46.8 38.24,-69.44l0.92 0.3c-2.14,26.01 -2.45,50.48 -2.45,83.83l0 87.8 25.09 0 0 -206.2 -26.61 0 -66.7 106.16c-14.99,24.48 -27.84,46.81 -38.24,68.22l-0.61 -0.3c1.84,-27.54 2.45,-54.46 2.45,-87.19l0 -86.89 -25.09 0zm200.69 31.82c11.01,-7.04 27.23,-13.46 42.83,-13.46 22.33,0 37.02,11.62 37.02,32.43 0,21.11 -21.11,37.93 -48.34,37.93l-12.24 0 0 20.19 12.24 0c26.31,0 55.98,8.88 55.98,39.78 0,22.63 -16.82,39.15 -47.41,39.15 -16.83,0 -35.19,-6.11 -46.2,-12.54l-7.04 20.8c15.61,9.49 35.19,13.47 53.85,13.47 37.63,0 74.64,-17.14 74.64,-59.97 0,-29.67 -21.1,-48.64 -50.17,-51.7l0 -0.61c24.17,-5.51 42.53,-24.78 42.53,-50.17 0,-31.82 -24.78,-50.48 -60.58,-50.48 -22.33,0 -40.38,6.42 -54.45,15.6l7.34 19.58zm151.13 -31.82l0 206.2 28.45 0 64.55 -102.49c14.08,-22.94 28.15,-46.8 38.24,-69.44l0.92 0.3c-2.14,26.01 -2.45,50.48 -2.45,83.83l0 87.8 25.09 0 0 -206.2 -26.61 0 -66.7 106.16c-14.99,24.48 -27.84,46.81 -38.24,68.22l-0.61 -0.3c1.84,-27.54 2.45,-54.46 2.45,-87.19l0 -86.89 -25.09 0zm194.88 0l0 69.45c0,50.48 33.65,62.1 60.88,62.1 18.05,0 35.18,-4.59 49.56,-12.85l0.61 0 0 87.5 26.93 0 0 -206.2 -26.93 0 0 97.9c-10.7,6.73 -26.31,11.63 -40.69,11.63 -29.06,0 -43.74,-15.91 -43.74,-44.06l0 -65.47 -26.62 0zm290.94 87.5l-80.15 0 0 -65.16 84.74 0 0 -22.34 -111.36 0 0 206.2 115.95 0 0 -22.33 -89.33 0 0 -74.34 80.15 0 0 -22.03zm182.34 90.86c-10.71,5.2 -27.23,8.57 -43.45,8.57 -50.17,0 -79.23,-32.43 -79.23,-82.91 0,-54.15 32.12,-85.05 80.46,-85.05 17.13,0 31.51,3.67 41.61,8.57l6.42 -21.72c-7.04,-3.68 -23.25,-9.18 -48.95,-9.18 -63.94,0 -107.69,43.75 -107.69,108.3 0,67.61 43.75,104.32 101.88,104.32 25.08,0 44.66,-4.9 54.45,-9.79l-5.5 -21.11zm38.85 -178.36l0 206.2 26.31 0 0 -94.53 8.57 0c34.87,0 48.03,18.66 57.51,45.89 5.51,16.21 11.32,34.57 18.66,48.64l28.76 0c-9.18,-18.36 -14.99,-37.32 -22.64,-58.43 -10.71,-27.84 -23.86,-48.65 -57.82,-53.23l78.01 -94.54 -32.12 0 -70.67 91.48 -8.26 0 0 -91.48 -26.31 0zm165.81 0l0 206.2 28.45 0 64.55 -102.49c14.08,-22.94 28.15,-46.8 38.24,-69.44l0.92 0.3c-2.14,26.01 -2.45,50.48 -2.45,83.83l0 87.8 25.09 0 0 -206.2 -26.61 0 -66.7 106.16c-14.99,24.48 -27.84,46.81 -38.24,68.22l-0.61 -0.3c1.84,-27.54 2.45,-54.46 2.45,-87.19l0 -86.89 -25.09 0zm308.07 87.5l-80.15 0 0 -65.16 84.74 0 0 -22.34 -111.36 0 0 206.2 115.95 0 0 -22.33 -89.33 0 0 -74.34 80.15 0 0 -22.03z"/>
  <path class="fil0" d="M716.79 3258.7l0 86.89c0,33.04 -1.53,73.11 -18.05,89.33 -4.9,4.59 -13.46,9.48 -21.72,11.01l3.36 21.42c11.93,0 23.87,-4.9 31.51,-9.79 29.07,-19.58 30.9,-69.45 30.9,-114.11l0 -62.41 68.23 0 0 183.86 26.92 0 0 -206.2 -121.15 0zm167.34 0l0 206.2 28.45 0 64.55 -102.49c14.08,-22.94 28.15,-46.8 38.24,-69.44l0.92 0.3c-2.14,26.01 -2.45,50.48 -2.45,83.83l0 87.8 25.09 0 0 -206.2 -26.61 0 -66.7 106.16c-14.99,24.48 -27.84,46.81 -38.24,68.22l-0.61 -0.3c1.84,-27.54 2.45,-54.46 2.45,-87.19l0 -86.89 -25.09 0zm201.3 0l0 206.2 141.34 0 1.84 49.56 21.11 0 1.83 -70.67 -18.05 -0.61 0 -184.48 -26.92 0 0 183.87 -94.53 0 0 -183.87 -26.62 0zm306.84 141.34l22.03 64.86 28.45 0 -70.36 -206.2 -32.12 0 -70.06 206.2 27.53 0 21.42 -64.86 73.11 0zm-67.61 -20.8l20.2 -59.66c3.97,-12.54 7.34,-25.08 10.4,-37.32l0.61 0c3.06,11.93 6.12,24.17 10.71,37.63l20.19 59.35 -62.11 0z"/>
  <path class="fil1" d="M1064.6 1752.42c-133.92,0 -196.28,76.03 -196.28,239.27 0,191.16 88.04,346.69 196.28,346.69 108.24,0 196.3,-155.53 196.3,-346.69 0,-163.24 -62.37,-239.27 -196.3,-239.27zm0 623.09c-128.71,0 -233.46,-172.19 -233.46,-383.82 0,-183.44 78.56,-276.42 233.46,-276.42 154.9,0 233.45,92.98 233.45,276.42 0,211.63 -104.73,383.82 -233.45,383.82z"/>
  <path class="fil1" d="M1300 2171.75c-5.37,0 -10.77,-0.55 -16.15,-1.64 -10.05,-2.08 -16.52,-11.91 -14.44,-21.95 2.05,-10.07 11.88,-16.54 21.94,-14.46 10.99,2.25 22.29,0.11 31.71,-6.1 9.4,-6.18 15.82,-15.67 18.09,-26.7 2.27,-11.06 0.11,-22.34 -6.1,-31.74 -6.18,-9.41 -15.69,-15.84 -26.72,-18.09l-27.19 -4.64c-10.12,-1.72 -16.91,-11.31 -15.18,-21.43 1.72,-10.12 11.27,-16.76 21.41,-15.19l27.82 4.74c21.37,4.37 39.23,16.48 50.9,34.16 11.67,17.72 15.73,38.88 11.45,59.66 -4.27,20.76 -16.35,38.59 -34.05,50.26 -13.11,8.64 -28.15,13.12 -43.49,13.12z"/>
  <path class="fil1" d="M829.21 2171.75c-15.37,0 -30.38,-4.46 -43.49,-13.12 -17.7,-11.67 -29.81,-29.5 -34.07,-50.26 -4.26,-20.78 -0.2,-41.94 11.47,-59.66 11.65,-17.68 29.5,-29.79 50.27,-34.05l28.42 -4.85c10.13,-1.57 19.72,5.07 21.44,15.19 1.73,10.12 -5.09,19.71 -15.2,21.43l-27.81 4.72c-10.42,2.17 -19.9,8.6 -26.11,18.01 -6.2,9.4 -8.37,20.68 -6.09,31.74 2.26,11.03 8.69,20.5 18.11,26.7 9.4,6.21 20.7,8.35 31.71,6.1 10.06,-2.01 19.89,4.42 21.94,14.46 2.08,10.04 -4.39,19.87 -14.44,21.95 -5.38,1.09 -10.78,1.64 -16.15,1.64z"/>
  <path class="fil1" d="M1185.36 1958.1c-136.55,0 -239.87,-58.85 -245.12,-61.91 -8.87,-5.14 -11.89,-16.51 -6.75,-25.38 5.12,-8.85 16.48,-11.88 25.37,-6.77 1.47,0.83 147.01,83.28 313.25,47.9 10.01,-2.19 19.89,4.26 22.06,14.29 2.12,10.04 -4.29,19.89 -14.32,22.03 -32.63,6.95 -64.38,9.84 -94.49,9.84z"/>
  <path class="fil1" d="M1073.77 2578.09c-73.93,0 -143.86,-37.57 -165.52,-90.17 -3.89,-9.48 0.63,-20.35 10.12,-24.24 9.53,-3.89 20.32,0.62 24.26,10.12 16.45,39.97 79.33,70.07 140.25,66.9 31.36,-1.6 86.7,-13.55 105.21,-75.82 2.92,-9.83 13.29,-15.51 23.1,-12.5 9.83,2.93 15.45,13.25 12.52,23.1 -18.29,61.46 -68.91,98.76 -138.93,102.32 -3.69,0.18 -7.36,0.29 -11.01,0.29z"/>
  <path class="fil1" d="M856.34 1998.67c-3.36,0 -6.8,-0.33 -10.25,-1.01 -10.07,-2.03 -16.59,-11.8 -14.57,-21.85 2.01,-10.08 11.8,-16.59 21.85,-14.6 23.23,4.7 60.93,-48.61 79.31,-88.82 4.26,-9.33 15.29,-13.39 24.6,-9.17 9.33,4.26 13.45,15.27 9.18,24.62 -8.82,19.32 -53.65,110.83 -110.12,110.83z"/>
  <path class="fil1" d="M932.72 2499.44c-1.83,0 -3.73,-0.28 -5.59,-0.87 -9.79,-3.1 -15.21,-13.53 -12.13,-23.3l45.94 -145.41c3.1,-9.77 13.55,-15.23 23.29,-12.11 9.8,3.09 15.23,13.53 12.13,23.3l-45.91 145.39c-2.51,7.94 -9.84,13 -17.73,13z"/>
  <path class="fil1" d="M1202.21 2499.44c-7.64,0 -14.79,-4.76 -17.5,-12.37l-51.66 -145.41c-3.43,-9.66 1.61,-20.26 11.27,-23.71 9.71,-3.43 20.31,1.64 23.73,11.3l51.67 145.39c3.43,9.68 -1.62,20.28 -11.28,23.71 -2.07,0.72 -4.17,1.09 -6.23,1.09z"/>
  <path class="fil1" d="M613.38 2676.32c-10.25,0 -18.58,-8.3 -18.58,-18.57 0,-46.24 29.09,-88.25 72.38,-104.51l239.2 -89.77c9.59,-3.59 20.32,1.24 23.93,10.86 3.6,9.59 -1.27,20.33 -10.87,23.93l-239.19 89.78c-28.89,10.83 -48.29,38.85 -48.29,69.71 0,10.27 -8.33,18.57 -18.58,18.57z"/>
  <path class="fil1" d="M1514.55 2676.32c-10.25,0 -18.58,-8.3 -18.58,-18.57 0,-30.86 -19.4,-58.88 -48.32,-69.71l-239.16 -89.78c-9.62,-3.6 -14.47,-14.34 -10.86,-23.93 3.58,-9.62 14.29,-14.49 23.9,-10.86l239.19 89.77c43.32,16.26 72.4,58.27 72.4,104.51 0,10.27 -8.32,18.57 -18.57,18.57z"/>
  <path class="fil0" d="M62.93 4823.2l0 206.2 26.62 0 0 -94.84 29.98 0c2.14,60.27 35.79,98.21 85.66,98.21 48.95,0 88.72,-37.02 88.72,-108.61 0,-61.19 -32.43,-104.32 -85.97,-104.32 -48.64,0 -82.29,34.87 -87.8,92.39l-30.59 0 0 -89.03 -26.62 0zm143.18 188.15c-38.55,0 -60.27,-40.38 -60.27,-83.82 0,-44.67 19.88,-86.28 60.88,-86.28 40.69,0 59.96,43.14 59.96,84.13 0,46.81 -21.42,85.97 -60.57,85.97zm122.06 18.05l26.62 0 0 -82.6c6.12,1.53 13.46,1.83 21.41,1.83 26.01,0 48.95,-7.64 63.02,-22.63 10.4,-10.71 15.91,-25.4 15.91,-44.06 0,-18.35 -6.73,-33.34 -18.05,-43.13 -12.24,-11.02 -31.51,-17.14 -57.82,-17.14 -21.41,0 -38.24,1.84 -51.09,3.98l0 203.75zm26.62 -184.48c4.59,-1.22 13.46,-2.14 25.08,-2.14 29.37,0 48.65,13.16 48.65,40.39 0,28.45 -19.58,44.05 -51.71,44.05 -8.87,0 -16.21,-0.61 -22.02,-2.14l0 -80.16zm136.13 -21.72l0 206.2 28.45 0 64.55 -102.49c14.08,-22.94 28.15,-46.8 38.24,-69.44l0.92 0.3c-2.14,26.01 -2.45,50.48 -2.45,83.83l0 87.8 25.09 0 0 -206.2 -26.61 0 -66.7 106.16c-14.99,24.48 -27.84,46.81 -38.24,68.22l-0.61 -0.3c1.84,-27.54 2.45,-54.46 2.45,-87.19l0 -86.89 -25.09 0zm227 0l0 52.32c0,35.49 -2.75,63.02 -9.79,86.88 -4.9,16.22 -12.54,31.21 -20.19,45.28l-15.6 0.61 1.83 70.67 20.8 0 1.84 -49.56 130.02 0 1.84 49.56 20.8 0 1.83 -70.67 -18.05 -0.61 0 -184.48 -115.33 0zm24.78 22.03l63.94 0 0 162.14 -91.17 0c6.12,-11.01 12.54,-24.78 16.83,-39.16 7.34,-23.25 10.4,-51.09 10.4,-84.13l0 -38.85zm142.26 -22.03l0 206.2 28.45 0 64.55 -102.49c14.08,-22.94 28.15,-46.8 38.24,-69.44l0.92 0.3c-2.14,26.01 -2.45,50.48 -2.45,83.83l0 87.8 25.09 0 0 -206.2 -26.61 0 -66.7 106.16c-14.99,24.48 -27.84,46.81 -38.24,68.22l-0.61 -0.3c1.84,-27.54 2.45,-54.46 2.45,-87.19l0 -86.89 -25.09 0zm194.88 0l0 69.45c0,50.48 33.65,62.1 60.88,62.1 18.05,0 35.18,-4.59 49.56,-12.85l0.61 0 0 87.5 26.93 0 0 -206.2 -26.93 0 0 97.9c-10.7,6.73 -26.31,11.63 -40.69,11.63 -29.06,0 -43.74,-15.91 -43.74,-44.06l0 -65.47 -26.62 0zm290.94 87.5l-80.15 0 0 -65.16 84.74 0 0 -22.34 -111.36 0 0 206.2 115.95 0 0 -22.33 -89.33 0 0 -74.34 80.15 0 0 -22.03zm182.34 90.86c-10.71,5.2 -27.23,8.57 -43.45,8.57 -50.17,0 -79.23,-32.43 -79.23,-82.91 0,-54.15 32.12,-85.05 80.46,-85.05 17.13,0 31.51,3.67 41.61,8.57l6.42 -21.72c-7.04,-3.68 -23.25,-9.18 -48.95,-9.18 -63.94,0 -107.69,43.75 -107.69,108.3 0,67.61 43.75,104.32 101.88,104.32 25.08,0 44.66,-4.9 54.45,-9.79l-5.5 -21.11zm38.85 -178.36l0 206.2 26.31 0 0 -94.53 8.57 0c34.87,0 48.03,18.66 57.51,45.89 5.51,16.21 11.32,34.57 18.66,48.64l28.76 0c-9.18,-18.36 -14.99,-37.32 -22.64,-58.43 -10.71,-27.84 -23.86,-48.65 -57.82,-53.23l78.01 -94.54 -32.12 0 -70.67 91.48 -8.26 0 0 -91.48 -26.31 0zm165.81 0l0 206.2 28.45 0 64.55 -102.49c14.08,-22.94 28.15,-46.8 38.24,-69.44l0.92 0.3c-2.14,26.01 -2.45,50.48 -2.45,83.83l0 87.8 25.09 0 0 -206.2 -26.61 0 -66.7 106.16c-14.99,24.48 -27.84,46.81 -38.24,68.22l-0.61 -0.3c1.84,-27.54 2.45,-54.46 2.45,-87.19l0 -86.89 -25.09 0zm308.07 87.5l-80.15 0 0 -65.16 84.74 0 0 -22.34 -111.36 0 0 206.2 115.95 0 0 -22.33 -89.33 0 0 -74.34 80.15 0 0 -22.03z"/>
  <path class="fil0" d="M716.75 5216.65l0 86.89c0,33.04 -1.53,73.11 -18.05,89.33 -4.9,4.59 -13.46,9.48 -21.72,11.01l3.36 21.42c11.93,0 23.87,-4.9 31.51,-9.79 29.07,-19.58 30.9,-69.45 30.9,-114.11l0 -62.41 68.23 0 0 183.86 26.92 0 0 -206.2 -121.15 0zm167.34 0l0 206.2 28.45 0 64.55 -102.49c14.08,-22.94 28.15,-46.8 38.24,-69.44l0.92 0.3c-2.14,26.01 -2.45,50.48 -2.45,83.83l0 87.8 25.09 0 0 -206.2 -26.61 0 -66.7 106.16c-14.99,24.48 -27.84,46.81 -38.24,68.22l-0.61 -0.3c1.84,-27.54 2.45,-54.46 2.45,-87.19l0 -86.89 -25.09 0zm201.3 0l0 206.2 141.34 0 1.84 49.56 21.11 0 1.83 -70.67 -18.05 -0.61 0 -184.48 -26.92 0 0 183.87 -94.53 0 0 -183.87 -26.62 0zm306.84 141.34l22.03 64.86 28.45 0 -70.36 -206.2 -32.12 0 -70.06 206.2 27.53 0 21.42 -64.86 73.11 0zm-67.61 -20.8l20.2 -59.66c3.97,-12.54 7.34,-25.08 10.4,-37.32l0.61 0c3.06,11.93 6.12,24.17 10.71,37.63l20.19 59.35 -62.11 0z"/>
  <path class="fil1" d="M999.79 4281.39l0 0c0,-18.43 14.95,-33.35 33.35,-33.35l21.33 0c18.42,0 33.37,14.92 33.37,33.35 0,18.44 -14.95,33.35 -33.37,33.35l-21.33 0c-18.4,0 -33.35,-14.91 -33.35,-33.35zm-70.37 -305.12c-0.02,-14.32 4.81,-26.89 11.71,-35.32 7.07,-8.48 15.32,-12.57 23.91,-12.59l157.53 0c8.58,0.02 16.86,4.11 23.9,12.59 6.91,8.43 11.76,21 11.74,35.32 0,1.02 -0.2,1.96 -0.27,2.99l-228.28 0c-0.04,-1.03 -0.24,-1.97 -0.24,-2.99zm-260.19 41.74l30.16 0 718.99 0 0 180.05c0,16.06 -11.46,29.85 -27.25,32.78l-225.1 41.83c-20.52,3.8 -39.44,-11.93 -39.44,-32.8l0 -11.21c0,-5.1 -2.08,-10.08 -5.68,-13.71 -3.61,-3.6 -8.61,-5.66 -13.71,-5.66l-126.79 0c-5.09,0 -10.08,2.06 -13.7,5.66 -3.61,3.63 -5.67,8.61 -5.67,13.71l0 11.21c0,20.87 -18.95,36.6 -39.46,32.8l-225.08 -41.83c-15.79,-2.93 -27.27,-16.72 -27.27,-32.78l0 -180.05zm30.16 292.92c0,-20.89 18.94,-36.63 39.44,-32.8l222.21 41.26 0 14.73c0,5.11 2.06,10.1 5.67,13.7 3.62,3.61 8.61,5.68 13.7,5.68l126.79 0c5.1,0 10.1,-2.07 13.71,-5.68 3.6,-3.6 5.68,-8.59 5.68,-13.7l0 -14.73 222.18 -41.26c20.52,-3.83 39.47,11.91 39.47,32.8l0 170.35c0,18.43 -14.95,33.37 -33.37,33.37l-622.13 0c-18.43,0 -33.35,-14.94 -33.35,-33.37l0 -170.35zm721.91 236.81c3.61,-3.63 5.69,-8.61 5.69,-13.7l0 -270.44 14.31 -2.69c9.2,-1.68 15.82,-9.68 15.82,-19.05l0 -243.22c0,-5.13 -2.05,-10.09 -5.66,-13.7 -3.63,-3.6 -8.61,-5.68 -13.7,-5.68l-30.14 0 -210.93 0c0.05,-1.03 0.26,-1.99 0.26,-2.99 -0.02,-22.86 -7.49,-43.93 -20.5,-59.84 -12.84,-15.89 -32.08,-26.86 -53.88,-26.84l-157.53 0c-21.79,-0.02 -41.04,10.95 -53.89,26.84 -12.98,15.91 -20.45,36.98 -20.48,59.84 0,1 0.22,1.96 0.24,2.99l-210.9 0 -30.14 0c-5.12,0 -10.1,2.08 -13.7,5.68 -3.61,3.61 -5.68,8.57 -5.68,13.7l0 243.22c0,9.37 6.64,17.37 15.84,19.05l14.29 2.69 0 270.44c0,5.09 2.08,10.07 5.68,13.7 3.61,3.61 8.61,5.66 13.71,5.66l727.61 0c5.1,0 10.08,-2.05 13.68,-5.66z"/>
  <path class="fil2" d="M3406.77 3143.25l0 -139.25 71.59 0 0 -54.28 -71.59 0 0 -317.83 -74.73 0 -228.15 326.48 0 45.63 237.59 0 0 139.25 65.29 0zm-232.86 -193.53l0 -1.57 125.08 -173.87c14.17,-23.6 26.75,-45.63 42.49,-75.52l2.36 0c-1.58,26.75 -2.36,53.5 -2.36,80.24l0 170.72 -167.57 0zm360.31 285.58c22.03,-36.98 56.64,-124.31 74.74,-191.18l-77.1 7.87c-8.65,57.43 -29.9,141.61 -47.2,188.03l49.56 -4.72zm110.14 -118.01c25.18,16.52 75.53,34.61 132.96,34.61 122.72,0 186.45,-71.59 186.45,-153.4 0,-71.6 -51.14,-118.8 -114.08,-131.39l0 -1.57c62.94,-22.81 94.41,-67.66 94.41,-120.37 0,-62.15 -45.63,-121.94 -146.33,-121.94 -55.07,0 -106.99,19.67 -133.74,39.34l18.09 50.35c22.03,-15.73 61.37,-33.83 102.28,-33.83 63.72,0 89.68,36.19 89.68,77.1 0,60.58 -63.72,86.54 -114.07,86.54l-38.55 0 0 51.92 38.55 0c66.87,0 131.38,30.68 132.17,102.27 0.78,42.48 -26.75,99.13 -115.65,99.13 -47.99,0 -93.62,-19.67 -113.29,-32.26l-18.88 53.5z"/>
  <path class="fil2" d="M4078.08 3130.24l21.24 0 3.15 -60.05c0.79,-13.9 1.57,-30.68 2.1,-45.62l1.05 0c3.14,11.8 8.65,30.15 12.58,42.21l22.55 62.67 16.79 0 24.38 -63.98c7.08,-19.4 10.49,-29.63 13.9,-41.17l0.79 0c0.52,15.47 1.57,31.73 2.36,45.37l2.88 60.57 22.03 0 -8.92 -126.91 -28.58 0 -20.45 55.32c-4.99,13.9 -12.07,34.09 -14.95,43.53l-0.52 0c-2.89,-9.96 -8.4,-25.43 -11.54,-34.87l-23.08 -63.98 -28.32 0 -9.44 126.91zm180.93 -126.91l0 51.13c0,28.32 -1.31,46.15 -13.11,54.8 -3.15,2.62 -8.13,4.46 -12.59,5.25l2.36 18.09c11.8,0 18.88,-2.88 25.18,-7.87 16.52,-10.75 19.93,-34.61 19.93,-70.27l0 -33.04 43.52 0 0 108.82 22.82 0 0 -126.91 -88.11 0zm117.48 0l0 126.91 22.81 0 0 -57.43 60.31 0 0 57.43 22.81 0 0 -126.91 -22.81 0 0 51.13 -60.31 0 0 -51.13 -22.81 0z"/>
  <path class="fil2" d="M5240.25 3117.29c25.18,16.52 75.53,34.61 132.96,34.61 122.72,0 186.45,-71.59 186.45,-153.4 0,-71.6 -51.14,-118.8 -114.08,-131.39l0 -1.57c62.94,-22.81 94.41,-67.66 94.41,-120.37 0,-62.15 -45.63,-121.94 -146.33,-121.94 -55.07,0 -106.99,19.67 -133.74,39.34l18.09 50.35c22.03,-15.73 61.37,-33.83 102.28,-33.83 63.72,0 89.68,36.19 89.68,77.1 0,60.58 -63.72,86.54 -114.07,86.54l-38.55 0 0 51.92 38.55 0c66.87,0 131.38,30.68 132.17,102.27 0.78,42.48 -26.75,99.13 -115.65,99.13 -47.99,0 -93.62,-19.67 -113.29,-32.26l-18.88 53.5zm409.09 118.01c22.03,-36.98 56.64,-124.31 74.74,-191.18l-77.1 7.87c-8.65,57.43 -29.9,141.61 -47.2,188.03l49.56 -4.72zm438.99 -92.05l0 -57.43 -229.72 0 0 -1.57 40.91 -37.77c107.78,-103.84 176.22,-180.15 176.22,-274.56 0,-73.16 -46.42,-148.69 -156.56,-148.69 -59,0 -109.35,22.03 -144.75,51.93l22.03 48.77c23.6,-19.66 62.15,-43.27 108.56,-43.27 76.31,0 101.49,47.99 101.49,99.92 -0.79,77.09 -59.79,143.18 -190.39,267.48l-54.28 52.71 0 42.48 326.49 0z"/>
  <path class="fil2" d="M6193.2 3130.24l21.24 0 3.15 -60.05c0.79,-13.9 1.57,-30.68 2.1,-45.62l1.05 0c3.14,11.8 8.65,30.15 12.58,42.21l22.55 62.67 16.79 0 24.38 -63.98c7.08,-19.4 10.49,-29.63 13.9,-41.17l0.79 0c0.52,15.47 1.57,31.73 2.36,45.37l2.88 60.57 22.03 0 -8.92 -126.91 -28.58 0 -20.45 55.32c-4.99,13.9 -12.07,34.09 -14.95,43.53l-0.52 0c-2.89,-9.96 -8.4,-25.43 -11.54,-34.87l-23.08 -63.98 -28.32 0 -9.44 126.91zm180.93 -126.91l0 51.13c0,28.32 -1.31,46.15 -13.11,54.8 -3.15,2.62 -8.13,4.46 -12.59,5.25l2.36 18.09c11.8,0 18.88,-2.88 25.18,-7.87 16.52,-10.75 19.93,-34.61 19.93,-70.27l0 -33.04 43.52 0 0 108.82 22.82 0 0 -126.91 -88.11 0zm117.48 0l0 126.91 22.81 0 0 -57.43 60.31 0 0 57.43 22.81 0 0 -126.91 -22.81 0 0 51.13 -60.31 0 0 -51.13 -22.81 0z"/>
  <path class="fil2" d="M3157.39 5035.9l66.87 0 0 -511.36 -59 0 -111.71 59.79 13.37 52.71 88.9 -47.99 1.57 0 0 446.85zm556.21 0l0 -57.43 -229.72 0 0 -1.57 40.91 -37.77c107.78,-103.84 176.22,-180.15 176.22,-274.56 0,-73.16 -46.42,-148.69 -156.56,-148.69 -59,0 -109.35,22.03 -144.75,51.93l22.03 48.77c23.6,-19.66 62.15,-43.27 108.56,-43.27 76.31,0 101.49,47.99 101.49,99.92 -0.79,77.09 -59.79,143.18 -190.39,267.48l-54.28 52.71 0 42.48 326.49 0zm224.21 -520.02c-103.85,0 -177.8,94.41 -177.8,265.91 1.57,169.15 69.23,262.76 169.14,262.76 113.29,0 177.8,-95.97 177.8,-269.84 0,-162.85 -61.36,-258.83 -169.14,-258.83zm-3.94 53.5c71.6,0 103.85,82.61 103.85,208.48 0,130.59 -33.83,213.2 -104.63,213.2 -62.94,0 -103.85,-75.53 -103.85,-208.48 0,-139.25 44.06,-213.2 104.63,-213.2z"/>
  <path class="fil2" d="M4222.93 4895.99l0 18.35 39.6 0 0 108.56 22.81 0 0 -108.56 39.6 0 0 -18.35 -102.01 0zm111.98 0l0 126.39c9.44,1.04 21.24,1.83 34.09,1.83 16.78,0 37.23,-2.88 51.13,-14.68 8.13,-6.82 13.11,-16 13.11,-29.37 0,-31.21 -27.53,-42.48 -54.8,-42.48 -8.39,0 -15.74,0.52 -20.72,1.57l0 -43.26 -22.81 0zm22.81 59.52c4.72,-0.79 10.49,-1.31 17.05,-1.31 17.3,0 35.66,6.29 35.66,26.74 0,19.67 -19.15,27.01 -36.71,27.01 -6.56,0 -11.54,-0.52 -16,-1.05l0 -51.39zm91.52 -59.52l0 126.91 22.81 0 0 -126.91 -22.81 0zm140.02 104.88c-6.55,2.89 -15.2,6.3 -28.32,6.3 -25.17,0 -44.05,-18.1 -44.05,-47.47 0,-26.48 15.74,-47.98 44.84,-47.98 12.59,0 21.24,2.88 26.75,6.03l5.24 -17.83c-6.29,-3.15 -18.35,-6.56 -31.99,-6.56 -41.43,0 -68.18,28.32 -68.18,67.39 0,38.81 24.92,64.77 63.2,64.77 17.04,0 30.42,-4.19 36.45,-7.34l-3.94 -17.31z"/>
  <path class="fil2" d="M5352.35 5043.77c16.53,0.78 38.55,0 63.73,-3.94 55.07,-6.29 109.35,-29.89 148.69,-68.44 50.35,-48.78 88.11,-127.45 88.11,-239.95 0,-130.59 -64.51,-215.56 -169.15,-215.56 -104.63,0 -174.64,84.97 -174.64,181.73 0,87.33 59,156.56 151.04,156.56 51.14,0 92.05,-20.45 120.37,-55.07l2.36 0c-9.44,60.58 -33.83,105.42 -67.66,136.1 -29.11,27.54 -66.87,44.06 -106.99,49.56 -23.6,2.36 -40.91,3.94 -55.86,2.36l0 56.65zm125.88 -475.18c72.38,0 104.63,66.87 104.63,154.2 0,11.01 -2.36,18.88 -6.29,25.17 -18.1,30.69 -54.29,53.5 -100.7,53.5 -59.79,0 -98.34,-44.84 -98.34,-108.57 0,-72.37 41.69,-124.3 100.7,-124.3zm505.85 -51.92c-12.59,0 -29.89,0.79 -50.35,3.93 -64.51,7.87 -121.15,33.83 -163.63,75.53 -50.35,50.35 -86.54,129.81 -86.54,230.51 0,132.95 71.59,217.91 180.94,217.91 106.21,0 169.93,-86.53 169.93,-180.15 0,-99.91 -63.72,-165.21 -154.19,-165.21 -56.65,0 -99.13,26.75 -123.52,59l-2.36 0c11.8,-84.18 69.23,-163.63 177.8,-181.73 19.67,-3.15 37.76,-3.93 51.92,-3.15l0 -56.64zm-119.58 474.39c-72.38,0 -110.92,-62.15 -112.5,-146.33 0,-12.59 3.15,-22.82 7.87,-30.68 18.88,-36.98 57.43,-62.94 99.12,-62.94 63.73,0 105.42,44.06 105.42,117.22 0,73.16 -40.12,122.73 -99.91,122.73z"/>
  <path class="fil2" d="M6141.36 4895.99l0 18.35 39.6 0 0 108.56 22.81 0 0 -108.56 39.6 0 0 -18.35 -102.01 0zm111.98 0l0 126.39c9.44,1.04 21.24,1.83 34.09,1.83 16.78,0 37.23,-2.88 51.13,-14.68 8.13,-6.82 13.11,-16 13.11,-29.37 0,-31.21 -27.53,-42.48 -54.8,-42.48 -8.39,0 -15.74,0.52 -20.72,1.57l0 -43.26 -22.81 0zm22.81 59.52c4.72,-0.79 10.49,-1.31 17.05,-1.31 17.3,0 35.66,6.29 35.66,26.74 0,19.67 -19.15,27.01 -36.71,27.01 -6.56,0 -11.54,-0.52 -16,-1.05l0 -51.39zm91.52 -59.52l0 126.91 22.81 0 0 -126.91 -22.81 0zm140.02 104.88c-6.55,2.89 -15.2,6.3 -28.32,6.3 -25.17,0 -44.05,-18.1 -44.05,-47.47 0,-26.48 15.74,-47.98 44.84,-47.98 12.59,0 21.24,2.88 26.75,6.03l5.24 -17.83c-6.29,-3.15 -18.35,-6.56 -31.99,-6.56 -41.43,0 -68.18,28.32 -68.18,67.39 0,38.81 24.92,64.77 63.2,64.77 17.04,0 30.42,-4.19 36.45,-7.34l-3.94 -17.31z"/>
  <path class="fil1" d="M3378.68 903.55l290.28 0c5.27,0 10.21,2.53 13.31,6.79 3.06,4.26 3.91,9.77 2.25,14.76l-93.01 280.27 394.59 -488.65 -290.28 0c-5.27,0 -10.2,-2.54 -13.31,-6.8 -3.06,-4.28 -3.91,-9.77 -2.25,-14.77l93.01 -280.27 -394.59 488.67zm168.82 398.83c-2.69,0 -5.38,-0.66 -7.87,-2.01 -6.95,-3.8 -10.2,-12.04 -7.69,-19.56l114.31 -344.48 -301.86 0c-6.32,0 -12.07,-3.63 -14.79,-9.33 -2.73,-5.71 -1.93,-12.46 2.03,-17.36l472.89 -585.68c5.03,-6.18 13.7,-7.84 20.63,-4.08 6.95,3.8 10.18,12.04 7.69,19.56l-114.32 344.5 301.87 0c6.32,0 12.06,3.63 14.8,9.31 2.73,5.7 1.92,12.45 -2.04,17.37l-472.89 585.66c-3.23,3.95 -7.95,6.1 -12.76,6.1z"/>
  <path class="fil1" d="M5797.53 921.62c-6.14,0 -12.05,-3.48 -14.84,-9.38 -3.87,-8.2 -0.37,-17.97 7.82,-21.83 42.05,-19.87 46.61,-64.49 45.61,-89.34 -1.44,-34.62 -23.06,-57.89 -48.08,-84.86l-7.34 -7.94c-21.77,-23.7 -39.05,-45.95 -49.79,-71.56 -41.45,54.08 -76.79,127.79 -68.46,183.63 4.22,28.17 18.86,49.46 44.78,65.13 7.76,4.68 10.25,14.75 5.55,22.49 -4.68,7.73 -14.75,10.27 -22.49,5.56 -34.33,-20.71 -54.59,-50.45 -60.25,-88.33 -12.83,-85.88 54,-187.11 95.5,-233.37 4.17,-4.63 10.6,-6.49 16.63,-4.83 5.99,1.68 10.54,6.62 11.7,12.74 6.05,32.17 24.76,57.8 51,86.39l7.21 7.8c26.95,29.07 54.85,59.11 56.78,105.81 2.29,56.04 -21.16,99.9 -64.36,120.31 -2.25,1.07 -4.63,1.58 -6.97,1.58zm12.21 46.83c-7.23,0 -13.86,-4.81 -15.82,-12.11 -2.36,-8.74 2.8,-17.74 11.54,-20.11 82.39,-22.27 133.61,-95.83 133.66,-192.03 0.04,-69.53 -36.13,-110.77 -81.93,-162.96l-7.08 -8.09c-61.13,-69.89 -74.02,-106.25 -68.49,-180.22 -103.57,82.11 -205.25,229.55 -205.32,351.27 -0.06,89.08 41.05,156.65 112.77,185.39 8.39,3.39 12.47,12.91 9.11,21.31 -3.37,8.41 -12.9,12.5 -21.31,9.13 -83.59,-33.5 -133.43,-114.18 -133.35,-215.84 0.06,-145.88 126.67,-317.85 249,-399.82 5.33,-3.56 12.22,-3.69 17.71,-0.35 5.43,3.37 8.45,9.57 7.68,15.93 -11.03,91.63 -7.34,118.21 56.87,191.63l7.04 8.05c46.37,52.82 90.12,102.69 90.08,184.6 -0.05,111.65 -60.56,197.36 -157.9,223.65 -1.44,0.39 -2.86,0.57 -4.26,0.57zm-52.03 156.25c-133.05,0 -384.65,-20.28 -384.65,-97.06 0,-57.49 142.14,-80.68 226.88,-89.37 8.73,-0.81 17.05,5.63 17.97,14.62 0.92,9 -5.64,17.04 -14.64,17.98 -150.62,15.45 -197.43,47.03 -197.43,56.77 0,21.82 124.2,64.28 351.87,64.28 227.67,0 351.85,-42.46 351.85,-64.28 0,-9.74 -46.77,-41.3 -197.41,-56.77 -9,-0.94 -15.56,-8.98 -14.64,-17.98 0.94,-8.99 9.26,-15.41 17.96,-14.62 84.73,8.69 226.86,31.88 226.86,89.37 0,76.78 -251.57,97.06 -384.62,97.06zm0 66.54c-267.97,0 -552.77,-57.34 -552.77,-163.6 0,-67.3 119.93,-123.12 320.86,-149.3 8.74,-1.18 17.2,5.16 18.38,14.14 1.15,8.98 -5.16,17.2 -14.14,18.36 -200.86,26.18 -292.32,78.89 -292.32,116.8 0,61.88 213.53,130.83 519.99,130.83 306.43,0 520.01,-68.95 520.01,-130.83 0,-37.91 -91.5,-90.62 -292.34,-116.8 -8.98,-1.16 -15.3,-9.38 -14.16,-18.36 1.18,-8.98 9.68,-15.29 18.38,-14.14 200.92,26.18 320.9,82 320.9,149.3 0,106.26 -284.82,163.6 -552.79,163.6z"/>
  <path class="fil1" d="M2794.53 1536l63.72 0c-2.1,25.17 -19.15,41.17 -44.58,41.17 -14.95,0 -25.7,-4.2 -31.73,-6.82l-4.46 16.52c10.23,5.25 23.34,8.65 36.98,8.65 43,0 67.39,-28.84 67.39,-65.81 0,-20.72 -6.56,-37.5 -17.31,-48.78 -11.28,-11.8 -27.8,-18.09 -46.15,-18.09 -13.37,0 -28.06,3.67 -39.07,9.97l4.98 14.94c6.82,-3.14 17.04,-7.08 30.42,-7.08 28.32,0 41.69,17.83 43.79,39.6l-63.98 0 0 15.73zm116.68 -70.27l0 51.13c0,28.32 -1.31,46.15 -13.11,54.8 -3.15,2.62 -8.13,4.46 -12.59,5.25l2.36 18.09c11.8,0 18.88,-2.88 25.18,-7.87 16.52,-10.75 19.93,-34.61 19.93,-70.27l0 -33.04 43.52 0 0 108.82 22.82 0 0 -126.91 -88.11 0zm220.01 67.65c0.26,-2.36 0.78,-6.03 0.78,-10.75 0,-23.34 -11.01,-59.79 -52.44,-59.79 -36.97,0 -59.53,30.16 -59.53,68.44 0,38.28 23.34,63.98 62.41,63.98 20.19,0 34.09,-4.19 42.22,-7.86l-3.93 -16.52c-8.66,3.67 -18.62,6.55 -35.14,6.55 -23.08,0 -43,-12.85 -43.53,-44.05l89.16 0zm-88.9 -16.52c1.84,-16 12.07,-37.5 35.4,-37.5 25.96,0 32.26,22.81 31.99,37.5l-67.39 0zm110.39 -51.13l0 126.91 22.82 0 0 -55.85 4.45 0c21.5,0 33.3,9.44 41.96,29.89 3.93,10.49 8.39,20.45 11.8,25.96l24.12 0c-5.77,-10.23 -10.22,-22.55 -13.63,-30.94 -9.97,-22.82 -22.29,-36.45 -42.75,-38.55l55.33 -57.42 -28.05 0 -47.73 55.06 -5.5 0 0 -55.06 -22.82 0zm111.17 0l0 18.35 39.6 0 0 108.56 22.81 0 0 -108.56 39.6 0 0 -18.35 -102.01 0zm111.71 178.83l22.82 0 0 -68.96 0.52 0c7.6,12.58 22.29,19.92 39.07,19.92 29.89,0 57.69,-22.55 57.69,-68.17 0,-38.55 -23.08,-64.51 -53.76,-64.51 -20.71,0 -35.66,9.18 -45.1,24.65l-0.52 0 -1.05 -21.76 -20.72 0c0.53,12.06 1.05,25.17 1.05,41.43l0 137.4zm22.82 -125.34c0,-3.15 0.78,-6.56 1.57,-9.44 4.46,-17.31 19.14,-28.58 34.87,-28.58 24.39,0 37.76,21.76 37.76,47.2 0,29.1 -14.16,49.03 -38.54,49.03 -16.52,0 -30.42,-11.01 -34.62,-27.01 -0.52,-2.88 -1.04,-6.03 -1.04,-9.44l0 -21.76zm172.27 -56.38c-35.14,0 -62.94,24.91 -62.94,67.39 0,40.12 26.49,65.29 60.84,65.29 30.68,0 63.19,-20.45 63.19,-67.39 0,-38.8 -24.64,-65.29 -61.09,-65.29zm-0.53 17.31c27.27,0 38.02,27.27 38.02,48.77 0,28.58 -16.52,49.3 -38.54,49.3 -22.55,0 -38.55,-20.98 -38.55,-48.78 0,-24.12 11.8,-49.29 39.07,-49.29zm88.11 55.85l63.72 0c-2.1,25.17 -19.15,41.17 -44.58,41.17 -14.95,0 -25.7,-4.2 -31.73,-6.82l-4.46 16.52c10.23,5.25 23.34,8.65 36.98,8.65 43,0 67.39,-28.84 67.39,-65.81 0,-20.72 -6.56,-37.5 -17.31,-48.78 -11.28,-11.8 -27.8,-18.09 -46.15,-18.09 -13.37,0 -28.06,3.67 -39.07,9.97l4.98 14.94c6.82,-3.14 17.04,-7.08 30.42,-7.08 28.32,0 41.69,17.83 43.79,39.6l-63.98 0 0 15.73zm108.03 -70.27l0 126.91 22.81 0 0 -57.43 60.31 0 0 57.43 22.81 0 0 -126.91 -22.81 0 0 51.13 -60.31 0 0 -51.13 -22.81 0zm237.83 67.65c0.26,-2.36 0.78,-6.03 0.78,-10.75 0,-23.34 -11.01,-59.79 -52.44,-59.79 -36.97,0 -59.53,30.16 -59.53,68.44 0,38.28 23.34,63.98 62.41,63.98 20.19,0 34.09,-4.19 42.22,-7.86l-3.93 -16.52c-8.66,3.67 -18.62,6.55 -35.14,6.55 -23.08,0 -43,-12.85 -43.53,-44.05l89.16 0zm-88.9 -16.52c1.84,-16 12.07,-37.5 35.4,-37.5 25.96,0 32.26,22.81 31.99,37.5l-67.39 0zm110.39 127.7l22.82 0 0 -68.96 0.52 0c7.6,12.58 22.29,19.92 39.07,19.92 29.89,0 57.69,-22.55 57.69,-68.17 0,-38.55 -23.08,-64.51 -53.76,-64.51 -20.71,0 -35.66,9.18 -45.1,24.65l-0.52 0 -1.05 -21.76 -20.72 0c0.53,12.06 1.05,25.17 1.05,41.43l0 137.4zm22.82 -125.34c0,-3.15 0.78,-6.56 1.57,-9.44 4.46,-17.31 19.14,-28.58 34.87,-28.58 24.39,0 37.76,21.76 37.76,47.2 0,29.1 -14.16,49.03 -38.54,49.03 -16.52,0 -30.42,-11.01 -34.62,-27.01 -0.52,-2.88 -1.04,-6.03 -1.04,-9.44l0 -21.76zm117.99 -53.49l0 126.91 22.81 0 0 -108.3 55.07 0 0 -18.61 -77.88 0zm91.25 0l0 126.91 26.48 0c13.64,-22.29 27.53,-46.68 39.6,-66.34 7.34,-12.85 12.85,-23.08 20.97,-39.33l0.79 0c-1.05,20.45 -1.57,31.2 -1.57,51.91l0 53.76 22.02 0 0 -126.91 -27 0 -39.6 65.55c-8.39,14.68 -12.85,23.6 -20.45,39.07l-0.79 -0.26c1.05,-18.09 1.31,-30.68 1.31,-50.87l0 -53.49 -21.76 0zm231.54 1.04c-11.02,-1.31 -25.7,-2.62 -40.91,-2.62 -16.52,0 -31.99,2.62 -42.48,8.66 -9.7,5.5 -16.78,14.42 -16.78,27.53 0,19.4 17.04,29.63 33.56,31.46l0 0.79c-5.77,1.05 -10.49,3.93 -14.42,7.34 -11.28,9.44 -14.42,25.96 -19.93,38.29 -2.36,5.5 -4.98,10.22 -7.87,14.42l24.65 0c1.84,-3.15 3.67,-6.56 5.25,-10.49 4.98,-12.32 8.39,-28.06 17.83,-35.66 4.98,-4.46 11.54,-7.08 21.24,-7.08l17.04 0 0 53.23 22.82 0 0 -125.87zm-22.82 56.91c-5.24,0 -10.22,0 -19.66,0 -13.64,0 -33.83,-5.77 -33.83,-22.03 0,-17.57 18.62,-22.03 34.35,-22.03 8.13,0 13.37,0.53 19.14,1.31l0 42.75z"/>
  <path class="fil1" d="M5242.84 1356.37l0 18.35 39.6 0 0 108.56 22.81 0 0 -108.56 39.6 0 0 -18.35 -102.01 0zm207.69 67.65c0.26,-2.36 0.78,-6.03 0.78,-10.75 0,-23.34 -11.01,-59.79 -52.44,-59.79 -36.97,0 -59.53,30.16 -59.53,68.44 0,38.28 23.34,63.98 62.41,63.98 20.19,0 34.09,-4.19 42.22,-7.86l-3.93 -16.52c-8.66,3.67 -18.62,6.55 -35.14,6.55 -23.08,0 -43,-12.85 -43.53,-44.05l89.16 0zm-88.9 -16.52c1.84,-16 12.07,-37.5 35.4,-37.5 25.96,0 32.26,22.81 31.99,37.5l-67.39 0zm109.87 -51.13l0 126.91 22.81 0 0 -108.56 59 0 0 108.56 23.08 0 0 -126.91 -104.89 0zm142.64 0l0 51.13c0,28.32 -1.31,46.15 -13.11,54.8 -3.15,2.62 -8.13,4.46 -12.59,5.25l2.36 18.09c11.8,0 18.88,-2.88 25.18,-7.87 16.52,-10.75 19.93,-34.61 19.93,-70.27l0 -33.04 43.52 0 0 108.82 22.82 0 0 -126.91 -88.11 0zm171.76 -2.89c-35.14,0 -62.94,24.91 -62.94,67.39 0,40.12 26.49,65.29 60.84,65.29 30.68,0 63.19,-20.45 63.19,-67.39 0,-38.8 -24.64,-65.29 -61.09,-65.29zm-0.53 17.31c27.27,0 38.02,27.27 38.02,48.77 0,28.58 -16.52,49.3 -38.54,49.3 -22.55,0 -38.55,-20.98 -38.55,-48.78 0,-24.12 11.8,-49.29 39.07,-49.29zm82.34 112.49c6.82,0.52 21.5,1.57 35.66,1.57 24.91,0 66.87,-4.19 66.87,-37.49 0,-18.36 -13.64,-28.85 -32.26,-31.47l0 -0.52c14.42,-3.15 26.49,-12.85 26.49,-28.59 0,-28.32 -35.14,-31.73 -56.38,-31.73 -14.95,0 -31.47,1.32 -40.38,2.89l0 125.34zm22.02 -111.18c5.51,-0.53 10.23,-1.05 17.84,-1.05 23.07,0 34.08,6.03 34.08,18.62 0,14.94 -17.57,19.93 -34.61,19.93l-17.31 0 0 -37.5zm-0.26 52.7l16.78 0c22.03,0 40.39,3.94 40.39,22.29 0,18.36 -23.08,22.03 -38.55,22.03 -7.34,0 -12.06,-0.26 -18.62,-1.05l0 -43.27zm193.25 58.48c-1.57,-8.65 -2.09,-19.4 -2.09,-30.42l0 -47.46c0,-25.43 -9.44,-51.92 -48.25,-51.92 -16,0 -31.21,4.46 -41.69,11.28l5.24 15.21c8.92,-5.77 21.24,-9.44 33.04,-9.44 25.96,0 28.84,18.88 28.84,29.36l0 2.63c-49.03,-0.27 -76.3,16.52 -76.3,47.2 0,18.35 13.11,36.44 38.81,36.44 18.09,0 31.72,-8.91 38.8,-18.88l0.79 0 1.84 16 20.97 0zm-24.38 -42.74c0,2.36 -0.53,4.98 -1.31,7.34 -3.67,10.75 -14.16,21.24 -30.68,21.24 -11.8,0 -21.77,-7.08 -21.77,-22.03 0,-24.65 28.59,-29.1 53.76,-28.58l0 22.03zm148.68 -83.13c-11.02,-1.31 -25.7,-2.62 -40.91,-2.62 -16.52,0 -31.99,2.62 -42.48,8.66 -9.7,5.5 -16.78,14.42 -16.78,27.53 0,19.4 17.04,29.63 33.56,31.46l0 0.79c-5.77,1.05 -10.49,3.93 -14.42,7.34 -11.28,9.44 -14.42,25.96 -19.93,38.29 -2.36,5.5 -4.98,10.22 -7.87,14.42l24.65 0c1.84,-3.15 3.67,-6.56 5.25,-10.49 4.98,-12.32 8.39,-28.06 17.83,-35.66 4.98,-4.46 11.54,-7.08 21.24,-7.08l17.04 0 0 53.23 22.82 0 0 -125.87zm-22.82 56.91c-5.24,0 -10.22,0 -19.66,0 -13.64,0 -33.83,-5.77 -33.83,-22.03 0,-17.57 18.62,-22.03 34.35,-22.03 8.13,0 13.37,0.53 19.14,1.31l0 42.75z"/>
  <path class="fil1" d="M5321.52 1688.89l63.72 0c-2.1,25.17 -19.15,41.17 -44.58,41.17 -14.95,0 -25.7,-4.2 -31.73,-6.82l-4.46 16.52c10.23,5.25 23.34,8.65 36.98,8.65 43,0 67.39,-28.84 67.39,-65.81 0,-20.72 -6.56,-37.5 -17.31,-48.78 -11.28,-11.8 -27.8,-18.09 -46.15,-18.09 -13.37,0 -28.06,3.67 -39.07,9.97l4.98 14.94c6.82,-3.14 17.04,-7.08 30.42,-7.08 28.32,0 41.69,17.83 43.79,39.6l-63.98 0 0 15.73zm108.03 -70.27l0 126.91 22.81 0 0 -57.43 60.31 0 0 57.43 22.81 0 0 -126.91 -22.81 0 0 51.13 -60.31 0 0 -51.13 -22.81 0zm237.83 67.65c0.26,-2.36 0.78,-6.03 0.78,-10.75 0,-23.34 -11.01,-59.79 -52.44,-59.79 -36.97,0 -59.53,30.16 -59.53,68.44 0,38.28 23.34,63.98 62.41,63.98 20.19,0 34.09,-4.19 42.22,-7.86l-3.93 -16.52c-8.66,3.67 -18.62,6.55 -35.14,6.55 -23.08,0 -43,-12.85 -43.53,-44.05l89.16 0zm-88.9 -16.52c1.84,-16 12.07,-37.5 35.4,-37.5 25.96,0 32.26,22.81 31.99,37.5l-67.39 0zm110.39 127.7l22.82 0 0 -68.96 0.52 0c7.6,12.58 22.29,19.92 39.07,19.92 29.89,0 57.69,-22.55 57.69,-68.17 0,-38.55 -23.08,-64.51 -53.76,-64.51 -20.71,0 -35.66,9.18 -45.1,24.65l-0.52 0 -1.05 -21.76 -20.72 0c0.53,12.06 1.05,25.17 1.05,41.43l0 137.4zm22.82 -125.34c0,-3.15 0.78,-6.56 1.57,-9.44 4.46,-17.31 19.14,-28.58 34.87,-28.58 24.39,0 37.76,21.76 37.76,47.2 0,29.1 -14.16,49.03 -38.54,49.03 -16.52,0 -30.42,-11.01 -34.62,-27.01 -0.52,-2.88 -1.04,-6.03 -1.04,-9.44l0 -21.76zm117.99 -53.49l0 126.91 22.81 0 0 -108.3 55.07 0 0 -18.61 -77.88 0zm88.63 0l0 126.91 26.48 0c13.64,-22.29 27.53,-46.68 39.6,-66.34 7.34,-12.85 12.85,-23.08 20.97,-39.33l0.79 0c-1.05,20.45 -1.57,31.2 -1.57,51.91l0 53.76 22.02 0 0 -126.91 -27 0 -39.6 65.55c-8.39,14.68 -12.85,23.6 -20.45,39.07l-0.79 -0.26c1.05,-18.09 1.31,-30.68 1.31,-50.87l0 -53.49 -21.76 0zm234.16 1.04c-11.02,-1.31 -25.7,-2.62 -40.91,-2.62 -16.52,0 -31.99,2.62 -42.48,8.66 -9.7,5.5 -16.78,14.42 -16.78,27.53 0,19.4 17.04,29.63 33.56,31.46l0 0.79c-5.77,1.05 -10.49,3.93 -14.42,7.34 -11.28,9.44 -14.42,25.96 -19.93,38.29 -2.36,5.5 -4.98,10.22 -7.87,14.42l24.65 0c1.84,-3.15 3.67,-6.56 5.25,-10.49 4.98,-12.32 8.39,-28.06 17.83,-35.66 4.98,-4.46 11.54,-7.08 21.24,-7.08l17.04 0 0 53.23 22.82 0 0 -125.87zm-22.82 56.91c-5.24,0 -10.22,0 -19.66,0 -13.64,0 -33.83,-5.77 -33.83,-22.03 0,-17.57 18.62,-22.03 34.35,-22.03 8.13,0 13.37,0.53 19.14,1.31l0 42.75z"/>
 </g>
</svg>
