<?xml version="1.0" encoding="UTF-8"?>
<!DOCTYPE svg PUBLIC "-//W3C//DTD SVG 1.1//EN" "http://www.w3.org/Graphics/SVG/1.1/DTD/svg11.dtd">
<!-- Creator: CorelDRAW 2021 (64-Bit Оценочная версия) -->
<svg xmlns="http://www.w3.org/2000/svg" xml:space="preserve" width="91.5mm" height="45.5mm" version="1.1" style="shape-rendering:geometricPrecision; text-rendering:geometricPrecision; image-rendering:optimizeQuality; fill-rule:evenodd; clip-rule:evenodd"
viewBox="0 0 9150 4550"
 xmlns:xlink="http://www.w3.org/1999/xlink"
 xmlns:xodm="http://www.corel.com/coreldraw/odm/2003">
 <defs>
  <style type="text/css">
   <![CDATA[
    .str1 {stroke:#747F86;stroke-width:246.94;stroke-miterlimit:10}
    .str2 {stroke:#D94232;stroke-width:35.28;stroke-miterlimit:10}
    .str0 {stroke:#747F86;stroke-width:493.89;stroke-miterlimit:10}
    .fil1 {fill:none;fill-rule:nonzero}
    .fil2 {fill:#FEFEFE;fill-rule:nonzero}
    .fil0 {fill:#ED6D44;fill-rule:nonzero}
   ]]>
  </style>
 </defs>
 <g id="Слой_x0020_1">
  <metadata id="CorelCorpID_0Corel-Layer"/>
  <path class="fil0" d="M6871.17 259c1080.43,0 1956.3,875.88 1956.3,1956.31 0,1080.42 -875.87,1956.28 -1956.3,1956.28 -1080.42,0 -1956.3,-875.86 -1956.3,-1956.28 0,-1080.43 875.88,-1956.31 1956.3,-1956.31z"/>
  <path class="fil1 str0" d="M8827.47 2215.29c0,1080.43 -875.88,1956.3 -1956.31,1956.3"/>
  <path class="fil1 str1" d="M6871.17 259c1080.43,0 1956.3,875.88 1956.3,1956.31"/>
  <path class="fil1 str2" d="M6871.17 259c-1080.42,0 -1956.3,875.88 -1956.3,1956.31l-4711.9 0"/>
  <path class="fil2" d="M5519.66 2501.59c41.96,27.54 125.88,57.69 221.6,57.69 204.54,0 310.75,-119.32 310.75,-255.68 0,-119.32 -85.23,-198 -190.12,-218.97l0 -2.63c104.89,-38.02 157.34,-112.76 157.34,-200.61 0,-103.59 -76.05,-203.24 -243.88,-203.24 -91.79,0 -178.33,32.78 -222.91,65.56l30.16 83.92c36.71,-26.23 102.27,-56.38 170.46,-56.38 106.2,0 149.47,60.31 149.47,128.49 0,100.97 -106.2,144.24 -190.12,144.24l-64.25 0 0 86.54 64.25 0c111.45,0 218.97,51.13 220.28,170.45 1.31,70.81 -44.58,165.22 -192.75,165.22 -79.98,0 -156.03,-32.78 -188.81,-53.76l-31.47 89.16zm681.83 196.68c36.71,-61.63 94.4,-207.17 124.56,-318.62l-128.5 13.11c-14.42,95.72 -49.82,236.02 -78.67,313.38l82.61 -7.87zm696.24 -1005.7l-407.78 0 -55.07 409.1c31.47,-3.93 69.49,-9.18 118.01,-9.18 170.45,0 243.88,78.68 245.19,188.82 0,114.07 -93.09,184.88 -201.92,184.88 -77.37,0 -146.86,-26.23 -182.26,-47.21l-28.85 87.85c40.65,26.23 119.32,52.45 212.42,52.45 184.88,0 317.31,-124.56 317.31,-291.09 0,-107.51 -55.07,-180.94 -121.94,-218.97 -52.45,-31.47 -118.01,-45.89 -183.57,-45.89 -31.47,0 -49.83,2.62 -69.5,5.25l32.78 -218.98 325.18 0 0 -97.03zm628.08 -14.42c-112.77,0 -205.86,95.72 -205.86,266.18 1.31,171.76 93.09,256.99 199.3,256.99 110.14,0 204.55,-89.16 204.55,-268.8 0,-162.59 -78.67,-254.37 -197.99,-254.37zm-3.94 69.49c79.99,0 110.14,86.54 110.14,190.13 0,112.76 -34.09,194.06 -110.14,194.06 -72.11,0 -112.76,-82.61 -110.14,-191.44 0,-107.52 38.03,-192.75 110.14,-192.75zm62.94 811.64l500.88 -881.13 -73.42 0 -500.89 881.13 73.43 0zm496.95 -528.41c-112.76,0 -205.86,95.71 -205.86,267.48 1.31,170.46 93.1,255.69 199.3,255.69 108.83,0 203.24,-89.16 203.24,-268.8 0,-162.59 -77.36,-254.37 -196.68,-254.37zm-3.93 69.49c79.98,0 110.14,86.54 110.14,190.13 0,112.76 -34.09,194.05 -110.14,194.05 -70.81,0 -112.77,-82.6 -111.46,-191.43 0,-107.52 39.34,-192.75 111.46,-192.75z"/>
  <path class="fil2" d="M5613.85 2864.72l0 44.84c0,30.42 -2.36,54.02 -8.4,74.47 -4.19,13.9 -10.75,26.75 -17.3,38.81l-13.38 0.53 1.58 60.57 17.83 0 1.57 -42.48 111.45 0 1.57 42.48 17.83 0 1.57 -60.57 -15.47 -0.53 0 -158.12 -98.85 0zm21.24 18.88l54.8 0 0 138.98 -78.14 0c5.24,-9.44 10.75,-21.24 14.42,-33.56 6.29,-19.93 8.92,-43.79 8.92,-72.11l0 -33.31zm180.66 -21.76c-47.19,0 -82.07,36.71 -82.07,92.83 0,53.49 32.78,89.67 79.45,89.67 45.1,0 82.08,-32.25 82.08,-93.08 0,-52.45 -31.21,-89.42 -79.46,-89.42zm-1.04 18.62c38.02,0 56.37,36.71 56.37,71.85 0,40.11 -20.45,73.42 -56.64,73.42 -35.92,0 -56.37,-33.83 -56.37,-71.59 0,-38.81 18.88,-73.68 56.64,-73.68zm113.53 -15.74l0 74.47c0,28.32 -1.31,62.67 -15.47,76.57 -4.19,3.94 -11.54,8.13 -18.62,9.44l2.89 18.36c10.23,0 20.45,-4.2 27.01,-8.39 24.91,-16.79 26.48,-59.53 26.48,-97.81l0 -53.49 58.48 0 0 157.59 23.07 0 0 -176.74 -103.84 0zm143.96 176.74c2.62,-4.72 3.93,-8.39 5.77,-12.85 6.29,-16.78 11.27,-42.74 23.34,-55.06 6.29,-6.3 14.42,-8.66 25.43,-8.66l16.78 0 0 76.57 22.82 0 0 -174.38c-11.54,-2.36 -27.27,-3.67 -42.22,-3.67 -22.29,0 -39.6,4.72 -50.61,13.64 -9.96,8.13 -16.26,20.45 -16.26,35.92 0,24.13 17.31,39.86 39.07,43.53l0 0.79c-5.24,1.57 -10.48,4.72 -14.68,8.91 -14.42,14.42 -19.14,39.07 -26.75,59.26 -2.09,5.77 -4.45,11.28 -7.08,16l24.39 0zm71.32 -94.14c-4.45,0.27 -11.8,0.27 -19.4,0.27 -24.91,0 -43.79,-12.33 -43.79,-33.57 0,-24.39 19.14,-33.04 41.69,-33.04 10.23,0 17.57,1.31 21.5,2.1l0 64.24zm118.27 -82.6l0 176.74 22.81 0 0 -82.86 85.49 0 0 82.86 23.07 0 0 -176.74 -23.07 0 0 73.95 -85.49 0 0 -73.95 -22.81 0zm254.35 121.15l18.88 55.59 24.39 0 -60.31 -176.74 -27.54 0 -60.04 176.74 23.6 0 18.35 -55.59 62.67 0zm-57.95 -17.83l17.31 -51.13c3.41,-10.76 6.29,-21.51 8.91,-32l0.53 0c2.62,10.23 5.24,20.72 9.17,32.26l17.31 50.87 -53.23 0zm182.77 73.42l22.81 0 0 -70.8c5.25,1.31 11.54,1.57 18.36,1.57 22.29,0 41.95,-6.55 54.01,-19.4 8.92,-9.18 13.64,-21.76 13.64,-37.76 0,-15.73 -5.77,-28.58 -15.47,-36.97 -10.49,-9.44 -27.01,-14.69 -49.56,-14.69 -18.36,0 -32.78,1.58 -43.79,3.41l0 174.64zm22.81 -158.12c3.94,-1.05 11.54,-1.83 21.5,-1.83 25.18,0 41.7,11.27 41.7,34.61 0,24.39 -16.79,37.76 -44.32,37.76 -7.6,0 -13.9,-0.53 -18.88,-1.84l0 -68.7zm175.68 -21.5c-47.19,0 -82.07,36.71 -82.07,92.83 0,53.49 32.78,89.67 79.45,89.67 45.1,0 82.08,-32.25 82.08,-93.08 0,-52.45 -31.21,-89.42 -79.46,-89.42zm-1.04 18.62c38.02,0 56.37,36.71 56.37,71.85 0,40.11 -20.45,73.42 -56.64,73.42 -35.92,0 -56.37,-33.83 -56.37,-71.59 0,-38.81 18.88,-73.68 56.64,-73.68zm92.81 11.53c9.44,-6.03 23.34,-11.53 36.72,-11.53 19.14,0 31.72,9.96 31.72,27.79 0,18.1 -18.09,32.52 -41.43,32.52l-10.49 0 0 17.3 10.49 0c22.55,0 47.99,7.61 47.99,34.09 0,19.41 -14.42,33.57 -40.64,33.57 -14.43,0 -30.16,-5.25 -39.6,-10.75l-6.03 17.83c13.37,8.13 30.15,11.53 46.15,11.53 32.25,0 63.98,-14.68 63.98,-51.39 0,-25.44 -18.09,-41.69 -43,-44.32l0 -0.52c20.71,-4.72 36.45,-21.24 36.45,-43 0,-27.28 -21.24,-43.27 -51.92,-43.27 -19.15,0 -34.62,5.51 -46.68,13.37l6.29 16.78zm121.67 -27.27l0 176.74 22.81 0 0 -82.86 85.49 0 0 82.86 23.07 0 0 -176.74 -23.07 0 0 73.95 -85.49 0 0 -73.95 -22.81 0zm163.1 0l0 176.74 24.39 0 55.32 -87.84c12.07,-19.67 24.13,-40.12 32.78,-59.53l0.79 0.26c-1.84,22.29 -2.1,43.27 -2.1,71.85l0 75.26 21.5 0 0 -176.74 -22.81 0 -57.17 90.99c-12.84,20.98 -23.86,40.12 -32.77,58.48l-0.53 -0.26c1.58,-23.6 2.1,-46.68 2.1,-74.74l0 -74.47 -21.5 0zm161.79 0l0 59.53c0,43.26 28.84,53.23 52.18,53.23 15.47,0 30.15,-3.93 42.48,-11.01l0.52 0 0 74.99 23.08 0 0 -176.74 -23.08 0 0 83.91c-9.17,5.77 -22.55,9.97 -34.87,9.97 -24.91,0 -37.5,-13.64 -37.5,-37.76l0 -56.12 -22.81 0zm149.99 0l0 176.74 22.81 0 0 -82.86 85.49 0 0 82.86 23.07 0 0 -176.74 -23.07 0 0 73.95 -85.49 0 0 -73.95 -22.81 0zm234.68 -2.88c-47.19,0 -82.07,36.71 -82.07,92.83 0,53.49 32.78,89.67 79.45,89.67 45.1,0 82.08,-32.25 82.08,-93.08 0,-52.45 -31.21,-89.42 -79.46,-89.42zm-1.04 18.62c38.02,0 56.37,36.71 56.37,71.85 0,40.11 -20.45,73.42 -56.64,73.42 -35.92,0 -56.37,-33.83 -56.37,-71.59 0,-38.81 18.88,-73.68 56.64,-73.68zm254.87 161l22.29 0 -11.02 -176.74 -29.1 0 -31.47 85.49c-7.87,22.29 -14.16,41.69 -18.62,59.52l-0.78 0c-4.46,-18.35 -10.49,-37.76 -17.84,-59.52l-30.15 -85.49 -29.11 0 -12.32 176.74 21.76 0 4.72 -75.78c1.58,-26.49 2.89,-56.12 3.41,-78.14l0.53 0c4.98,20.97 12.06,43.79 20.45,68.7l28.58 84.17 17.31 0 31.2 -85.74c8.92,-24.39 16.26,-46.42 22.29,-67.13l0.79 0c-0.26,22.02 1.31,51.65 2.62,76.3l4.46 77.62z"/>
  <path class="fil2" d="M5443.66 3347.5l22.81 0 0 -70.8c5.25,1.31 11.54,1.57 18.36,1.57 22.29,0 41.95,-6.55 54.01,-19.4 8.92,-9.18 13.64,-21.76 13.64,-37.76 0,-15.73 -5.77,-28.58 -15.47,-36.97 -10.49,-9.44 -27.01,-14.69 -49.56,-14.69 -18.36,0 -32.78,1.58 -43.79,3.41l0 174.64zm22.81 -158.12c3.94,-1.05 11.54,-1.83 21.5,-1.83 25.18,0 41.7,11.27 41.7,34.61 0,24.39 -16.79,37.76 -44.32,37.76 -7.6,0 -13.9,-0.53 -18.88,-1.84l0 -68.7zm108.82 -18.62l0 176.22c7.6,1.04 19.67,2.09 35.4,2.09 23.86,0 48.51,-5.5 62.93,-20.71 8.39,-9.18 13.64,-21.24 13.64,-37.5 0,-39.33 -31.73,-55.33 -68.18,-55.33 -5.77,0 -15.73,0.53 -20.98,1.31l0 -66.08 -22.81 0zm22.81 84.18c2.89,-0.53 9.7,-1.31 18.1,-1.31 23.59,0 47.19,10.48 47.19,38.02 0,26.74 -21.76,39.59 -46.93,39.59 -7.87,0 -13.64,-0.26 -18.36,-1.31l0 -74.99zm108.82 -84.18l0 176.74 23.08 0 0 -176.74 -23.08 0zm56.12 0l0 176.74 22.81 0 0 -82.86 85.49 0 0 82.86 23.07 0 0 -176.74 -23.07 0 0 73.95 -85.49 0 0 -73.95 -22.81 0zm163.1 0l0 176.74 22.55 0 0 -81.03 7.34 0c29.89,0 41.17,16 49.3,39.34 4.72,13.89 9.7,29.63 15.99,41.69l24.65 0c-7.86,-15.73 -12.85,-31.99 -19.4,-50.08 -9.18,-23.87 -20.45,-41.7 -49.56,-45.63l66.87 -81.03 -27.54 0 -60.57 78.41 -7.08 0 0 -78.41 -22.55 0zm225.76 75l-68.7 0 0 -55.85 72.64 0 0 -19.15 -95.45 0 0 176.74 99.38 0 0 -19.14 -76.57 0 0 -63.72 68.7 0 0 -18.88zm105.41 20.45l82.6 0c-1.57,36.71 -24.91,65.03 -63.98,65.03 -13.11,0 -27.79,-3.41 -38.02,-8.13l-4.98 18.1c12.58,5.77 28.58,9.17 46.15,9.17 46.93,0 85.22,-33.04 85.22,-90.99 0,-51.39 -28.32,-91.51 -83.91,-91.51 -16.78,0 -31.99,4.72 -44.58,10.23l5.51 17.56c11.27,-4.98 23.6,-8.91 37.76,-8.91 36.45,0 57.69,27.01 60.57,61.1l-82.34 0 0 18.35zm140.02 -95.45l0 74.47c0,28.32 -1.31,62.67 -15.47,76.57 -4.19,3.94 -11.54,8.13 -18.62,9.44l2.89 18.36c10.23,0 20.45,-4.2 27.01,-8.39 24.91,-16.79 26.48,-59.53 26.48,-97.81l0 -53.49 58.48 0 0 157.59 23.07 0 0 -176.74 -103.84 0zm227.08 75l-68.7 0 0 -55.85 72.64 0 0 -19.15 -95.45 0 0 176.74 99.38 0 0 -19.14 -76.57 0 0 -63.72 68.7 0 0 -18.88zm29.63 -75l0 176.74 22.55 0 0 -81.03 7.34 0c29.89,0 41.17,16 49.3,39.34 4.72,13.89 9.7,29.63 15.99,41.69l24.65 0c-7.86,-15.73 -12.85,-31.99 -19.4,-50.08 -9.18,-23.87 -20.45,-41.7 -49.56,-45.63l66.87 -81.03 -27.54 0 -60.57 78.41 -7.08 0 0 -78.41 -22.55 0zm183.29 176.74l23.08 0 0 -157.33 54.02 0 0 -19.41 -130.85 0 0 19.41 53.75 0 0 157.33zm88.89 0l22.81 0 0 -70.8c5.25,1.31 11.54,1.57 18.36,1.57 22.29,0 41.95,-6.55 54.01,-19.4 8.92,-9.18 13.64,-21.76 13.64,-37.76 0,-15.73 -5.77,-28.58 -15.47,-36.97 -10.49,-9.44 -27.01,-14.69 -49.56,-14.69 -18.36,0 -32.78,1.58 -43.79,3.41l0 174.64zm22.81 -158.12c3.94,-1.05 11.54,-1.83 21.5,-1.83 25.18,0 41.7,11.27 41.7,34.61 0,24.39 -16.79,37.76 -44.32,37.76 -7.6,0 -13.9,-0.53 -18.88,-1.84l0 -68.7zm175.67 -21.5c-47.19,0 -82.07,36.71 -82.07,92.83 0,53.49 32.78,89.67 79.45,89.67 45.1,0 82.08,-32.25 82.08,-93.08 0,-52.45 -31.21,-89.42 -79.46,-89.42zm-1.04 18.62c38.02,0 56.37,36.71 56.37,71.85 0,40.11 -20.45,73.42 -56.64,73.42 -35.92,0 -56.37,-33.83 -56.37,-71.59 0,-38.81 18.88,-73.68 56.64,-73.68zm105.67 79.71l82.6 0c-1.57,36.71 -24.91,65.03 -63.98,65.03 -13.11,0 -27.79,-3.41 -38.02,-8.13l-4.98 18.1c12.58,5.77 28.58,9.17 46.15,9.17 46.93,0 85.22,-33.04 85.22,-90.99 0,-51.39 -28.32,-91.51 -83.91,-91.51 -16.78,0 -31.99,4.72 -44.58,10.23l5.51 17.56c11.27,-4.98 23.6,-8.91 37.76,-8.91 36.45,0 57.69,27.01 60.57,61.1l-82.34 0 0 18.35zm128.75 -95.45l0 176.74 22.81 0 0 -82.86 85.49 0 0 82.86 23.07 0 0 -176.74 -23.07 0 0 73.95 -85.49 0 0 -73.95 -22.81 0zm254.61 75l-68.7 0 0 -55.85 72.64 0 0 -19.15 -95.45 0 0 176.74 99.38 0 0 -19.14 -76.57 0 0 -63.72 68.7 0 0 -18.88zm29.63 101.74l22.81 0 0 -70.8c5.25,1.31 11.54,1.57 18.36,1.57 22.29,0 41.95,-6.55 54.01,-19.4 8.92,-9.18 13.64,-21.76 13.64,-37.76 0,-15.73 -5.77,-28.58 -15.47,-36.97 -10.49,-9.44 -27.01,-14.69 -49.56,-14.69 -18.36,0 -32.78,1.58 -43.79,3.41l0 174.64zm22.81 -158.12c3.94,-1.05 11.54,-1.83 21.5,-1.83 25.18,0 41.7,11.27 41.7,34.61 0,24.39 -16.79,37.76 -44.32,37.76 -7.6,0 -13.9,-0.53 -18.88,-1.84l0 -68.7zm108.82 -18.62l0 176.74 22.81 0 0 -157.59 71.06 0 0 -19.15 -93.87 0zm105.67 0l0 176.74 24.39 0 55.32 -87.84c12.07,-19.67 24.13,-40.12 32.78,-59.53l0.79 0.26c-1.84,22.29 -2.1,43.27 -2.1,71.85l0 75.26 21.5 0 0 -176.74 -22.81 0 -57.17 90.99c-12.84,20.98 -23.86,40.12 -32.77,58.48l-0.53 -0.26c1.58,-23.6 2.1,-46.68 2.1,-74.74l0 -74.47 -21.5 0zm164.67 0l0 176.74 24.39 0 55.32 -87.84c12.07,-19.67 24.13,-40.12 32.78,-59.53l0.79 0.26c-1.84,22.29 -2.1,43.27 -2.1,71.85l0 75.26 21.5 0 0 -176.74 -22.81 0 -57.17 90.99c-12.84,20.98 -23.86,40.12 -32.77,58.48l-0.53 -0.26c1.58,-23.6 2.1,-46.68 2.1,-74.74l0 -74.47 -21.5 0z"/>
  <path class="fil2" d="M6360.99 3653.53l22.81 0 0 -70.8c5.25,1.31 11.54,1.57 18.36,1.57 22.29,0 41.95,-6.55 54.01,-19.4 8.92,-9.18 13.64,-21.76 13.64,-37.76 0,-15.73 -5.77,-28.58 -15.47,-36.97 -10.49,-9.44 -27.01,-14.69 -49.56,-14.69 -18.36,0 -32.78,1.58 -43.79,3.41l0 174.64zm22.81 -158.12c3.94,-1.05 11.54,-1.83 21.5,-1.83 25.18,0 41.7,11.27 41.7,34.61 0,24.39 -16.79,37.76 -44.32,37.76 -7.6,0 -13.9,-0.53 -18.88,-1.84l0 -68.7zm175.68 -21.5c-47.19,0 -82.07,36.71 -82.07,92.83 0,53.49 32.78,89.67 79.45,89.67 45.1,0 82.08,-32.25 82.08,-93.08 0,-52.45 -31.21,-89.42 -79.46,-89.42zm-1.04 18.62c38.02,0 56.37,36.71 56.37,71.85 0,40.11 -20.45,73.42 -56.64,73.42 -35.92,0 -56.37,-33.83 -56.37,-71.59 0,-38.81 18.88,-73.68 56.64,-73.68zm221.04 137.14c-9.17,4.46 -23.33,7.34 -37.23,7.34 -43,0 -67.92,-27.8 -67.92,-71.06 0,-46.41 27.54,-72.9 68.97,-72.9 14.68,0 27.01,3.15 35.66,7.34l5.51 -18.61c-6.03,-3.15 -19.93,-7.87 -41.96,-7.87 -54.8,0 -92.3,37.5 -92.3,92.83 0,57.95 37.5,89.41 87.32,89.41 21.5,0 38.28,-4.19 46.67,-8.39l-4.72 -18.09zm133.72 0c-9.17,4.46 -23.33,7.34 -37.23,7.34 -43,0 -67.92,-27.8 -67.92,-71.06 0,-46.41 27.54,-72.9 68.97,-72.9 14.68,0 27.01,3.15 35.66,7.34l5.51 -18.61c-6.03,-3.15 -19.93,-7.87 -41.96,-7.87 -54.8,0 -92.3,37.5 -92.3,92.83 0,57.95 37.5,89.41 87.32,89.41 21.5,0 38.28,-4.19 46.67,-8.39l-4.72 -18.09zm25.44 -152.88l0 176.74 24.39 0 55.32 -87.84c12.07,-19.67 24.13,-40.12 32.78,-59.53l0.79 0.26c-1.84,22.29 -2.1,43.27 -2.1,71.85l0 75.26 21.5 0 0 -176.74 -22.81 0 -57.17 90.99c-12.84,20.98 -23.86,40.12 -32.77,58.48l-0.53 -0.26c1.58,-23.6 2.1,-46.68 2.1,-74.74l0 -74.47 -21.5 0zm164.67 0l0 176.74 24.39 0 55.32 -87.84c12.07,-19.67 24.13,-40.12 32.78,-59.53l0.79 0.26c-1.84,22.29 -2.1,43.27 -2.1,71.85l0 75.26 21.5 0 0 -176.74 -22.81 0 -57.17 90.99c-12.84,20.98 -23.86,40.12 -32.77,58.48l-0.53 -0.26c1.58,-23.6 2.1,-46.68 2.1,-74.74l0 -74.47 -21.5 0z"/>
  <path class="fil2" d="M6526.9 1080.82l290.29 0c5.26,0 10.2,2.54 13.3,6.8 3.06,4.26 3.92,9.76 2.26,14.75l-93.02 280.27 394.6 -488.65 -290.29 0c-5.26,0 -10.2,-2.53 -13.31,-6.8 -3.06,-4.28 -3.9,-9.76 -2.24,-14.76l93 -280.28 -394.59 488.67zm168.82 398.83c-2.68,0 -5.37,-0.65 -7.87,-2.01 -6.94,-3.8 -10.2,-12.04 -7.69,-19.56l114.32 -344.48 -301.87 0c-6.31,0 -12.06,-3.63 -14.79,-9.33 -2.73,-5.7 -1.92,-12.46 2.03,-17.35l472.9 -585.68c5.02,-6.19 13.7,-7.85 20.62,-4.09 6.96,3.8 10.19,12.04 7.7,19.56l-114.32 344.5 301.86 0c6.32,0 12.07,3.63 14.8,9.31 2.73,5.7 1.92,12.46 -2.03,17.37l-472.89 585.66c-3.24,3.96 -7.96,6.1 -12.77,6.1z"/>
 </g>
</svg>
