<?xml version="1.0" encoding="UTF-8"?>
<!DOCTYPE svg PUBLIC "-//W3C//DTD SVG 1.1//EN" "http://www.w3.org/Graphics/SVG/1.1/DTD/svg11.dtd">
<!-- Creator: CorelDRAW X7 -->
<svg xmlns="http://www.w3.org/2000/svg" xml:space="preserve" width="260px" height="158px" version="1.1" shape-rendering="geometricPrecision" text-rendering="geometricPrecision" image-rendering="optimizeQuality" fill-rule="evenodd" clip-rule="evenodd"
viewBox="0 0 5917 3599"
 xmlns:xlink="http://www.w3.org/1999/xlink">
 <g id="Слой_x0020_1">
  <metadata id="CorelCorpID_0Corel-Layer"/>
  <path fill="#747f86" fill-rule="nonzero" d="M5477 3584l0 -315c40,52 123,85 190,85 177,0 250,-79 250,-345 0,-267 -73,-344 -250,-344 -67,0 -150,34 -190,85l0 -67 -84 0 0 901 84 0zm0 -796c52,-29 106,-43 164,-43 156,0 182,26 182,264 0,240 -26,265 -182,265 -58,0 -112,-14 -164,-43l0 -443z"/>
  <path fill="#747f86" fill-rule="nonzero" d="M5207 3256l0 -573 -85 0 0 548c-51,29 -106,37 -164,37 -156,0 -176,-15 -176,-233l0 -352 -84 0 0 368c0,251 70,303 225,303 90,0 159,-41 199,-85l24 79 82 -20 -21 -72z"/>
  <path fill="#747f86" fill-rule="nonzero" d="M4270 3354c203,0 273,-80 273,-348 0,-266 -71,-341 -273,-341 -202,0 -273,75 -273,341 0,268 70,348 273,348zm0 -609c153,0 180,28 180,264 0,246 -27,265 -180,265 -153,0 -180,-19 -180,-265 0,-236 27,-264 180,-264z"/>
  <path fill="#747f86" fill-rule="nonzero" d="M3894 2764c1,1 5,3 10,5l23 -86c-5,-3 -10,-5 -11,-5 -23,-8 -53,-13 -90,-13 -72,0 -128,40 -181,85l-23 -79 -82 21 28 84 0 560 84 0 0 -548c52,-24 96,-38 154,-38 32,0 66,7 88,14z"/>
  <path fill="#747f86" fill-rule="nonzero" d="M3124 3291c175,0 192,20 192,116 0,78 -42,111 -197,111 -154,0 -192,-25 -192,-111 0,-39 11,-93 30,-130 37,9 91,14 167,14zm145 -393c0,111 -18,139 -173,139 -146,0 -167,-31 -167,-143 0,-115 26,-140 171,-140l139 0c17,34 30,79 30,144zm153 -215l-326 0c-162,0 -258,47 -258,217 0,101 28,162 101,190 -32,21 -64,51 -64,92 0,36 6,69 63,90 -56,30 -106,84 -106,159 0,122 86,168 279,168 220,0 299,-61 299,-203 0,-148 -80,-180 -286,-180 -161,0 -167,-18 -167,-70 0,-14 3,-31 7,-46 36,10 79,14 132,14 176,0 265,-57 265,-202 0,-58 -35,-115 -83,-158l144 0 0 -71z"/>
  <path fill="#E95821" fill-rule="nonzero" d="M2852 0l0 616c310,21 561,271 582,582l616 0 0 -479 -676 0c-23,0 -43,-20 -43,-43l0 -676 -479 0z"/>
  <path fill="#747f86" fill-rule="nonzero" d="M3331 1917l0 -676c0,-287 -235,-522 -522,-522l-676 0 0 479 676 0c23,0 43,20 43,43l0 676 479 0z"/>
  <path fill="#747f86" fill-rule="nonzero" d="M719 1241c0,-23 -20,-43 -43,-43l-676 0 0 -479 616 0c21,311 272,561 582,582l0 1508c0,23 20,42 43,42l676 0 0 480 -676 0c-287,0 -522,-235 -522,-522l0 -1568z"/>
  <path fill="#E95821" fill-rule="nonzero" d="M1917 1198l-676 0c-287,0 -522,-235 -522,-522l0 -676 479 0 0 676c0,23 20,43 43,43l676 0 0 479z"/>
 </g>
</svg>
