<?xml version="1.0" encoding="UTF-8"?>
<!DOCTYPE svg PUBLIC "-//W3C//DTD SVG 1.1//EN" "http://www.w3.org/Graphics/SVG/1.1/DTD/svg11.dtd">
<!-- Creator: CorelDRAW 2021 (64-Bit Оценочная версия) -->
<svg xmlns="http://www.w3.org/2000/svg" xml:space="preserve" width="130mm" height="140mm" version="1.1" style="shape-rendering:geometricPrecision; text-rendering:geometricPrecision; image-rendering:optimizeQuality; fill-rule:evenodd; clip-rule:evenodd"
viewBox="0 0 13000 14000"
 xmlns:xlink="http://www.w3.org/1999/xlink"
 xmlns:xodm="http://www.corel.com/coreldraw/odm/2003">
 <defs>
  <style type="text/css">
   <![CDATA[
    .fil3 {fill:#FEFEFE;fill-rule:nonzero}
    .fil2 {fill:#F5A993;fill-rule:nonzero}
    .fil0 {fill:#EB5F32;fill-rule:nonzero}
    .fil1 {fill:#747F86;fill-rule:nonzero}
   ]]>
  </style>
 </defs>
 <g id="Слой_x0020_1">
  <metadata id="CorelCorpID_0Corel-Layer"/>
  <path class="fil0" d="M12881.62 5270.89c-17.96,12.1 -38.38,20.89 -60.11,24.43 -102.1,16.56 -199.19,27.99 -275.71,113.29 -41.45,46.22 -100.64,14.28 -150.93,-0.93 -149.62,-45.23 -279.95,-28.65 -377.32,111.93 -28.23,40.81 -65.99,82.15 -121.11,69.37 -162.72,-37.79 -282.22,45.71 -399.84,138.79 -80.46,63.75 -153.4,124.21 -173.74,-51.87 -9.13,-78.99 -89.94,-77.56 -158.77,5.08 -41.46,49.81 -63.59,114.62 -142.22,125.08 -48.04,6.41 -31.85,57.48 -33.83,90.78 -6.78,116.08 -54.4,213.03 -148.13,274.9 -127.97,84.37 -200.49,213.73 -286.23,333.07 -15.48,21.51 -29.07,46.42 -36.31,71.89 -75.28,266.26 -275.28,344.52 -498.04,191.65 -110.67,-75.94 -211.31,-156.96 -364.77,-94.67 -66.23,26.86 -150.02,-26.04 -222.4,-55.71 -7.95,-3.3 -16.17,-16.88 -20.99,-15.32 -177.25,56.22 -193.8,-200.25 -349.07,-186.37 -3.97,0.33 -12.97,-12.08 -12.97,-18.49 0.2,-153.07 -111.88,-185.75 -224.18,-209.29 -57.88,-12.11 -117.23,-62.25 -181.2,5.91 -63.29,67.44 -28.61,129.73 -7.47,215.27 -111.29,-141.92 -183.15,-29.12 -270.85,33.93 -17.34,-188.73 -176.6,-114.72 -268.9,-158.58 -67.82,-32.27 -187.19,-79.16 -222.2,71.22 -5.54,23.77 -29.95,32.17 -53.15,15.24 -27.67,-20.12 -49.02,-53.09 -29.33,-81.05 57.19,-81.65 5.77,-128.63 -27.86,-200.78 -37.48,-80.39 58.79,-168.42 119.82,-182.92 105.73,-25.14 128.61,-81.56 151.52,-172.36 35,-138.66 126.48,-173.46 248.53,-105.96 60.39,33.43 122.63,44.73 173.57,-0.53 47.74,-42.37 130.62,-76.17 86.4,-171.1 -23.96,-51.2 20.73,-62.96 49.21,-78 90.5,-47.68 179.7,-101.3 275.41,-134.81 93.24,-32.64 58.41,-98.11 36.54,-139.15 -23.76,-44.53 14.57,-156.33 -108.62,-121.67 -55.7,15.68 -124,-9.42 -172.93,36.3 -75.73,70.69 -109.33,-52.73 -172.07,-34.26 -16.49,-61.53 51.1,-75.87 62.21,-106.53 34.71,-95.65 95.75,-113.45 182.31,-124.34 65.86,-8.27 61.34,-68.34 33.83,-117.34 -47.22,-84.41 -34.61,-132.82 61.98,-172.46 113.71,-46.56 119.39,-126.38 45.24,-256.87 -33.4,-58.84 -134.01,-138.03 -73.27,-178.8 73.34,-49.22 108.79,70.12 147.31,129.86 33.54,52.03 84.51,78.26 134.47,107.28 68.08,39.47 150.95,65.87 131.69,175.74 -6.06,34.74 23.93,44.37 52.71,43.57 128.4,-3.32 231.83,44.29 321.2,140.45 39.47,42.44 101.46,20.03 149,-5.94 58.4,-31.84 34.06,-72.62 5.05,-111.6 -27.86,-37.36 -20.5,-75.01 -3.46,-114.95 12.16,-28.6 34.88,-71.79 23.83,-88.33 -104.64,-156.62 52.05,-196.2 116.06,-273.47 73.49,-88.78 152.71,-143.37 287.08,-111.82 179.73,42.3 361.61,99.5 551.51,73.71 24.91,-3.36 36.51,2.59 50.88,26.42 153.37,254.39 391.86,415.16 626.12,578.39 201.43,140.32 408.48,272.37 614.41,405.85 147.93,95.86 304.29,74.18 414.19,-66.81 54.52,-70.02 105.53,-104.95 190.13,-64.52 50.18,24.01 94.63,4.19 137.89,-23.26 51.86,-32.94 106.31,-50.7 167.88,-49.45l0 470.91z"/>
  <path class="fil0" d="M10338.75 6856.26c34.02,193.44 219.06,243.55 311.23,379.09 73.45,107.81 97.25,218.18 107.32,339.64 1.07,13.05 1.53,32.41 -6.1,39.15 -158.09,140.72 -90.89,311.32 -60.97,476.11 11.37,62.82 -29.73,102.33 -57.33,145.43 -58.27,90.98 -64.49,166.39 38.84,226.19 89.85,52.1 114.49,124.95 85.69,228.84 -23.96,86.3 -21.71,175.98 -0.79,267.59 51.47,225.02 -83.72,356.61 -300.31,300.63 -122.97,-31.81 -205.94,18.49 -221.35,159.87 -13.14,120.54 -57.36,147.27 -176.31,176.48 -163.61,40.21 -266.26,-2.65 -366.77,-114.55 -11.63,-12.94 -29.04,-30.98 -42.76,-29.98 -173.21,11.95 -321.4,-58.44 -466.49,-141.59 -87.21,-49.97 -177.39,-95.48 -245.47,-173.45 -35.13,-40.15 -66.91,-99.55 -124.88,-90.35 -191.57,30.45 -242.6,-170.96 -378.95,-231.93 -40.81,-18.2 49.37,-290.57 98.68,-302.26 32.3,-7.73 41.94,25.14 61.59,41.14 106.74,87.2 188.27,57.18 217.67,-77.99 5.77,-26.33 11.79,-52.69 20.01,-78.36 25.85,-81.09 67.13,-107.98 127.43,-30.28 40.21,51.86 85.09,74.44 149.85,53.25 62.5,-20.45 78.34,-64.85 75.34,-125.57 -3.85,-76.14 44.25,-83.22 105,-85.37 177.36,-6.37 182.74,-13.11 188.02,-187.76 1.11,-35.77 18.73,-60.57 40.51,-81.89 37.64,-36.79 47.78,-74.81 17.4,-119.99 -78.31,-116.42 13.55,-167.85 87.89,-209.59 205.51,-115.42 394.31,-240.3 503.32,-468.17 48.59,-101.61 153.56,-170.57 212.69,-284.33z"/>
  <path class="fil0" d="M10236.68 6904.99c-143.4,244.28 -308.99,460.11 -530.44,625.6 -26.85,20.09 -67.62,19.73 -100.15,33.18 -120.28,50.03 -162.81,140.55 -118.3,263.46 32.93,90.78 -66.84,141.12 -51.94,238.41 17.72,115.88 -97.54,97.55 -174.46,99.04 -72.22,1.4 -122.73,25.04 -116.31,110.34 3.3,44.63 -5.83,79.13 -50.87,98.65 -47.07,20.45 -74.8,-1.09 -100.83,-37.52 -29.4,-41.04 -61.47,-80.02 -120.82,-59.41 -57.91,20.1 -78.41,69.67 -92.13,123.53 -42.49,166.78 -42.17,166.81 -187.78,79.02 -60.65,-36.55 -100.93,-8.23 -130.95,45.26 -24.11,42.87 -41.52,90.18 -69.35,130.13 -29.27,41.9 -100.7,57.94 -107.71,14.41 -15.57,-96.19 -112.92,-111.84 -141.02,-186.31 -10.75,-28.46 -31.57,-55.62 -54.87,-52.47 -154.22,21.06 -165.76,-123.75 -226.18,-204.56 -57.23,-76.44 -6.35,-186.45 96.6,-203.08 73.16,-11.78 73.23,-39.24 76.68,-101.67 6.49,-118.34 38.49,-231.26 147.51,-302.52 79.35,-51.86 66.25,-163.96 136.55,-224.09 21.83,-18.59 23.76,-59.43 65.59,-63.06 42.21,75.05 55.05,217.59 193.03,95.76 20.67,-18.26 43.62,0.83 57.59,16.91 78.35,90.48 193.49,45.29 286.83,81.48 35.94,13.97 71.18,-15.5 87.82,-47.62 19.92,-38.34 15.29,-80.59 -22.35,-109.34 -84.63,-64.55 -54.55,-131.65 -4.66,-197.76 78.57,-104.1 161.06,-201.51 145.02,-351.23 -7.1,-66.28 231.55,-172.59 295.01,-153.24 101.22,30.88 199.09,94.84 314.33,36.73 76.26,-38.49 133.49,24.27 191.92,61.42 95.68,60.8 181.82,141.15 306.64,140.55z"/>
  <path class="fil0" d="M6146.03 10439.23c-39.5,-25.3 -46.25,-69.92 -24.38,-104.76 60.75,-96.61 33.05,-201.41 40.45,-303.41 8.14,-112.89 -30.15,-190.2 -138.09,-230.37 -47.05,-17.53 -80.76,-43.76 -65.5,-111.53 34.64,-153.67 -16.79,-204.14 -166.77,-177.37 -40.96,7.37 -106.08,59.27 -107.45,-29.75 -0.84,-57.95 -32.78,-150.16 85,-161.44 98.06,-9.43 211.28,-9.17 246.32,-140.79 133.88,40.51 199.28,-150.18 332.73,-103.93 83.05,28.79 122.97,-15.77 132.91,-84.3 9.71,-67.48 37.44,-111.8 98,-128.64 88.28,-24.6 143.97,-82.5 180.83,-164.29 72.91,39.69 84.25,130.1 125.67,172.26 97.44,99.09 -12.06,142.62 -25.03,205.6 -23.01,112.1 -67.98,219.05 43.97,309.63 30.76,24.83 40.38,66.24 19.75,98.65 -61.37,96.22 -19.92,217.69 -86.99,317.16 -35.84,53.1 -1.47,133.88 48.98,184.98 66,66.81 130.82,16.14 193.65,-12.28 32.89,45.88 11.38,76.07 -20.46,107.01 -51.88,50.44 -100.9,95.66 -47.74,184.28 31.15,52.01 -42.28,79.03 -71.08,115.45 -23.83,30.15 -71.11,51.57 -49.28,99.95 20.57,45.72 60.72,35 103.31,29.72 70.04,-8.77 105.98,82.78 185.37,71.58 59.44,-8.3 115.86,-21.31 144.7,81.32 19.22,68.6 115.34,32.87 161.74,-25.07 51.98,-65.01 93.02,-150.51 174.04,-26.82 18.28,27.91 56.02,9.13 86.46,0.33 97.7,-28.46 113.84,70.89 154.73,117.67 45.14,51.53 -32.39,54.72 -57.55,75.77 -18.09,15.07 -38.62,28.35 -35.26,52.19 22.55,159.39 17.56,323.85 90.66,474.12 22.75,46.72 106.04,89.95 45.76,148 -67.66,65.05 -155.39,106.61 -255.73,62.46 -78.84,-34.6 -118.9,-104.8 -157.57,-176.89 -15.19,-28.32 -16.62,-65.44 -73.21,-52.59 -129.67,29.55 -246.38,-70.66 -258.3,-208.86 -4.66,-53.81 -5.15,-109.63 -20.11,-160.76 -19,-64.55 -74.56,-99.45 -135.61,-76.61 -92.26,34.47 -132.18,13.02 -152.81,-86.09 -19.36,-92.78 -86.39,-127.44 -182.01,-112.14 -95.13,15.25 -189.9,32.55 -286.37,-13.21 -77.27,-36.76 -110.12,-85.37 -91.25,-169.44 4.95,-22.02 14.4,-43.66 15.15,-65.71 2.09,-61.72 21.18,-142.52 -56.83,-161.43 -80.5,-19.53 -76.66,68.89 -98.75,117.67 -11.25,24.77 -14.63,52.79 -46.05,62.68z"/>
  <path class="fil0" d="M7502.77 5538.73c162.79,6.39 315.47,-4.17 428.79,-151.37 33.14,-43.03 92.72,-12.72 99.56,54.88 5.02,48.98 25.26,111.47 4.01,145.5 -58.4,93.67 -6.91,265.7 -188.76,275.83 -72.45,4.05 -67.79,100.21 -127.6,139.59 -93.36,61.56 -2.56,115.35 40.68,156.85 47.59,45.57 4.07,70.8 -10.75,103.34 -33.96,74.61 2.45,125.34 61.56,156.29 61.59,32.24 101.65,-1.13 116.21,-65.95 6.72,-29.85 19.88,-56.61 51.82,-44.96 113.8,41.81 258.96,-3.72 337.25,142.38 39.95,74.54 101.97,27.57 141.47,-17.66 63.22,-72.39 105.39,-54.09 129.93,27.72 22.55,75.21 73.19,122.66 133.92,161.97 48.78,31.52 41.54,73.01 28.61,118.71 -12.95,45.58 -41.23,60.13 -87.48,65.27 -197.68,22.25 -212.42,42.88 -184.26,243.85 4.3,30.88 -12.19,38.45 -30.66,50.25 -44.33,28.19 -73.23,66.27 -67.11,122.51 5.38,48.92 -26.98,66.18 -62.57,71.07 -52.6,7.1 -69.41,-32.38 -71.5,-76.61 -3.13,-68.66 -11.54,-124.62 -98.88,-73.41 -30.18,17.66 -51.23,10.19 -57.2,-25.47 -11.41,-68.17 -35.65,-131.59 -115.95,-116.78 -86.49,16.04 -173.8,44.57 -209.52,142.72 -12.29,33.63 -17.44,70.05 -29.82,103.65 -42.33,115.12 -107.05,134.25 -197.79,54.89 -33.14,-28.99 -63.72,-32.11 -96.14,-11.42 -48.26,30.88 -80,77.36 -62.4,136.3 37.11,124.82 -0.96,172.79 -127.67,144.6 -60.41,-13.37 -86.35,9.76 -64.49,72.13 19.03,54.35 11.9,111.02 -46.8,110.93 -67.06,-0.13 -40.21,-61.5 -44.94,-110.14 -21.51,-220.94 11.24,-440.91 -0.23,-661.22 -1.33,-25.47 -10.72,-57.64 -27.18,-53.4 -98.42,25.54 -150.33,-89.88 -256.19,-73.14 -86.72,13.71 -161.8,-73.78 -207.88,-150.18 -47.55,-78.8 51.03,-119.94 75.28,-182.03 19.26,-49.3 50.68,3.62 67.94,20.99 84.68,85.2 153.35,-10.04 214.38,-33.54 75.48,-29.12 17.02,-111.07 -3.62,-165.62 -46.93,-123.89 -23.33,-220.51 64.08,-208.12 94.86,13.45 184.52,-32.65 275.06,-7.37 86.68,24.23 109.04,-11.72 109.89,-93.17 0.55,-51.57 6.22,-102.7 56.15,-143.78 108.63,-89.32 117.19,-178.23 46.08,-309.22 -5.83,-10.73 -3.15,-26.21 -5.28,-47.66z"/>
  <path class="fil0" d="M4777.38 9236.79c-90.85,2.83 -88.29,76.77 -91.11,136.14 -3.24,67.27 -22.91,112.36 -90.44,129.57 -74.05,18.85 -124.69,8.63 -114.3,-86.77 3.95,-35.86 2.25,-73.48 12.39,-107.48 32.43,-108.41 39.79,-206.76 -56.35,-292.03 -30.8,-27.32 -52.82,-76.24 -59.12,-118.34 -11.79,-79.05 0.23,-128.99 -123.78,-144.83 -161.84,-20.65 -184.06,-233.46 -57.02,-353 18.57,-17.39 29.97,-42.66 44.74,-64.35 45.2,-97.08 -10.1,-180.13 -68.93,-228.14 -75.47,-61.66 -146.59,-144.4 -255.08,-156.55 -27.05,-2.96 -47.78,-173.86 -44.81,-207.13 16.98,-189.59 181.85,-212.41 312.57,-293.32 -46.15,240.46 193.98,175.67 282.94,278.77 28.36,32.88 84.93,46.43 102.96,103.3 12.74,40.54 45.29,66.38 89.94,69.66 36.18,2.73 74.02,5.25 90.25,44.66 38.03,92.11 92.06,118.94 188.04,74.88 75.83,-34.89 99.89,42.44 120.16,92.71 41.32,102.43 82.61,168.74 210.95,205.46 108.1,30.95 224.97,113.69 218.84,316.03 -5.6,187.54 21.28,397.82 85.45,589.01 5.25,15.54 0.69,34.53 0.69,55.35 -45.3,-3.98 -81.35,-32.64 -127.66,-9.37 -95.55,48.09 -188.1,43.97 -267.69,-40.43 -11.21,-11.86 -41.55,-25.21 -45.75,-20.75 -112.18,117.8 -239.09,17.06 -357.88,26.95z"/>
  <path class="fil0" d="M5520.34 6349.64c30.48,5.61 87.74,-7.14 117.43,-9.96 71.21,-6.74 132.11,-28.52 68.69,-117.47 -33.79,-47.49 -32.52,-95.24 21.91,-105.82 123.55,-24.08 222.68,-111.67 350.33,-125.03 76.73,-8.06 116.87,-43.86 193.3,39.22 59.54,64.62 130.42,6.14 216.13,-22.38 58.69,-19.52 133.37,-20.28 140.96,79.83 5.31,70.09 114.22,102.4 165.98,111.66 142.25,25.47 119.57,126.93 159.75,232.92 9.12,24.11 9.2,48.95 -28.22,41.54 -52.28,-10.42 -93.17,110.88 -147.21,44.63 -84.28,-103.46 -65.76,-82.97 -137.76,-9.56 -51.17,52.12 -51.72,142.14 -121.1,78.92 -19.23,-17.56 -98.84,-23.77 -123.26,-34.26 -221.6,-95.14 -318.76,-8.23 -281.86,229.73 17.43,112.36 64.49,132.95 -46.97,181.93 -11.73,5.15 -60.03,23.87 -59.48,31.91 8.9,140.32 -75.21,169.1 -133.51,132.72 -51.11,-31.95 -210.34,77.99 -173.48,-81.65 11.11,-47.88 -44.36,-69.16 -81.41,-41.47 -55.01,41.03 -69.06,92.67 -140.4,85.63 -86.16,-8.43 -214.11,-74.11 -207.27,-171.8 5.15,-73.51 -31.71,-118.6 3.13,-201.08 20.69,-48.84 -39.83,-81.89 -93.93,-89.32 -107.41,-14.71 -129.87,-65.94 -62.63,-153.17 55.1,-71.56 -58.02,-101.05 26.04,-155.13 49.07,-4.41 261.17,-61.96 374.84,27.46z"/>
  <path class="fil0" d="M5585.36 8970.29c-21.96,-167.55 -48.62,-334.67 -64.13,-502.85 -9.65,-105.02 7.56,-209.91 51.01,-308.09 7.19,-16.3 16.09,-41.94 34.34,-33.93 82.71,36.15 162.89,12.98 245.93,10.48 52.43,-1.59 113.9,90.91 160.46,150.09 104.91,133.21 96.61,129.56 214.32,15.47 57.94,-56.22 121.04,-125.44 228.03,-35.23 69.35,58.47 170.21,66.64 217.44,173.46 91.06,205.83 71.37,286.45 -129.02,389.28 -7.89,4.05 -15.68,8.9 -24.06,11.52 -95.16,30.15 -47.8,178.68 -122.79,187.77 -75.29,9.14 -154.45,-19.42 -219.11,44.06 -39.69,39.05 -71.82,74.75 -133.81,24.81 -41.71,-33.54 -53.87,14.17 -67.98,49.47 -34.03,84.93 -232.92,170.01 -313.55,139.19 -18.61,-7.1 -27.53,-16.64 -31.97,-36.33 -20.5,-92.11 -42.53,-183.91 -64.04,-275.78l18.93 -3.39z"/>
  <path class="fil0" d="M5104.7 8080.59c-44.75,-94.13 -111.33,-138.23 -214.47,-93.4 -14.87,6.48 -46.55,10 -47.85,6.34 -38.46,-105.29 -174.45,-106.05 -213.1,-173.09 -83.69,-145.17 -223.67,-170.64 -346.76,-234.95 -33.54,-17.5 -68.4,-24.41 -54.55,-74.08 10.23,-36.49 2.37,-86.2 63.8,-83.38 125.8,5.81 145.52,-74.11 137.8,-177.47 -4.31,-58.21 -7.53,-108.95 57.45,-150.38 60.94,-38.88 16.1,-117.71 22.85,-178.3 3.94,-35.53 -6.68,-78.54 32.82,-95.97 34.02,-15 62.93,17.01 77.95,39.64 51.85,78.47 128.08,122.4 204.7,167.63 55.46,32.77 68.92,89.65 82.12,148.05 23.21,102.8 50.84,199.99 191.99,137.33 47.03,-20.88 50.49,19.79 48.33,52.66 -6.35,94.07 29.27,141.98 127.82,147.2 71.93,3.78 161.19,12.24 48.46,114.58 -43.31,39.28 -21.18,111.56 -14.31,168.98 11.31,94.89 18.8,180.8 -109.24,201.41 -33.57,5.38 -61.4,48.18 -95.81,77.2z"/>
  <path class="fil0" d="M4865.72 5869c-93.11,-48.62 -152.39,-54.7 -225.03,-16.81 -69.35,36.16 -144.64,-5.55 -208.9,-52.76 -61.24,-45.05 -127.37,-85.3 -162.05,29.82 -8.07,26.96 -22.06,38.78 -47.28,24.63 -25.1,-14.07 -42.7,-33.04 -16.98,-63.05 85.84,-100.11 33.17,-194.91 -32.27,-265.3 -65.83,-70.72 -44.05,-119.21 -6.06,-184.08 116.51,-198.96 117.43,-202.21 -54.52,-340.91 -58.63,-47.32 -28.32,-118.47 -69.25,-177.97 -59.06,-85.77 75.41,-53.69 97.02,-92.81 73.64,-133.17 230.02,-53.49 329.35,-150.68 -54.2,165.43 -4.04,237.31 158.42,255.34 115,12.82 197.23,145.73 333.46,119.01 18.34,-3.65 27.7,24.96 22.09,41.17 -19.19,55.55 -2.96,125.14 -78.09,158.09 -165.49,72.57 -177.12,239.72 -203.94,387.79 -11.76,64.98 8.09,131.62 115.69,139.51 80.63,5.88 21.42,102.21 48.34,189.01z"/>
  <path class="fil0" d="M7503.44 8234.87c59.22,-43.86 241.2,-27.76 83.46,-179.43 -32.85,-31.54 25.62,-41.41 46.54,-56.75 40.32,-29.55 112.93,-46.51 59.39,-118.34 -41.3,-55.42 -89.44,-48.77 -150.15,-10.45 -74.08,46.78 -175.69,59.66 -150.66,202.77 -17.31,-96.19 -46.93,-134.01 -140.11,-104.82 -82.41,25.76 -51.98,-83.94 -98.32,-115.95 -40.7,-28.03 15.48,-33.17 24.9,-50.77 52.73,-98.15 98.48,-195.38 230.74,-211.97 44.58,-5.62 37.63,-73.02 23.46,-119.04 -13.39,-43.46 -27.86,-89.12 17.04,-123.85 55.89,-43.1 62.48,24.34 90.15,43.69 83.72,58.41 199.28,-1.29 238.53,-132.58 25.38,-85.04 47.93,-165.45 142.99,-194.27 16.98,-5.15 33.34,-13.35 50.59,-16.31 16.22,-2.86 318.34,310.12 309.96,317.7 -68.05,61.36 -61.1,173.39 -137.57,222.8 -75.21,48.64 -103.76,121.72 -129.34,197.9 -31.29,92.89 -27.94,204.53 -156.3,232.42 -35.33,7.67 -40.97,51.3 -47.62,89.25 -37.38,215.39 -132.9,254.94 -307.68,128z"/>
  <path class="fil0" d="M8428.57 7242.75c3.17,-22.15 -1.52,-55.99 10.79,-64.49 81.48,-56.68 96.86,-109.64 55.38,-213.5 -26.47,-66.21 70.09,-120.8 145.97,-113.49 88.87,8.6 129.57,-29.56 157.21,-107.58 28.06,-79.33 -2.48,-130.32 -64.08,-171.53 -61.1,-41.01 -118.04,-76.41 -59.86,-168.45 33.5,-52.92 -81.18,-149.62 27.76,-182.92 54.27,-16.5 124.6,20.96 187.5,34.74 16.45,3.54 44.93,7.17 46.63,15.34 35.72,171.63 211.25,173.85 273.56,324.16 26.13,62.96 211.74,87.99 189.55,96.73 -82.17,32.37 -170.88,119.63 -154.81,211.67 16.91,96.62 -86.62,148.56 -134.44,218.25 -65.27,95.27 -185.56,131.22 -52.95,246.61 35.33,30.77 -32.59,224.09 -69.26,211.14 -76.19,-26.93 -256.19,24.24 -321.82,-32.67 -55.3,-47.95 -47.84,-112.1 -114.07,-45.66 -29.88,30.02 -98.61,-1.46 -122.21,-12.45 -40.38,-18.79 -116.83,-0.23 -0.85,-245.9z"/>
  <path class="fil0" d="M5046.69 6262.77c-6.06,-95.69 -90.53,-148.82 -120.51,-236.28 -38.95,-113.69 -27.22,-224.49 -22.82,-334.93 2.32,-57.73 -14.21,-88.65 -55.23,-75.86 -137.76,43.16 -104.42,-63.56 -95.1,-118.71 13.78,-81.41 39.96,-166.91 84.5,-234.56 35.98,-54.58 98.04,-132.45 176.22,-26.09 25.13,34.23 68.63,56.34 106.89,78.36 62.28,35.79 91.38,76.24 58.37,153.26 -24.67,57.52 -29.79,122.56 64.76,118.78 58.72,-2.39 51.45,38.65 65.08,77.63 34.45,98.55 52.14,199.36 164.09,265.73 50.74,30.19 188.5,99.91 117.25,232.89 -15.61,29.19 6.46,50.87 19.01,73.65 45.91,83.18 -25.94,48.81 -54.82,57.31 -137.34,-9.43 -273.79,-49.24 -412.72,-4.01 -29.89,9.76 -69.51,4.31 -94.97,-27.17z"/>
  <path class="fil0" d="M5030.34 6581.13c19.69,27.65 8.57,66.77 40.83,91.61 130.49,100.54 153.31,145.83 173.96,320.11 13.37,112.56 154.55,180.57 286.8,134.38 40.9,-14.28 77.73,-40.54 120.06,-63.25 14.54,49.9 -23.98,124.71 65.05,138.4 30.37,4.64 31,41.43 31.94,67.83 6.48,179.67 -185.24,315.2 -342.85,241.89 -31.88,-14.81 -58.5,-42.7 -96.56,-41.4 -81.06,2.75 -124.79,-29.99 -121.56,-119.05 2.54,-71.61 -41.78,-108.6 -102.1,-77.35 -92.86,48.04 -121.08,-18.7 -128.05,-76.05 -16.26,-133.44 -89,-209.08 -201.18,-262.9 -29.5,-14.18 -49.96,-49.47 -72.48,-76.87 -23.24,-28.42 -5.08,-66.58 17.31,-60.97 187,46.99 228.61,-128.59 328.83,-216.38z"/>
  <path class="fil0" d="M5209.87 5525.05c69.12,-246.64 109.93,-265.63 336.23,-145.93 62.15,32.91 116.58,81.29 173.21,124.32 17.5,13.24 33.37,48.27 45.59,46.25 100.22,-16.8 143.73,53.79 206.92,111.34 43.41,39.44 70.33,45.95 33.92,107.24 -39.07,66.02 4.8,85.77 58.6,60.63 47.42,-22.11 77.92,-19.36 92.85,30.28 18.67,61.89 -36.27,66.21 -70.88,73.12 -118.04,23.48 -232.43,53.89 -337.51,116.41 -41.87,24.91 -79.42,19.5 -115.2,-24.97 -109.57,-136.5 -278.97,-228.44 -295.2,-433.14 -5.76,-72.59 -78.21,-39.54 -128.53,-65.55z"/>
  <path class="fil0" d="M6272.12 6564.91c121.24,11.76 216.47,71.42 289.83,168.61 78.37,103.9 168.35,174.78 308.1,181.99 113.09,5.75 144.89,126.12 186.84,208.52 30.67,60.4 -5.09,140.16 -49.73,198.23 -14.96,19.43 -30.02,39.85 -69.35,2.06 -72.65,-69.72 -156.3,-113.16 -269.14,-41.7 -119.14,75.54 -279.68,-31.45 -243.57,-166.62 51.88,-194.08 -53.18,-201.94 -185.56,-229.44 -148.98,-30.94 -54.63,-162.87 -73.2,-246.91 -17.96,-81.21 50.44,-77.13 105.78,-74.74z"/>
  <path class="fil0" d="M6418.77 7262.72c-72,9.33 -135.22,10.05 -193.75,27.35 -51.04,15.08 -118.53,29.86 -60.91,119.37 33.14,51.56 -110.68,194.85 -159.17,156.19 -58.99,-46.88 -122.06,-46.05 -180.94,-71.58 -36.6,-15.84 -59.83,-280.55 -29.07,-307.54 32.68,-28.56 74.66,-17.56 113.02,-5.48 62.96,19.89 91.68,8.14 104.97,-69.76 21.12,-123.35 249.34,-213.7 354.55,-152.23 34.54,20.18 39.82,47.57 24.89,79.42 -36.69,78.46 -7.36,149.08 26.41,224.26z"/>
  <path class="fil1" d="M9921.54 10656.1c-68.22,-15.9 -134.8,-22.88 -203.2,6.14 -81.96,34.73 -149.03,-18.36 -219.17,-48.94 54.07,-164.39 47.75,-179.2 -115.36,-240.57 -29.63,-11.15 -41.85,-28.71 -44.43,-58.53 -2.7,-31.31 1.37,-67.33 -12.51,-92.91 -73.52,-135.14 -17.93,-206.79 108.72,-251.24 28.19,-9.87 74.7,-32.92 74.47,-49.25 -2.42,-142.61 112.11,-112.79 186.48,-132.79 86.79,-23.34 178.03,-44.19 184.75,103.5 2.7,59.2 44.9,108.81 118.2,102.3 74.57,-6.61 103.02,38.39 111.36,104.36 3.82,31.08 -4.46,69.87 23.7,88.33 63.94,41.87 99.72,74.64 5.5,125.87 -41.97,22.89 -11.51,63.72 1.82,96.09 37.29,90.35 22.46,153.35 -87.07,155.3 -67.17,1.2 -107.32,33.93 -133.26,92.34z"/>
  <path class="fil1" d="M12541.21 1989.79c70.01,-2.45 103.16,-66.41 156.08,-97.32 6.68,6.57 14.34,10.42 22.75,13.11 56.74,18.14 115.58,42.07 161.58,76.34l0 278.86c-36.09,25.6 -78.38,46.28 -115.79,62.48 -111.23,48.07 -140.27,178.7 -244.88,228.28 -49.05,180.99 -114.75,359.06 -76.13,553.44 6.29,31.78 17.79,79.68 -21.74,98.35 -48.1,22.71 -71.24,-21.58 -92.52,-55.22 -17.7,-27.96 -38.82,-43.9 -70.85,-55.42 -131.37,-47.21 -183.23,-160.05 -215.25,-286.28 -8.36,-32.94 2.82,-57.85 27.56,-84.08 103.05,-109.41 97.19,-234.92 -33.3,-305.1 -120.23,-64.62 -43.12,-119.67 -6.49,-166.59 36.7,-47.05 70.1,-170.27 162.13,-47.51 18.28,24.33 48.66,34.86 70.3,13.67 73.13,-71.58 200.95,-85.19 218.51,-217.05 5.97,-44.86 30.93,-52.92 58.04,-9.96z"/>
  <path class="fil1" d="M8205.3 1435.88c-15.09,-2.13 -30.17,-4.28 -45.23,-6.37 -38.91,-15.91 -76.85,8.96 -116.61,1.35 -91.52,-17.43 -155.32,-89.05 -114.56,-173.02 85.46,-176.35 -36.86,-272.54 -102.33,-397.25 -57.12,28.91 -64.33,77.36 -82.35,116.24 -45.59,98.08 -115.17,154.17 -224.18,162.34 -64.7,4.88 -325.16,160.74 -344.71,198.09 0.26,85.5 -31.94,150.25 -116.74,174.95 -44.09,12.89 -65.31,38.69 -74.99,83.28 -12.51,57.88 -51.29,92.91 -107.9,107.04 -76.82,3.46 -157.73,-7.96 -216.37,61.87 -24.31,2.46 -30.11,-16.97 -38.35,-33.6 15.48,-106.56 80.49,-126.61 173.25,-107.71 78.14,15.93 137.89,7.23 104.08,-102.11 -17.95,-58.07 10.66,-88.42 68.35,-79.75 114.48,17.16 152.03,-41.84 122.21,-140.86 -29.92,-99.51 17.14,-107.05 90.47,-106.12 73.97,0.9 142.51,-17.76 182.73,-87.98 29.56,-51.68 74.33,-39.16 117.19,-37.1 101.52,4.89 163.44,-40.47 201.67,-138.55 109.96,-282.51 157.31,-312.22 453.97,-290.27 111.17,8.17 178.11,-41.97 211.16,-143.18 16.62,-50.86 23.53,-105.45 31.02,-158.92 24.34,-171.63 41.88,-187.63 210.05,-186.47 34.83,0.24 78.82,17 102.2,-12.61 104.67,-132.92 192.64,-56.29 281.77,17.96 91.21,75.97 173.96,180.43 317.07,77.69 1.2,74.35 -11.15,130.9 85.8,153.27 87.22,20.16 65.97,122.06 50.03,198.3 -17.67,84.54 -72.03,72.41 -144.93,32.53 41.72,64.72 88.06,95.54 38.03,169.78 -19.1,28.39 48.07,129.86 90.93,186.17 82.19,107.92 78.54,216.56 75.67,350.3 -5.11,241.1 -49.73,481.27 -13.94,726.05 36.1,246.57 -81.29,515.15 -279.99,572.16 -382.08,109.54 -634.55,-48.58 -764.95,-438.06 -77.01,-230.14 -87.14,-469.17 -150.69,-698.94 -23.27,-84.07 -1.86,-168.44 26.07,-258.03 -77.46,56.29 -32.79,155.37 -94.9,207.53z"/>
  <path class="fil1" d="M12497.62 2541.58c127.03,-93.84 190.13,-265.93 363.67,-309.7 2.69,-0.67 10.43,-5.15 20.33,-12.15l0 55.62c-111.72,99.74 -248.31,161.09 -339.09,271.27 -16.34,10.6 -31.32,8.91 -44.91,-5.04zm384 -516.23c-12.26,-9.43 -24.72,-18.49 -36.14,-27.55 -47.48,-37.62 -98.62,-70.46 -148.19,-105.33 70.04,-24.73 115.8,27.66 169.5,59.57 27.76,-31.7 -31.47,-78.87 14.83,-101.55l0 174.86zm0 -253.02c-15.3,-14.58 -26.11,-34.12 -12.81,-56.23 3.48,-5.77 7.84,-10.08 12.81,-13.26l0 69.49z"/>
  <path class="fil1" d="M12497.62 2541.58c14.96,1.69 29.91,3.35 44.91,5.04 -41.69,181.54 -109.18,358.87 -74.64,551.82 9.45,52.73 12.84,119.03 -45.59,142.52 -55.73,22.41 -83.89,-33.55 -110.71,-74.65 -14.95,-22.84 -31.22,-38.68 -60.03,-47.08 -146.52,-42.83 -198.47,-169.47 -240.32,-299.24 -17.66,-54.85 16.79,-98.44 51.92,-143.23 43.35,-55.33 102.31,-124.32 -4.53,-181.5l2.38 3.39c-1.11,-25.31 8.87,-58.65 -30.7,-61.13 -83.69,-5.35 -96.37,-54.99 -67.72,-119.86 40.18,-91.15 93.21,-173.17 199.61,-196.54 100.5,174.78 161.42,-17.64 241.03,-30.55 33.94,-5.44 66.85,-42.67 36.61,-94.59 -15.68,-26.87 -21.71,-66.42 20.86,-76.18 50.9,-11.65 88.08,5.61 80.49,69.96 -8.5,-2.36 -17.08,-4.71 -25.65,-7.14 2.67,114.16 -92.81,141.98 -160.44,199.33 -86.62,73.51 -157.99,110.07 -216.79,-21.75 -56.05,37.62 -84.7,84.17 -109.14,131.72 -17.69,34.53 -75.18,74.68 28.32,94.83 94.25,18.39 153.99,270.81 114.81,353.02 -23.81,49.88 -182.79,-53.92 -93.27,82.11 37.91,57.75 1.63,152.22 53.22,160.02 74.18,11.19 88.49,95.49 164.65,98.04 50.08,1.63 49.37,92.32 140.42,119.47 -53.67,-234.44 -5.73,-447.52 60.3,-657.83z"/>
  <path class="fil1" d="M1658.04 1299.81c37.37,26.1 23.13,82.81 74.88,97.39 53.81,-19.93 25.42,-147.16 122.54,-117.52 89,27.17 110.61,109.41 127.98,190.76 12.77,59.83 9.32,135.81 111.92,95.5 6.71,-2.63 60.03,92.76 76.35,147.29 16.49,55.09 15.16,116.11 19.43,174.69 6.29,85.76 -3.91,168.13 -100.67,194.04 -103.24,27.66 -212.13,58.17 -276.37,-75.24 -88.12,-183.13 -138.4,-380.08 -201.37,-572.24 -15.97,-48.88 7.4,-96.13 45.31,-134.67z"/>
  <path class="fil1" d="M10907.29 3059.71c-89.76,3.35 -149.37,-19.72 -194.05,-78.16 -20.43,-26.7 -39.83,-69.46 -14.43,-84.74 89.52,-53.79 150.24,-157.61 260.91,-171.06 98.78,-11.96 155.23,72.15 165.92,231.39 6.57,98.68 -68.41,70.77 -120.1,80.36 -39.1,7.21 -77.63,17.46 -98.25,22.21z"/>
  <path class="fil1" d="M1708.78 7875.85c10.16,9.6 20.33,19.17 30.57,28.76 -17.24,65.44 -73.63,59.9 -104.71,36.03 -75.48,-57.92 -147.96,-25.27 -222.72,-12.89 -10.4,11.86 -20.76,23.74 -31.09,35.6 -0.1,-125.08 124.07,-203.34 226.86,-142.11 33.01,19.69 53.87,62.19 101.09,54.61z"/>
  <path class="fil1" d="M12058.65 2495.27c0.46,17.93 4.66,36.7 0.73,53.53 -9.95,41.77 -10.28,92.3 -67.96,101.04 -18.86,2.86 -41.49,-4.55 -41.65,-22.31 -0.55,-52.7 -10.23,-115.18 13.56,-155.43 23.27,-39.25 69.41,-4.39 97.67,26.43 0,0.13 -2.35,-3.26 -2.35,-3.26z"/>
  <path class="fil1" d="M6621.01 1730.81c8.92,11.45 17.79,22.91 26.71,34.43 55.84,112.23 46.25,222.4 -19.39,325.3 -29.06,45.56 -73.85,75.87 -133.84,52.79 -12.12,-9.06 -24.25,-18.16 -36.41,-27.19 121.53,-40.08 166.47,-128.5 158.17,-253.75 -2.97,-43.6 2.9,-87.69 4.76,-131.58z"/>
  <path class="fil1" d="M12379.4 12086.43c72.19,-64.25 150.3,11.46 236.93,-34.8 -50.91,139.45 -131.96,26 -185.58,58.8 -9.8,-24.39 -33.75,-17.06 -51.35,-24z"/>
  <path class="fil1" d="M10748.81 10700.63l-9.39 -0.04 -9.36 0.04c-28.28,-72.66 -82.47,-135.18 -82.87,-218.75l-2.44 2.48c111.46,41.41 138.47,97.69 104.06,216.27z"/>
  <path class="fil1" d="M12881.62 7005.76c-33.18,-70.97 -78.5,-137.98 -109.44,-209.66 -13.52,-31.38 -21.96,-72.18 -66.93,-74.77 -45.08,-2.53 -46.21,40.57 -67.5,63.36 -44.58,47.71 -126.05,38.41 -174.77,101.36 -15.36,19.83 -53.78,-47.02 -79.76,-76.06 -26.79,-30.02 -49.3,-64.55 -78.67,-91.39 -34.41,-31.3 -42.92,-48.57 4.34,-78.29 85.12,-53.46 51.13,-106.58 -6.91,-160.17 -95.45,-88.17 -209.1,-112.27 -332.91,-111.14 -105.03,0.93 -167.83,-37.85 -244.42,-133.25 -96.05,-119.76 -32.63,-145.27 33.05,-204.93 87.95,-79.85 106.76,-182.76 90.83,-296.81 -7.79,-55.85 -12.68,-104.73 73.61,-99.24 60,3.78 105.08,-44.03 138.81,-93.91 73.72,-109.14 174.09,-133.61 292.07,-94.56 107.32,35.56 205.21,47.51 288.78,-55.68 35.78,-44.17 98.09,-48.05 149.68,-40.28 36.07,5.4 64.97,-2.48 90.14,-16.82l0 1672.24z"/>
  <path class="fil1" d="M12881.62 9893.03c-66.64,-2.55 -121.71,-35.68 -161.75,-95.89 -48.92,-73.68 -97.51,-137.73 -199.64,-131.52 -54.23,3.32 -98.85,-19.49 -60.1,-91.28 13.27,-24.6 17.3,-58.34 -1.53,-77.63 -80.01,-82.02 -67.24,-188.67 -85.55,-289.04 -35.66,-195.44 -150.72,-276.82 -346.46,-237.65 -90.76,18.17 -137.79,15.52 -159.3,-90.07 -18.09,-89.12 -87.53,-79.73 -143.82,-34.2 -48.13,38.94 -85.48,91.64 -143.78,118.1 -197.37,17.06 -394.63,24.27 -590.99,65.41 -143.26,30.02 -232.3,-81.54 -202.22,-238.6 30.47,-159.75 55.37,-305.14 -122.93,-394.23 -48.36,-24.21 -33.7,-73.44 -10.01,-104.93 69.97,-92.73 71.15,-184.17 57.72,-301.42 -12.32,-106.75 -26.59,-227.22 66.78,-346.85 89.91,-115.08 13.92,-282.2 -68.76,-399.91 -58.7,-83.54 -116,-172.26 -215.94,-228.18 -113.97,-63.71 -107.75,-143.07 -7.8,-235.11 33.67,-31.02 65.48,-67.1 71.86,-111.26 27.94,-191.86 144.57,-320.59 284.84,-435.21 102.79,-84.04 189.25,-178.48 183.09,-326.99 -0.68,-16.71 7.4,-47.98 13.78,-48.61 114.49,-12.06 132.94,-145.2 219.53,-188.87 11.67,11 21.64,15.71 22.56,21.89 28.38,185.43 62.05,201.11 215.74,94 86.72,-60.4 157.96,-147.86 276.4,-156.27 73.09,168.61 43.18,308.23 -104.49,424.05 -66.39,52.03 -72.41,81.25 -12.38,184.05 110.47,189.1 262.21,168.51 417.86,186.64 69.35,8.01 126.48,38.29 181.53,77.47 52.27,37.08 84.47,73.77 3.71,116.14 -14.69,7.7 -37.71,25.11 -36.27,34.8 17.93,119.14 130.69,170.3 188.24,263.01 31.19,50.11 86.26,28.02 121.4,-19.33 12.97,-17.5 30.89,-45.75 50.45,-34.23 115.76,68.5 88.74,-40.71 113.28,-105.42 54.66,98.35 73.09,206.8 162.26,267.52 9.68,6.64 22.01,26 18.91,32.87 -43.79,97 -26.82,182.84 3.78,266.09l0 2570.66z"/>
  <path class="fil1" d="M9928.81 3881.75c-92.85,89.95 -173.19,168.05 -253.87,245.64 -42.99,41.45 -71.76,86 -17.34,137.53 40.18,38.02 20.17,71.55 2.15,108.85 -24.25,50.37 -40.74,102.1 1.37,152 15.67,18.6 28.87,39.05 2.11,54.89 -21.31,12.55 -52.01,32.87 -72.28,7.64 -82.97,-103.2 -198.89,-128.54 -318.34,-147.7 -16.79,-2.72 -42.11,0.97 -42.52,-21.28 -2.84,-140.29 -121.4,-163.46 -209.14,-217.22 -43.89,-26.89 -69.96,-67.23 -94.41,-110.8 -24.15,-43.03 -48.4,-87.2 -96.99,-107.78 -35.26,-14.91 -71.27,-50.04 -109.3,-15.11 -38.69,35.47 -30.87,85.87 -11.08,125.91 27.83,56.09 68.95,105.06 99.07,160.15 45.39,83.2 49.57,156.95 -62.28,186.9 -102.36,27.43 -104.62,96.92 -68.57,176.35 34.9,76.73 21.67,110.67 -66.15,98.87 -57.4,-7.8 -85.13,18.7 -105.93,75.81 -26.23,72.02 -121.13,101.24 -124.98,195.04 -0.84,20.22 -14.08,56.08 4.86,51.87 89.79,-19.76 166.73,115.95 259.78,19.82 49.49,-51.14 112.78,5.44 172.49,-21.91 32.2,-14.78 31.94,63.01 50.74,96.52 22.46,40.08 0.95,55.71 -30.93,71.39 -79.78,39.15 -159.36,78.79 -237.57,120.99 -63.1,34.07 -142.75,47.58 -100.09,165.19 26.01,71.75 -109.66,147 -180.65,99.61 -59.63,-39.87 -112.27,-68.04 -183.5,-35.76 -34.23,15.54 -62.18,4.82 -57.92,-41.93 11.08,-122.03 -3.49,-207.62 -163.76,-173.63 -69.91,14.84 -139.42,-115.75 -118.73,-198.56 18.12,-72.35 -36.86,-127.94 -115.3,-116.55 -131.14,19.1 -191.23,-19.95 -202.19,-145.29 -5.89,-67.68 -38.26,-81.78 -94.57,-83.78 -75.64,-2.72 -108.59,-73.91 -157.38,-106.98 -111.75,-75.78 -97.83,-288.31 -295.85,-266.86 -58.34,6.31 -73.95,-96.85 -127.17,-140.68 -93.17,-76.84 -122.3,-209.89 -209.48,-299.51 -22.36,-22.93 -13.66,-81.54 12.31,-115.51 74.74,-97.82 68.38,-269.09 243.58,-278.61 19.72,-1.04 43.37,-32.25 55.57,-54.86 56.61,-105.35 137.85,-181.75 237.55,-246.08 76.55,-49.4 101.77,-124.67 -2.97,-173.68 -89.27,-41.74 -62.28,-89.45 -27.67,-149.39 53.84,-93.1 151.8,-151.37 191.24,-266.23 62.89,52.2 112.59,123.39 208.54,69.57 38.88,-21.85 36.31,33.83 39.14,63.52 8.47,88.52 59.31,154.29 142.52,146.06 86.97,-8.66 143.16,-83.57 173.89,-168.34 4.99,-13.65 -1.46,-44.57 -10.55,-48.52 -89.59,-38.88 -21.7,-89.78 -22.91,-141.28 -3.49,-153.2 146.59,-57.37 183.06,-134.94 7,-14.77 15.15,12.15 20.65,20.98 28.16,45 -9.87,205.94 -52.66,231.7 -14.21,8.63 -32.2,21.06 -35.95,35.14 -6.68,25.3 11.57,41.86 35.82,45.45 87.6,12.82 93.66,74.8 99.08,148.76 6.25,84.53 38.51,155.35 140.39,166.71 101.55,11.33 143.43,-51.46 176.77,-130.43 84.02,-198.62 243.99,-252.81 418.84,-134.47 75.09,50.83 144.05,19.02 217.08,7.87 34.1,-5.22 95.07,-21.45 99.37,3.48 13.4,76.61 75.15,116.55 103.4,178.91 2.26,4.95 -20.88,24.4 -34.41,33.79 -28.71,19.8 -76.71,39.88 -36.96,78.47 32.85,31.94 30.8,121.06 110.52,87.26 30.47,-12.92 47.09,-36.89 60.22,20.12 38.72,167.48 157.48,300.26 200.62,467.94 19.98,77.57 104.49,114.59 159.86,77.6 108.36,-72.48 151.15,19 229.76,59.37z"/>
  <path class="fil1" d="M10064.03 2475.43c267.18,120.4 191.28,322.48 102.86,546.97 -75.34,-152.01 -195.08,-147.33 -320.39,-118.74 -24.84,5.64 -50.16,18.59 -70.3,34.7 -32.49,25.97 -63.67,335.69 -40.27,369.66 97.24,141.25 229.33,181.96 369.69,113.19 82,-40.14 147.86,-72.45 259.58,-60.63 103.73,10.92 214.14,65.45 327.01,34.27 133.74,-36.89 235.52,94.56 368.16,82.51 26.14,-2.32 37.81,30.41 24.31,62.56 -11.6,27.69 -7.27,54.94 26.9,63.35 26.88,6.57 64.13,4.68 69.54,-23.01 23.11,-118.3 94.87,-72.42 160.7,-56.38 25.38,6.21 52.51,5.34 120.39,11.45 -113.78,33.04 -139.13,118.94 -222.13,149.62 -68.35,25.27 -19.49,87.89 16.75,111.66 46.5,30.52 79.97,55.39 90.21,118.38 7.91,48.81 50.67,53.69 89.38,12.55 98.98,-104.89 207.45,-72.51 271.97,22.97 102.89,152.37 242.86,86.9 369.64,94.01 33.08,1.85 67.81,-0.27 101.81,1.83 -20.37,64.51 -21.16,132.41 -95.33,166.18 -38.2,17.4 -34.02,70.32 -19.36,110.66 7.72,21.19 22.33,40.18 47.55,41.54 47.26,2.69 57.52,-34.06 67.17,-69.49 19.68,-72.05 55.14,-69.63 101.42,-23.88 39.6,39.16 82.52,53.63 129.41,12.59 47.03,-41.17 91.06,-77.77 80.24,-157.25 -13.69,-100.45 23.17,-179 132.71,-208.95 32.46,-8.93 50.68,-3.23 68.24,17.93 60.11,72.55 126.45,139.45 189.73,209.08l0 601.11c-48.49,-3.03 -99.62,14.98 -142.06,39.79 -70.32,41.14 -134.49,55.55 -213.52,23.41 -70.53,-28.69 -113.48,27.19 -154.02,77.2 -124.62,153.6 -234.29,167.34 -401.9,59 -295.75,-191.25 -596.52,-374.97 -871.87,-596.91 -132.26,-106.61 -263.95,-215.32 -337.57,-376.49 -13.33,-29.1 -24.45,-40.12 -58.56,-32.21 -248.83,57.54 -477.32,-76.27 -720.17,-84.67 -45.37,-1.56 -87.25,-58.21 -133.82,-83.57 -55.69,-30.29 -107.55,-71.16 -174.32,-1.97 -38.39,39.81 -82.59,-6.57 -95.43,-49.54 -44.22,-147.22 -127.82,-275.39 -186.18,-415.31 -55.17,-132.45 83.3,-153.54 142.22,-206.46 50.55,-45.46 97.31,-82.58 86.53,-148.72 -22.01,-134.68 90.27,-148.62 159.26,-165.96 133.59,-33.53 273.92,-171.26 283.82,-308.03z"/>
  <path class="fil1" d="M7209.15 8526.41c140.43,129.82 277.66,2.06 411.7,2.92 85,0.54 14.25,-95.36 -12.44,-148.16 29.98,-28.62 74.33,-8.96 105.42,-39.17 77.63,-75.45 147.17,-94.17 180.85,42.82 4.72,19.5 24.3,45.53 41.51,49.85 155.85,39.34 227.61,167.98 329.03,277.45 108.1,116.65 230.84,230.4 359.17,331.84 55.86,44.09 114.91,91.54 -3.45,152.93 -80.96,42.04 5.37,105.1 24.05,152.08 -152.62,63.35 -285.19,-44.99 -439.64,-37.28 76.65,-107.92 32.56,-183.3 -65.99,-229.92 -102.66,-48.51 -159.14,21.6 -197.56,104.43 -28,60.61 -53.88,125.18 -64.1,190.66 -17.87,114.43 46.53,183.65 159,185.58 12.51,0.23 35.72,-4.45 36.11,-2.75 22.65,102.79 107.8,80.68 176.02,107.6 68.56,27.06 118.56,44.4 182.7,5.69 20.23,-12.19 44.55,-3.1 55.89,20.45 14.34,29.61 -11.11,38.45 -29.37,48.38 -15.34,8.37 -43.67,9.36 -47.29,20.19 -52.95,157.71 -151.6,70.19 -237.87,47.94 -61.78,-15.97 -112.57,-14.08 -135.93,62.73 -48.63,159.61 -160.5,278.71 -262.54,402.13 -48.37,58.54 -112.76,102.66 -121.34,187.27 -4.27,41.53 -34.45,52.46 -67.65,45.92 -111.13,-22.02 -158.29,184.21 -197.4,123.68 -62.47,-96.82 -126.87,-88.82 -206.1,-97.25 -25.55,-2.72 -71.04,-11.66 -72.18,-21.75 -17.67,-163.43 -104.62,-49.15 -163.15,-40.18 -18.22,-47.35 24.45,-55.52 42.56,-73.84 57.82,-58.54 114.29,-100.15 47.95,-203.97 -24.58,-38.49 114.29,-97.29 107.47,-184.45 -5.01,-63.39 -42.26,-100.01 -111.29,-64.79 -44.88,23.05 -95.26,49.09 -128.01,-9.59 -27.8,-49.77 -5.35,-105.75 -2.25,-159.35 8.93,-154.79 153.98,-316.16 -2.77,-469.44 -37.38,-36.62 -25.74,-81.84 -16.29,-126.99 33.92,-162.57 121.23,-286.75 249.5,-387.86 77.66,-61.2 157.8,-131.72 75.68,-265.8z"/>
  <path class="fil1" d="M10748.81 10700.63c3.58,-91.19 -25.03,-166.3 -104.06,-216.27 -105.33,-62.48 -131.53,-188.3 -199.45,-267.95 -85.75,-100.67 -173.57,-209.29 -273.83,-300.27 -91.6,-83.17 -97.93,-160.63 -9.67,-248.09 71.47,-70.73 116.6,-149.98 118.72,-259.86 1.53,-81.18 72.42,-144.07 147.31,-106.95 134.01,66.28 236.47,-5.11 348.88,-46.42 109.33,47.68 95.12,141.78 77.43,230.93 -18.36,92.58 -83.27,133.85 -174.59,135.31 -44.39,0.7 -88.94,3.02 -133.2,1.2 -79.65,-3.26 -106.3,47.34 -124.78,114.12 -18.35,66.34 -5.15,116.67 57.23,147.42 75.61,37.26 128.3,91.11 153.79,176.32 22.36,75 68.14,73.77 117.88,20.28 82.26,-88.55 200.59,-133.88 249.93,-266.39 29.72,-79.86 140.98,-103.66 223.93,-134.48 64.81,-24.1 99.72,-60.03 118.23,-129.99 51.23,-193.45 201.44,-298.07 338.41,-392.14 -134.04,32.74 -291.77,39.21 -448.96,25.07 -61.52,-5.51 -156.26,5.88 -132.64,-113.29 110.78,-48.38 226.67,-55.46 345.29,-47.68 46.8,3.09 96.17,9.52 138.38,-22.55 24.64,-9.23 54.04,-12.65 73.13,-28.72 78.87,-66.24 155.06,-192.02 207.47,25.76 14.24,59.35 93.6,32.84 143.82,22.08 197.17,-42.36 300.19,31.85 324.62,239.24 10.01,84.7 68.9,178.61 64.57,236.74 -14.34,190.13 94.9,217.69 225.39,256.5 33.83,10.07 50.25,71.42 81.53,101.94 31.39,30.55 71.28,52.07 106.8,77.1 -132.44,113.3 -236.11,123.06 -369.6,29.95 -39.62,-27.66 -84.18,-47.08 -124.1,-20.58 -89.29,59.27 -155.29,31.8 -223.08,-37.62 -47.65,-48.78 -107.19,-80.52 -180.22,-67.54 -40.73,7.27 -72.28,1.69 -63.64,-53.13 1.62,-4.19 5.76,-9.19 4.62,-12.45 -17.59,-50.34 71.57,-113.66 5.6,-141.65 -56.73,-24 -110.96,42.4 -152.87,87.73 -39.27,42.47 -54.24,103.56 -96.69,145 -28.16,153.6 41.42,290.63 69.64,434.83 10.23,52.18 18.8,113.03 -33.05,149.26 -51.69,36.13 -89.58,-9.5 -128.63,-36.86 6.48,-10.75 4.01,-16.83 -7.47,-18.29 1.51,9.03 -0.9,17.1 -7.06,24.14 -43.41,80.78 -73.13,167.11 -157.54,223.7 -41.4,27.72 -96.89,58.07 -114.07,117.6 -50.18,-6.71 -78.02,-92.24 -152.68,-40.51 39.27,54.72 113.83,21.15 148.74,69.1 -6.62,69.82 -0.4,159.51 -75.81,182.42 -83.72,25.43 -162.56,-14.17 -213.14,-96.23 -28.84,-46.68 -68.27,-82.9 -125.56,-88.48 -48.85,-4.85 -70.3,-29.99 -64.95,-79.35z"/>
  <path class="fil1" d="M4213.14 8304.94c-32.68,30.52 -66.49,59.9 -97.87,91.68 -109.34,110.67 -112.31,182.12 10.24,277.82 59.51,46.51 68.86,173.36 187.33,133.05 13.68,87.75 35.67,172.95 75.47,241.02 -104.84,138.6 -264.11,41.01 -385.54,105.26 -84.86,13.02 -63.25,89.06 -72.77,139.68 -20.37,108.15 -83.57,153.31 -184.79,157.59 -26.1,1.1 -56.83,9.83 -65.83,-26.86 -22.25,-90.88 -86.69,-127.21 -162.82,-174.52 -127.16,-79.12 -234.29,-157.75 -375.72,-36.52 -48.31,41.37 -81.57,5.35 -97.55,-45.29 -16.59,-52.86 -40.01,-69.13 -80.23,-20.06 -33.7,19.76 -61.89,38.95 -101.85,0.4 -62.08,-59.8 -128.99,-81.79 -214.76,-24.94 -60.29,39.98 -67.24,-46.94 -95.59,-75.34 -32.32,-32.2 -96.98,-66.01 -43.54,-133.14 59.28,-74.35 100.28,-147.27 19.65,-238.61 -28.44,-32.28 99.34,-158.58 154.35,-153.7 193.52,17.07 208.8,8.67 272.98,-176.91 31.57,-91.51 49.79,-179.73 146.38,-240.73 68.51,-43.23 75.87,-148.12 71.57,-236.28 -1.17,-22.04 -11.99,-43.46 -15.64,-65.54 -5.05,-30.52 -6.03,-85.2 32.19,-65.48 147.97,76.2 127.96,-362.79 325.26,-105.62 53.31,69.46 125.86,114.42 208.44,136.8 36.53,9.86 82.35,21.68 87.02,52.23 17.33,113.56 81.99,183.98 175.16,236.01 14.9,8.33 27.58,29.39 41.59,29.69 142.12,3.05 162.62,111.93 186.87,218.31z"/>
  <path class="fil1" d="M1411.91 7927.76c65.89,-72.51 131.4,-112.62 213.82,-17.33 32.3,37.36 77.37,31.78 113.61,-5.8 79.45,-6.05 89,62.78 111.36,113.02 27.43,61.52 52.43,66.21 121.23,45.62 100.38,-30.05 172.73,-61.43 194.66,-177.41 6.65,-35.13 45.82,-94.92 102.5,-20.68 35.16,46.12 69.05,14.64 88.15,-29.12 16.63,-37.95 38.78,-61.37 76.53,-88.93 117.09,-85.69 205.96,-63.85 310.7,16.28 79.95,61.13 177.65,50.46 268.02,13.97 75.78,-30.6 108.59,-6.3 108.88,73.96 0.43,104.15 11.93,212.43 -112.59,261.37 -48.23,18.99 -52.99,69.46 -68.05,110.54 -23.07,63.05 -39.79,128.59 -64.27,190.99 -26.19,66.77 -66.45,95.59 -145.86,69.83 -97.87,-31.69 -247.14,56.9 -274.02,149.44 -3.42,11.8 -3.98,33.14 2.7,38.16 107.54,80.61 61.95,155.69 -1.79,236.14 -31.12,39.18 -20.96,83.61 11.63,123.25 54.72,66.48 117.39,118.28 102.37,231.54 -10.88,82.11 90.27,22.58 145.93,43.03 -60.32,92.83 -125.89,165.05 -239.07,173.39 -26.14,1.92 -63.82,1.7 -75.74,17.96 -73.23,100.02 -154.28,10.96 -230.54,15.04 -20.21,1.13 -37.71,-12.48 -34.02,-31.6 23.81,-124.08 -87.25,-195.78 -110.75,-301.69 -11.08,-49.94 -47.97,-80.39 -99.23,-53.16 -69.59,36.98 -138.87,19.72 -205.39,2.81 -92.81,-23.6 -191.62,-49.99 -102.07,-186.89 34.29,-52.57 10.99,-106.06 -47.03,-134.12 -92.29,-44.66 -72.9,-110.01 -30.99,-176.11 115.18,-181.62 87.05,-258.29 -118.85,-316.34 -12.71,-3.59 -25.26,-8.2 -40.71,-13.31 29.43,-36.42 74.86,-65.65 32.14,-125.08 60.88,2.99 95.45,105.29 144.69,21.28 38.33,-65.48 33.38,-129.69 -48.13,-167.04 -45.33,-20.82 -83.17,-51.94 -99.82,-103.01z"/>
  <path class="fil1" d="M8550.75 10792.65c-70.4,-145.61 -191.57,-156 -322.36,-139.36 -67.07,8.5 -102.42,44.1 -90.92,119.89 22.55,148.86 -8.47,176.89 -151.73,145.14 -39.57,-8.76 -75.06,-24.44 -116.45,-61.1 50.87,-38.58 125.73,-80.52 72.77,-152.9 -49.18,-67.2 -87.93,-174.99 -202.44,-137.06 -65.12,21.55 -56.55,-14.51 -52.44,-49.51 6.42,-54.19 21.51,-107.02 61.3,-146.77 140.56,-140.27 249.87,-302.18 339.39,-480.59 40.45,-80.58 111.59,-27.13 160.99,-6.8 80.21,33.1 149.75,78.95 169.7,-60.04 4.69,-32.9 48.42,-33.57 76.71,-45.52 44.79,-18.76 58.44,-56.95 41.19,-99.85 -18.28,-45.28 -52.56,-73.81 -105.42,-56.04 -124.59,41.84 -232.82,29.39 -310.84,-92.18 -16.46,-25.69 -44.36,-34.19 -70.49,-23.74 -127.73,51.04 -118.96,-47.18 -122.44,-120.06 -4.33,-89.82 42.95,-164.29 91.47,-234.45 39.8,-57.55 89.57,-47.58 136.03,-6.94 42.77,37.39 60.43,76.94 7.51,123.69 -21.33,18.78 -57.43,39.01 -38.46,76.53 21.74,42.83 62.44,21.71 95.91,18.73 71.82,-6.45 141.11,-13.92 190.36,60.63 23.49,35.62 59.37,35.26 90.14,0.99 8.8,-9.83 21.19,-27.76 28.19,-26 133.65,32.47 234.28,39.45 116.41,-141.71 62.58,-38.02 71.73,-122.22 123.52,-160.97 40.54,-30.32 86.49,16.6 123.74,52.68 95.42,92.45 183.29,187.91 332.97,205.9 66.39,7.94 138.64,108.65 130.94,185.48 -10.71,106.92 48.14,246.28 -118.75,312.05 -59.9,23.58 -111.42,102.1 -180.29,144.41 -74.14,45.58 -20.43,103.73 19.75,144.07 77.92,78.16 118.4,167.88 102,279.91 -3.93,26.69 6.95,75.81 -45.65,56.48 -152.29,-55.78 -341.67,-26.9 -443.16,-201.22 -30.57,-52.46 -76.29,-61.36 -122.41,-19.09 -44.25,40.71 -109.63,76.47 -67.53,154.66 23.74,44.07 57.04,72.55 -24.76,98.39 -48.47,15.34 -24.24,75.5 -2.22,117.9 27.6,53.1 85.03,90.85 77.77,164.37z"/>
  <path class="fil1" d="M4813.44 3692.85c82.49,75.18 167.77,124.62 155.48,258.5 -4.55,49.47 124.73,42.36 182.38,85.5 2.51,1.86 9.35,-3.35 12.78,-1.86 132.24,56.41 205.12,213.07 373.9,221.37 26.04,1.3 3.07,137.57 -68.83,171.47 -183.67,86.56 -224.25,259.78 -266.59,433.24 -22.16,90.88 -104.93,110.93 -169.92,170.6 -11.8,-76.97 -14.53,-123.72 -112.99,-127.96 -140.2,-6.02 -252.89,-128.51 -402.22,-145.37 -55.54,-6.22 -11.73,-76.64 -6.13,-117.65 9.74,-71.72 3.32,-120.66 -88.68,-87.59 -143.52,51.6 -212.68,28.72 -289.85,-108.94 -55.73,-99.41 -95.16,-197.06 -243.48,-171.37 -75.48,13.09 -238.23,-230.13 -231.19,-315.77 3.52,-42.79 42.17,-41.47 66.19,-56.87 91.58,-58.64 166.63,-122.89 119.41,-250.46 -19.03,-51.49 8.7,-86.03 48.36,-113.82 44.65,-31.18 69.26,6.63 103.99,25.34 142.56,76.66 274.9,187.99 452.06,162.92 44.78,-6.37 62.61,24.14 88.44,47.39 102.93,92.7 222.85,59.7 276.89,-78.67z"/>
  <path class="fil1" d="M6494.47 2143.32c199.13,-63.74 158.62,-228.31 153.24,-378.08 26.3,-139.99 122.08,-99.88 208.64,-83.54 -31.16,129.59 -83.06,253.54 -65.44,394.36 8.19,65.28 -38.29,125.05 -110.9,130.02 -60.97,4.18 -79.65,31.71 -95.85,87.16 -40.5,138.73 -74.01,155.6 -213.95,131.92 -13.14,-2.26 -26.13,-6.14 -39.34,-7.27 -63.12,-5.71 -139.42,-52.52 -182.08,24.94 -38.78,70.42 -15.28,153.43 15.65,222.13 33.56,74.58 111.19,61.06 177.16,60.83 50.32,-0.17 86.27,-26.07 98,-75.64 26.69,-112.52 102.16,-149.75 207,-150.58 53.06,-0.39 105.3,-15.97 158.92,-14.97 138.86,2.62 185.5,44.69 206.19,188.83 3.39,23.18 4.99,44.93 43.73,52.26 32.24,-90.41 81.09,-168.5 182.86,-202.77 47.14,-15.87 33.83,-77.5 38.78,-121.6 9.07,-80.42 -18.69,-182.52 35.56,-236.4 92.26,-91.62 185.96,-176.65 253.91,-291.64 28.07,-47.42 95.69,-28.49 149.85,-20.06 181.72,28.32 271.08,-87.26 206.43,-261.74 -8.51,-22.97 -18.65,-45.36 -41.92,-47.05 -151.41,-10.8 -163.96,-265.26 -357.6,-207.33 -71.31,21.38 -149.6,18.49 -225.03,19.69 -52.9,0.86 -107.49,6.18 -152.56,-32.6 -30.14,-49.74 -32.85,-85.81 40.48,-83.58 85.48,2.62 157.28,-27.49 208.99,-97.55 18.09,-24.57 37.48,-37.69 66.36,-33.67 157.47,21.85 237.83,-61.33 278.61,-205.64 11.96,-42.4 37.67,-80.85 63.25,-134.01 87.41,114.3 142.94,235.46 207.02,351.67 24.7,44.86 -5.15,52.4 -26.14,72.75 -44.12,42.83 -48.75,99.05 -28.1,150.58 24.55,61.29 83.83,51.5 137.63,55.51 18.39,1.4 83.24,-64.05 66.23,29.26 -71.73,93.93 -86.17,198.86 -79.39,316.8 9.58,167.68 -56.38,232.66 -218.39,226.81 -63.35,-2.28 -89.68,1.17 -106.02,76.2 -11.27,51.74 -70.19,112.1 -121.42,131.69 -140.92,53.96 -133.52,160.65 -94.87,263.01 46.86,124.02 -76.33,181.89 -85,282.9 -2.05,24.27 -53.48,2.66 -73.52,-23.64 -67.91,-89.15 -105,-59.67 -150.73,26.86 -39.11,73.88 -109.18,130.19 -153.1,202.15 -47.16,77.36 -93.41,162.6 38.16,217.45 63.97,26.63 40.38,75.9 -3.84,101.37 -107.32,61.76 -178.99,153.01 -247.95,255.07 -67.23,99.48 -129.06,84.44 -184.69,-23.73 -14.17,-27.4 -31.41,-54.62 -52.53,-76.61 -33.38,-34.66 -37.74,-49.38 1.86,-94.04 75.7,-85.46 141.77,-175.31 227.63,-255.59 78.91,-73.76 54.72,-227.32 42.43,-348.25 -2.76,-27.26 -33.07,-42.73 -61.95,-38.06 -25.28,4.16 -31.67,26.94 -34.73,50.92 -8.32,66.57 -16.5,133.24 -27.64,199.32 -4.53,26.95 -19.33,55.81 -48.43,56.37 -18.15,0.37 -40.48,-16.49 -54.2,-31.77 -25.91,-28.95 9.68,-40.81 21.61,-58.4 12.48,-18.43 28.03,-34.64 40.83,-52.83 16.59,-23.67 25.3,-52.97 4.67,-74.72 -32.4,-34.32 -52.84,7.48 -78.32,19.3 -42.89,19.86 -74.37,109.9 -136.75,24.84 -2.21,-3.13 -30.27,4.94 -31.31,10.69 -24.42,132.55 -226.31,208.42 -118.56,384.23 9.84,16.08 1.33,43.83 -8.28,73.31 -31.97,-99.14 -52.47,-200.82 -180.61,-218.77 -37.97,-5.31 -24.25,-80.33 -36.73,-122.56 -15,-50.64 -30.44,-105.99 -87.74,-101.67 -80.17,6.04 -11.18,81.68 -38.61,116.51 -8.28,-3.98 -21.35,-6.44 -22.2,-11.29 -12.58,-68.73 -132.35,-59.83 -113.61,-122.89 28.68,-96.45 26.36,-210.34 106.76,-285.78 100.38,-94.27 7.21,-182.86 -23.81,-254.41 -14.42,-33.37 -109.94,-107.58 -201.61,-65.71 -107.29,49.01 -160.7,20.42 -124.59,-110.04 284.22,29.49 562.21,145.94 851.6,48.77z"/>
  <path class="fil1" d="M5439.98 3960.32c-27.69,-28.6 -59.83,-54.06 -82.06,-86.54 -33.53,-48.93 -19.09,-102.33 25,-130.38 34.41,-21.95 82.62,-59.57 123.29,10.95 35.03,60.8 84.76,84.04 125.44,-1.89 31.71,-67.11 110.77,73.51 131.07,-29.45 10.53,-53.59 -34.44,-107.15 9.62,-166.28 58.04,-78.04 109.53,-155.44 220.98,-144.57 32.37,3.18 66.66,-2 85.52,-28.33 59.58,-83.18 125.9,-25.94 152.43,12.95 72.57,106.38 156.56,100.61 254.3,58.44 103.11,-44.49 188.56,16.3 174.09,133.11 -9.26,74.41 -25.71,148.33 -70.98,215.03 -71.57,105.56 -74.27,210.25 36.93,296.68 84.24,65.44 75.6,189.76 178.95,258.33 66.94,44.42 100.51,138.69 206.72,122.25 10.91,-1.65 37.14,21.32 36.37,31.38 -9.68,127.73 142.28,145.83 162.38,251.92 0.83,4.08 4.41,10.36 7.47,10.79 148.32,26 205.22,152.47 285.98,257.86 37.61,49.05 103.6,84.47 178.79,44.66 38.45,-20.39 88.64,17.3 68.01,42.81 -108.52,133.6 20.56,166.37 83.04,227.9 12.71,12.56 28.39,21.95 49.38,37.88 -97.81,84.08 -194.83,125.88 -312.55,100.69 -95.16,-20.43 -139.21,32.67 -98.71,109.04 40.15,75.83 6.45,143.77 33.24,223.76 -48.13,-17.77 -51.71,-48.55 -63.09,-74.98 -34.52,-79.76 -64.37,-125.57 -142.78,-24.94 -70.07,89.86 -135.96,21.66 -213.79,-26.72 -234.68,-145.83 -265.25,-437.27 -447.98,-617.93 -41.74,-41.2 -59.38,-95.75 -135.21,-64.85 -52.44,21.39 -88.06,-31.74 -127.95,-57.83 -67.52,-44.14 -128.21,-54.03 -187.36,17.69 -80.63,97.92 -115.21,22.87 -125.92,-48.11 -11.97,-79.29 -0.47,-162.07 -2.09,-243.29 -1.5,-72.91 -6.32,-146.33 -112.44,-103.99 -26.39,10.59 -57.1,13.38 -74.89,-8.74 -59.99,-74.83 -125.54,-137.16 -225.62,-149.64 -10.98,-1.37 -26.69,-26.53 -27.31,-41.31 -5.44,-119.34 -31.61,-212.67 -179.38,-214.96 -28.74,-0.47 -16.85,-60.7 -0.61,-93.5 145.9,-73.05 190.52,-61.77 272.19,72.18 23.59,38.55 42.76,79.73 90.76,93.57 76.72,22.05 125.9,66.84 116.51,155.53 -5.28,49.7 27.41,64.27 63.81,69.53 77.47,11.22 127.69,54.61 163.37,123.48 33.28,64.15 93.34,79.09 159.2,75.94 149.04,-7.08 259.75,22.78 317.01,196.89 34.22,104.17 152.26,170.15 245.14,238.91 21.02,15.61 47.78,22.98 69.97,38.58 66.19,46.49 50.32,159.35 145.93,182.96 77.7,19.12 123.36,81.11 169.11,163.99 42.05,-96.82 101.1,-153.67 219.79,-193.25 -181.82,-39.38 -188.96,-234.81 -339.55,-271.97 -23.05,-5.65 -32.3,-42.34 -36.96,-69.16 -11.73,-67.31 -49.15,-103.17 -116.41,-108.28 -22.03,-1.66 -55.57,-4.25 -61.24,-20.79 -48.42,-140.85 -195.21,-192.52 -265.8,-308.79 -31.67,-52.2 -51.42,-99.45 -116.67,-113.56 -83.3,-17.97 -114.17,-81.09 -110.91,-161.87 4.4,-108.51 0,-216.99 5.15,-325.4 5.18,-107.68 -41.03,-162.76 -150.04,-153.47 -129.77,11.06 -239.86,-14.64 -289.85,-187.3 -42.4,87.73 -26.14,154.46 -29.96,217.35 -8.11,131.29 -41.41,179.93 -165.35,181.13 -117.53,1.17 -236.22,42.07 -353.48,-2.09z"/>
  <path class="fil1" d="M5163.75 2002.07c126.32,21.84 239.24,42.29 352.46,60.56 50.48,8.2 73.78,28.79 75.15,87.19 2.83,121.33 7.46,224.17 -106.11,320.89 -65.15,55.51 -110.22,158.15 -173.12,235.08 -48.82,59.63 -17.05,116.05 60.23,118.44 70.49,2.15 103.63,24.34 109.67,99.61 4.49,56.51 50.08,68.6 100.27,56.58 59.18,-14.11 116.9,-20.65 179.64,-19.76 84.67,1.2 166.14,-82.64 246.57,37.65 31.45,47.03 65.57,-39.8 96.99,-80.35 0.97,104.56 17.76,184.12 133.71,208.42 73.04,15.35 64.53,93.67 53.84,148.73 -13.1,67.24 -64.75,59.56 -115.33,38.11 -116.97,-49.63 -192.22,67.25 -298.26,82.78 -100.94,14.77 -170.48,127.87 -173.35,245.28 -2.28,94.6 -86.56,-8.67 -100.51,54.22 -17.34,78.13 -49.96,71.22 -82.91,6.17 -3.74,-7.37 -13.65,-17.73 -19.39,-16.93 -201.33,28.16 -100.01,-146.42 -148.7,-211.14 -62.61,-83.15 -31.75,-235.79 -179.96,-261.02 -45.73,-7.8 -10.76,-70.13 -8.7,-107.95 7.68,-139.45 -20.7,-166.41 -154.71,-149.38 -14.41,1.83 -41.55,27.59 -41.42,3.79 0.71,-146.1 -91.06,-65.68 -144.11,-60.2 -113.58,11.75 -191.28,-93.7 -309.12,-85.87 -45.33,3.02 -36.83,-105.09 -13.07,-140.88 75.68,-113.95 34.64,-213.6 -22.78,-327.16 82.85,-17.4 158.91,-38.72 214.31,-97.02 75.75,-79.73 139.39,14.04 162.95,39.54 63.49,68.9 215.35,58.05 191.43,212.34 -8.11,52.33 33.83,93.84 91.42,94.86 59.9,1.03 66.68,-50.33 74.37,-94.62 10.24,-58.71 1.63,-115.45 -28.81,-167.16 -51.72,-87.91 -78.25,-163.15 49.61,-214.33 63.25,-25.33 52.79,-48.34 -72.26,-116.47z"/>
  <path class="fil1" d="M547.02 9613.55c-40.97,-69.67 -66.78,-146.56 -152.36,-166.42 -48.69,-11.33 -48.95,-51.4 -38.98,-86.1 76.46,-266.4 -5.08,-527.77 -26.56,-790.02 -13.42,-163.36 44.39,-323.77 4.73,-486.57 -5.31,-21.85 12.19,-53.23 48.2,-51.43 48.39,2.39 47.8,34.63 33.6,66.07 -29.66,65.44 3.13,88.76 58.04,107.12 36.37,12.15 74.5,23.24 94.28,67.01 25.26,55.81 61.99,48.27 106.06,14.21 144.24,-111.64 176.5,-109.55 330,6.94 40.44,30.64 61.24,5.74 59.11,-31.82 -3.58,-64.05 45.46,-122.71 20.9,-184.84 -18.94,-47.82 11.56,-71.09 36.63,-87.79 27.43,-18.3 40.51,23.57 61.5,36.29 43.92,26.63 51.71,103.2 136.74,80.99 24.51,-6.41 97.97,75.4 33.27,140.55 -67.07,67.43 -20.46,90.34 36.99,109.67 37.71,12.68 84.15,10.82 113.64,33.2 57.33,43.7 108.23,89.92 34.61,175.52 -105.33,122.39 -98.09,169.14 23.47,285.15 56.77,54.09 15.42,96.3 -14.76,123.82 -26.66,24.37 -34.9,114.96 -113.23,46.46 -71.53,-62.57 -131.19,-29.16 -127.81,74.2 3.32,102.77 -1.37,193.95 -73.49,275.6 -85.19,96.39 -172.79,190.79 -244.29,300.09 -24.87,37.99 -88.38,57.88 -102.59,-26.19 -10.07,-59.67 27.11,-142.78 -42.89,-172.17 -75.16,-31.57 -134.4,52.66 -208.06,67.11 -29.75,5.85 -53.45,43.83 -86.75,73.35z"/>
  <path class="fil1" d="M3116.89 10261.96c-80.52,7.61 -157.27,8.24 -215.06,-67.13 -19,-24.91 -56.25,-31.87 -83.92,-8.63 -28.9,24.34 4.4,46.22 8.64,69.82 14.38,80.79 66.28,168.18 -61.27,216.89 -54.62,20.82 -58.59,82.28 -5.96,132.15 123.29,116.75 122.37,117.74 -37.58,184.28 -71.7,22.41 -146.52,69.5 -214.24,60.67 -80.31,-10.49 -55.87,-125.85 -106.57,-181.99 -65.19,-72.35 -138.41,-138.87 -86.01,-266.6 25.81,-62.75 -35.65,-145 -81.9,-206.25 -73.72,-97.73 -106.34,-205.64 -96.53,-328.53 11.57,-145.43 -52.34,-271.71 -102.27,-401.27 -9.97,-25.9 -25.54,-58.84 -51,-57.24 -153.24,9.66 -193.45,-124.35 -280.01,-215.33 84.99,-23.08 175.63,-21.88 235.4,-4.35 59.93,17.56 115.36,118.91 134.79,193.78 22.78,87.36 47.48,137.73 122.83,204.3 117.19,103.6 134.86,-26.36 197.36,-37.85 34.38,-6.31 67.75,-20.25 102.3,-23.74 80.01,-8.17 141.15,-50.14 195.7,-105.19 38.46,-38.78 76.95,-80.88 56.61,-141.88 -25.25,-75.81 -87.05,2.26 -125.24,-26.1 69.58,-134.51 96.36,-142.08 213.85,-67.77 41.13,25.97 86.04,80.48 129.23,0.43 66.81,22.19 105.1,117.61 195.59,78.79 5.97,15.45 17.38,30.92 17.09,46.22 -1.73,93.57 75.21,194.91 -44.46,278.12 -40.7,28.33 -21.63,110.2 -12.35,167.98 27.24,169.27 8.87,337.79 -5.02,506.42z"/>
  <path class="fil1" d="M1926.44 10620.3c-57.72,-6.97 -130.33,-86.09 -167.54,-18.13 -48.08,87.87 105.98,57.71 106.14,140.42 -10.46,24.97 -58.17,29.99 -61.11,22.72 -44.67,-108.88 -200.79,-105.83 -223.59,-236.55 -17.24,-99.52 -71.05,-159.35 -180.88,-158.68 -61.56,0.4 -111.36,-34.99 -124.2,-101.77 -15.45,-79.83 4.89,-170.17 -110.97,-203.78 -29.62,-8.63 -1.76,-98.48 49.51,-114.08 86.85,-26.36 58.23,-69.1 26.79,-116.65 -39.53,-59.76 -79.95,-119 -120.91,-177.77 -41.32,-59.31 -7.04,-121.56 30.73,-141.12 163.47,-84.57 215.35,-216.49 191.14,-391.51 -3.88,-28.22 -0.79,-56.08 23.08,-73.48 32.26,-23.57 52.46,6.85 60.64,27.46 35.33,89.45 101.78,-19.59 155.03,31.85 73.07,70.49 112.31,162.86 177.71,237.24 22.07,25.13 34.36,68.53 69.22,72.05 222.4,21.74 240.62,206.89 253.72,363.06 14.99,179.06 32.55,346.84 144.17,493.94 44.42,58.6 72.68,133.87 22.46,200.34 -45.3,59.98 -111.71,28.26 -172.69,14.75 -133.2,-29.42 -156.79,-6.97 -148.45,129.69z"/>
  <path class="fil1" d="M5439.98 3960.32c112.76,-27.82 227.32,-32.58 342.65,-28.45 97.32,3.41 150.96,-35.04 141.74,-144.28 -5.67,-67.34 -1.34,-135.64 -0.36,-203.47 0.52,-32.91 7.66,-66.68 43.99,-74.68 39.96,-8.67 55.57,23.08 61.28,55.42 26.29,148.62 127.39,156.79 248.46,151.67 175.95,-7.4 196.32,21.98 186.74,201.91 -5.41,102.87 -1.82,206.23 -8.57,308.97 -5.99,91.21 30.86,141.18 119.44,137.76 79.52,-2.95 97.02,35.27 97.15,106.62 0.13,68.34 42.72,111.1 109.83,110.54 71.53,-0.6 109.99,20.61 101.88,100.47 -8.9,87.29 32.36,126.37 117.54,119.07 81.55,-6.97 128.61,23.74 122.84,114.72 -1.14,17.63 4.23,51.34 6.36,51.34 166.95,-1.9 150.98,217.64 291.77,249.29 39.04,8.8 97.51,22.58 88.94,81.91 -7.47,51.07 -58.86,43.7 -98.06,47.52 -85,8.37 -96.21,81.15 -120.65,143.34 -8.93,22.78 -4.44,60.96 -41.26,59.94 -31.29,-0.8 -41.52,-28.99 -46.18,-56.95 -15.45,-92.27 -66.75,-143.44 -160.48,-148.82 -17,-0.96 -47.51,-8 -48.29,-14.91 -14.9,-138.92 -123.55,-188 -219.08,-255.77 -32.06,-22.77 -58.17,-63.02 -93.82,-90.49 -61.43,-47.31 -125.11,-86.85 -126.25,-189.06 -1.01,-89.95 -89.79,-101.73 -162.43,-99.64 -135.67,3.99 -268.11,15.44 -319.74,-160.51 -16.81,-57.37 -88.09,-21.71 -130.82,-45.32 -42.92,-23.71 -111.32,-14.41 -55.23,-102.01 29.59,-46.28 -18.06,-118.63 -60.52,-113.15 -88.19,11.29 -120.13,-26.64 -137.67,-99.62 -36.69,-152.79 -151.28,-114.02 -252.92,-107.47l1.72 -105.89z"/>
  <path class="fil1" d="M5648.05 5382.51c193.52,-128.7 383.03,-253.84 571.14,-380.98 25.64,-17.3 46.69,-50.27 80.16,-35.43 195.74,86.89 417.32,153.07 472.37,400.94 46.56,209.68 230.63,285.66 357.34,413.82 81.32,82.31 181.49,25.26 239.41,-66.78 141.15,126.25 -49.93,237.11 -11.25,360.7 5.38,17.1 -25.19,11.85 -41.68,13.68 -143.03,15.71 -288.65,-25.63 -430.19,63.42 -52.14,32.81 -181.49,6.47 -215.64,-98.74 -33.44,-103.01 -94.93,-103.37 -176.37,-76.24 -54.59,18.22 -109.41,37.95 -168.95,27.15 -34.09,-6.2 -64.04,-7.63 -86.2,-47.81 -39.8,-72.12 -12.56,-208.82 -159.4,-186.54 64.07,-138.26 -150.08,-120.1 -128.6,-237.01 4.72,-25.47 -29.62,-43.06 -46.18,-36.03 -134.17,56.79 -176.58,-74.47 -255.96,-114.15z"/>
  <path class="fil1" d="M5347.45 4178.29c-11.4,-188.28 -160.21,-194.98 -273.37,-232.33 -73.55,-24.28 -94.54,-43.21 -67.94,-114.39 21.24,-56.85 14.86,-100.17 -60.82,-93.93 -25.97,2.09 -41.03,-15.24 -54.55,-32.41 -60.3,-76.5 -109.21,-158.09 -147.63,20.59 -13.17,60.89 -111.5,86.99 -163.41,20.25 -51.04,-65.61 -109.63,-51.83 -173.9,-64.31 -146.75,-28.56 -292.46,-69.83 -408.45,-180.14 -44.75,-42.54 -23.07,-78.53 3.95,-102.07 56.73,-49.64 82.97,-119.36 167.22,-157.32 108.58,-49.01 150.95,-178.44 128.01,-313.44 -11.9,-70.06 6.91,-146.14 94.22,-107.02 96.55,43.3 205.44,33.7 296.36,90.78 45.5,28.56 95.43,49.64 151.81,31.75 38.32,-12.13 71.64,-32.91 72.54,42.3 0.76,61.59 53.19,47.44 89.59,25.23 87.74,-53.59 120.62,-20.42 121.08,73.61 0.45,76.83 -54.89,182.76 90.59,186.97 -7.78,100.35 90.74,152.44 104.16,247.04 22.1,154.77 -68.5,324.04 66.16,467.91 27.93,29.99 4.01,110.27 4.01,167.35 -13.2,7.84 -26.43,15.71 -39.63,23.58z"/>
  <path class="fil1" d="M2615.87 7507.43c-77.73,-172.99 117.98,-231.56 177.41,-350.33 36.84,-73.64 43.68,-218.61 181.17,-226.58 6.55,-0.33 19.79,-25.3 16.62,-33.17 -50.86,-124.66 106.21,-160.18 110,-264.21 0.68,-18.76 23.1,-126.71 92.2,-35.95 1.53,2.05 10.78,1.82 11.92,-0.14 57.17,-97.55 100.11,-115.26 169.21,0.86 42.76,71.85 108.04,122.1 86.17,221.18 -13.99,63.11 35.88,92.13 86.29,119.03 74.83,39.95 138.38,88.22 68.41,188.2 -36.56,52.13 -1.5,92.77 34.19,129.42 53.02,54.36 107.86,107.1 158.48,163.61 50.06,55.85 69.94,122.18 61.3,199.65 -11.92,107.01 -60.39,138.33 -162.52,98.29 -81.25,-31.85 -138.19,-94.5 -198.02,-155.46 -96.79,-98.59 -153.46,-85.58 -210.69,41.43 -9.09,20.06 -17.44,43.66 -33.15,57.05 -128.37,109.21 -489.86,101.5 -621.13,-11.3 -33.83,-29.11 -33.83,-29.11 -27.86,-141.58z"/>
  <path class="fil1" d="M1912.69 10971.08c6.26,-51.1 31.94,-82.31 5.67,-134.68 -20.3,-40.3 -47.28,-132.05 46.41,-164.68 93.79,-32.64 -6.26,-90.88 14.99,-133.59 194.95,-20.84 346,35.77 426.89,235.35 30.18,74.48 23.89,117.98 -60.28,113.06 -122.55,-7.04 -107.81,65.52 -79.98,137.77 53.21,138.23 18.09,243.55 -102.27,320.72 -16.23,10.39 -37.64,25.53 -27.47,34.9 73.49,67.27 -13.66,120.82 -33.27,131.88 -294.65,166.18 -180.49,469.4 -230.94,713.58 -17.7,85.61 -35.59,119.67 -118.82,105.36 -17.37,-3.02 -35.43,-1.99 -53.19,-3.12 -257.2,-15.74 -281.18,-36 -286.3,-291.04 -3.26,-160.9 -30.86,-311.44 -102.2,-457.14 -69.09,-141.16 -25.46,-194.84 127.95,-182.19 33.5,2.75 69.05,-11.59 102.59,-21.78 16.32,-5.02 40.15,-30.09 43.6,-26.87 166.54,154.03 169.83,-29.79 225.46,-109.77 13.92,-19.86 41.97,-31.75 65.76,-41.67 24.16,-10.1 52.38,-9.9 76.66,-19.96 66.75,-27.46 142.48,-57.97 124.13,-149.38 -18.21,-90.74 -102.24,-40.54 -165.39,-56.75z"/>
  <path class="fil1" d="M6407.03 7328.31c113.48,-5.94 231.32,69.3 340.93,-31.94 40.93,-37.85 72.38,39.72 122.93,46.42 46.05,6.08 79.25,77.1 151.9,43.53 22.16,-10.26 44.03,39.42 33.79,71.35 -60.52,189.47 16.17,350.47 97.12,511.81 18.12,36.16 40.25,63.19 81.08,51.3 60.13,-17.4 102.5,-19.29 101.82,64.38 -0.17,21.62 27.66,35.27 51.85,30.15 32.98,-7.03 61.95,-29.22 57.97,-63.71 -13.91,-121.01 115.11,-97.73 155.26,-164 9.32,-15.34 34.94,-6.04 44.65,10.59 20.92,35.92 -8.47,46.02 -32.43,56.65 -113.12,50.07 -133.46,109.07 -13.65,176.91 -22.85,36.72 -58.01,30.02 -85.36,41.93 -65.43,28.79 -104.7,74.98 -18.6,118.75 76.84,39.01 42.04,134.07 118.13,167.77 -138.14,35.59 -256.19,96.36 -391.95,26.86 -60.52,-30.91 -80.83,29.62 -62.9,89.39 -12.39,49.14 -38.14,81.84 -93.31,72.91 -46.27,-7.47 -84.57,-28.78 -99.89,-77.37 -18.9,-60.19 -31.12,-122.71 -35.2,-185.37 -7.06,-108.81 -67.03,-148.98 -165.98,-148.09 -30.89,0.27 -61.88,-0.06 -92.81,-1.96 -146.04,-9.26 -184.16,-52.29 -182.41,-201.42 1.21,-100.67 -9.25,-184.14 -110.24,-252.71 -102.99,-69.92 -107.03,-212.07 -117.65,-328.29 -6.72,-73.94 67.91,-117.01 144.95,-125.84z"/>
  <path class="fil1" d="M3674.45 4882.47c-74.53,6.87 -130.85,-37.35 -170.47,-110.4 -49.31,-90.88 -101.39,-116.18 -182.28,-26.06 -67.85,75.7 -269.39,73.51 -334.79,-20.59 -46.51,-66.91 -74.51,-173.62 -2.42,-264.23 24.09,-30.32 50.39,-73.48 47.88,-108.88 -18.74,-271.28 198.6,-355.42 361.42,-481.43 97.05,-75.14 160.96,-21.58 205.35,70.13 39.07,80.65 74.73,163.23 109.56,245.94 39.83,94.73 112.89,144.01 209.1,132.32 77.66,-9.39 114.03,20.12 138.05,86.39 6,16.67 19.07,30.78 24.77,47.58 22.16,64.32 110.48,93.88 101.84,167.22 -10.26,87.32 -105.72,64.02 -157.86,99.45 -209.23,141.81 -252.02,162.56 -350.15,162.56z"/>
  <path class="fil1" d="M3948.42 2708.9c134.18,40.54 188.96,-49.94 212.01,-135.77 39.19,-145.87 194.03,-99.84 265.11,-188.86 15.64,-19.63 96.44,137.05 72.22,189.52 -22.84,49.31 -51,93.6 -45.07,152.04 4.14,41.21 -18.15,56.05 -58.37,46.22 -147.73,-36.02 -152.65,66.21 -148.61,166.92 3.55,87.49 16.23,192.54 -70.1,228.51 -163.37,68 -197.14,251.35 -328.51,343.46 -45.82,32.18 -65.96,78.69 -53.08,141.39 22.94,112.45 -34.77,221.4 -128.48,217.31 -83.59,-3.62 -166.89,-46.75 -148.18,-165.26 1.23,-7.8 -2.84,-18.75 -8.05,-25.23 -105.43,-130.36 -60.75,-305.38 -129.64,-448.52 -38.43,-79.82 -64.99,-177.54 69.15,-209.15 12.26,-2.89 28.65,-10.92 33.14,-21.09 71.18,-162.56 222.98,-246.74 336.57,-368.1 59.17,-63.22 124.52,-73.44 208.73,-96.06 -4.43,72.49 -48.56,112.77 -78.84,172.67z"/>
  <path class="fil1" d="M4303.45 6673.44c2.01,-118.34 12.93,-219.74 -131.8,-188.82 -35.94,7.67 -40.18,-26.93 -40.47,-54.7 -0.81,-72.31 -13.89,-114.75 -101.13,-143.2 -73.78,-24.08 -25.62,-129.13 2.15,-176.18 36.01,-61.03 79.1,-118.4 105.07,-185.81 11.64,-30.05 27.77,-47.21 59.06,-29.95 64.06,35.26 99.59,7.8 121.2,-53.95 18.37,-52.5 49.76,-41.21 82.35,-16.45 96.63,73.29 190.46,123.03 315.76,48.75 54.53,-32.34 130.72,27.99 137.44,75.8 20.3,143.71 125.99,241.03 168.25,373.21 59.81,186.88 -73.36,267.86 -160.56,379.33 -62.68,80.09 -173.87,16.44 -240.91,88.82 -11.21,12.18 -43.83,-18.7 -55.27,-46.45 -48.46,-117.51 -125.76,-160.61 -261.14,-70.4z"/>
  <path class="fil1" d="M11099.37 9069.18c15.19,76.94 75.67,82.98 133.59,80.93 127.81,-4.56 256.15,16.67 383.64,-20.79 57.56,-16.94 123.17,-15.48 178.1,26.79 -218.73,87.63 -394.17,212.74 -427.64,469.27 -6.87,52.53 -34.12,57.61 -75.9,72.26 -138.05,48.27 -298.91,74.2 -322.54,268.18 -3.42,28.29 -18.22,54.56 -50.48,52.9 -79.62,-4.16 -118.47,45.55 -154.18,107.42 -20.14,34.89 -52.24,68.09 -98.49,50.4 -38.65,-14.82 -71.73,-46.06 -70.33,-90.58 3.29,-102.54 -59.64,-144.38 -140.62,-170.87 -69.71,-22.88 -117.79,-75.27 -82.19,-139.42 37.7,-68.01 -10.17,-215.97 147.07,-190.1 25.95,4.32 53.62,3.62 79.71,0 73.76,-10.13 165.43,37.55 211.48,-65.34 42.73,-95.6 29.14,-183.79 -33.86,-265.37 -6.42,-47.74 -25.68,-92.94 -4.79,-144.17 19.09,-47.01 31.84,-81.15 92.88,-53.29 75.19,34.23 155.97,13.75 234.55,11.78z"/>
  <path class="fil1" d="M6004.07 4794.47c0.06,36.26 -14.02,81.85 2.35,106.88 108.29,166.22 -21.83,208.26 -126.71,263.21 -67.14,35.2 -105.24,109.24 -181.82,132.78 -78.73,24.17 -153.05,39.12 -229.24,-9.46 -56.32,-35.86 -132.45,-43.07 -178.49,-9.33 -80.53,59.04 -130.43,12.16 -186.26,-26.23 -116.7,-80.15 -126.02,-138.17 -5.37,-204.4 165.29,-90.85 165.49,-265.67 227.58,-404.93 87.3,-195.93 301.65,-272.17 463.52,-92.54 27.4,30.49 54.98,76.3 92.95,68.87 176.73,-34.84 116.28,92 121.49,175.15z"/>
  <path class="fil1" d="M4070.86 6457.72c15,20.85 29.46,59.2 45.21,59.76 100.66,3.42 168.78,28.29 156.95,154.14 -2.77,29.78 43.08,41.64 76.09,26.69 49.77,-22.48 94.74,-45.03 143.07,9.69 49.02,55.59 -6.03,87.17 -18.02,129.34 -7.27,25.47 -18.32,53.99 -13.39,78.13 16.03,78.16 16.59,141.18 -57.88,198.12 -48.1,36.76 -21.18,110.41 -23.14,168.41 -1.37,38.58 6.19,102.83 -46.89,93.57 -138.97,-24.17 -227.48,77.46 -338.1,122.03 -52.53,21.15 -78.99,26.13 -109.56,-39.18 -31.29,-66.88 -89.79,-122.39 -142.61,-176.61 -102.5,-105.23 -110.22,-163.96 -9.85,-275.9 47.03,-52.43 72.12,-106.85 50.81,-171.1 -45.46,-137.26 31.25,-182.52 140.17,-201.31 97.15,-16.8 163.18,-52.73 147.14,-175.78z"/>
  <path class="fil1" d="M2512.56 5529.33c153.73,-77.86 124.23,-177.14 50.91,-282.82 -71.63,-103.34 -140.49,-211.68 -264.76,-256.58 -114.39,-41.34 -97.94,-114.91 -47.29,-190.82 68.04,-101.76 198.01,-133.54 267.3,-240.89 23.66,-36.59 53.41,16.77 68.64,47.91 95.71,197 95.16,185.21 330.65,170.11 95.3,-6.15 203.92,34.49 288.55,85.07 54.88,32.83 44.75,121.49 -2.35,182.28 -39.66,51.17 -57.74,95.73 -34.67,170 33.7,108.45 -100.64,209.66 -207.27,165.63 -41.84,-17.33 -61.01,-24.8 -88.74,31.18 -39.6,79.88 -143.69,96.22 -201.18,172.99 -25.09,33.5 -81.15,-81.25 -159.79,-54.06z"/>
  <path class="fil0" d="M5486.15 8362.63c-122.99,1.03 -176.31,-149.05 -302.57,-118.81 -10.65,2.56 -53.7,-58.83 -49.83,-85.76 7.63,-53.33 46.31,-105.49 98.78,-116.32 150.93,-31.14 141.77,-136.1 123.49,-249.26 -23.11,-142.34 39.33,-211.47 181.85,-191.82 67.95,9.3 109.86,-10.69 136.39,-74.7 12.61,-30.45 41.16,-52.16 73.65,-48.64 28.13,3.02 47.45,32.53 43.83,59.26 -23.1,168.38 134.37,204.41 219.3,260.88 78.77,52.4 162.49,166.52 291.88,116.88 7.82,-3.02 25.67,9.67 33.11,19.53 28.18,37.39 -32.43,244.25 -59.09,278.71 -125.47,162.33 -211.57,93.3 -307.85,-34.79 -52.76,-70.2 -122.36,-156.9 -228.02,-61.53 -2.48,2.32 -8.61,0.79 -13.03,0.63 -220.91,-11.52 -220.91,-11.52 -241.89,245.74z"/>
  <path class="fil1" d="M2452.03 6843.8c74.01,-83.24 75.38,-125.73 -15.12,-150.37 -143.69,-39.08 -247.66,-93.11 -217.54,-271.15 3.07,-17.93 -16.23,-40.6 -26.92,-60.03 -23.49,-42.67 -66.94,-98.08 -6.68,-127.47 58.4,-28.42 112.1,-112.4 199.41,-41.27 114.2,93.07 238.47,165.22 383.62,207.82 133.36,39.18 171.79,184.25 240.29,292.46 -107.09,38.52 -54.46,185.48 -78.74,197.4 -137.53,67.27 -139.23,221.37 -225.43,316.77 -38.42,42.53 -63.48,115.51 -127.48,101.26 -55.08,-12.24 -39.53,-81.84 -42.41,-129.69 -1.95,-32.14 -0.36,-68.06 -32.03,-84.04 -127.91,-64.35 -99.3,-156.92 -47.84,-254.93 -0.03,0.02 -3.13,3.24 -3.13,3.24z"/>
  <path class="fil1" d="M3217.32 6491.47c-95.13,-19.49 -130.65,60.59 -169.01,136.27 -56.71,-32.67 -72.81,-86.79 -102.14,-129.33 -57.78,-83.77 -125.08,-151.45 -229.82,-168.18 -124.57,-19.98 -210.54,-111.3 -310.13,-177.17 -13.59,-9.07 -32.88,-28.23 -31.02,-39.49 22.78,-138.75 -16,-257.99 -99.51,-366.97 -18.01,-23.54 4.54,-46.28 27.94,-46.25 119.5,0.13 205.96,-173.48 348.97,-65.94 20.86,15.67 74.08,-21.05 111.23,-18.43 53.64,3.78 254.43,296.38 250.16,354.95 -1.27,18 -2.94,36.33 -7.23,53.73 -36.09,146.13 -40.19,276.79 123.38,354.98 37.51,17.93 58.01,72.78 87.18,111.83z"/>
  <path class="fil1" d="M3601.62 5401.19c-78.7,-45.93 -122.9,9.49 -162.59,74.54 -50.26,-52.69 -65.19,-114.56 -134.99,-134.54 -87.01,-24.87 -128.54,-176.71 -72.91,-250.82 44.2,-58.94 61.83,-118.38 50.36,-188.67 -14.12,-86.36 62.05,-119.8 107.15,-151.18 55.08,-38.28 74.21,43.4 97.48,79.4 64.75,100.4 158.84,107.08 258.67,91.77 61.01,-9.36 120.31,-30.81 180.12,-48.08 60.71,-17.57 107.64,-16.17 105.26,67.84 -1.79,65.14 38.62,97.95 92.2,117.87 100.51,37.35 117.39,94.86 53.42,184.75 -38.62,54.18 -65.31,117.34 -97.35,176.48 -60.09,55.51 -115.11,3.52 -168.33,-12.98 -103.47,-32.05 -204.31,-62.92 -308.49,-6.38z"/>
  <path class="fil1" d="M4082.37 5481.47c107.78,100.48 132.76,189.06 57.97,346.58 -84.15,177.31 -199.22,282.93 -362.17,360.56 -36.4,17.3 -71.54,34.27 -91.51,-4.97 -98.32,-192.35 -258.92,-360.54 -238.78,-600.63 6.19,-73.42 33.23,-138.92 119.92,-150.25 4.27,1.16 10.56,4.92 12.55,3.22 182.08,-152.11 340.96,-41.17 502.02,45.49z"/>
  <path class="fil1" d="M3037.82 6122.53c3.85,-27.73 6.35,-87.15 21.54,-143.04 13.27,-48.84 13.46,-107.55 -21.41,-124.69 -115.2,-56.6 -124.52,-197.75 -221.58,-265.76 -48.72,-34.19 -62.76,-53.92 14.74,-82.24 79.61,-29.09 148.38,-83.84 240.47,-51.14 10.37,3.65 36.82,-12.88 42.43,-26.03 42.79,-99.54 105.23,-79.79 180.29,-41.01 77.27,39.85 113.7,108.21 102.56,183.75 -19.52,132.03 11.83,233.99 100.58,332.85 59.67,66.44 61.82,147.98 -46.8,184.34 -72.95,24.47 -125.25,63.16 -161.62,140.22 -30.37,64.55 -101.03,104.43 -179.83,79.36 -74.53,-23.71 -74.76,-91.08 -71.37,-186.61z"/>
  <path class="fil1" d="M6407.03 7328.31c-91.15,58.14 -159.82,115.42 -84.6,243.55 45.95,78.39 14.08,192.45 156.7,222.9 51.81,11.12 73.87,158.61 49.66,246.34 -34.48,125.25 24.67,154.23 125.96,158.79 292.98,13.11 292.98,13.28 335.19,306.2 17.92,124.32 65.73,144.17 169.63,70.36 39.5,40.94 51.85,79.99 0.98,124.01 -50.68,43.77 -94.91,95.5 -146.57,137.94 -58.56,48.14 -60.54,45.25 -75.15,-36.3 -2.18,-12.32 -4.56,-30.68 -12.61,-34.96 -176.8,-93.47 -190.98,-283.8 -254.59,-443.87 -18.86,-47.45 -55.89,-52.07 -94.41,-61.79 -142.45,-35.86 -209.16,-112.97 -195.83,-254.48 10.33,-109.87 -20.54,-142.37 -130.1,-139.35 -100.58,2.75 -165.33,-99.65 -259.09,-135.44 -32.3,-12.32 -59.77,-74.29 -116.09,-88.56 -33.96,-8.63 -42.17,-46.35 -14.08,-76.07 21.48,-22.74 47.23,-26.46 63.13,8.06 33.93,73.26 85.68,48.52 133.78,23.49 70.63,-36.7 177.12,-75.54 158.48,-160.81 -31.83,-145.63 61.37,-108.55 127.2,-121.27 21.71,-4.17 44.09,-6.8 62.41,11.26z"/>
  <path class="fil1" d="M3189.64 6363.88c74.92,-31.45 139,-74.82 167.03,-150.55 27.18,-73.52 100.77,-64.72 149.26,-99.49 85.88,-61.48 86.52,44.93 116.47,78.4 74.34,83.01 139.03,75.64 216.96,8.37 31.64,-27.26 77.17,-65.58 119.01,-37.72 38.14,25.47 -9.51,63.55 -12.57,97.15 -9.62,104.04 84.8,67.48 133.13,100.82 -16.92,21.87 -46.54,42.62 -46.12,62.64 3.2,139.4 -85.49,165.5 -194.5,186.25 -77.88,14.87 -115.72,77.33 -107.64,162.77 4.23,44.82 12.94,91.84 4.3,134.74 -9.67,48.74 -21.87,94.63 -95.65,39.08 -83.56,-62.79 -147.24,-105.06 -146.45,-236.02 0.61,-102.3 -104.16,-188.26 -190.47,-256.46 -33.98,-26.86 -80.49,-37.12 -112.76,-89.98z"/>
  <path class="fil1" d="M1708.28 10684.47c13.2,108.98 66.94,120.97 110.68,148.73 31.84,20.15 91.48,26.99 49.8,106.01 -28.94,54.73 29.88,93.21 93.62,86.83 24.98,-2.52 54.53,-20.02 64.8,18.4 8.34,31.15 -13.33,50.3 -38.26,62.75 -27.61,13.78 -55.44,32.25 -84.77,36.32 -88.87,12.46 -146.81,57.85 -168.26,147.13 -16.43,68.74 -43.64,87.33 -93.7,25.84 -36.3,-44.59 -69.41,-19.53 -103.2,4.85 -90.87,65.57 -176.13,24.8 -214.36,-52.4 -36.37,-73.28 -107.77,-175.08 19.73,-251.76 73.13,-44.05 45.29,-128.96 56.44,-197.89 6.13,-37.92 -2.81,-90.38 37.25,-108.14 39.79,-17.67 58.99,30.54 80.66,55.14 80.95,92.15 128.83,35.57 189.57,-81.81z"/>
  <path class="fil1" d="M5696.95 2903.06c-8.15,1.76 -32.56,0.9 -50.06,11.72 -82.35,50.9 -125.21,35.63 -138.83,-67.74 -7.14,-53.99 -59.41,-58.97 -106.11,-59.9 -26.66,-0.56 -55.27,-3.41 -61.83,-37.68 -6.35,-33.07 20.64,-46.69 40.35,-64.19 108.82,-96.69 195.08,-213.59 244.95,-349.43 35.65,-97.43 119.6,-67.48 177.65,-86.06 40.99,-13.13 118.84,17.1 142.54,83.6 20.01,56.32 82.68,108.18 2.54,175.85 -83.69,70.69 -59.86,195.27 -110.25,283.73 -27.57,48.38 -23.53,148.02 -140.95,110.1z"/>
  <path class="fil1" d="M813.34 9512.35c32.72,5.77 27.53,44.89 29.46,77.96 10.56,183.29 27.61,194.24 189.48,103.3 30.86,-17.34 41.49,-19.19 60.42,9.86 31.94,48.78 67.95,94.79 101.48,142.54 7.27,10.3 11.35,22.91 16.92,34.47 -100.9,34.99 -57.81,210.71 -197.47,209.49 -21.05,-0.2 -43.21,10.22 -63.25,19.49 -141.31,65.18 -191.63,55.14 -260.49,-86.34 -46.7,-95.85 -76.82,-201.95 -101.2,-306.7 -20.14,-86.5 90.21,-186.7 224.65,-204.07z"/>
  <path class="fil1" d="M1114.39 10128.56c81.55,-13.45 120.69,20.43 113.61,119.38 -6.51,90.01 53.29,137.23 132.94,160.6 45.33,13.35 129.91,-20.72 115.53,69.86 -14.14,88.66 -104.16,136.14 -170.15,107.09 -97.94,-43.21 -178.07,-48.01 -272.26,-3.69 -42.24,19.75 -71.89,-7.18 -76.48,-61.69 -4.54,-53.26 -18.03,-106.52 -33.44,-157.92 -52.12,-173.66 -7.2,-232.73 190.25,-233.63z"/>
  <path class="fil1" d="M1531.89 10514.46c29.33,58.38 16.32,136.44 95.29,165.46 41.53,15.21 1.99,44.42 -6.87,62.33 -15.02,30.05 -38.95,28.19 -60.95,2.85 -17.43,-20.15 -33.76,-41.93 -54.07,-58.87 -68.69,-57.34 -114.16,-30.65 -136.45,47.05 -9.71,33.74 -7.43,71.26 -9.09,107.15 -6.68,146.47 -16.52,151.94 -146.17,91.51 -39.69,-18.43 -84.37,-25.6 -124.26,-43.83 -97.41,-44.63 -155.03,-141.35 -115.31,-226.88 29.67,-63.69 159.17,-96.26 226.86,-62.03 144.86,73.25 238.08,19.32 331.02,-84.74z"/>
  <path class="fil1" d="M6626.12 2880.43c-7.75,45.13 -106.34,88.82 -27.6,127.9 61.47,30.55 161.94,72.02 209.33,-47.51 28.45,-71.73 20.88,-148.96 47.39,-222.17 0,65.74 3.25,131.69 -1.31,197.06 -2.44,34.64 -10.82,92.21 -29.72,98.55 -167.35,56.28 -193.82,240.17 -308.69,342.53 -77.8,69.27 -121.85,77.24 -232.6,13.78 127.69,-49.5 168,-131.35 122.15,-262.47 -36.11,-103.43 62.24,-205.56 221.05,-247.67z"/>
  <path class="fil1" d="M12620.05 3744.26c-1.73,5.39 -12.77,43.7 -26.59,80.93 -10.24,27.52 -32.69,42.47 -61.4,41.06 -29.99,-1.46 -49.18,-21.24 -53.03,-50.6 -10.56,-80.02 -22.55,-160.17 -26.3,-240.65 -1.95,-40.84 41.98,-58.14 70.56,-72.16 44.03,-21.49 46.18,31.21 57.94,53.49 24.77,46.95 48.36,96.63 38.82,187.93z"/>
  <path class="fil1" d="M4082.37 5481.47c-62.51,-22.17 -123.58,-54.75 -187.85,-63.85 -84.54,-12.05 -181.98,-100.41 -255.21,29.29 -8.32,14.74 -50.29,8.07 -71.51,-14.15 11.28,-10.49 22.53,-21.05 33.83,-31.54 47,-68.07 96.4,-91.51 187.98,-67.77 97.77,25.37 187.36,77.5 288.81,87.1 1.34,20.28 2.64,40.6 3.95,60.92z"/>
  <path class="fil1" d="M12859.21 10704.51c-80.76,-114.79 -118.89,-229.9 -12.52,-353.19 14.57,-16.93 18.12,-52.23 13.56,-76.46 -18.99,-101.51 -14.11,-176.68 21.37,-241.02l0 683.65c-7.54,-4.17 -15.02,-8.48 -22.41,-12.98z"/>
  <path class="fil1" d="M12881.62 12522.86l-0.24 0.14c-58.43,35.37 -114.66,52.66 -157.94,-24.93 -7.13,-12.82 -27.04,-19.16 -42.07,-26.2 -44.84,-20.98 -49.63,104.36 -71.99,41.44 -40.21,-113.36 -155.48,-177.81 -168.39,-300.69 -3.81,-36.57 -1.6,-67.91 57.4,-59.81 144.59,19.89 162.68,-4.58 135.11,-166.67 -92.26,82.07 -202.64,25.39 -304.48,48.93 -67.63,15.64 -112.93,-123.95 -48.21,-185.48 102.3,-97.21 75.22,-190.02 26.6,-292.95 -56.55,-119.83 7.68,-204.81 82.09,-285.03 18.15,-19.56 36.96,-35.62 46.15,-62.85 23.17,-68.7 66.41,-64.35 125.08,-41.01 153.6,61.24 193.19,28.79 168.78,-132.48 -4.3,-28.12 -14.77,-59.8 18.7,-67.41 122.67,-27.92 88.39,-123.28 89.44,-204.14 13.66,-19.17 28.48,-28.36 43.97,-31.66l0 1790.8z"/>
  <path class="fil1" d="M11606.51 12066.3c-72.29,-7.58 -76.66,-11.66 -53.58,-36.4 20.33,-21.78 49.44,-35.92 76.32,-50.2 34.81,-18.5 82.45,-31.24 73.78,-80.79 -9.48,-54.05 -51.78,-44.29 -94.57,-36.19 -41.49,7.87 -65.96,-31.97 -76.95,-62.79 -31.21,-86.93 -79.87,-90.47 -150.66,-27.72 11.37,-60.17 25.85,-103.46 26.3,-146.83 0.62,-66.71 -40.32,-82.58 -100.18,-52.16 -67.34,34.29 -142.68,12.45 -192.71,-25.17 -44.13,-33.21 -3.9,-96 31.58,-128.14 112.05,-101.26 34.16,-240.23 72.25,-358 25.3,-78.2 39.63,-165.22 56.55,-248.73 6.03,-29.78 15.19,-68.57 36.37,-83.71 72.29,-51.73 171.1,-73.35 182.02,-189.4 0.55,-5.5 36.66,-54.05 84.63,-44.32 130.49,26.46 156.46,-63.46 142.25,-162.7 -22.74,-159.15 -59.83,-316.13 -90.89,-474.02 19.43,-96.79 75.74,-166.89 154.74,-220.01 28.41,-19.02 61.73,-49.27 92.81,-16.93 36.67,38.05 6.33,73.15 -21.57,103.39 -8.96,9.84 -19.09,18.34 -29.39,26.6 -69.07,91.78 -28.75,140.96 66.25,130.99 87.4,-9.16 141.86,25.8 199.48,79.49 62.93,58.57 134.11,88.49 216.07,31.67 25.59,-17.69 58.31,-39.84 84.74,-11.82 147.7,156.96 298.78,72.69 471.77,-3.11 -62.18,111.19 -139.59,205.19 -48.27,314.94 2.54,3.11 5.15,10.62 3.71,12.08 -153.39,160.71 -30.66,329.22 -13.97,494.61 0.42,4.44 1.34,9.39 0.16,13.48 -31.52,111.6 -183.81,174.65 -124.66,326.85 5.41,13.92 -52.79,9.97 -80.52,-4.74 -89.21,-47.29 -156.47,-58.34 -214.68,59.03 -30.66,61.83 -91.83,104.89 -127.16,178.97 -36.6,76.77 -28.48,122.06 -0.26,181 44.91,93.8 78.54,183.19 -19.43,266.83 -29.65,25.33 -21.31,66.74 -22.06,102.73 -3.88,175.02 -141.15,270.48 -302.14,198.03 -70.56,-31.71 -119.64,-47.46 -157.31,35.06 -50.9,-40.51 -39.92,-173.13 -150.82,-91.87z"/>
  <path class="fil1" d="M12838.75 13566.68c-30.04,-345.83 -87.35,-686.98 -175.5,-1026.33 72.34,54.55 125.92,82.98 201.63,37.45 5.55,-3.34 11.13,-6.38 16.74,-9.13l0 998.01 -42.87 0z"/>
  <path class="fil1" d="M12881.62 10755.76c-14.38,0.15 -29,2.48 -43.97,7.96l21.57 -59.23c7.52,0.78 14.97,1.67 22.4,2.64l0 48.63z"/>
  <path class="fil1" d="M11825.61 9752.11c12.45,-40.05 63.55,-67.31 33.89,-128.47 -122.47,32.34 -159.13,152.47 -230.44,235.38l-9.32 1.03 -9.35 -0.77c2.77,-115.21 77.33,-181.62 157.57,-246.17 44.78,-36.02 95,-64.45 140.59,-21.87 47.88,44.58 22.62,96.18 -18.44,138.38 -15,15.45 -27.03,33.97 -40.41,51.01 -8.02,-9.5 -16.1,-19.03 -24.09,-28.52z"/>
  <path class="fil1" d="M9363.82 605.44c-52.5,-27.09 -41.69,-83.31 -66.26,-116.98 -69.64,25.67 -94.61,92.24 -64.98,132.03 73.3,98.34 35.26,144.86 -69.45,178.67 199.49,83.6 301.35,302.98 261.57,516.91 -25.62,138.03 21.9,277.78 -2.03,418.37 -18.6,108.91 -30.72,216.19 -0.84,332.11 42.14,163.46 -43.48,308.43 -119.25,448.45 -4.01,7.41 -11.8,13.02 -18.64,18.43 -184.82,146.56 -580.95,84.96 -696.55,-129.96 -131.2,-243.79 -252.57,-498.89 -211.67,-793.81 4.28,-30.98 -14.21,-45.42 -26.82,-68.34 -46.69,-84.89 -50.06,-175.15 -11.14,-267.25 18.54,-43.93 42.56,-110.8 -8.63,-130.99 -53.69,-21.22 -80.57,47.85 -94.84,91.71 -27.48,84.47 -73.33,126.14 -163.87,114.25 -31.83,-4.18 -64.4,-1.52 -78.5,-35.96 -13.76,-33.56 3.05,-70.55 27.56,-83.51 85.29,-44.92 49.87,-98.28 18.75,-154.39 -50.03,-90.48 -90.41,-188.34 -151.81,-269.89 -65.47,-87.02 -9.52,-111.99 50.84,-127.14 49.8,-12.54 106.09,-6.56 158.26,0.37 179.11,23.81 277.4,-46.71 309.87,-227.41 6.35,-35.43 17.3,-70.76 18.41,-106.35 3.65,-122.6 56.89,-172.17 178.59,-140.53 37.84,9.87 85.81,11.89 112.27,-23.8 80.86,-108.94 151.9,-51.16 223.89,8.13 78.44,64.68 146.4,139.23 264.51,137.47 50.67,-0.73 43.14,120.03 141.69,104.62 51.13,-7.93 58.86,47.42 19.07,174.79z"/>
  <path class="fil1" d="M7145.73 1324.2c131.99,-5.14 263.75,-2.32 395.78,-24.6 99.46,-16.77 198.17,-0.13 226.79,129.96 8.11,37.02 36.53,61.13 70.23,76.8 40.8,18.99 125.01,-48.91 121.42,21.98 -4.72,93.81 54.43,190.76 3.56,276.02 -52.21,87.5 -147.89,114.32 -239.86,85.64 -126.68,-39.45 -188.37,1.26 -198.99,130.06 -5.02,61.39 -33.24,88.92 -92.43,90.94 -84.9,2.89 -110.74,54.83 -109.73,134.64 0.78,66.65 -11.67,133.51 -10.69,200.16 1.11,74.61 -1.56,130.76 -100.9,133.18 -57.52,1.36 -110.25,38.48 -93.76,118.41 11.47,55.45 -14.24,99.54 -67.46,84.33 -33.6,-9.56 -113.19,-10.72 -77.5,-102.23 41.78,-107.22 -32.1,-153.6 -120.06,-157.69 -95.3,-4.34 -191.59,12.33 -287.25,21.26 -60.42,5.57 -78.51,46.71 -84.47,102.59 -17.37,162.11 -140.36,117.48 -233.8,114.79 -92.49,-2.65 -147.07,-53.09 -137.86,-158.09 2.61,-30.08 -10.79,-61.39 -15.35,-92.37 -15.45,-105.19 43.38,-166.41 144.71,-150.81 12.99,2.03 25.15,8.96 38.09,11.89 258.34,59.1 265.48,54.12 296.73,-207.66 167.15,33.9 196.81,2.63 180.81,-173.22 -10.59,-116.05 18.42,-222.9 102.56,-308.47 91.71,-28.39 139.78,-78.96 76.66,-189.46 123.47,2.69 222.49,-18.69 212.77,-168.05z"/>
  <path class="fil1" d="M11228.28 10782.24c-31.03,-0.04 -62.12,0.26 -93.14,-0.13 -44.45,-0.57 -92.36,3.87 -109.02,-53.23 -9.41,-32.27 11.8,-49.61 37.1,-62.79 47.38,-24.77 93.85,-32.84 130.94,16.33 15.97,21.15 25.59,47.35 38.07,71.26 -1.34,9.56 -2.65,19.06 -3.95,28.56z"/>
  <path class="fil1" d="M11503.82 10412.36c-10.5,-35.2 -47.91,-72.29 4.49,-103.2 7.6,-4.48 29.04,-0.1 32.79,6.68 20.1,36.06 12.61,67.63 -22.75,90.67 -3.39,5.65 -8.28,7.64 -14.53,5.85z"/>
  <path class="fil1" d="M3630.64 10402.43c-11.41,52.43 -22.78,104.86 -36.01,165.59 -49.44,0.93 -122.63,-81.25 -152.39,0.17 -48.27,131.88 64,211.21 147.79,322.57 -136.03,3.52 -254.53,59.61 -370.83,-25.7 -14.34,-10.49 -29.33,-27.53 -44.59,-28.18 -169.3,-7.15 -275.19,-88.72 -359.99,-243.59 -43.41,-79.42 -30.63,-81.15 28.81,-104.46 48.18,-18.92 132.35,-19.06 53.64,-110.4 -11.07,-12.86 -26.03,-98.82 78.12,-79.46 172.27,31.87 227.03,7.11 195.97,-140.48 -0.88,-148.16 21.8,-296.72 -17.96,-444.04 -20.11,-74.24 14.86,-128.83 77.27,-170.24 58.86,-38.95 93.99,-89.28 24.7,-150.24 -52.86,-46.56 -11.67,-111.3 -35.91,-164.54 -9.51,-20.95 24.11,-59.12 50.13,-43.16 99.98,61.37 217.37,83.78 314.62,145.2 51.29,32.44 82.22,106.06 6.81,154.7 -89.69,57.87 -73.88,123.65 -26.3,193.64 49.83,73.39 42.85,115.02 -46.21,148.53 -79.03,29.64 -105.89,92.08 -17.05,144.53 176.67,104.4 211.67,247.21 129.38,429.56z"/>
  <path class="fil1" d="M1644.57 1392.82c158.51,144.7 137.82,-25.77 193.55,-68.5 14.15,9.69 38.98,17.66 47.85,34.36 65.4,123.19 106.24,247.94 224.86,352.56 131.02,115.55 39.4,321.91 -115.23,343.93 -106.7,15.24 -144.51,-59.04 -172.3,-132.35 -61.5,-162.24 -111.79,-328.85 -178.73,-530z"/>
  <path class="fil1" d="M10892.34 3012.61c-48.43,0 -92.22,-5.81 -125.8,-40.88 -11.34,-11.88 -23.07,-26.59 -26.81,-41.97 -3.79,-15.6 212.08,-164.12 232.13,-161.07 109.05,16.94 64.98,122.26 98.94,182.69 13.07,23.35 -9.97,35.33 -36.69,38.06 -48.56,4.94 -96.53,15.47 -141.77,23.17z"/>
  <path class="fil1" d="M12217.09 9644.97c-2.52,43.13 -32.1,49.27 -65.32,48.88 -33.49,-0.44 -66.21,-6.85 -58.2,-51.97 7.69,-43.13 40.77,-55.95 80.07,-52.66 32.79,2.76 44.92,24.3 43.45,55.75z"/>
  <path class="fil1" d="M834.23 8970.09c-96.85,61.89 -143.33,18.33 -154.87,-61.96 -10.91,-75.83 -67.04,-125.84 -86.29,-194.71 -11.9,-42.49 -7.63,-82.81 32.03,-107.54 54.56,-34.04 68.51,19.06 88.29,49.87 62.8,97.85 125.6,184.81 239.27,240.73 99.15,48.81 117.52,178.21 109.99,284.16 -8.04,113.45 -59.44,217.65 -170.02,271.07 -23.16,11.19 -68.24,25.47 -79.13,-18.09 -25.02,-100.01 -66.97,-52.99 -113.77,-20.89 -36.37,24.94 -75.54,47.82 -116.53,63.09 -50.68,19 -94.58,-1.36 -93.18,-58.74 1.43,-57.24 0.39,-113.03 -2.45,-170.07 -3.26,-64.54 62.12,-41.96 103.8,-42.66 150.01,-2.5 212.82,-57.88 242.86,-234.26z"/>
  <path class="fil1" d="M861.58 8899.09c195.66,61.79 191.43,362.75 62.08,483.4 -18.16,16.81 -39.34,38.79 -69.33,22.38 -28.41,-15.43 -9.54,-35.22 -6.51,-56.2 11.21,-77.5 -33.53,-58.85 -71.67,-37.53 -72.64,40.71 -136.19,98.71 -229.62,123.52l0 -183.58c256.02,0.49 371.68,-125.94 317.42,-353.59l-2.37 1.6z"/>
  <path class="fil1" d="M863.92 8897.49c-87.31,59.37 -147.46,63.29 -157.64,-69.26 -4.55,-60.37 -100.27,-93.3 -54.25,-184.52 64.46,96 107.96,201.82 209.26,255.64 0.26,-0.26 2.63,-1.86 2.63,-1.86z"/>
  <path class="fil2" d="M5799.92 7570.47c-0.65,132.59 -232.95,492.74 -232.56,495.41 0.26,1.35 -232.52,-364.62 -232.52,-495.41 0,-130.86 104.12,-236.94 232.52,-236.94 128.47,0 233.21,106.08 232.56,236.94z"/>
  <path class="fil3" d="M5466.32 7692.53l49.45 0 0 -251.91 -43.74 0 -56.68 29.84 8.37 39.92 41.84 -22.1 0.76 0 0 204.25zm103.09 -8.14c10.65,6.2 28.53,11.24 48.31,11.24 54.01,0 82.92,-37.59 82.92,-75.96 0,-33.72 -18.25,-55.81 -42.22,-63.95l0 -0.78c22.06,-10.46 35.76,-31.39 35.76,-56.58 0,-32.17 -22.07,-60.85 -65.43,-60.85 -20.54,0 -40.7,6.59 -50.97,13.19l6.84 38.37c9.13,-6.21 19.79,-10.08 31.2,-10.08 17.49,0 28.53,10.85 28.53,29.06 0,24.42 -23.21,32.17 -41.47,32.56l-4.94 0 0 37.2 6.85 0c24.72,0.38 46.02,12.02 46.02,39.91 0,21.33 -13.31,36.44 -37.66,36.44 -12.93,0 -27,-3.87 -36.89,-9.69l-6.85 39.92z"/>
  <path class="fil2" d="M5007.13 8464.35c-0.64,132.59 -232.98,492.74 -232.56,495.41 0.26,1.39 -232.53,-364.58 -232.53,-495.41 0,-130.86 104.13,-236.94 232.53,-236.94 128.48,0 233.18,106.08 232.56,236.94z"/>
  <path class="fil3" d="M4673.5 8586.38l49.45 0 0 -251.91 -43.74 0 -56.68 29.84 8.37 39.92 41.84 -22.1 0.76 0 0 204.25zm176.5 -255.02c-50.97,0 -73.79,57.75 -73.79,130.22 0,64.73 18.26,127.9 72.27,127.9 39.94,0 72.28,-39.92 72.28,-130.22 0,-60.07 -12.94,-127.9 -70.76,-127.9zm-0.38 43.42c15.98,0 20.93,31.39 20.93,85.64 0,57.75 -5.71,85.65 -20.93,85.65 -16.73,0 -23.96,-26.74 -23.2,-85.65 -0.38,-58.52 7.61,-85.64 23.2,-85.64z"/>
  <path class="fil2" d="M6191.03 8582.8c-0.65,132.62 -232.95,492.74 -232.56,495.44 0.26,1.36 -232.53,-364.61 -232.53,-495.44 0,-130.86 104.13,-236.94 232.53,-236.94 128.47,0 233.21,106.08 232.56,236.94z"/>
  <path class="fil3" d="M5907.34 8707.96c7.61,0 15.21,0 22.82,-1.16 24.35,-3.88 46.03,-15.11 61.25,-31.78 22.82,-24.8 40.7,-64.73 40.7,-121.69 0,-60.85 -24.35,-103.49 -70.38,-103.49 -47.54,0 -73.41,44.97 -73.41,88.37 0,46.12 26.25,75.19 58.2,75.19 15.98,0 27.39,-6.59 35.38,-15.51l1.14 0c-4.19,22.48 -13.32,40.31 -23.97,50.77 -8.75,8.14 -19.4,13.18 -29.29,15.12 -7.99,1.55 -12.93,1.94 -22.44,1.94l0 42.24zm51.73 -221.3c13.7,0 22.83,18.61 22.83,51.94 0,16.66 -0.39,22.08 -2.29,26.74 -2.66,6.59 -10.27,13.17 -19.02,13.17 -15.21,0 -22.82,-20.15 -23.2,-44.56 -0.76,-30.62 9.13,-47.29 21.68,-47.29z"/>
  <path class="fil2" d="M4991.27 6999.68c-0.65,132.59 -232.96,492.71 -232.57,495.41 0.27,1.35 -232.52,-364.62 -232.52,-495.41 0,-130.89 104.12,-236.94 232.52,-236.94 128.48,0 233.22,106.05 232.57,236.94z"/>
  <path class="fil3" d="M4818.25 6869.8l-102.32 0 -14.08 126.34c5.33,-0.78 11.03,-0.78 17.88,-0.78 28.53,0 53.64,11.24 53.64,45.35 0,26.75 -15.98,42.63 -40.33,42.63 -13.69,0 -26.24,-4.26 -35.37,-8.53l-7.61 39.92c9.89,5.43 28.91,10.08 46.41,10.08 54.01,0 85.97,-39.92 85.97,-88.75 0,-25.58 -7.61,-44.57 -21.31,-58.13 -14.45,-13.57 -36.13,-18.6 -46.78,-18.99 -2.67,0 -4.95,0 -7.23,0.39l5.71 -45.35 65.42 0 0 -44.18z"/>
  <path class="fil2" d="M5551.52 5206.5c-0.65,132.58 -232.98,492.75 -232.57,495.4 0.27,1.41 -232.52,-364.58 -232.52,-495.4 0,-130.85 104.12,-236.94 232.52,-236.94 128.48,0 233.19,106.09 232.57,236.94z"/>
  <polygon class="fil3" points="5307.73,5328.57 5357.18,5328.57 5357.18,5076.66 5313.44,5076.66 5256.76,5106.5 5265.13,5146.42 5306.97,5124.32 5307.73,5124.32 "/>
  <path class="fil2" d="M6745.98 6703.5c-0.62,132.59 -232.95,492.75 -232.56,495.4 0.26,1.4 -232.53,-364.57 -232.53,-495.4 0,-130.86 104.13,-236.94 232.53,-236.94 128.47,0 233.21,106.08 232.56,236.94z"/>
  <path class="fil3" d="M6540.83 6820.15l0 -60.07 24.34 0 0 -40.69 -24.34 0 0 -151.14 -47.93 0 -81.03 156.95 0 34.88 84.83 0 0 60.07 44.13 0zm-86.35 -100.76l0 -0.77 26.24 -53.11c6.47,-13.94 11.8,-25.18 17.12,-39.13l1.52 0c-1.14,13.17 -2.66,27.9 -2.66,41.47l0 51.54 -42.22 0z"/>
  <path class="fil2" d="M7628.63 6256.54c-0.66,132.59 -232.96,492.76 -232.56,495.41 0.26,1.39 -232.53,-364.58 -232.53,-495.41 0,-130.85 104.12,-236.94 232.53,-236.94 128.47,0 233.21,106.09 232.56,236.94z"/>
  <path class="fil3" d="M7461.32 6373.2l0 -44.57 -75.7 0 0 -0.78 14.84 -17.82c28.53,-33.72 57.43,-71.71 57.43,-118.98 0,-36.05 -17.49,-72.87 -71.51,-72.87 -22.44,0 -43.74,8.14 -55.16,15.9l9.13 39.14c8.75,-5.82 21.31,-12.79 36.9,-12.79 20.54,0 31.57,13.95 31.57,34.49 0,36.05 -26.24,70.54 -58.2,112l-24.34 32.18 0 34.1 135.04 0z"/>
  <path class="fil2" d="M8009.17 7317.38c-0.64,132.58 -232.98,492.72 -232.56,495.41 0.26,1.36 -232.53,-364.61 -232.53,-495.41 0,-130.88 104.13,-236.94 232.53,-236.94 128.47,0 233.22,106.06 232.56,236.94z"/>
  <path class="fil3" d="M7670.27 7439.42l49.45 0 0 -251.91 -43.74 0 -56.68 29.84 8.37 39.92 41.84 -22.1 0.76 0 0 204.25zm238.51 0l0 -44.57 -75.7 0 0 -0.78 14.84 -17.82c28.53,-33.72 57.43,-71.71 57.43,-118.98 0,-36.05 -17.49,-72.87 -71.51,-72.87 -22.44,0 -43.74,8.14 -55.16,15.89l9.13 39.15c8.75,-5.82 21.31,-12.79 36.9,-12.79 20.54,0 31.57,13.95 31.57,34.49 0,36.05 -26.24,70.53 -58.2,112l-24.34 32.18 0 34.1 135.04 0z"/>
  <path class="fil2" d="M9272.35 7457.36c-0.66,132.62 -232.96,492.76 -232.57,495.44 0.27,1.36 -232.52,-364.61 -232.52,-495.44 0,-130.86 104.12,-236.94 232.52,-236.94 128.48,0 233.22,106.08 232.57,236.94z"/>
  <path class="fil3" d="M8994.81 7446.89c-20.55,13.17 -37.28,35.64 -37.28,67.03 0,41.09 29.67,68.6 72.27,68.6 40.7,0 74.18,-27.12 74.18,-73.63 0,-29.84 -15.6,-53.09 -38.42,-65.89l0 -0.77c26.25,-16.27 32.71,-39.14 32.71,-55.8 0,-37.6 -28.53,-62.02 -63.9,-62.02 -38.04,0 -70,25.2 -70,66.28 0,19.76 9.13,41.46 30.44,55.42l0 0.78zm36.51 101.53c-16.73,0 -25.48,-18.21 -25.48,-39.92 0,-19.76 8.75,-35.27 21.3,-44.18 14.07,7.36 28.53,22.87 28.53,46.51 0,21.31 -8.37,37.59 -24.35,37.59zm1.14 -189.9c14.46,0 20.17,15.5 20.17,32.55 0,14.74 -6.47,30.62 -17.12,36.05 -14.46,-7.75 -24.35,-20.15 -24.35,-37.98 0,-15.51 6.47,-30.62 21.3,-30.62z"/>
  <path class="fil2" d="M10207.84 5394.96c-0.65,132.62 -232.95,492.75 -232.56,495.44 0.26,1.37 -232.53,-364.62 -232.53,-495.44 0,-130.85 104.13,-236.94 232.53,-236.94 128.47,0 233.21,106.09 232.56,236.94z"/>
  <path class="fil3" d="M9894.55 5508.88c10.65,6.21 28.53,11.24 48.31,11.24 54.01,0 82.92,-37.58 82.92,-75.95 0,-33.73 -18.25,-55.82 -42.22,-63.96l0 -0.77c22.06,-10.46 35.76,-31.39 35.76,-56.59 0,-32.16 -22.07,-60.84 -65.43,-60.84 -20.54,0 -40.7,6.59 -50.97,13.18l6.84 38.37c9.13,-6.2 19.79,-10.08 31.2,-10.08 17.49,0 28.53,10.86 28.53,29.06 0,24.42 -23.21,32.18 -41.47,32.56l-4.94 0 0 37.2 6.85 0c24.72,0.39 46.02,12.02 46.02,39.92 0,21.33 -13.31,36.43 -37.66,36.43 -12.93,0 -27,-3.87 -36.89,-9.68l-6.85 39.91z"/>
  <path class="fil2" d="M10202.56 8345.87c-0.66,132.61 -232.96,492.74 -232.56,495.43 0.26,1.36 -232.53,-364.61 -232.53,-495.43 0,-130.86 104.12,-236.95 232.53,-236.95 128.47,0 233.22,106.09 232.56,236.95z"/>
  <path class="fil3" d="M9857.49 8467.9l49.45 0 0 -251.91 -43.74 0 -56.68 29.84 8.37 39.92 41.84 -22.1 0.76 0 0 204.25zm162.05 0l49.45 0 0 -251.91 -43.74 0 -56.68 29.84 8.37 39.92 41.84 -22.1 0.76 0 0 204.25z"/>
  <path class="fil2" d="M6381.31 6030.38c-0.66,132.61 -232.99,492.74 -232.56,495.43 0.25,1.37 -232.54,-364.61 -232.54,-495.43 0,-130.86 104.13,-236.94 232.54,-236.94 128.46,0 233.2,106.08 232.56,236.94z"/>
  <path class="fil3" d="M6183.35 5897.43c-4.95,0.39 -13.32,0.77 -25.11,2.72 -20.16,4.26 -44.5,15.88 -60.86,34.1 -22.82,24.81 -40.32,62.01 -40.32,117.04 0,62.79 28.53,104.25 75.32,104.25 48.31,0 70.75,-44.95 70.75,-89.52 0,-47.28 -22.82,-77.9 -55.92,-77.9 -16.74,0 -29.67,8.14 -38.42,20.15l-1.52 0c6.47,-31.78 22.82,-60.07 55.54,-67.04 7.61,-1.55 14.45,-2.32 20.54,-2.72l0 -41.08zm-50.97 221.3c-15.6,0 -24.73,-22.1 -24.73,-55.04 0,-12.01 1.14,-19.37 2.28,-22.47 4.57,-11.24 12.56,-16.67 20.54,-16.67 16.36,0 22.83,20.15 23.21,41.47 0,30.23 -5.33,52.71 -21.3,52.71z"/>
  <path class="fil2" d="M6782.98 9702.88c-0.65,132.58 -232.95,492.72 -232.56,495.4 0.26,1.37 -232.52,-364.61 -232.52,-495.4 0,-130.88 104.12,-236.94 232.52,-236.94 128.47,0 233.21,106.06 232.56,236.94z"/>
  <polygon class="fil3" points="6485.96,9573.01 6485.96,9617.57 6570.02,9617.57 6570.02,9618.34 6494.32,9824.91 6543.01,9824.91 6620.61,9606.33 6620.61,9573.01 "/>
  <polygon class="fil0" points="4422.23,4784.45 4509.28,4964.18 4703.94,4993 4563.09,5132.83 4596.3,5330.36 4422.23,5237.08 4248.17,5330.36 4281.38,5132.83 4140.57,4993 4335.19,4964.18 "/>
  <polygon class="fil3" points="4475.1,4871.52 4532.32,4989.78 4660.44,5008.71 4567.79,5100.72 4589.68,5230.71 4475.1,5169.36 4360.51,5230.71 4382.42,5100.72 4289.73,5008.71 4417.84,4989.78 "/>
 </g>
</svg>
