<?xml version="1.0" encoding="UTF-8"?>
<!DOCTYPE svg PUBLIC "-//W3C//DTD SVG 1.1//EN" "http://www.w3.org/Graphics/SVG/1.1/DTD/svg11.dtd">
<!-- Creator: CorelDRAW 2021 (64-Bit Оценочная версия) -->
<svg xmlns="http://www.w3.org/2000/svg" xml:space="preserve" width="150mm" height="75mm" version="1.1" style="shape-rendering:geometricPrecision; text-rendering:geometricPrecision; image-rendering:optimizeQuality; fill-rule:evenodd; clip-rule:evenodd"
viewBox="0 0 15000 7500"
 xmlns:xlink="http://www.w3.org/1999/xlink"
 xmlns:xodm="http://www.corel.com/coreldraw/odm/2003">
 <defs>
  <style type="text/css">
   <![CDATA[
    .fil0 {fill:#FADAD2;fill-rule:nonzero}
   ]]>
  </style>
 </defs>
 <g id="Слой_x0020_1">
  <metadata id="CorelCorpID_0Corel-Layer"/>
  <path class="fil0" d="M9348.02 4604.14c-72.29,70.66 -80.81,141.55 -19.1,221.31 31.58,40.87 -19.49,121.12 -88.29,132.09 -76.13,12.15 -148.54,20.48 -205.62,82.93 -30.9,33.83 -75.05,10.43 -112.52,-0.7 -111.61,-33.08 -208.77,-20.93 -281.39,81.96 -21.07,29.85 -49.22,60.14 -90.3,50.76 -121.38,-27.67 -210.47,33.44 -298.2,101.58 -60.01,46.68 -114.4,90.91 -129.57,-37.96 -6.79,-57.83 -67.07,-56.8 -118.4,3.73 -30.92,36.44 -47.42,83.9 -106.06,91.53 -35.82,4.7 -23.75,42.09 -25.22,66.45 -5.04,84.95 -40.56,155.93 -110.47,201.17 -95.43,61.8 -149.49,156.47 -213.46,243.82 -11.54,15.76 -21.64,33.99 -27.06,52.63 -56.14,194.89 -205.29,252.14 -371.4,140.28 -82.55,-55.6 -157.59,-114.91 -272.02,-69.31 -49.41,19.65 -111.86,-19.05 -165.85,-40.78 -5.92,-2.4 -12.04,-12.34 -15.66,-11.18 -132.17,41.15 -144.5,-146.6 -260.31,-136.44 -2.94,0.27 -9.67,-8.82 -9.67,-13.52 0.17,-112.03 -83.42,-135.93 -167.19,-153.2 -43.15,-8.85 -87.41,-45.54 -135.12,4.33 -47.18,49.39 -21.32,94.98 -5.55,157.57 -83,-103.88 -136.58,-21.31 -201.99,24.85 -12.91,-138.14 -131.71,-83.99 -200.53,-116.11 -50.59,-23.63 -139.6,-57.92 -165.7,52.16 -4.13,17.39 -22.33,23.54 -39.64,11.17 -20.63,-14.78 -36.54,-38.88 -21.88,-59.36 42.67,-59.74 4.31,-94.17 -20.78,-146.97 -27.93,-58.82 43.86,-123.25 89.38,-133.89 78.83,-18.36 95.9,-59.66 112.99,-126.14 26.09,-101.51 94.3,-126.95 185.34,-77.54 45.02,24.48 91.44,32.74 129.42,-0.39 35.6,-30.99 97.42,-55.75 64.42,-125.22 -17.83,-37.51 15.49,-46.09 36.69,-57.11 67.53,-34.9 134.03,-74.17 205.41,-98.67 69.53,-23.9 43.55,-71.81 27.25,-101.86 -17.72,-32.58 10.84,-114.42 -81.01,-89.05 -41.52,11.47 -92.49,-6.89 -128.96,26.6 -56.47,51.72 -81.54,-38.64 -128.3,-25.12 -12.31,-45.02 38.08,-55.53 46.37,-77.95 25.9,-70.02 71.4,-83.04 135.97,-91.02 49.11,-6.07 45.72,-50 25.22,-85.89 -35.2,-61.78 -25.81,-97.2 46.24,-126.22 84.77,-34.09 88.99,-92.53 33.72,-188.03 -24.93,-43.07 -99.96,-101.03 -54.63,-130.84 54.68,-36.06 81.12,51.31 109.86,95.04 25,38.09 62.98,57.28 100.27,78.5 50.76,28.94 112.56,48.23 98.2,128.65 -4.52,25.42 17.82,32.46 39.3,31.91 95.76,-2.44 172.88,32.41 239.53,102.78 29.44,31.07 75.67,14.66 111.13,-4.35 43.53,-23.3 25.38,-53.17 3.76,-81.69 -20.78,-27.34 -15.32,-54.9 -2.6,-84.11 9.09,-20.94 26.01,-52.56 17.79,-64.69 -78.04,-114.6 38.81,-143.58 86.52,-200.16 54.83,-64.99 113.88,-104.94 214.1,-81.82 134.03,30.95 269.68,72.84 411.29,53.93 18.57,-2.44 27.21,1.91 37.94,19.34 114.36,186.2 292.22,303.86 466.9,423.34 150.22,102.73 304.62,199.37 458.21,297.05 110.29,70.2 226.91,54.31 308.86,-48.89 40.67,-51.24 78.69,-76.81 141.78,-47.2 37.44,17.55 70.57,3.04 102.82,-17.05 55.34,-34.48 114.62,-46.24 187.77,-27.03z"/>
  <path class="fil0" d="M7389.16 6100.05c25.37,141.59 163.36,178.26 232.1,277.46 54.75,78.93 72.51,159.71 80.02,248.58 0.83,9.58 1.13,23.76 -4.53,28.67 -117.9,103.02 -67.79,227.9 -45.48,348.48 8.48,45.99 -22.16,74.94 -42.74,106.45 -43.47,66.59 -48.1,121.77 28.97,165.57 66.23,37.69 84.94,90.21 64.61,164.84l-1728.52 0c17.15,-58.56 47.54,-123.93 68.24,-128.76 24.09,-5.64 31.27,18.4 45.94,30.11 79.59,63.84 140.41,41.85 162.33,-57.08 4.28,-19.27 8.78,-38.57 14.9,-57.34 19.28,-59.36 50.09,-79.05 95.04,-22.16 29.99,37.91 63.44,54.48 111.74,38.97 46.61,-15 58.44,-47.45 56.19,-91.92 -2.86,-55.71 33.02,-60.88 78.3,-62.51 132.28,-4.65 136.28,-9.57 140.21,-137.43 0.83,-26.16 13.97,-44.3 30.23,-59.9 28.04,-26.93 35.62,-54.79 12.93,-87.84 -58.36,-85.22 10.14,-122.86 65.57,-153.41 153.28,-84.46 294.06,-175.9 375.36,-342.66 36.21,-74.37 114.51,-124.83 158.59,-208.12z"/>
  <path class="fil0" d="M7313.04 6135.74c-106.93,178.81 -230.42,336.76 -395.57,457.88 -20.02,14.71 -50.42,14.4 -74.65,24.28 -89.71,36.6 -121.42,102.89 -88.23,192.85 24.52,66.44 -49.85,103.29 -38.74,174.49 13.2,84.83 -72.76,71.39 -130.1,72.49 -53.87,1.04 -91.54,18.35 -86.76,80.76 2.47,32.7 -4.35,57.92 -37.92,72.23 -35.09,14.95 -55.79,-0.83 -75.19,-27.49 -21.92,-30.01 -45.83,-58.54 -90.11,-43.48 -43.18,14.72 -58.45,51 -68.68,90.43 -31.71,122.05 -31.45,122.09 -140.04,57.84 -45.21,-26.8 -75.26,-6.03 -97.65,33.13 -17.98,31.39 -30.96,66 -51.72,95.26 -7.4,10.39 -18.42,18.61 -29.95,23.69l-43.28 0c-3.63,-3.06 -6.16,-7.4 -7.11,-13.18 -11.6,-70.41 -84.18,-81.84 -105.16,-136.36 -8.01,-20.81 -23.53,-40.72 -40.93,-38.38 -114.99,15.39 -123.6,-90.59 -168.64,-149.74 -42.66,-55.97 -4.74,-136.46 72.05,-148.63 54.54,-8.65 54.59,-28.74 57.15,-74.46 4.87,-86.58 28.73,-169.25 110.01,-221.4 59.2,-37.98 49.41,-120.01 101.82,-164.01 16.3,-13.63 17.72,-43.51 48.95,-46.17 31.45,54.91 41.04,159.24 143.93,70.08 15.43,-13.35 32.54,0.65 42.94,12.41 58.44,66.2 144.28,33.11 213.9,59.6 26.79,10.27 53.09,-11.32 65.5,-34.81 14.86,-28.13 11.39,-59.01 -16.68,-80.05 -63.13,-47.27 -40.69,-96.36 -3.47,-144.76 58.59,-76.17 120.11,-147.49 108.15,-257.07 -5.28,-48.51 172.67,-126.36 219.98,-112.18 75.49,22.63 148.46,69.44 234.41,26.88 56.88,-28.14 99.54,17.79 143.14,44.98 71.35,44.48 135.58,103.3 228.65,102.89z"/>
  <path class="fil0" d="M5274.3 5135.69c121.4,4.7 235.25,-3.05 319.74,-110.75 24.74,-31.55 69.17,-9.33 74.26,40.14 3.73,35.87 18.84,81.58 3.02,106.5 -43.6,68.53 -5.18,194.45 -140.81,201.9 -54.02,2.95 -50.54,73.32 -95.13,102.17 -69.64,45.04 -1.92,84.42 30.34,114.8 35.46,33.35 3.03,51.79 -8.05,75.64 -25.3,54.61 1.84,91.72 45.92,114.4 45.94,23.58 75.79,-0.83 86.67,-48.27 5,-21.86 14.84,-41.46 38.63,-32.9 84.89,30.58 193.13,-2.75 251.5,104.18 29.79,54.59 76.05,20.17 105.51,-12.89 47.14,-53.02 78.61,-39.62 96.88,20.28 16.85,55.03 54.59,89.75 99.87,118.53 36.39,23.1 30.99,53.45 21.35,86.91 -9.66,33.35 -30.75,44 -65.25,47.76 -147.41,16.3 -158.4,31.37 -137.4,178.47 3.21,22.62 -9.09,28.17 -22.86,36.76 -33.06,20.65 -54.61,48.54 -50.04,89.74 3.99,35.77 -20.13,48.4 -46.69,51.96 -39.22,5.23 -51.76,-23.69 -53.31,-56.05 -2.35,-50.27 -8.61,-91.22 -73.74,-53.72 -22.49,12.92 -38.2,7.43 -42.64,-18.66 -8.5,-49.9 -26.57,-96.31 -86.5,-85.47 -64.46,11.73 -129.57,32.63 -156.23,104.44 -9.13,24.67 -12.98,51.29 -22.22,75.89 -31.56,84.25 -79.84,98.23 -147.51,40.17 -24.72,-21.22 -47.51,-23.49 -71.71,-8.37 -35.96,22.64 -59.66,56.6 -46.52,99.79 27.68,91.32 -0.7,126.46 -95.2,105.85 -45.06,-9.83 -64.38,7.13 -48.1,52.78 14.21,39.75 8.87,81.23 -34.9,81.17 -50,-0.07 -29.98,-45 -33.5,-80.6 -16.06,-161.69 8.37,-322.74 -0.16,-483.99 -1.02,-18.63 -8.01,-42.18 -20.27,-39.06 -73.41,18.67 -112.13,-65.8 -191.05,-53.54 -64.68,10.03 -120.68,-54.02 -155.05,-109.94 -35.45,-57.68 38.07,-87.77 56.17,-133.23 14.35,-36.1 37.76,2.65 50.67,15.35 63.12,62.39 114.32,-7.31 159.86,-24.52 56.27,-21.31 12.68,-81.3 -2.71,-121.25 -35.01,-90.67 -17.42,-161.37 47.8,-152.32 70.72,9.83 137.61,-23.88 205.09,-5.37 64.64,17.74 81.35,-8.59 81.95,-68.21 0.42,-37.74 4.64,-75.18 41.88,-105.22 81.01,-65.39 87.41,-130.5 34.37,-226.37 -4.34,-7.82 -2.36,-19.14 -3.93,-34.88z"/>
  <path class="fil0" d="M2770.18 7440.1c-38.36,-56.73 -26.03,-149.67 39.38,-210.07 13.85,-12.74 22.36,-31.25 33.37,-47.13 33.7,-71.03 -7.54,-131.83 -51.4,-166.97 -56.27,-45.13 -109.31,-105.71 -190.22,-114.58 -20.19,-2.18 -35.64,-127.28 -33.43,-151.62 12.67,-138.77 135.62,-155.46 233.11,-214.69 -34.42,176.01 144.63,128.59 210.98,204.05 21.15,24.04 63.33,33.96 76.77,75.62 9.53,29.65 33.81,48.55 67.09,50.98 26.97,1.99 55.18,3.82 67.31,32.69 28.32,67.42 68.65,87.05 140.21,54.81 56.56,-25.55 74.5,31.03 89.61,67.83 30.81,75.01 61.62,123.5 157.3,150.38 80.64,22.66 167.79,83.26 163.22,231.34 -0.37,12.32 -0.55,24.79 -0.53,37.36l-1002.77 0z"/>
  <path class="fil0" d="M3795.94 5729.25c22.73,4.08 65.43,-5.23 87.54,-7.28 53.11,-4.96 98.54,-20.91 51.25,-86 -25.2,-34.72 -24.24,-69.71 16.35,-77.44 92.11,-17.64 166.06,-81.76 261.26,-91.53 57.19,-5.9 87.15,-32.1 144.13,28.69 44.38,47.32 97.27,4.53 161.17,-16.36 43.77,-14.29 99.45,-14.84 105.09,58.41 3.98,51.31 85.21,74.96 123.8,81.76 106.08,18.62 89.16,92.9 119.13,170.48 6.82,17.61 6.88,35.81 -21.03,30.39 -38.98,-7.64 -69.49,81.17 -109.79,32.66 -62.85,-75.73 -49.04,-60.71 -102.74,-6.97 -38.15,38.13 -38.55,104.02 -90.29,57.73 -14.36,-12.83 -73.74,-17.39 -91.92,-25.04 -165.26,-69.65 -237.72,-6.06 -210.19,168.14 12.98,82.24 48.08,97.3 -35.03,133.16 -8.74,3.75 -44.78,17.48 -44.37,23.31 6.67,102.74 -56.1,123.81 -99.54,97.19 -38.11,-23.39 -156.86,57.08 -129.37,-59.78 8.26,-35.03 -33.07,-50.63 -60.73,-30.35 -41.03,30.05 -51.49,67.81 -104.68,62.68 -64.27,-6.17 -159.67,-54.24 -154.58,-125.75 3.85,-53.8 -23.64,-86.8 2.35,-147.16 15.42,-35.78 -29.71,-59.97 -70.07,-65.39 -80.09,-10.79 -96.83,-48.27 -46.7,-112.13 41.09,-52.34 -43.25,-73.93 19.43,-113.55 36.6,-3.19 194.78,-45.33 279.53,20.13z"/>
  <path class="fil0" d="M3815.5 7440.1c-7.23,-53.5 -13.86,-107.05 -18.9,-160.76 -7.19,-76.86 5.63,-153.65 38.03,-225.5 5.39,-11.96 12.01,-30.67 25.63,-24.86 61.67,26.47 121.46,9.54 183.4,7.72 39.09,-1.18 84.92,66.52 119.64,109.82 78.24,97.51 72.05,94.84 159.84,11.34 43.18,-41.15 90.24,-91.83 170.05,-25.79 51.7,42.79 126.94,48.75 162.13,126.95 36.74,81.47 49.29,136.13 29.44,181.08l-869.26 0z"/>
  <path class="fil0" d="M3485.99 6996.19c-33.38,-68.89 -83.03,-101.19 -159.93,-68.36 -11.11,4.74 -34.73,7.32 -35.71,4.63 -28.7,-77.05 -130.1,-77.62 -158.92,-126.69 -62.39,-106.25 -166.79,-124.89 -258.58,-171.96 -24.99,-12.81 -51.02,-17.86 -40.67,-54.2 7.63,-26.75 1.78,-63.14 47.58,-61.04 93.8,4.24 108.51,-54.26 102.76,-129.92 -3.22,-42.59 -5.59,-79.74 42.85,-110.08 45.44,-28.45 11.98,-86.15 17.03,-130.51 2.93,-25.98 -4.98,-57.45 24.47,-70.21 25.38,-10.99 46.92,12.41 58.13,29.02 38.67,57.41 95.53,89.56 152.66,122.67 41.36,24.01 51.39,65.62 61.22,108.37 17.31,75.24 37.95,146.37 143.19,100.53 35.06,-15.3 37.63,14.49 36.04,38.52 -4.74,68.89 21.81,103.94 95.33,107.74 53.62,2.78 120.19,8.98 36.12,83.88 -32.28,28.75 -15.8,81.66 -10.64,123.69 8.41,69.45 13.98,132.33 -81.5,147.4 -25.02,3.96 -45.78,35.25 -71.43,56.52z"/>
  <path class="fil0" d="M3307.76 5377.45c-69.43,-35.6 -113.64,-40.06 -167.81,-12.28 -51.71,26.42 -107.87,-4.09 -155.8,-38.64 -45.65,-33 -94.97,-62.43 -120.83,21.82 -6.01,19.73 -16.45,28.38 -35.25,18.02 -18.73,-10.31 -31.84,-24.17 -12.67,-46.11 64.01,-73.32 24.76,-142.69 -24.06,-194.21 -49.09,-51.77 -32.85,-87.24 -4.51,-134.73 86.87,-145.64 87.55,-148 -40.67,-249.55 -43.71,-34.61 -21.11,-86.72 -51.66,-130.25 -44.01,-62.78 56.25,-39.29 72.38,-67.9 54.92,-97.51 171.53,-39.16 245.59,-110.31 -40.4,121.08 -2.99,173.67 118.15,186.89 85.75,9.35 147.09,106.64 248.67,87.09 13.68,-2.65 20.67,18.28 16.48,30.13 -14.32,40.67 -2.21,91.59 -58.24,115.74 -123.39,53.1 -132.09,175.46 -152.08,283.83 -8.77,47.56 6.02,96.31 86.27,102.1 60.12,4.31 15.98,74.83 36.04,138.36z"/>
  <path class="fil0" d="M5274.79 7109.11c44.16,-32.11 179.88,-20.33 62.24,-131.35 -24.5,-23.05 19.1,-30.29 34.73,-41.52 30.04,-21.61 84.18,-34.05 44.25,-86.61 -30.77,-40.55 -66.68,-35.7 -111.96,-7.67 -55.25,34.25 -131.02,43.67 -112.35,148.41 -12.89,-70.39 -35.01,-98.07 -104.48,-76.68 -61.48,18.83 -38.77,-61.47 -73.32,-84.9 -30.38,-20.5 11.54,-24.29 18.58,-37.13 39.31,-71.84 73.42,-143.04 172.05,-155.19 33.24,-4.08 28.06,-53.43 17.51,-87.1 -10.02,-31.83 -20.79,-65.26 12.69,-90.68 41.7,-31.51 46.57,17.84 67.24,32 62.44,42.74 148.59,-0.97 177.85,-97.05 18.97,-62.22 35.77,-121.07 106.65,-142.19 12.67,-3.77 24.87,-9.76 37.74,-11.95 12.08,-2.08 237.37,226.99 231.12,232.54 -50.72,44.89 -45.56,126.91 -102.56,163.1 -56.09,35.58 -77.38,89.1 -96.46,144.83 -23.34,68 -20.85,149.72 -116.56,170.13 -26.34,5.59 -30.56,37.54 -35.5,65.32 -27.88,157.67 -99.13,186.61 -229.46,93.69z"/>
  <path class="fil0" d="M5964.69 6382.94c2.36,-16.22 -1.14,-40.96 8.04,-47.21 60.75,-41.49 72.22,-80.24 41.31,-156.27 -19.77,-48.45 52.27,-88.4 108.84,-83.05 66.27,6.28 96.64,-21.63 117.23,-78.76 20.93,-58.04 -1.84,-95.39 -47.77,-125.57 -45.57,-29.98 -88.03,-55.9 -44.65,-123.25 24.98,-38.75 -60.53,-109.53 20.72,-133.92 40.45,-12.07 92.89,15.34 139.8,25.43 12.28,2.62 33.52,5.27 34.79,11.24 26.64,125.63 171.04,152.69 217.53,262.7 19.49,46.07 -19.1,44.56 -35.67,50.96 -61.25,23.67 -90.23,61.41 -78.26,128.79 12.62,70.74 -37.02,115.58 -72.68,166.61 -48.67,69.73 -115.39,137.48 -16.52,221.97 26.36,22.51 1.83,61.56 -25.51,52.05 -56.81,-19.68 -122.97,6.58 -171.89,-35.07 -41.24,-35.1 -77.63,-61.67 -127.02,-13.07 -22.29,21.96 -33.17,-1.53 -42.77,-18.33 -18.6,-32.53 -24.43,-67.99 -25.52,-105.25z"/>
  <path class="fil0" d="M3442.73 5665.67c-4.53,-70.04 -67.51,-108.94 -89.87,-172.95 -29.04,-83.22 -20.32,-164.32 -17.04,-245.16 1.75,-42.24 -10.58,-64.9 -41.18,-55.53 -102.73,31.58 -77.86,-46.5 -70.91,-86.88 10.29,-59.58 29.81,-122.17 63,-171.67 26.84,-39.95 73.12,-96.96 131.43,-19.12 18.73,25.09 51.16,41.26 79.7,57.37 46.44,26.2 68.14,55.81 43.51,112.19 -18.38,42.1 -22.18,89.69 48.32,86.91 43.8,-1.72 38.35,28.28 48.52,56.82 25.7,72.17 38.87,145.95 122.38,194.52 37.83,22.08 140.56,73.13 87.44,170.47 -11.66,21.34 4.82,37.23 14.18,53.88 34.24,60.89 -19.36,35.74 -40.89,41.97 -102.43,-6.89 -204.18,-36.02 -307.79,-2.93 -22.29,7.12 -51.83,3.16 -70.8,-19.89z"/>
  <path class="fil0" d="M3430.53 5898.66c14.68,20.25 6.38,48.88 30.46,67.06 97.29,73.61 114.3,106.74 129.72,234.32 9.95,82.41 115.24,132.15 213.87,98.34 30.48,-10.47 57.95,-29.65 89.51,-46.29 10.84,36.52 -17.88,91.29 48.54,101.3 22.64,3.38 23.1,30.31 23.8,49.65 4.85,131.51 -138.14,230.71 -255.65,177.06 -23.77,-10.84 -43.64,-31.25 -72.03,-30.31 -60.44,2 -93.03,-21.94 -90.65,-87.11 1.9,-52.45 -31.14,-79.53 -76.14,-56.65 -69.23,35.16 -90.28,-13.68 -95.47,-55.66 -12.16,-97.68 -66.37,-153.04 -150.03,-192.42 -22.01,-10.36 -37.27,-36.23 -54.05,-56.3 -17.32,-20.76 -3.82,-48.69 12.9,-44.6 139.47,34.4 170.5,-94.12 245.22,-158.39z"/>
  <path class="fil0" d="M3564.41 5125.69c51.55,-180.52 81.97,-194.41 250.75,-106.8 46.33,24.06 86.91,59.48 129.17,90.98 13.05,9.72 24.87,35.36 33.98,33.84 74.72,-12.27 107.17,39.41 154.32,81.5 32.34,28.86 52.44,33.63 25.28,78.5 -29.13,48.33 3.56,62.8 43.71,44.4 35.33,-16.19 58.1,-14.2 69.25,22.12 13.9,45.32 -27.05,48.47 -52.89,53.54 -88,17.17 -173.32,39.43 -251.68,85.21 -31.21,18.23 -59.21,14.27 -85.89,-18.29 -81.73,-99.87 -208.05,-167.2 -220.15,-317.06 -4.33,-53.08 -58.33,-28.89 -95.85,-47.94z"/>
  <path class="fil0" d="M4356.57 5886.81c90.38,8.61 161.41,52.3 216.11,123.41 58.46,76.05 125.55,127.93 229.77,133.17 84.33,4.25 108.04,92.34 139.34,152.67 22.86,44.19 -3.8,102.56 -37.09,145.07 -11.16,14.22 -22.37,29.15 -51.7,1.53 -54.18,-51.03 -116.59,-82.85 -200.71,-30.55 -88.86,55.26 -208.57,-23.01 -181.64,-121.94 38.68,-142.06 -39.67,-147.85 -138.4,-167.95 -111.09,-22.64 -40.74,-119.19 -54.57,-180.71 -13.4,-59.47 37.61,-56.47 78.89,-54.7z"/>
  <path class="fil0" d="M4465.91 6397.56c-53.69,6.84 -100.83,7.34 -144.47,20.01 -38.07,11.04 -88.38,21.86 -45.44,87.37 24.72,37.77 -82.52,142.62 -118.68,114.34 -44,-34.33 -91.05,-33.69 -134.93,-52.4 -27.29,-11.6 -44.65,-205.36 -21.7,-225.12 24.39,-20.89 55.68,-12.85 84.29,-3.98 46.94,14.54 68.36,5.95 78.3,-51.05 15.74,-90.32 185.93,-156.43 264.39,-111.45 25.74,14.77 29.7,34.84 18.57,58.11 -27.38,57.45 -5.48,109.14 19.67,164.17z"/>
  <path class="fil0" d="M9031.61 2538.11c52.21,-1.79 76.9,-48.63 116.37,-71.24 4.99,4.8 10.69,7.65 16.98,9.61 85.28,26.75 176.95,70.68 183.6,159.25 5.33,70.72 -82.53,118.01 -149.46,146.46 -82.94,35.19 -104.59,130.78 -182.59,167.07 -36.62,132.49 -85.58,262.82 -56.79,405.11 4.69,23.25 13.26,58.32 -16.2,71.98 -35.88,16.59 -53.13,-15.79 -68.99,-40.42 -13.22,-20.48 -28.96,-32.15 -52.85,-40.57 -97.97,-34.57 -136.63,-117.13 -160.53,-209.53 -6.21,-24.15 2.12,-42.37 20.56,-61.56 76.84,-80.07 72.49,-171.94 -24.84,-223.32 -89.65,-47.29 -32.15,-87.57 -4.83,-121.93 27.36,-34.42 52.27,-124.63 120.91,-34.76 13.64,17.81 36.26,25.52 52.41,10.03 54.54,-52.41 149.87,-62.37 162.96,-158.9 4.44,-32.82 23.08,-38.75 43.29,-7.28z"/>
  <path class="fil0" d="M5798.19 2132.67c-11.25,-1.53 -22.51,-3.13 -33.74,-4.66 -29,-11.65 -57.3,6.56 -86.96,1.01 -68.25,-12.79 -115.82,-65.17 -85.42,-126.67 63.72,-129.05 -27.5,-199.46 -76.3,-290.76 -42.61,21.17 -47.99,56.64 -61.43,85.1 -34,71.79 -85.88,112.83 -167.18,118.81 -48.23,3.59 -242.46,117.64 -257.04,144.98 0.19,62.61 -23.84,109.99 -87.05,128.06 -32.88,9.42 -48.71,28.32 -55.94,60.95 -9.33,42.38 -38.24,68.01 -80.47,78.37 -57.3,2.52 -117.62,-5.85 -161.34,45.26 -18.12,1.79 -22.45,-12.41 -28.61,-24.59 11.54,-77.97 60.06,-92.65 129.2,-78.82 58.26,11.67 102.82,5.29 77.62,-74.72 -13.39,-42.53 7.94,-64.75 50.95,-58.42 85.4,12.59 113.39,-30.61 91.17,-103.06 -22.34,-72.84 12.76,-78.36 67.44,-77.7 55.18,0.65 106.29,-13.01 136.28,-64.39 22.03,-37.85 55.42,-28.67 87.39,-27.14 75.7,3.56 121.88,-29.66 150.38,-101.45 82.01,-206.73 117.33,-228.5 338.56,-212.46 82.89,6.01 132.8,-30.7 157.46,-104.74 12.38,-37.26 17.52,-77.21 23.14,-116.35 18.14,-125.62 31.23,-137.35 156.62,-136.5 25.99,0.2 58.81,12.46 76.21,-9.24 78.06,-97.27 143.64,-41.16 210.12,13.17 68.05,55.62 129.75,132.09 236.46,56.87 0.92,54.43 -8.31,95.78 63.98,112.19 65.04,14.75 49.2,89.32 37.31,145.13 -13.18,61.87 -53.72,53.02 -108.07,23.82 31.1,47.36 65.67,69.94 28.37,124.24 -14.25,20.79 35.86,95.09 67.79,136.31 61.3,78.98 58.59,158.48 56.45,256.36 -3.83,176.47 -37.09,352.26 -10.43,531.42 26.95,180.49 -60.57,377.09 -208.79,418.8 -284.9,80.19 -473.17,-35.55 -570.43,-320.63 -57.45,-168.43 -64.97,-343.39 -112.36,-511.58 -17.36,-61.54 -1.38,-123.3 19.42,-188.86 -57.78,41.2 -24.43,113.71 -70.76,151.89z"/>
  <path class="fil0" d="M8999.09 2941.98c94.74,-68.69 141.79,-194.63 271.21,-226.67 7.64,-1.9 69.73,-43.97 68.86,-76.01 -1.14,-42.78 -46.95,-69.12 -80.66,-95.35 -35.41,-27.53 -73.54,-51.52 -110.5,-77.07 52.23,-18.1 86.34,20.24 126.38,43.6 21.53,-24.11 -26.92,-60.38 15.32,-76.14 32.67,-12.17 39.05,-24.46 6.66,-46.7 -15.77,-10.85 -33.39,-28.76 -20.45,-49.85 11.28,-18.38 34.97,-16.57 54.48,-14.03 102.69,13.22 198.59,-15 268.21,-84.42 34.14,-34.03 89.3,-18.78 109.1,-67.64 4.83,-11.95 30.77,-3.65 26.24,-36.82 -10.9,-80.09 21,-88.23 84.23,-41.57 41.32,30.53 99.58,6.28 135.76,-5.9 102.27,-34.4 193.53,-84.96 307.96,-29.89 34.07,16.41 100.24,35.96 142.18,-22.56 15.82,-22.09 55.73,-19.42 70.23,5.09 41.29,69.87 98.13,88.09 173.87,71.86 12.92,-2.82 29.14,15.86 44.89,18.58 63.35,10.88 123.32,27.82 186.26,-19.43 75.89,-57.04 233.84,-4.96 241.85,70.67 7.57,71.64 -104.85,185.48 -180.27,179.22 -104.87,-8.69 -205.25,24.64 -308.46,29.24 -22.58,1.03 -49.44,3.81 -67.38,-6.38 -92.66,-52.58 -186.37,-44.78 -276.73,-2.77 -43.73,20.32 -70.94,-34.1 -112.22,-9.27 -101.12,60.75 -205.45,111.69 -330.28,89.1 -22.61,-4.09 -21.13,29.13 -35.86,40.64 -18.03,14.12 -35.01,37.29 -54.78,40.22 -96.47,14.29 -91.48,34.11 -189.11,57.67 -54.67,13.22 -52.08,50.26 -81.38,67.37 -61.93,36.17 -87.5,-0.89 -89.16,-71.63 -74.02,187.05 -258.88,226.56 -362.97,350.53 -12.15,7.74 -23.34,6.54 -33.48,-3.69z"/>
  <path class="fil0" d="M11301.54 363.08c4.86,26.05 -17.72,55.57 20.48,77.6 40.58,23.41 17.79,60.69 11.36,94.5 -38.88,-5.4 -53.41,-30.21 -69.01,-56.23 -11.17,-18.6 21.33,-64.98 -27.47,-55.55 -35.05,6.75 -11.12,44.42 -15.89,67.85 -10.86,53.67 -23.74,106.96 7.13,156.93 44.77,-52.27 136.19,-71.79 172.27,-33.45 51.83,55.04 -10.21,76.46 -50.16,122.77 71.27,-14.27 125.25,-23.12 178.09,-36.37 30.57,-7.67 56.23,-16.34 74.39,20.72 15.53,31.69 23.34,61.47 1.81,92.88 -46.3,67.59 -166.94,82.71 -225.94,22.92 -21.48,-21.76 -35.27,-35.57 -62.79,-17.65 -68.23,44.49 -135.23,43.09 -197.3,-12.39 -38.11,40.6 17.84,130.94 -69.44,121.85 -33.12,-3.43 -98.15,-0.18 -101.25,-55.72 -2.93,-53.2 56.86,-26.82 96.18,-51.04 -75.66,-4.56 -111.85,-67.41 -180.58,-76.83 -31.73,-4.39 -31.78,-45.92 7.91,-73.89 56.16,-39.55 124.83,-14.68 184.42,-44.16 -46.98,-27.19 -123.16,-26.93 -87.1,-112.66 7.79,-18.62 -13.84,-16.57 -22.49,-22.38 -48.82,-32.8 -42.2,-52.36 5.94,-85.69 99.33,-68.7 210.93,-64.38 321.71,-71.61 23.25,-4.88 32.3,4.54 27.73,27.6z"/>
  <path class="fil0" d="M8999.09 2941.98c11.17,1.24 22.31,2.45 33.48,3.69 -31.08,132.87 -81.41,262.68 -55.64,403.9 7.06,38.59 9.57,87.14 -34,104.31 -41.55,16.41 -62.55,-24.54 -82.55,-54.63 -11.17,-16.72 -23.3,-28.33 -44.77,-34.47 -109.27,-31.34 -148,-124.04 -179.23,-219.02 -13.18,-40.14 12.53,-72.05 38.73,-104.85 32.32,-40.47 76.27,-91 -3.37,-132.83l1.77 2.47c-0.83,-18.51 6.6,-42.92 -22.9,-44.73 -62.39,-3.94 -71.85,-40.26 -50.51,-87.75 29.99,-66.72 69.52,-126.75 148.85,-143.83 74.96,127.91 120.39,-12.94 179.77,-22.34 25.28,-4.02 49.85,-31.27 27.27,-69.25 -11.67,-19.7 -16.17,-48.63 15.56,-55.76 37.98,-8.54 65.69,4.09 60.04,51.21 -6.36,-1.75 -12.72,-3.48 -19.13,-5.25 1.99,83.57 -69.21,103.94 -119.62,145.9 -64.63,53.8 -117.84,80.58 -161.7,-15.91 -41.78,27.51 -63.15,61.6 -81.38,96.42 -13.22,25.26 -56.05,54.66 21.11,69.39 70.3,13.48 114.84,198.21 85.62,258.42 -17.77,36.47 -136.3,-39.49 -69.56,60.09 28.28,42.24 1.23,111.39 39.71,117.1 55.29,8.19 65.97,69.9 122.77,71.76 37.38,1.2 36.82,67.57 104.71,87.44 -40,-171.59 -4.27,-327.55 44.97,-481.48z"/>
  <path class="fil0" d="M915.71 2033.07c27.86,19.11 17.24,60.59 55.83,71.3 40.15,-14.6 18.95,-107.72 91.37,-86.03 66.37,19.91 82.5,80.09 95.46,139.64 9.53,43.79 6.93,99.41 83.46,69.89 5.01,-1.92 44.78,67.9 56.95,107.82 12.28,40.31 11.28,84.95 14.47,127.85 4.69,62.77 -2.91,123.06 -75.07,142 -77.01,20.27 -158.2,42.62 -206.1,-55.04 -65.72,-134.03 -103.2,-278.2 -150.13,-418.86 -11.94,-35.77 5.5,-70.34 33.76,-98.57z"/>
  <path class="fil0" d="M10552.55 233.5c-83.55,8.84 -121.77,-36.39 -154.44,-103.11 -28.96,-59.12 -0.72,-72.62 46.77,-73.58 90.89,-1.9 303.54,143.92 338.18,228.8 35.21,86.15 -6.73,142.34 -99.15,124.68 -70.28,-13.4 -133.66,-64.73 -212.79,-19.32 -16,9.2 -73.03,-13.73 -62.61,-56.67 8.52,-35.03 -7.54,-93.64 58.35,-97.03 28.56,-1.44 57.13,-2.51 85.69,-3.77z"/>
  <path class="fil0" d="M7813.13 3321.22c-66.94,2.44 -111.36,-14.45 -144.69,-57.19 -15.24,-19.56 -29.71,-50.86 -10.78,-62.03 66.77,-39.4 112.04,-115.36 194.56,-125.22 73.67,-8.76 115.77,52.8 123.74,169.35 4.92,72.24 -51.03,51.81 -89.55,58.81 -29.16,5.31 -57.89,12.8 -73.28,16.28z"/>
  <path class="fil0" d="M11561.09 3826.54c0,8.37 0.63,15.01 -0.13,21.5 -4.55,40.81 8.69,89.69 -41.44,111.66 -22.14,9.67 -45.76,1.99 -61.91,-18.51 -31.17,-39.45 -25.26,-78.9 0.76,-118.06 1.84,-2.73 3.92,-5.29 5.82,-8 21.93,-31.25 -3.85,-102.45 60.75,-94.12 65.08,8.39 9.17,75.42 36.15,105.53z"/>
  <path class="fil0" d="M11634.83 582.99c-53.33,15.46 -100.11,-52.57 -161.61,-15.48 -13.68,8.24 -35.58,-60.86 -11.52,-80.25 29.57,-23.88 81.87,-11.45 110.96,-48.12 13,22.32 28.91,43.58 38.2,67.38 9.11,23.33 32.29,42.44 23.97,76.47z"/>
  <path class="fil0" d="M12003.81 3525.88c38.71,-0.48 91,13.33 132.16,63.86 14.03,17.17 21.33,28.45 18.22,48.56 -2.97,19.01 -16.1,28.91 -32.43,31.99 -22.4,4.26 -34.57,-6.78 -41.06,-29.98 -15.78,-56.26 -59.05,-51.29 -104.55,-45.89 -31.8,3.75 -48.93,-16.79 -45.46,-48.32 3.76,-34.25 29.51,-27.43 73.12,-20.22z"/>
  <path class="fil0" d="M12217.54 2960.07c-0.66,1.89 -4.85,13.21 -9.09,24.5 -47.86,-21.72 -103.87,-9.94 -148.28,-26.48 -37.3,-13.88 -48.01,-58.98 17.07,-78.02 83.2,-24.37 144.43,2.01 140.3,80z"/>
  <path class="fil0" d="M12094.95 3088.34c-26,20.85 -3.86,83 -66.8,76.66 -32.69,-3.32 -75.55,1.64 -69.81,-45.5 5.75,-47.57 49.18,-67.38 92.73,-74.85 27.1,-4.63 41.7,13.75 43.88,43.69z"/>
  <path class="fil0" d="M11301.54 363.08c-9.24,-9.2 -18.49,-18.38 -27.73,-27.6 53.46,-71.22 100.92,-71.51 189.28,0.04 -45.63,59.42 -107.07,24.15 -161.55,27.56z"/>
  <path class="fil0" d="M953.54 6846.32c7.57,7.02 15.18,14.04 22.8,21.07 -12.85,47.88 -54.9,43.84 -78.1,26.36 -56.28,-42.4 -110.32,-18.49 -166.07,-9.45 -7.76,8.71 -15.48,17.38 -23.16,26.08 -0.12,-91.55 92.5,-148.85 169.14,-104.01 24.63,14.41 40.19,45.5 75.39,39.95z"/>
  <path class="fil0" d="M10827.15 567.1c-0.15,44.72 -31.62,49.79 -60.62,49.83 -55.88,0.02 -93.88,-29.66 -100.59,-85.38 -3.96,-32.54 27.12,-43.49 54.02,-42.95 53.95,1.07 91.94,27.26 107.19,78.5z"/>
  <path class="fil0" d="M10589.44 561.46c-40.78,-3.78 -74.48,-21.42 -83.59,-66.96 -6.47,-32.3 18.07,-39.47 42.72,-39.42 43.73,0 77.32,15.12 84.44,64.66 4.7,32.85 -15.82,39.03 -43.57,41.72z"/>
  <path class="fil0" d="M8671.74 2908.09c0.35,13.13 3.48,26.86 0.53,39.16 -7.39,30.57 -7.65,67.57 -50.66,73.97 -14.08,2.08 -30.93,-3.34 -31.06,-16.32 -0.41,-38.58 -7.62,-84.34 10.12,-113.77 17.33,-28.74 51.73,-3.21 72.84,19.32 0,0.08 -1.77,-2.36 -1.77,-2.36z"/>
  <path class="fil0" d="M11329.71 3595.73c-4.92,10.04 -6.93,22.69 -13.59,26.01 -17.22,8.61 -30.97,-2.69 -42.45,-14.88 -15.68,-16.78 -15.73,-53.98 -55.87,-37.92 -17.55,7.08 -46.09,34 -55.29,-3.12 -9.16,-37 28.76,-57.37 54.67,-56.59 53.59,1.6 88.56,38.58 112.53,86.5z"/>
  <path class="fil0" d="M4616.73 2348.53c6.64,8.4 13.27,16.79 19.93,25.2 41.61,82.17 34.49,162.81 -14.46,238.12 -21.68,33.33 -55.07,55.53 -99.81,38.62 -9.05,-6.61 -18.12,-13.27 -27.16,-19.89 90.62,-29.33 124.15,-94.04 117.94,-185.72 -2.2,-31.9 2.19,-64.18 3.56,-96.33z"/>
  <path class="fil0" d="M11137.51 4343.05c76.27,11.43 82.02,67.87 88.92,139.1 -52.4,-37.59 -65.05,-86.22 -86.8,-128.72 -4.17,-2.76 -4.85,-6.23 -2.12,-10.38z"/>
  <path class="fil0" d="M11072.36 3597.48c23.14,-3.19 33.52,6.21 32.63,25.92 -1.67,37.11 -24.86,62.44 -56.98,70.15 -19.29,4.59 -30.84,-19.8 -30.16,-41.32 1.23,-36.63 29.35,-46.2 54.51,-54.75z"/>
  <path class="fil0" d="M10829.13 164.78c22.2,3.74 33.17,17.33 33.54,39.25 0.43,22.92 -11.1,36.17 -34.31,35.47 -26.01,-0.79 -43.29,-15.45 -39.84,-41.46 2.53,-19.42 18.29,-32.82 40.61,-33.26z"/>
  <path class="fil0" d="M12252.09 3564.94c24.18,3.26 41.96,14.99 41.3,42.48 -0.56,22.27 -15.36,36.06 -36.6,37 -26.4,1.15 -42.22,-14.54 -42.2,-41.09 0,-22.53 15.89,-33.33 37.5,-38.39z"/>
  <path class="fil0" d="M12260.25 3519.14c-27.98,-6.15 -43.65,-18.84 -41.22,-41.24 2.27,-20.48 15.87,-36.17 39.73,-32.96 21.4,2.87 36.28,14.01 35.1,38.44 -1.2,25.51 -21.57,28.7 -33.61,35.76z"/>
  <path class="fil0" d="M10865.28 445.02c1.57,23.29 -10.17,38.46 -31.49,44.08 -26.54,6.92 -35.3,-11.65 -37.14,-32.69 -1.7,-20.28 1.14,-41 28.35,-42.71 21.92,-1.39 39.68,4.46 40.28,31.32z"/>
  <path class="fil0" d="M11299.63 3691c-1.22,21.29 -15.47,27.89 -32.19,28.68 -18.29,0.87 -41.68,5.43 -45.41,-21.18 -2.8,-20.11 16.17,-26.56 31.31,-28.76 18.87,-2.71 39.19,-2.1 46.29,21.26z"/>
  <path class="fil0" d="M9689.23 4880.58c37.33,1.33 52.34,-37.11 85.25,-46.59 81.36,-23.43 85.95,-81.47 58.48,-148.89 -23.78,-58.31 -38.64,-111.85 20.83,-161.64 20.35,-17.06 37.17,-50.12 -7.91,-70.49 -48.3,-21.86 -46.64,-77.93 -64.82,-116.7 -27.75,-59.03 52.67,-48.23 75.44,-79.27 51.84,-70.78 99.87,-140.41 106.14,-234.31 3.59,-53.41 -4.41,-119.1 91.13,-127.91 173.98,-16.11 262.81,-163.58 374.69,-273.15 4.56,-4.48 5.83,-12.39 10.48,-16.72 41.09,-38.16 73.67,-122.03 139.06,-79.83 72.07,46.46 195.61,21.66 215.19,145.3 8.18,51.49 1.49,105.45 -28.58,141.9 -63.2,76.69 -95.74,181.87 -201.21,221.86 -34.03,12.87 -50.13,47.79 -35.03,82.81 51.31,118.92 27.67,206.71 -57.67,313.03 -50.35,62.71 -85.64,163.42 -117.36,251.47 -11.03,30.64 -22.4,62.45 -40.52,89.07 -34.87,51.27 -43.92,113.66 -23.75,161.74 37.35,88.84 25,127.12 -50.57,202.11 -61.67,61.25 -78.04,160.38 -183.37,212.22 -62.07,30.55 -94.95,127.8 -193.82,119.73 -29.11,-2.36 -32.8,24.74 -41.87,46.51 -18.43,44.06 -59.58,32.65 -95.05,33.28 -33.41,0.59 -43.68,-21.78 -52.25,-49.15 -14.4,-45.91 -15.54,-44.69 -74.63,-39.7 -18.84,1.57 -21.29,-18.12 -29.2,-30.56 -14,-21.94 -28.47,-51.42 -60.38,-33.59 -29.24,16.31 -17.57,47.12 -10.22,71.77 23.53,78.85 68.9,143.58 140.1,184.87 53.89,31.22 119.12,37.98 170.83,77.73 27.78,21.37 57.73,1.07 80.88,-18.45 39.01,-32.93 84.03,-54.48 132.45,-65.39 110.22,-24.86 207.13,-66.84 264.24,-172.66 7.34,-13.68 22.35,-26.97 36.87,-32.45 128.41,-48.59 165.84,-137.09 131.12,-268.04 -12.91,-48.74 65.93,-112.74 116.26,-104.55 3.26,0.55 6.32,2.1 9.53,2.95 66.81,17.81 170.63,-38.9 168.03,109.32 -1.46,81.79 26.36,154.41 -42.11,228.11 -74.8,80.57 -44.48,180.81 57.71,215.29 70.92,23.96 104.81,74.53 133.29,136.22 10.43,22.62 25.46,56.01 55.75,43.27 36.38,-15.25 25.72,-53.84 9.49,-76.88 -44.3,-62.94 -45.83,-158.94 -148.81,-178.81 -41.21,-7.93 -31.38,-110.67 11.91,-150.55 108.99,-100.55 105.14,-200.68 13.94,-325.09 -34.61,-47.23 -77.9,-83.66 -112.02,-129.34 -19.53,-26.18 -55.55,-46.54 -76.97,-33.91 -70.63,41.61 -109.55,-24.72 -163.24,-37.5 26.68,-58.86 8.26,-127.61 50.26,-185.65 48.76,-67.49 72.53,-152.78 155.8,-194.41 16.1,-8.02 32.86,-42.03 28.71,-58.98 -22.71,-92.29 42,-187.49 -12.98,-278.68 -13.99,-23.21 90.56,-124.83 131.01,-131.04 150.2,-23.14 208.07,-80.99 232.76,-228.76 5.87,75.02 15.24,149.09 -69.77,196.09 -32.06,17.73 -45.59,54.66 -42.29,94.98 2.19,25.98 4.83,53.91 -2.23,78.21 -34.81,120.24 8.41,200.55 131.97,229.62 29.68,7.01 44.26,17.79 55.26,45.83 14.76,37.78 42.98,67.7 82.62,81.03 26.29,8.81 57.87,34.55 81.52,1.99 27.79,-38.36 -25.12,-44.24 -32.28,-64.58 -33.83,-96.4 -132.37,-136.12 -180.34,-217.47 -46.04,-77.94 -20.54,-128.71 72.93,-150.59 14.64,63.07 38.87,137.89 117.99,107.68 87.17,-33.31 16.28,-98.11 1.86,-156.09 84.44,-9.22 134.81,59.84 164.23,103.51 32.71,48.53 -25.95,95.8 -87.38,115.45 -82.21,26.29 -42.31,80.46 -12.21,115.03 70.15,80.78 75.79,172.71 64.31,270.4 -1.86,15.93 -10.81,45.26 -11.51,45.08 -108.75,-23.38 -129.18,117.84 -224.77,120.57 -18.99,0.59 -46.98,20.61 -54.31,38.44 -46.26,112.4 51.25,191.26 76.43,287.43 13.06,49.91 81.27,29.45 125.42,23.42 122.86,-16.72 121.79,-18.1 128.04,106.52 1.59,32.64 10.68,64.94 15.66,97.51 9.2,59.92 3.52,117.48 -61.36,141.02 -47.29,17.13 -38.24,54.22 -39.16,84.6 -43.95,13.22 -74.85,-47.21 -105.25,-16.09 -32.52,33.22 0.98,74.81 13.59,110.87 10.99,31.37 29.42,61.6 4.85,93.42 -48.53,62.9 -29.76,115.28 20.72,166.46 17.99,18.23 45.08,58.5 40.89,62.85 -66.43,69.69 -31.27,157.52 -50.22,232.79 -18.38,72.99 -14.79,129.2 37.61,166.43 80.51,57.11 73.41,126.04 50.07,201.3 -46.66,150.64 -29.83,182.47 122.45,204.64 61.97,9 92.19,35.4 44.44,87.66 -50.19,54.96 12.03,129.17 -35.77,173.45 -38.57,35.68 -105.23,5.77 -146.31,77.69 -32.98,57.6 -36.67,79.79 6.75,117.94 21.11,18.58 42.46,47.97 22.79,68.36 -28.99,30.01 -48.01,67.31 -66.21,105.15l-385.58 0c-61.68,-62.49 -157.68,-89.72 -194.53,-176.46 -21.3,-50.2 -57.08,-57.19 -105.07,-38.79 -30.95,11.84 -61.61,24.1 -91.11,38.9 -65.43,32.76 -130.66,44.32 -199.22,8 -17.13,-9.09 -37.72,-17.95 -56.53,-17.16 -107.94,4.55 -167.66,-44.66 -179.51,-152.45 -3.67,-33.13 -22.55,-58.9 -56.17,-59.55 -69.84,-1.38 -99.96,-37.26 -109,-102.76 -6.08,-44.18 -33.2,-71.72 -81.69,-68.47 -93.27,6.21 -164.82,-38.43 -230.77,-96.98 -5.69,-8.63 -8.48,-18.14 -8.68,-28.45 -35.97,-70.79 -97.36,-94.24 -172.38,-93.06 -49.31,0.77 -86.1,-10.95 -75.09,-73.49 5.94,-33.7 -19.62,-55.29 -38.27,-77.45 -24.1,-28.7 -54.2,-63.27 -43.86,-96.03 44.78,-141.74 -53.08,-238.09 -102.25,-349.88 -10.08,-22.99 -16.35,-52.84 -49.92,-54.74 -33.61,-1.85 -34.46,29.72 -50.31,46.4 -33.28,34.9 -94.03,28.08 -130.35,74.19 -11.45,14.51 -40.13,-34.42 -59.47,-55.68 -19.99,-21.99 -36.77,-47.27 -58.67,-66.9 -25.68,-22.9 -32.02,-35.55 3.23,-57.32 63.49,-39.12 38.14,-78 -5.16,-117.22 -71.18,-64.52 -155.92,-82.17 -248.25,-81.37 -78.33,0.73 -125.14,-27.66 -182.28,-97.48 -71.6,-87.68 -24.31,-106.34 24.64,-150.03 65.61,-58.46 79.62,-133.75 67.75,-217.23 -5.81,-40.86 -9.46,-76.66 54.9,-72.64 44.73,2.78 78.34,-32.23 103.52,-68.75 54.94,-79.87 129.79,-97.78 217.77,-69.21 80.05,26.05 153.04,34.77 215.35,-40.74 26.73,-32.32 73.16,-35.18 111.63,-29.48 74.98,11.04 108.48,-53.52 155.64,-85.44 40.23,-27.28 2.91,-83.22 -21.2,-114.28 -53.21,-68.75 -36.3,-119.47 25.09,-167.22 48.41,-37.63 71.02,-91.4 85.71,-152.78 103.21,111.02 149.96,238.47 172.21,376.89 5.57,34.57 23.65,42.28 53.56,25.59z"/>
  <path class="fil0" d="M9635.68 6745.93c4.07,2.34 7.85,5.05 11.37,8.14 52.23,68.59 115.01,117.37 207.37,110.7 66.78,-4.8 108.2,19.58 111.72,92.42 2.07,43.12 16.65,82.48 69.16,75.97 79.17,-9.8 99.41,40.58 104.44,99.98 7.03,83.44 56.25,93.05 128.15,115.06 142.07,43.47 267.05,35.9 394.55,-35.88 41.87,-23.54 76.57,3.27 95.11,44.43 23.95,53.17 52.47,95.91 117.81,107.12 39.9,6.86 57.34,42.35 74.38,76.23l-3213.82 0c10.64,-86.23 -1.02,-161.98 -104.55,-212.75 -36.06,-17.7 -25.13,-53.76 -7.47,-76.77 52.21,-67.9 53.08,-134.82 43.04,-220.61 -9.17,-78.13 -19.84,-166.33 49.81,-253.9 67.05,-84.23 10.38,-206.57 -51.29,-292.71 -43.77,-61.15 -86.49,-126.08 -161.02,-167.01 -84.99,-46.64 -80.35,-104.72 -5.81,-172.1 25.09,-22.68 48.8,-49.08 53.61,-81.42 20.8,-140.44 107.8,-234.65 212.4,-318.54 76.64,-61.54 141.13,-130.67 136.52,-239.32 -0.51,-12.26 5.52,-35.14 10.29,-35.6 85.38,-8.85 99.12,-106.28 163.7,-138.25 8.7,8.04 16.15,11.47 16.83,16.02 21.15,135.73 46.26,147.18 160.89,68.79 64.66,-44.21 117.79,-108.21 206.1,-114.36 54.53,123.41 32.19,225.6 -77.91,310.37 -49.5,38.07 -54.02,59.47 -9.24,134.69 82.39,138.41 195.52,123.36 311.63,136.62 51.71,5.88 94.3,28.04 135.37,56.72 38.96,27.14 62.98,54.02 2.77,85.01 -10.97,5.61 -28.15,18.35 -27.06,25.48 13.38,87.19 97.45,124.65 140.37,192.51 23.26,36.67 64.31,20.49 90.54,-14.14 9.68,-12.81 23.03,-33.53 37.61,-25.09 86.32,50.13 66.17,-29.78 84.47,-77.14 40.78,71.98 54.52,151.33 121.02,195.81 7.21,4.85 16.39,19.03 14.1,24.06 -64.56,140.32 47.93,248.74 66.02,373.78 5.98,41.15 36.19,60.75 67.22,61.67 79.04,2.28 150.75,14.16 201.12,82.66 6.23,-6.19 12.47,-12.44 18.68,-18.65z"/>
  <path class="fil0" d="M7083.45 3922.9c-69.23,65.84 -129.16,122.99 -189.32,179.83 -32.06,30.27 -53.5,62.92 -12.92,100.64 29.94,27.79 15.04,52.36 1.6,79.66 -18.09,36.86 -30.4,74.69 1.01,111.25 11.71,13.62 21.55,28.61 1.57,40.17 -15.89,9.18 -38.77,24.06 -53.87,5.61 -61.89,-75.54 -148.32,-94.09 -237.4,-108.1 -12.52,-2 -31.4,0.72 -31.73,-15.59 -2.1,-102.69 -90.51,-119.67 -155.95,-158.98 -32.73,-19.71 -52.18,-49.22 -70.41,-81.12 -17.98,-31.52 -36.1,-63.82 -72.33,-78.87 -26.29,-10.91 -53.13,-36.65 -81.5,-11.08 -28.86,25.96 -23.01,62.85 -8.26,92.17 20.74,41.03 51.42,76.91 73.87,117.21 33.87,60.92 36.95,114.88 -46.44,136.8 -76.34,20.06 -78.02,70.96 -51.14,129.07 26.03,56.16 16.17,80.99 -49.32,72.36 -42.81,-5.68 -63.46,13.72 -78.98,55.51 -19.58,52.71 -90.35,74.1 -93.21,142.77 -0.63,14.77 -10.51,41.04 3.63,37.96 66.94,-14.49 124.32,84.87 193.71,14.51 36.89,-37.44 84.11,3.95 128.64,-16.06 24.01,-10.82 23.81,46.13 37.82,70.67 16.74,29.31 0.73,40.76 -23.06,52.23 -59.48,28.67 -118.84,57.67 -177.16,88.57 -47.03,24.96 -106.45,34.82 -74.63,120.9 19.38,52.54 -81.8,107.61 -134.73,72.9 -44.45,-29.17 -83.72,-49.78 -136.85,-26.14 -25.5,11.35 -46.35,3.5 -43.16,-30.7 8.26,-89.34 -2.62,-151.99 -122.12,-127.08 -52.17,10.84 -104,-84.72 -88.55,-145.35 13.51,-52.95 -27.5,-93.62 -85.97,-85.32 -97.82,13.99 -142.62,-14.59 -150.8,-106.33 -4.41,-49.53 -28.54,-59.86 -70.54,-61.33 -56.4,-1.99 -80.97,-54.08 -117.35,-78.3 -83.33,-55.46 -72.97,-211.02 -220.61,-195.33 -43.52,4.64 -55.16,-70.89 -94.85,-102.95 -69.45,-56.25 -91.19,-153.61 -156.21,-219.23 -16.68,-16.81 -10.18,-59.71 9.18,-84.54 55.75,-71.61 50.98,-196.94 181.64,-203.94 14.71,-0.76 32.35,-23.57 41.44,-40.14 42.22,-77.12 102.78,-133.02 177.15,-180.1 57.1,-36.19 75.89,-91.26 -2.21,-127.14 -66.57,-30.55 -46.44,-65.5 -20.63,-109.36 40.14,-68.14 113.2,-110.79 142.62,-194.87 46.89,38.22 83.96,90.33 155.51,50.92 28.97,-15.98 27.05,24.76 29.17,46.49 6.32,64.79 44.23,112.93 106.3,106.92 64.84,-6.33 106.75,-61.16 129.68,-123.23 3.72,-9.98 -1.12,-32.58 -7.89,-35.49 -66.81,-28.45 -16.17,-65.71 -17.09,-103.39 -2.6,-112.15 109.31,-42 136.54,-98.8 5.18,-10.81 11.28,8.9 15.39,15.36 21,32.96 -7.37,150.75 -39.28,169.61 -10.57,6.31 -24.01,15.38 -26.79,25.7 -4.98,18.51 8.61,30.64 26.71,33.26 65.32,9.4 69.84,54.76 73.86,108.88 4.68,61.91 28.74,113.74 104.68,122.03 75.75,8.3 106.98,-37.66 131.85,-95.43 62.65,-145.42 181.97,-185.07 312.35,-98.46 55.99,37.22 107.43,13.92 161.87,5.77 25.42,-3.8 70.88,-15.69 74.11,2.56 9.99,56.05 56.03,85.29 77.12,130.94 1.66,3.63 -15.58,17.86 -25.68,24.74 -21.39,14.49 -57.21,29.2 -27.53,57.44 24.47,23.36 22.94,88.59 82.39,63.83 22.73,-9.44 35.11,-26.97 44.9,14.73 28.88,122.62 117.42,219.78 149.64,342.54 14.88,56.75 77.91,83.87 119.19,56.79 80.79,-53.04 112.72,13.88 171.33,43.45z"/>
  <path class="fil0" d="M7184.3 2893.56c199.24,88.13 142.64,236.03 76.71,400.33 -56.19,-111.26 -145.49,-107.82 -238.93,-86.89 -18.53,4.14 -37.41,13.59 -52.4,25.4 -24.26,19.01 -47.51,245.72 -30.06,270.57 72.52,103.37 171.01,133.18 275.69,82.87 61.15,-29.4 110.27,-53.04 193.58,-44.41 77.34,8.02 159.66,47.93 243.87,25.09 99.74,-27.01 175.61,69.21 274.54,60.4 19.48,-1.73 28.2,22.25 18.12,45.76 -8.63,20.28 -5.42,40.24 20.06,46.38 20.07,4.8 47.84,3.45 51.87,-16.83 17.22,-86.58 70.71,-53 119.82,-41.28 18.94,4.55 39.16,3.93 89.79,8.39 -84.83,24.19 -103.76,87.06 -165.67,109.53 -50.94,18.44 -14.53,64.32 12.5,81.71 34.69,22.36 59.66,40.54 67.29,86.65 5.9,35.74 37.76,39.3 66.65,9.18 73.8,-76.79 154.71,-53.06 202.81,16.83 76.73,111.54 181.12,63.59 275.66,68.82 24.65,1.33 50.57,-0.23 75.92,1.3 -15.21,47.23 -15.76,96.95 -71.11,121.67 -28.46,12.74 -25.35,51.44 -14.41,80.99 5.73,15.49 16.66,29.37 35.45,30.4 35.25,1.94 42.9,-24.94 50.09,-50.86 14.66,-52.76 41.13,-50.96 75.61,-17.48 29.55,28.65 61.57,39.23 96.53,9.22 35.06,-30.16 67.93,-56.95 59.84,-115.12 -10.21,-73.54 17.29,-131 98.95,-152.91 24.22,-6.54 37.81,-2.39 50.88,13.09 109.55,129.76 246.77,234.81 310.86,404.64 26.75,70.85 -32.43,89.51 -35.75,137.72 -4.28,62.19 -43.84,75.68 -105.35,55.88 -43.69,-14.07 -94.15,0.92 -134.19,23.91 -52.45,30.12 -100.31,40.62 -159.22,17.11 -52.6,-20.96 -84.64,19.93 -114.89,56.51 -92.92,112.44 -174.7,122.52 -299.7,43.21 -220.55,-140.02 -444.83,-274.46 -650.15,-436.92 -98.65,-78.02 -196.85,-157.57 -251.75,-275.58 -9.94,-21.26 -18.23,-29.35 -43.69,-23.54 -185.53,42.1 -355.95,-55.85 -537.03,-61.99 -33.83,-1.14 -65.08,-42.6 -99.79,-61.17 -41.56,-22.17 -80.22,-52.1 -130,-1.43 -28.63,29.14 -61.59,-4.82 -71.16,-36.25 -33,-107.78 -95.32,-201.57 -138.84,-304 -41.15,-96.95 62.11,-112.38 106.04,-151.13 37.72,-33.26 72.6,-60.44 64.53,-108.83 -16.41,-98.58 67.33,-108.81 118.75,-121.48 99.66,-24.56 204.29,-125.35 211.68,-225.46z"/>
  <path class="fil0" d="M5055.33 7322.5c104.73,95.04 207.07,1.5 307.03,2.14 63.37,0.39 10.62,-69.83 -9.27,-108.44 22.33,-20.96 55.42,-6.55 78.59,-28.67 57.91,-55.22 109.77,-68.93 134.86,31.36 3.54,14.25 18.14,33.3 30.96,36.47 107.45,26.62 161.32,109.12 228.6,184.74l-754.45 0c14.67,-30.83 14.4,-68.37 -16.32,-117.6z"/>
  <path class="fil0" d="M2821.12 7160.41c-24.36,22.31 -49.56,43.82 -72.99,67.09 -81.54,80.99 -83.74,133.31 7.63,203.35 3.57,2.73 6.88,5.85 10.03,9.25l-1195.32 0c-2.13,-2.64 -4.38,-5.3 -6.79,-7.98 -21.22,-23.63 74.09,-116.09 115.1,-112.53 144.33,12.53 155.73,6.38 203.55,-129.5 23.58,-66.97 37.15,-131.54 109.2,-176.19 51.08,-31.6 56.56,-108.39 53.35,-172.9 -0.85,-16.13 -8.92,-31.83 -11.67,-47.99 -3.74,-22.34 -4.46,-62.35 24.04,-47.93 110.31,55.77 95.41,-265.52 242.53,-77.29 39.75,50.82 93.86,83.72 155.45,100.1 27.25,7.24 61.42,15.87 64.9,38.22 12.92,83.14 61.12,134.67 130.62,172.76 11.1,6.14 20.56,21.52 31.01,21.75 105.99,2.23 121.29,81.9 139.36,159.79z"/>
  <path class="fil0" d="M732.15 6884.32c49.17,-53.07 97.99,-82.42 159.44,-12.68 24.11,27.34 57.72,23.23 84.73,-4.24 59.24,-4.44 66.37,45.96 83.07,82.74 20.45,44.99 39.09,48.45 90.39,33.37 74.87,-22.01 128.8,-44.98 145.17,-129.83 4.94,-25.73 34.18,-69.5 76.42,-15.15 26.25,33.74 51.49,10.71 65.76,-21.31 12.39,-27.82 28.91,-44.93 57.06,-65.12 87.32,-62.7 153.59,-46.73 231.69,11.93 59.64,44.74 132.5,36.95 199.88,10.21 56.51,-22.4 80.96,-4.59 81.18,54.13 0.33,76.27 8.89,155.51 -83.96,191.33 -35.97,13.9 -39.49,50.83 -50.72,80.93 -17.22,46.13 -29.68,94.12 -47.92,139.77 -19.57,48.86 -49.59,69.97 -108.8,51.12 -72.99,-23.22 -184.31,41.65 -204.35,109.37 -2.56,8.64 -2.97,24.26 2.01,27.93 5.13,3.78 9.79,7.54 14.01,11.28l-718.67 0c4.64,-13.35 12.18,-27.09 21.08,-40.87 85.88,-132.93 64.93,-189.03 -88.64,-231.5 -9.49,-2.66 -18.82,-6.05 -30.36,-9.78 21.94,-26.64 55.84,-48.04 23.95,-91.53 45.42,2.17 71.2,77.04 107.9,15.56 28.6,-47.91 24.91,-94.93 -35.87,-122.27 -33.81,-15.23 -62.04,-38 -74.45,-75.39z"/>
  <path class="fil0" d="M3268.77 3784.63c61.52,55.04 125.11,91.23 115.97,189.19 -3.4,36.23 92.99,31.03 136,62.58 1.86,1.36 6.97,-2.42 9.51,-1.35 98.65,41.33 152.98,155.97 278.85,162.04 19.41,0.94 2.25,100.66 -51.36,125.49 -136.95,63.35 -167.22,190.17 -198.8,317.12 -16.52,66.52 -78.26,81.18 -126.71,124.87 -8.8,-56.32 -10.81,-90.54 -84.24,-93.64 -104.57,-4.42 -188.6,-94.09 -299.97,-106.39 -41.41,-4.59 -8.71,-56.14 -4.56,-86.12 7.28,-52.49 2.49,-88.35 -66.13,-64.14 -107.02,37.78 -158.59,21.02 -216.16,-79.71 -41.54,-72.77 -70.96,-144.27 -181.58,-125.43 -56.28,9.55 -177.65,-168.48 -172.36,-231.15 2.6,-31.32 31.43,-30.38 49.32,-41.63 68.29,-42.92 124.29,-89.95 89.06,-183.31 -14.19,-37.7 6.49,-62.99 36.08,-83.31 33.28,-22.83 51.64,4.86 77.56,18.53 106.29,56.12 204.99,137.61 337.09,119.26 33.4,-4.68 46.7,17.68 65.98,34.68 76.73,67.86 166.15,43.71 206.45,-57.58z"/>
  <path class="fil0" d="M4522.38 2650.47c148.48,-46.66 118.28,-167.09 114.28,-276.73 19.6,-102.45 91.02,-73.1 155.57,-61.15 -23.2,94.85 -61.93,185.58 -48.78,288.65 6.08,47.79 -28.56,91.54 -82.71,95.19 -45.48,3.04 -59.4,23.19 -71.49,63.77 -30.2,101.53 -55.17,113.88 -159.55,96.55 -9.79,-1.64 -19.47,-4.48 -29.32,-5.33 -47.06,-4.15 -103.99,-38.42 -135.78,18.27 -28.94,51.55 -11.39,112.31 11.64,162.61 25.05,54.57 82.94,44.67 132.13,44.52 37.52,-0.14 64.32,-19.08 73.08,-55.36 19.91,-82.37 76.19,-109.62 154.38,-110.21 39.57,-0.32 78.51,-11.71 118.49,-10.97 103.56,1.93 138.33,32.7 153.78,138.18 2.54,16.96 3.71,32.9 32.61,38.27 24.01,-66.15 60.46,-123.34 136.36,-148.43 35.12,-11.58 25.22,-56.73 28.92,-88.97 6.75,-58.89 -13.95,-133.61 26.51,-173.04 68.81,-67.08 138.68,-129.31 189.36,-213.49 20.94,-34.67 71.35,-20.82 111.73,-14.66 135.52,20.72 202.15,-63.87 153.94,-191.57 -6.34,-16.84 -13.9,-33.21 -31.25,-34.44 -112.89,-7.91 -122.27,-194.15 -266.68,-151.75 -53.17,15.65 -111.54,13.53 -167.81,14.4 -39.45,0.66 -80.16,4.51 -113.78,-23.86 -22.48,-36.43 -24.49,-62.81 30.18,-61.17 63.77,1.92 117.3,-20.11 155.86,-71.4 13.51,-17.98 27.98,-27.58 49.51,-24.65 117.42,16 177.36,-44.91 207.76,-150.51 8.92,-31.05 28.08,-59.17 47.18,-98.08 65.17,83.64 106.58,172.32 154.36,257.38 18.42,32.82 -3.83,38.35 -19.48,53.28 -32.91,31.33 -36.36,72.46 -20.98,110.18 18.34,44.89 62.53,37.72 102.65,40.65 13.7,1.01 62.09,-46.88 49.39,21.42 -53.5,68.72 -64.25,145.55 -59.2,231.86 7.17,122.71 -42.03,170.31 -162.86,166.03 -47.22,-1.66 -66.87,0.85 -79.04,55.79 -8.44,37.85 -52.34,82.02 -90.56,96.38 -105.1,39.46 -99.59,117.59 -70.76,192.48 34.94,90.8 -56.92,133.14 -63.38,207.07 -1.53,17.74 -39.88,1.97 -54.83,-17.31 -50.64,-65.23 -78.29,-43.66 -112.39,19.67 -29.18,54.08 -81.43,95.3 -114.19,147.95 -35.16,56.64 -69.65,119.03 28.48,159.18 47.7,19.49 30.11,55.55 -2.89,74.19 -80.01,45.22 -133.46,112 -184.88,186.7 -50.16,72.82 -96.25,61.8 -137.73,-17.38 -10.58,-20.06 -23.44,-39.99 -39.2,-56.07 -24.87,-25.38 -28.13,-36.12 1.4,-68.82 56.47,-62.57 105.72,-128.32 169.76,-187.09 58.82,-53.98 40.8,-166.37 31.64,-254.9 -2.07,-19.95 -24.67,-31.27 -46.17,-27.82 -18.91,3.02 -23.65,19.69 -25.92,37.24 -6.23,48.73 -12.31,97.51 -20.64,145.89 -3.36,19.74 -14.39,40.87 -36.09,41.26 -13.53,0.27 -30.19,-12.06 -40.44,-23.27 -19.31,-21.18 7.21,-29.85 16.13,-42.7 9.29,-13.51 20.89,-25.35 30.44,-38.71 12.38,-17.31 18.86,-38.75 3.48,-54.67 -24.15,-25.13 -39.38,5.44 -58.39,14.13 -31.98,14.54 -55.47,80.42 -101.97,18.17 -1.69,-2.3 -22.58,3.62 -23.36,7.8 -18.21,97.03 -168.78,152.58 -88.43,281.26 7.35,11.75 1.01,32.07 -6.18,53.67 -23.84,-72.58 -39.12,-146.99 -134.66,-160.15 -28.32,-3.86 -18.1,-58.76 -27.41,-89.7 -11.17,-37.07 -22.7,-77.56 -65.43,-74.42 -59.77,4.41 -8.32,59.8 -28.78,85.3 -6.19,-2.93 -15.93,-4.75 -16.56,-8.26 -9.38,-50.33 -98.67,-43.79 -84.71,-89.95 21.37,-70.61 19.65,-153.99 79.62,-209.21 74.84,-68.97 5.35,-133.85 -17.77,-186.22 -10.73,-24.38 -81.98,-78.73 -150.34,-48.07 -80.03,35.88 -119.84,14.94 -92.92,-80.54 211.96,21.58 419.25,106.81 635.07,35.69z"/>
  <path class="fil0" d="M3736.01 3980.41c-20.65,-20.93 -44.62,-39.57 -61.19,-63.33 -25.02,-35.84 -14.27,-74.93 18.62,-95.48 25.68,-16.03 61.63,-43.55 91.94,8.07 26.16,44.49 63.22,61.51 93.58,-1.4 23.64,-49.13 82.58,53.8 97.72,-21.55 7.87,-39.23 -25.69,-78.43 7.17,-121.72 43.3,-57.11 81.69,-113.78 164.8,-105.82 24.13,2.34 49.7,-1.46 63.77,-20.72 44.43,-60.88 93.89,-18.99 113.66,9.47 54.16,77.86 116.77,73.64 189.67,42.79 76.86,-32.56 140.59,11.91 129.81,97.42 -6.9,54.46 -19.16,108.57 -52.95,157.41 -53.34,77.23 -55.36,153.87 27.56,217.12 62.83,47.9 56.38,138.88 133.44,189.1 49.91,32.49 74.95,101.49 154.15,89.49 8.16,-1.24 27.69,15.6 27.12,22.95 -7.21,93.49 106.1,106.71 121.12,184.38 0.59,3.01 3.27,7.58 5.55,7.91 110.6,19.01 153.04,111.6 213.27,188.73 28.04,35.88 77.25,61.82 133.33,32.69 28.69,-14.91 66.1,12.68 50.72,31.32 -80.94,97.79 15.32,121.79 61.91,166.83 9.49,9.17 21.18,16.08 36.83,27.71 -72.95,61.56 -145.27,92.13 -233.08,73.69 -70.95,-14.95 -103.82,23.93 -73.6,79.83 29.94,55.51 4.83,105.23 24.78,163.77 -35.88,-12.98 -38.57,-35.53 -47.05,-54.85 -25.72,-58.42 -47.99,-91.92 -106.47,-18.3 -52.25,65.79 -101.38,15.88 -159.42,-19.53 -175.01,-106.76 -197.8,-320.05 -334.08,-452.31 -31.12,-30.13 -44.27,-70.08 -100.83,-47.44 -39.1,15.63 -65.67,-23.23 -95.41,-42.36 -50.38,-32.3 -95.61,-39.53 -139.71,12.99 -60.15,71.66 -85.93,16.72 -93.91,-35.25 -8.92,-58 -0.35,-118.61 -1.59,-178.04 -1.1,-53.4 -4.68,-107.13 -83.84,-76.12 -19.67,7.71 -42.57,9.81 -55.84,-6.4 -44.73,-54.79 -93.62,-100.4 -168.25,-109.53 -8.19,-1.01 -19.91,-19.43 -20.36,-30.25 -4.07,-87.35 -23.58,-155.65 -133.77,-157.32 -21.44,-0.33 -12.57,-44.43 -0.46,-68.45 108.81,-53.46 142.07,-45.2 203,52.87 17.59,28.21 31.87,58.32 67.66,68.44 57.23,16.15 93.91,48.93 86.89,113.85 -3.93,36.39 20.43,47.06 47.6,50.9 57.76,8.2 95.22,39.95 121.83,90.37 24.8,46.99 69.59,57.89 118.71,55.57 111.15,-5.16 193.69,16.7 236.39,144.11 25.55,76.27 113.56,124.54 182.81,174.87 15.67,11.43 35.64,16.85 52.19,28.26 49.34,34.03 37.52,116.63 108.83,133.89 57.93,14.01 92,59.4 126.12,120.05 31.33,-70.87 75.37,-112.46 163.9,-141.44 -135.58,-28.82 -140.94,-171.88 -253.24,-199.07 -17.18,-4.15 -24.09,-30.98 -27.56,-50.63 -8.72,-49.24 -36.63,-75.51 -86.8,-79.27 -16.44,-1.2 -41.43,-3.1 -45.65,-15.19 -36.13,-103.1 -145.59,-140.93 -198.24,-226.02 -23.62,-38.21 -38.35,-72.8 -87,-83.12 -62.11,-13.15 -85.12,-59.38 -82.69,-118.49 3.27,-79.41 0,-158.81 3.84,-238.16 3.85,-78.83 -30.64,-119.14 -111.91,-112.35 -96.77,8.11 -178.88,-10.71 -216.14,-137.09 -31.64,64.23 -19.49,113.05 -22.33,159.12 -6.05,96.04 -30.9,131.69 -123.32,132.56 -87.65,0.83 -176.16,30.8 -263.6,-1.53z"/>
  <path class="fil0" d="M3530.01 2547.09c94.21,15.98 178.42,30.95 262.83,44.32 37.66,6.01 55.03,21.07 56.04,63.81 2.12,88.82 5.59,164.06 -79.11,234.89 -48.58,40.63 -82.19,115.76 -129.11,172.05 -36.39,43.65 -12.72,84.97 44.93,86.7 52.55,1.57 77.27,17.83 81.76,72.91 3.38,41.36 37.36,50.21 74.8,41.43 44.14,-10.36 87.17,-15.15 133.96,-14.49 63.14,0.9 123.89,-60.47 183.86,27.56 23.46,34.44 48.91,-29.14 72.34,-58.79 0.71,76.51 13.23,134.75 99.73,152.54 54.44,11.23 48.1,68.56 40.15,108.85 -9.79,49.21 -48.32,43.6 -86.02,27.89 -87.24,-36.32 -143.34,49.23 -222.42,60.62 -75.27,10.82 -127.15,93.58 -129.29,179.48 -1.71,69.26 -64.54,-6.33 -74.94,39.71 -12.94,57.19 -37.24,52.17 -61.85,4.52 -2.77,-5.39 -10.18,-12.97 -14.44,-12.41 -150.14,20.64 -74.59,-107.17 -110.89,-154.53 -46.7,-60.85 -23.69,-172.55 -134.18,-191.04 -34.14,-5.7 -8.06,-51.33 -6.51,-79 5.73,-102.08 -15.45,-121.81 -115.37,-109.36 -10.75,1.34 -31.01,20.22 -30.9,2.78 0.53,-106.93 -67.9,-48.06 -107.45,-44.06 -84.71,8.61 -142.64,-68.6 -230.54,-62.85 -33.79,2.23 -27.44,-76.93 -9.74,-103.15 56.44,-83.37 25.83,-156.32 -17.01,-239.43 61.83,-12.74 118.54,-28.34 159.85,-71.02 56.46,-58.35 103.93,10.29 121.52,28.97 47.31,50.4 160.6,42.46 142.75,155.41 -6.05,38.3 25.22,68.66 68.16,69.43 44.69,0.76 49.72,-36.87 55.47,-69.28 7.62,-42.94 1.22,-84.49 -21.49,-122.34 -38.55,-64.36 -58.34,-119.41 37,-156.86 47.19,-18.54 39.38,-35.39 -53.89,-85.26z"/>
  <path class="fil0" d="M-65.81 7440.1c-3.79,-28.32 -7.13,-56.64 -9.5,-84.97 -10.03,-119.56 33.11,-236.99 3.54,-356.1 -3.98,-16.02 9.1,-38.98 35.91,-37.66 36.1,1.74 35.67,25.37 25.07,48.34 -22.1,47.92 2.33,64.99 43.31,78.41 27.1,8.89 55.55,17.05 70.3,49.04 18.82,40.87 46.22,35.36 79.07,10.4 107.56,-81.69 131.62,-80.18 246.12,5.07 30.13,22.47 45.65,4.24 44.08,-23.25 -2.69,-46.9 33.89,-89.84 15.58,-135.3 -14.15,-35 8.58,-52.03 27.29,-64.27 20.46,-13.39 30.2,17.24 45.87,26.58 32.76,19.49 38.57,75.52 101.97,59.26 18.29,-4.68 73.08,55.2 24.83,102.87 -50.02,49.39 -15.28,66.12 27.58,80.29 28.1,9.26 62.74,7.91 84.72,24.3 42.77,31.97 80.73,65.82 25.84,128.46 -31.77,36.23 -49.79,63.4 -54.02,88.53l-837.56 0z"/>
  <path class="fil0" d="M3736.01 3980.41c84.1,-20.38 169.52,-23.88 255.54,-20.84 72.55,2.51 112.57,-25.64 105.68,-105.6 -4.24,-49.28 -1,-99.26 -0.28,-148.93 0.41,-24.06 5.74,-48.8 32.82,-54.64 29.79,-6.38 41.44,16.87 45.7,40.56 19.6,108.77 94.99,114.74 185.27,111.02 131.24,-5.42 146.42,16.06 139.25,147.79 -4.02,75.29 -1.35,150.93 -6.38,226.12 -4.48,66.77 23.02,103.35 89.08,100.86 59.31,-2.19 72.36,25.79 72.47,78.04 0.09,50 31.84,81.32 81.86,80.91 53.36,-0.47 82.06,15.09 76.01,73.51 -6.67,63.9 24.1,92.53 87.63,87.17 60.82,-5.11 95.9,17.35 91.61,83.94 -0.85,12.92 3.15,37.57 4.75,37.57 124.49,-1.35 112.59,159.34 217.57,182.5 29.11,6.45 72.71,16.55 66.33,59.95 -5.58,37.39 -43.91,31.97 -73.13,34.79 -63.37,6.09 -71.74,59.37 -89.97,104.92 -6.66,16.65 -3.3,44.6 -30.77,43.86 -23.34,-0.59 -30.97,-21.2 -34.42,-41.68 -11.54,-67.55 -49.8,-105 -119.69,-108.94 -12.69,-0.7 -35.45,-5.88 -36.02,-10.91 -11.1,-101.7 -92.13,-137.61 -163.37,-187.21 -23.91,-16.66 -43.36,-46.12 -69.96,-66.24 -45.8,-34.62 -93.29,-63.56 -94.14,-138.36 -0.77,-65.84 -66.99,-74.48 -121.16,-72.92 -101.14,2.9 -199.94,11.3 -238.42,-117.49 -12.53,-42 -65.7,-15.91 -97.54,-33.19 -31.99,-17.31 -83.02,-10.56 -41.21,-74.66 22.07,-33.85 -13.46,-86.82 -45.11,-82.83 -65.78,8.27 -89.6,-19.49 -102.67,-72.9 -27.38,-111.84 -112.81,-83.46 -188.62,-78.67l1.29 -77.5z"/>
  <path class="fil0" d="M3891.17 5021.37c144.33,-94.24 285.63,-185.78 425.94,-278.88 19.09,-12.67 34.8,-36.78 59.76,-25.89 145.96,63.59 311.18,112.02 352.24,293.42 34.75,153.49 171.99,209.08 266.51,302.92 60.64,60.23 135.32,18.49 178.52,-48.89 105.25,92.4 -37.24,173.57 -8.39,264 4,12.54 -18.8,8.7 -31.1,10.03 -106.65,11.5 -215.26,-18.77 -320.79,46.42 -38.88,24.01 -135.32,4.74 -160.8,-72.3 -24.93,-75.37 -70.81,-75.63 -131.56,-55.77 -40.69,13.36 -81.56,27.76 -125.94,19.87 -25.46,-4.55 -47.77,-5.58 -64.32,-34.99 -29.65,-52.8 -9.35,-152.84 -118.86,-136.54 47.77,-101.21 -111.91,-87.92 -95.87,-173.5 3.5,-18.62 -22.12,-31.51 -34.45,-26.38 -100.08,41.59 -131.7,-54.48 -190.89,-83.52z"/>
  <path class="fil0" d="M3667.02 4139.94c-8.53,-137.78 -119.48,-142.7 -203.86,-170.04 -54.85,-17.77 -70.5,-31.64 -50.66,-83.75 15.82,-41.61 11.06,-73.31 -45.39,-68.75 -19.35,1.55 -30.59,-11.17 -40.66,-23.71 -44.98,-55.99 -81.45,-115.71 -110.12,15.08 -9.8,44.56 -83.12,63.66 -121.84,14.82 -38.05,-48.01 -81.75,-37.94 -129.68,-47.08 -109.44,-20.91 -218.1,-51.11 -304.6,-131.86 -33.34,-31.12 -17.19,-57.46 2.93,-74.7 42.33,-36.32 61.91,-87.37 124.72,-115.14 80.97,-35.85 112.57,-130.6 95.48,-229.43 -8.89,-51.26 5.14,-106.95 70.24,-78.32 72.03,31.69 153.21,24.65 221,66.44 33.94,20.89 71.18,36.37 113.23,23.23 28.58,-8.85 53.41,-24.08 54.09,30.96 0.57,45.09 39.66,34.73 66.81,18.5 65.43,-39.24 89.94,-14.95 90.32,53.86 0.3,56.23 -40.96,133.77 67.52,136.85 -5.81,73.45 67.66,111.56 77.69,180.82 16.46,113.27 -51.07,237.16 49.33,342.47 20.82,21.94 2.99,80.73 2.99,122.51 -9.86,5.75 -19.71,11.47 -29.54,17.24z"/>
  <path class="fil0" d="M1629.99 6576.67c-57.96,-126.62 87.96,-169.47 132.3,-256.4 27.47,-53.92 32.56,-160.04 135.12,-165.85 4.87,-0.27 14.75,-18.51 12.39,-24.3 -37.94,-91.22 79.2,-117.25 82,-193.37 0.52,-13.72 17.26,-92.76 68.77,-26.33 1.14,1.51 8.04,1.31 8.9,-0.09 42.63,-71.42 74.67,-84.35 126.18,0.64 31.88,52.58 80.57,89.35 64.27,161.86 -10.44,46.21 26.73,67.45 64.36,87.16 55.77,29.22 103.17,64.55 50.99,137.72 -27.25,38.16 -1.12,67.93 25.5,94.72 39.53,39.81 80.44,78.39 118.18,119.77 37.33,40.9 52.14,89.46 45.72,146.14 -8.9,78.32 -45.04,101.25 -121.2,71.93 -60.58,-23.3 -103.06,-69.19 -147.66,-113.8 -72.19,-72.14 -114.45,-62.63 -157.13,30.33 -6.78,14.69 -12.98,31.97 -24.72,41.79 -95.72,79.87 -365.29,74.28 -463.19,-8.3 -25.24,-21.31 -25.24,-21.31 -20.78,-103.62z"/>
  <path class="fil0" d="M4457.16 6445.55c84.64,-4.33 172.51,50.75 254.23,-23.34 30.53,-27.73 54,29.07 91.69,33.94 34.34,4.44 59.1,56.45 113.28,31.89 16.52,-7.5 32.81,28.82 25.19,52.21 -45.13,138.68 12.06,256.53 72.42,374.59 13.53,26.49 30.03,46.26 60.48,37.59 44.84,-12.74 76.44,-14.12 75.94,47.12 -0.14,15.82 20.6,25.8 38.63,22.04 24.61,-5.13 46.2,-21.37 43.23,-46.61 -10.36,-88.57 85.86,-71.55 115.8,-120.06 6.95,-11.22 26.05,-4.42 33.28,7.78 15.61,26.29 -6.31,33.67 -24.17,41.45 -84.35,36.63 -99.52,79.83 -10.2,129.49 -17.01,26.87 -43.25,21.96 -63.62,30.68 -48.82,21.07 -78.1,54.87 -13.88,86.91 57.3,28.56 31.34,98.14 88.1,122.82 -103.05,26.05 -191.05,70.54 -292.3,19.67 -45.15,-22.65 -60.27,21.65 -46.91,65.41 -9.23,35.94 -28.44,59.9 -69.59,53.36 -34.49,-5.48 -63.07,-21.06 -74.47,-56.62 -14.1,-44.08 -23.22,-89.84 -26.28,-135.69 -5.26,-79.64 -49.97,-109.05 -123.75,-108.4 -23.06,0.18 -46.16,-0.04 -69.21,-1.44 -108.9,-6.77 -137.35,-38.26 -136.02,-147.4 0.87,-73.69 -6.91,-134.77 -82.24,-184.97 -76.77,-51.18 -79.8,-155.25 -87.71,-240.31 -5.01,-54.11 50.63,-85.64 108.08,-92.11z"/>
  <path class="fil0" d="M2419.41 4655.36c-55.6,5.01 -97.6,-27.32 -127.15,-80.8 -36.75,-66.5 -75.59,-85.05 -135.92,-19.07 -50.62,55.4 -200.89,53.83 -249.66,-15.08 -34.68,-48.97 -55.55,-127.06 -1.79,-193.39 17.96,-22.2 37.54,-53.82 35.68,-79.7 -13.96,-198.56 148.11,-260.12 269.52,-352.36 72.38,-55.01 120.05,-15.83 153.16,51.31 29.13,59.05 55.7,119.47 81.68,180.01 29.72,69.36 84.21,105.4 155.93,96.85 57.93,-6.88 85.04,14.73 102.95,63.23 4.49,12.19 14.23,22.55 18.47,34.83 16.54,47.07 82.41,68.73 75.96,122.43 -7.65,63.88 -78.84,46.83 -117.72,72.77 -156.02,103.78 -187.93,118.97 -261.11,118.97z"/>
  <path class="fil0" d="M2623.71 3064.44c100.05,29.65 140.91,-36.55 158.09,-99.4 29.24,-106.75 144.69,-73.05 197.71,-138.22 11.65,-14.34 71.93,100.33 53.85,138.75 -17.02,36.06 -38.02,68.49 -33.61,111.26 3.1,30.18 -13.53,41.02 -43.51,33.83 -110.17,-26.36 -113.86,48.47 -110.82,122.18 2.64,64.06 12.11,140.91 -52.3,167.25 -121.83,49.8 -146.98,183.98 -244.95,251.38 -34.19,23.56 -49.2,57.63 -39.61,103.5 17.11,82.33 -25.91,162.05 -95.78,159.07 -62.35,-2.64 -124.46,-34.2 -110.51,-120.94 0.89,-5.74 -2.12,-13.76 -6.01,-18.48 -78.63,-95.41 -45.3,-223.52 -96.68,-328.29 -28.65,-58.44 -48.45,-129.96 51.57,-153.08 9.13,-2.13 21.38,-8.01 24.71,-15.43 53.07,-119.02 166.29,-180.62 250.97,-269.44 44.13,-46.3 92.88,-53.76 155.69,-70.3 -3.32,53.06 -36.23,82.52 -58.81,126.36z"/>
  <path class="fil0" d="M2888.45 5966.24c1.51,-86.64 9.67,-160.82 -98.27,-138.22 -26.82,5.62 -29.97,-19.71 -30.18,-40.01 -0.59,-52.94 -10.39,-84.01 -75.42,-104.84 -55.03,-17.61 -19.12,-94.49 1.62,-128.94 26.85,-44.67 58.98,-86.62 78.34,-135.99 8.68,-22.01 20.72,-34.55 44.06,-21.94 47.75,25.83 74.24,5.75 90.35,-39.49 13.72,-38.44 37.12,-30.18 61.42,-12.02 72.05,53.63 142.03,90.03 235.48,35.66 40.65,-23.66 97.47,20.53 102.47,55.47 15.14,105.2 93.97,176.47 125.51,273.19 44.57,136.79 -54.7,196.08 -119.76,277.63 -46.73,58.61 -129.66,12.04 -179.64,65.02 -8.37,8.91 -32.69,-13.68 -41.24,-33.98 -36.12,-86.02 -93.77,-117.56 -194.74,-51.54z"/>
  <path class="fil0" d="M4156.67 4590.96c0.06,26.52 -10.45,59.89 1.76,78.23 80.75,121.64 -16.32,152.43 -94.51,192.66 -50.07,25.75 -78.46,79.92 -135.59,97.19 -58.69,17.65 -114.12,28.6 -170.95,-6.93 -41.98,-26.27 -98.77,-31.51 -133.1,-6.85 -60.05,43.23 -97.27,8.9 -138.88,-19.18 -87.04,-58.7 -94.01,-101.14 -3.99,-149.63 123.23,-66.46 123.4,-194.43 169.69,-296.38 65.1,-143.41 224.94,-199.17 345.66,-67.7 20.43,22.3 41,55.86 69.3,50.39 131.82,-25.5 86.72,67.35 90.61,128.2z"/>
  <path class="fil0" d="M2715.01 5808.36c11.19,15.25 21.96,43.32 33.7,43.73 75.09,2.51 125.88,20.72 117.05,112.81 -2.06,21.78 32.12,30.51 56.75,19.55 37.11,-16.45 70.68,-32.97 106.71,7.11 36.54,40.67 -4.52,63.79 -13.46,94.65 -5.4,18.61 -13.66,39.48 -9.96,57.19 11.95,57.19 12.35,103.35 -43.17,145.02 -35.9,26.88 -15.82,80.82 -17.28,123.23 -1,28.26 4.63,75.29 -34.97,68.49 -103.61,-17.68 -169.65,56.71 -252.13,89.34 -39.15,15.48 -58.89,19.14 -81.68,-28.69 -23.34,-48.95 -66.94,-89.58 -106.36,-129.24 -76.45,-77.04 -82.18,-120.05 -7.33,-201.98 35.06,-38.35 53.76,-78.19 37.88,-125.2 -33.9,-100.48 23.29,-133.59 104.52,-147.36 72.45,-12.32 121.69,-38.61 109.73,-128.65z"/>
  <path class="fil0" d="M1552.94 5128.82c114.65,-56.95 92.64,-129.65 37.96,-207 -53.41,-75.65 -104.76,-154.94 -197.45,-187.78 -85.29,-30.27 -73.01,-84.14 -35.25,-139.7 50.75,-74.47 147.67,-97.74 199.36,-176.31 17.63,-26.77 39.81,12.26 51.18,35.1 71.37,144.14 70.95,135.53 246.55,124.48 71.07,-4.53 152.08,25.26 215.22,62.28 40.91,24.02 33.34,88.9 -1.77,133.4 -29.57,37.46 -43.08,70.06 -25.86,124.45 25.13,79.38 -75.04,153.42 -154.57,121.21 -31.23,-12.68 -45.5,-18.12 -66.19,22.83 -29.51,58.48 -107.13,70.43 -150.01,126.64 -18.71,24.5 -60.51,-59.5 -119.17,-39.6z"/>
  <path class="fil0" d="M3770.44 7202.62c-91.72,0.75 -131.5,-109.09 -225.65,-86.95 -7.93,1.87 -40.03,-43.06 -37.12,-62.81 5.65,-38.99 34.53,-77.16 73.64,-85.12 112.55,-22.75 105.73,-99.61 92.07,-182.43 -17.22,-104.18 29.35,-154.8 135.63,-140.41 50.66,6.81 81.95,-7.79 101.71,-54.66 9.39,-22.31 30.68,-38.18 54.93,-35.6 20.96,2.18 35.39,23.82 32.7,43.38 -17.25,123.25 100.17,149.61 163.51,190.93 58.74,38.36 121.17,121.86 217.66,85.54 5.83,-2.18 19.15,7.08 24.7,14.31 21.02,27.36 -24.19,178.76 -44.06,204.01 -93.58,118.79 -157.76,68.29 -229.57,-25.48 -39.36,-51.38 -91.25,-114.85 -170.05,-45.04 -1.86,1.7 -6.42,0.58 -9.72,0.45 -164.74,-8.43 -164.74,-8.43 -180.38,179.88z"/>
  <path class="fil0" d="M1507.81 6090.92c55.2,-60.9 56.2,-92.03 -11.3,-110.05 -107.13,-28.61 -184.67,-68.15 -162.18,-198.46 2.27,-13.13 -12.13,-29.72 -20.08,-43.94 -17.55,-31.26 -49.94,-71.79 -4.98,-93.28 43.53,-20.82 83.56,-82.28 148.69,-30.22 85.16,68.12 177.83,120.91 286.08,152.1 99.44,28.69 128.11,134.88 179.18,214.08 -79.87,28.19 -40.6,135.75 -58.69,144.48 -102.59,49.23 -103.85,162.02 -168.15,231.82 -28.65,31.16 -47.31,84.57 -95.06,74.15 -41.09,-8.96 -29.48,-59.9 -31.62,-94.91 -1.44,-23.56 -0.24,-49.85 -23.87,-61.52 -95.41,-47.12 -74.06,-114.87 -35.71,-186.59 -0.02,0.03 -2.31,2.34 -2.31,2.34z"/>
  <path class="fil0" d="M2078.5 5833.05c-70.94,-14.25 -97.43,44.36 -126.03,99.74 -42.29,-23.91 -54.29,-63.53 -76.19,-94.67 -43.07,-61.32 -93.26,-110.84 -171.35,-123.08 -92.9,-14.64 -156.99,-81.47 -231.3,-129.7 -10.11,-6.62 -24.52,-20.66 -23.14,-28.87 17,-101.57 -11.91,-188.86 -74.17,-268.58 -13.44,-17.26 3.36,-33.92 20.82,-33.87 89.1,0.08 153.59,-126.99 260.24,-48.28 15.54,11.47 55.24,-15.43 82.95,-13.5 40.02,2.79 189.74,216.94 186.55,259.81 -0.96,13.18 -2.19,26.58 -5.4,39.32 -26.9,106.97 -29.96,202.61 92.01,259.82 27.97,13.11 43.24,53.28 65.01,81.86z"/>
  <path class="fil0" d="M2365.09 5035.05c-58.69,-33.61 -91.66,6.93 -121.23,54.55 -37.5,-38.58 -48.62,-83.86 -100.67,-98.5 -64.91,-18.18 -95.88,-129.33 -54.38,-183.59 32.95,-43.1 46.09,-86.61 37.57,-138.07 -10.54,-63.18 46.24,-87.68 79.87,-110.65 41.11,-28.02 55.36,31.75 72.69,58.11 48.32,73.49 118.47,78.36 192.92,67.16 45.48,-6.85 89.73,-22.53 134.32,-35.19 45.28,-12.87 80.29,-11.83 78.51,49.68 -1.35,47.66 28.78,71.69 68.73,86.25 74.96,27.34 87.53,69.45 39.82,135.21 -28.78,39.71 -48.69,85.88 -72.57,129.18 -44.8,40.64 -85.84,2.6 -125.53,-9.49 -77.15,-23.45 -152.36,-46.07 -230.05,-4.65z"/>
  <path class="fil0" d="M2723.6 5093.78c80.38,73.56 99,138.4 43.23,253.7 -62.74,129.79 -148.56,207.06 -270.09,263.91 -27.12,12.67 -53.33,25.09 -68.23,-3.63 -73.32,-140.83 -193.1,-263.91 -178.06,-439.66 4.61,-53.74 24.78,-101.68 89.43,-109.94 3.16,0.85 7.86,3.56 9.34,2.33 135.79,-111.34 254.27,-30.13 374.38,33.29z"/>
  <path class="fil0" d="M1944.66 5562.99c2.86,-20.28 4.72,-63.79 16.04,-104.68 9.9,-35.75 10.05,-78.74 -15.96,-91.28 -85.92,-41.39 -92.85,-144.74 -165.25,-194.5 -36.32,-25.02 -46.79,-39.48 11.01,-60.2 59.38,-21.29 110.64,-61.37 179.31,-37.44 7.76,2.69 27.47,-9.42 31.66,-19.04 31.91,-72.85 78.49,-58.39 134.45,-30.02 57.6,29.17 84.79,79.22 76.47,134.49 -14.56,96.63 8.82,171.26 75,243.64 44.49,48.61 46.09,108.31 -34.9,134.91 -54.39,17.92 -93.38,46.24 -120.5,102.64 -22.65,47.23 -75.33,76.43 -134.12,58.09 -55.57,-17.35 -55.75,-66.67 -53.21,-136.61z"/>
  <path class="fil0" d="M4457.16 6445.55c-67.98,42.57 -119.19,84.49 -63.09,178.28 34.27,57.39 10.49,140.87 116.85,163.14 38.66,8.15 55.07,116.11 37.05,180.29 -25.73,91.71 18.39,112.92 93.94,116.22 218.48,9.6 218.48,9.77 249.94,224.14 13.35,91 49.02,105.51 126.5,51.51 26.43,26.91 36.54,52.66 10.9,80.97l-259.67 0c-64.06,-73.9 -78.76,-176.58 -115.1,-266.3 -14.05,-34.72 -41.67,-38.09 -70.41,-45.21 -106.24,-26.22 -156,-82.67 -146.03,-186.26 7.71,-80.42 -15.32,-104.2 -97.01,-102.01 -75.03,2.03 -123.29,-72.9 -193.23,-99.13 -24.08,-9 -44.58,-54.39 -86.54,-64.82 -25.35,-6.31 -31.47,-33.92 -10.51,-55.68 15.99,-16.61 35.2,-19.36 47.09,5.92 25.29,53.61 63.86,35.51 99.76,17.18 52.65,-26.86 132.09,-55.29 118.17,-117.73 -23.73,-106.55 45.76,-79.42 94.86,-88.73 16.2,-3.06 32.87,-4.98 46.53,8.22z"/>
  <path class="fil0" d="M2057.87 5739.66c55.88,-23.04 103.66,-54.74 124.55,-110.21 20.28,-53.8 75.13,-47.36 111.3,-72.79 64.05,-45.02 64.55,32.88 86.87,57.38 55.44,60.76 103.67,55.36 161.78,6.1 23.6,-19.95 57.56,-47.99 88.77,-27.58 28.43,18.64 -7.1,46.51 -9.4,71.09 -7.14,76.16 63.25,49.39 99.29,73.78 -12.62,16.04 -34.71,31.23 -34.4,45.85 2.4,102.06 -63.75,121.16 -145.05,136.35 -58.06,10.88 -86.3,56.6 -80.26,119.14 3.16,32.81 9.64,67.23 3.21,98.61 -7.21,35.66 -16.3,69.25 -71.33,28.61 -62.31,-45.95 -109.8,-76.91 -109.23,-172.76 0.48,-74.89 -77.67,-137.79 -142,-187.71 -25.35,-19.64 -60.03,-27.16 -84.1,-65.86z"/>
  <path class="fil0" d="M3927.63 3206.55c-6.05,1.31 -24.27,0.68 -37.32,8.59 -61.43,37.28 -93.38,26.07 -103.52,-49.57 -5.33,-39.55 -44.32,-43.18 -79.16,-43.86 -19.86,-0.41 -41.21,-2.49 -46.08,-27.6 -4.74,-24.17 15.38,-34.13 30.06,-46.94 81.17,-70.78 145.49,-156.37 182.68,-255.78 26.6,-71.31 89.19,-49.38 132.48,-63 30.57,-9.57 88.64,12.5 106.3,61.21 14.9,41.21 61.67,79.18 1.9,128.72 -62.42,51.73 -44.67,142.92 -82.22,207.63 -20.56,35.43 -17.56,108.37 -105.12,80.6z"/>
  <path class="fil0" d="M4620.56 3189.99c-5.78,33.06 -79.32,65.04 -20.59,93.62 45.82,22.35 120.74,52.71 156.1,-34.79 21.22,-52.5 15.58,-109.03 35.34,-162.6 0,48.13 2.44,96.4 -0.99,144.24 -1.81,25.35 -8.06,67.48 -22.16,72.12 -124.78,41.19 -144.51,175.79 -230.21,250.7 -58.02,50.7 -90.86,56.54 -173.42,10.1 95.21,-36.21 125.26,-96.13 91.08,-192.12 -26.93,-75.7 46.42,-150.46 164.85,-181.27z"/>
  <path class="fil0" d="M9090.39 3822.25c-1.29,3.96 -9.53,32.02 -19.84,59.23 -7.64,20.15 -24.37,31.09 -45.76,30.09 -22.36,-1.1 -36.7,-15.56 -39.56,-37.02 -7.87,-58.59 -16.81,-117.29 -19.6,-176.18 -1.47,-29.88 31.31,-42.56 52.62,-52.8 32.82,-15.76 34.42,22.86 43.18,39.15 18.49,34.36 36.08,70.72 28.96,137.53z"/>
  <path class="fil0" d="M2723.6 5093.78c-46.63,-16.21 -92.16,-40.06 -140.1,-46.72 -63.03,-8.83 -135.71,-73.5 -190.33,21.46 -6.16,10.77 -37.47,5.87 -53.29,-10.36 8.41,-7.7 16.8,-15.43 25.21,-23.12 35.05,-49.81 71.9,-66.97 140.19,-49.59 72.91,18.58 139.71,56.73 215.39,63.75 0.99,14.86 1.95,29.7 2.93,44.58z"/>
  <path class="fil0" d="M13287.07 3141.28c20.41,0.93 40.8,1.89 61.21,2.78 50.26,9.16 96.44,-8.63 118.3,-49.41 33.83,-63.07 70.34,-56.49 119.54,-25.11 17.35,11.06 37.06,41.54 57.63,19.87 22.77,-24.15 9.74,-56.06 -9.93,-80.8 -13.72,-17.24 -29.52,-32.84 -52.58,-58.17 83.49,-10.41 146.25,11.19 207.24,41.79 23.52,11.8 51.18,30.28 70.24,1.37 18.14,-27.56 -7.49,-47.75 -26.66,-66.24 -84.29,-81.36 -61.02,-240.39 43.44,-289.78 46.79,-22.11 60.38,-71.92 89.85,-107.24 36.12,-43.33 55.53,-40.49 79,-0.06 22.63,39.03 60.51,33.94 94.38,42.24 11.21,21.55 -6.75,34.01 -15.43,49.33 -42.57,-2.26 -74.08,18.35 -79.46,58.43 -6.55,49.37 43.87,34.03 66.98,50.15 55.21,38.64 109.36,1.69 164.85,8.99 15.86,58.63 -104.11,99.06 -23.65,160.82 29.35,22.57 70.7,18.47 104.68,0.41 40.71,-21.7 38.55,-54.37 -12.04,-111.12 103.19,42.94 176.21,46.85 245.66,3.04 17.44,-11.02 38.53,-16.28 52.14,5.88 32.34,52.42 63.42,103.34 120.24,136.58 22.19,12.99 28.01,58.43 59.95,42.28l0 69.58c-12.62,-2.95 -23.43,1.72 -30.38,26.04 -10.54,37.01 4.21,67.59 30.38,87.91l0 254.7c-8.89,9.23 -17.31,18.81 -24.79,28.99 -51.57,70.15 -113.57,126.27 -184.68,175.07 -17.03,11.67 -12.26,35.79 -0.51,54.54 11.54,18.43 16.68,41.83 -3.6,53.04 -51.8,28.64 -79.7,114.25 -102.35,118 -110.7,18.22 -121.39,128.58 -191.67,181.38 -51.01,38.35 -78.59,110.64 -109.66,171.36 -13.07,25.49 10.88,44.05 39.02,39.24 18.61,-3.21 43.34,-9.94 52.32,-23.6 49.09,-74.65 88.25,-161.93 204.93,-119.58 22.7,-66.59 135.45,-66.44 119.58,-164.39 34.95,-1.76 57.23,54.53 108.55,10.08 27.43,-23.78 60.6,30.22 59.4,79.68 -1.73,70.47 4.82,138.72 33.46,196.95l0 763.06c-48.26,30.13 -46.97,82.79 -40.07,133.75 7.04,52.07 12.9,99.93 -66.89,60.36 -46.83,-23.19 -82.59,7.64 -112.92,39.85 -50.92,54.03 -101.44,102.92 -187.02,81.43 -22.71,-5.74 -59.92,-2.49 -69.89,25.7 -12.74,36.21 -25.41,39.03 -54.79,18.51 -27.95,-19.4 -69.86,-14.58 -82.67,6.28 -68.99,112.26 -144.87,42 -219.61,14.46 -21.52,-7.95 -42.31,-17.9 -63.44,-26.9 -63.02,-43.66 -134.64,-18.23 -203.92,-23.51 4.48,-39.21 53.9,-77.23 -4.06,-114.04 -46.37,-29.5 -93.49,-41.41 -138.27,-7.12 -56.27,43.12 -117.68,49.41 -185.52,51.16 -159.48,4.04 -270.87,113.33 -395.15,192.99 -12.11,7.74 -26.38,31.67 -22.6,41.54 33.98,88.55 -73.93,117.09 -78.3,189.84 -1.1,18.89 -29.59,24.81 -50.13,22.99 -99.94,-9.04 -157.5,52.45 -211.7,122.91 -32.22,41.83 -66.66,82.54 -104.38,119.45 -53.58,52.38 -118.4,72.67 -191.26,44.45 -71.37,-27.66 -141.11,-30.24 -212.05,1.08 -63.61,28.08 -102.07,0.26 -119.38,-61.28 -14.21,-50.79 -20.5,-104.05 -37.42,-153.83 -14.16,-41.61 -15.67,-102.08 -72.57,-108.04 -61.52,-6.41 -104.64,33.58 -131.8,87.45 -34.18,67.73 -67.11,136.04 -125.82,198.5 -34.48,-89.67 -64.29,-176.86 -129.17,-244.48 -15.46,-16.08 -20.15,-37.72 -4.2,-53.63 41.13,-40.98 27.6,-75.2 -7.17,-110.23 -10.92,-11.05 -20.1,-21.61 -11.03,-42.33 39.64,-90.58 0.79,-182.93 1.51,-274.59 0.7,-84.79 -43.91,-118.95 -128.63,-97.07 -44.13,11.38 -104.45,39.77 -130.3,-1.45 -40.73,-65.08 -59.4,-144.23 -84.72,-218.32 -2.93,-8.58 9.44,-31.84 17.22,-33.1 96.04,-15.82 136.43,-129.03 237.9,-134.52 37.8,-2.07 50.17,-34.41 52.55,-62.65 8.55,-102.34 17.77,-205.81 -59.39,-291.7 -40.32,-44.87 -54.88,-80.31 25.22,-102.82 67.02,-18.84 73.34,-85.96 82.73,-145.79 35.98,16.04 45.29,49.87 59.47,78.76 70.1,142.82 69.63,143.01 222.6,181.15 -14.34,27.84 -14.64,73.36 -50.88,71.96 -142.26,-5.48 -103.36,119.85 -135.92,188.07 -26.41,55.36 6.75,87.04 82.52,54.75 -30.18,52.97 -25.4,110.86 -83.88,134.33 -9.24,3.7 -19.91,29.81 -18.05,31.36 83.94,70.07 33.02,191.18 102.23,266.9 34.09,37.24 72.44,52.1 112.99,21.25 49.23,-37.53 9.83,-71.64 -16.44,-98.46 -64.82,-66.17 -55.92,-135.71 -11.34,-204.68 20.37,-31.45 39.53,-62 40.01,-99.2 1.53,-123.16 24.59,-244.67 36.54,-364.21 8.35,-83.2 -6.31,-235.98 -136.91,-290.94 -53.76,-22.61 -51.77,-60.84 -39.38,-105.77 12.08,-43.84 28.62,-84.36 22.79,-134.24 -13.77,-117.36 44.34,-164.32 165.26,-129.44 120.17,34.61 243.88,15.27 364.43,37.12 23.82,4.33 50.9,-9.24 79.07,-15.12 21.26,26.82 -37.7,71.09 15.49,89.69 37.33,13.09 72.53,0.7 102.54,-22.47 25.68,-19.84 61.52,-43.44 40.58,-79.98 -49.26,-85.91 25.51,-177.32 -18.25,-263.64 -14.29,-28.18 25.02,-18.78 38.54,-28.39 31.55,-22.58 70.49,-37.24 45.01,-92.58 -12.63,-27.46 117.88,-115.58 154.95,-123.42 125.3,-26.36 256.6,-21.94 376.99,-72.34 11.83,-4.96 24.72,-12.13 32.19,-22.03 74.13,-98.06 104.33,-97.33 181.57,4.94 2.79,3.72 12.4,2.29 18.81,3.25z"/>
  <path class="fil0" d="M13923.76 5357.15c58.42,45.7 122.56,77.13 198.5,77.54 19.67,0.09 52.74,3.96 57,-4.87 42.46,-87.96 138.33,-57.06 187.57,-51.53 54.22,6.07 114.35,78.59 136.69,153.74 44.89,151.03 28.89,309.1 57.02,462.03 15.4,83.81 35.29,168.12 -102.28,173.87 -51.29,2.09 -65.98,59.66 -7.39,89.1 71.53,35.92 75.42,82.19 42.25,145.19 -25,47.42 -11.69,89.36 24.25,126.32 18.41,18.94 37.29,37.74 53.53,58.48 95.61,121.86 98.16,147.73 3.38,267.88 -44.05,55.79 -23.21,129.77 -68.71,187.33 -20.3,25.79 34.69,75.57 65,67.42 84.62,-22.84 147.62,61.32 231.6,34.88 6.17,-1.95 13.21,-2.81 20.48,-2.57l0 91.83c-9.65,0.63 -19.55,0.65 -28.76,0.97 -44.43,1.51 -98.53,-47.81 -127.76,-7.32 -21.85,30.36 -4.74,88.81 -4.98,134.71 -1.19,25.85 7.08,51.89 13.64,77.95l-2227.9 0c6.43,-36.97 15.59,-73.55 22.11,-110.62 30.75,-174.74 11.5,-219.02 -151.73,-280.85 -81.77,-31.01 -128.19,-111.17 -215.56,-135.14 -36.54,-10.01 -38.16,-60.12 -7.48,-92.55 48.1,-50.92 46.1,-99.39 -2.95,-146.53 -33.65,-32.25 -20.61,-62.13 -14.62,-103.96 26.55,-186.04 120.11,-306.1 299.62,-365.52 49.41,-16.37 88.2,-64.12 107.01,-113.53 37.55,-98.54 112.23,-169.37 172.11,-251.21 49.98,-68.3 104.19,-127.54 201.92,-121.09 34.05,2.21 57.06,-17.62 79.99,-56.17 76.79,-129.02 117.75,-290.89 290.09,-342.86 56.64,-17.07 109.85,-49.54 170.45,-47.05 71.84,2.97 137.22,-5.75 194.76,-53.83 27.32,-22.88 59.82,-23.45 92.4,-3.62 44.08,26.76 8.61,50.98 -1.96,74.23 -22.71,50.11 4.19,61.56 44.49,55.86 66.65,-9.55 131.73,-8.24 196.22,11.49z"/>
  <path class="fil0" d="M12485.15 6007.05c-41.45,105.9 -103.83,169.71 -195.68,203.8 -129,47.93 -201.64,133.18 -221.27,276.04 -11.64,84.86 -74.76,162.53 19.54,239.97 25.73,21.16 -5.84,53.33 -24.56,76.97 -44.8,56.56 -32.54,117.38 25.35,142.32 100.22,43.16 170.26,133.85 279.73,161.39 67.61,17.04 89.82,74.34 79.06,141.13 -10.29,63.96 -25.06,127.36 -33.31,191.43l-1040.07 0c18.43,-36.4 37.67,-72.36 63.48,-103.82 15.34,-18.68 -0.4,-49.41 -17.49,-72.71 -46.3,-63.11 -20.23,-128.95 60.78,-143.05 65.78,-11.41 93.66,-42.29 81.34,-107.89 -7.85,-41.92 7.98,-75.55 28.72,-111.53 36.45,-63.08 18.83,-105.59 -57.39,-120.34 -153.81,-29.72 -154.26,-30.86 -111.61,-176.97 26.36,-90.17 22.19,-169.13 -65.38,-227.11 -28.96,-19.17 -49.24,-55.7 -35.1,-86.58 24.76,-54.05 43.31,-102.32 2.25,-156.12 -4.66,-6.15 1.27,-28.11 9.09,-34.89 80.09,-69.4 52.34,-131.29 -9.83,-193.25 -21.77,-21.65 -43.64,-54.26 -22.4,-79.54 58.89,-70.2 22.55,-135.25 -9.71,-214.8 62.84,15.67 130.54,44.07 117.73,-58.46 -2.03,-16.39 30.29,-30.07 47.42,-15.63 19.93,16.72 58.68,36 29.31,70.35 -49.54,58 -11.35,95.96 23.51,137.04 46,54.18 69.28,119.26 88.57,186.29 17.47,60.57 45.09,69.53 85.58,16.49 46.45,-60.79 83.05,-127.18 116.48,-195.74 16.53,-33.92 40.11,-65.17 81.45,-63.28 48.61,2.26 47.08,46.87 56.28,80.52 6.14,22.3 12.48,44.63 17.02,67.24 36.26,180.91 58.44,195.81 237.73,155.08 33.28,-7.56 66.17,-9.76 97.66,2.78 60.4,24.04 122.18,27.03 195.72,12.87z"/>
  <path class="fil0" d="M10926.13 7440.1c-22.79,-40.54 -50.93,-74.49 -113.18,-75.68 -36.6,-0.66 -51.66,-47.75 -62.08,-82.77 -17.44,-58.32 -58.49,-79.56 -104.29,-44.9 -145.92,110.47 -296.38,38.7 -445.08,18.75 -59.89,-8.02 -74.43,-58.46 -77.24,-111.61 -3.42,-63.86 -17.93,-107.67 -101.1,-92.14 -52.91,9.9 -77.1,-36.23 -74.92,-83.02 3.52,-75.2 -35.53,-85.95 -98.54,-86.36 -91.41,-0.59 -173.18,-25.51 -202.64,-128.3 77.6,47.79 147.88,107.58 252.06,92.89 64.31,-9.09 80.11,49.02 84.16,100.07 4.06,51.3 13.7,78.69 77.16,67.42 70.94,-12.63 89.84,44.58 94.47,99.8 6.74,80.16 50.05,93.3 123.69,116.62 137.62,43.64 254.86,28.87 376.2,-35.64 59.75,-31.76 102.98,-6.24 122.45,55.4 16.25,51.22 39.83,85.51 100.47,90.25 32.92,2.58 56.76,35.08 70.75,64.75 5.74,12.18 11.37,23.89 17.37,34.47l-39.71 0z"/>
  <path class="fil0" d="M11613.34 4673.46c50.7,-68.52 7.41,-198.23 163.21,-180.54 0,58.79 -3.72,120.46 1.04,181.48 4.85,62.04 -9.52,112.98 -43.64,166.61 -47.75,75.09 -64.67,156.93 13.59,230.16 13.64,12.81 46.38,31.96 20.13,54.53 -25.18,21.68 -47.66,0.57 -63.74,-23.93 -20.02,-30.55 -41.29,-59.92 -34.45,-99.87 2.76,-16.07 10.08,-39.31 2.41,-47.95 -85.53,-96.68 19.71,-156.86 42.98,-232.06 4.64,-15.09 17.16,-27.82 26.52,-41.28 18.44,-26.73 11.75,-53.22 -9.91,-70.59 -26.84,-21.49 -38.81,9 -53.63,23.88 -15.27,15.34 -20.76,42.75 -64.51,39.56z"/>
  <path class="fil0" d="M10613.31 3440.11c61.06,-29.35 70.02,-123.65 151.6,-63.57 17.09,12.58 36.3,33.52 27.49,57.76 -8.63,23.8 -33,31.71 -57.54,28.23 -33.94,-4.76 -67.48,-12.28 -121.55,-22.42z"/>
  <path class="fil0" d="M10777.15 5368.61c-2.05,19.33 0.06,40.33 -6.91,57.75 -28.54,71.3 -33.55,134.2 53.18,175.07 -48.22,-8.7 -99.53,-9.18 -116.53,-59.78 -25.14,-75.15 24.95,-123.89 72.2,-171.51 -0.13,-0.06 -1.94,-1.53 -1.94,-1.53z"/>
  <path class="fil0" d="M11230.65 3974.16c19.52,-36.89 40.15,-65.32 82.09,-52.62 11.16,3.36 26.68,32.36 23.86,35.66 -28.65,33.55 -66.21,18.54 -105.95,16.96z"/>
  <path class="fil0" d="M11482.83 4087.38c-45.51,-6.3 -75.71,-8.72 -91.16,-38.9 -2.35,-4.63 5.41,-20.74 10.73,-21.98 41.62,-9.71 55.22,22.13 80.43,60.88z"/>
  <path class="fil0" d="M6662.12 1524.86c-39.15,-19.85 -31.09,-60.99 -49.41,-85.65 -51.94,18.78 -70.54,67.53 -48.47,96.64 54.68,71.99 26.32,106.04 -51.77,130.8 148.76,61.16 224.72,221.77 195.07,378.35 -19.13,101.01 16.32,203.3 -1.53,306.21 -13.85,79.73 -22.93,158.23 -0.63,243.08 31.44,119.63 -32.41,225.77 -88.9,328.24 -3.02,5.42 -8.81,9.53 -13.92,13.49 -137.82,107.26 -433.23,62.17 -519.45,-95.13 -97.84,-178.41 -188.34,-365.15 -157.85,-581.03 3.19,-22.66 -10.58,-33.23 -19.97,-50 -34.86,-62.15 -37.35,-128.19 -8.33,-195.61 13.83,-32.17 31.75,-81.1 -6.44,-95.89 -40.04,-15.52 -60.06,35.03 -70.72,67.13 -20.48,61.82 -54.68,92.33 -122.19,83.61 -23.73,-3.03 -48.01,-1.09 -58.54,-26.33 -10.26,-24.56 2.27,-51.6 20.54,-61.1 63.61,-32.9 37.19,-71.92 13.99,-113.01 -37.31,-66.22 -67.42,-137.85 -113.21,-197.56 -48.84,-63.68 -7.1,-81.97 37.9,-93.03 37.15,-9.15 79.11,-4.83 118.03,0.25 133.57,17.43 206.87,-34.16 231.08,-166.45 4.74,-25.91 12.9,-51.76 13.73,-77.81 2.7,-89.74 42.44,-126.04 133.2,-102.87 28.21,7.23 63.96,8.72 83.69,-17.42 60.3,-79.74 113.29,-37.46 166.96,5.94 58.53,47.34 109.19,101.91 197.26,100.64 37.78,-0.55 32.17,87.83 105.66,76.58 38.15,-5.84 43.88,34.68 14.22,127.93z"/>
  <path class="fil0" d="M5008.03 2050.93c98.43,-3.76 196.68,-1.71 295.14,-17.99 74.19,-12.28 147.79,-0.11 169.12,95.1 6.05,27.11 27.25,44.76 52.38,56.23 30.43,13.86 93.24,-35.81 90.57,16.09 -3.54,68.65 40.58,139.63 2.64,202.02 -38.94,64.05 -110.3,83.68 -178.87,62.67 -94.47,-28.87 -140.48,0.92 -148.39,95.22 -3.76,44.91 -24.78,65.06 -68.93,66.55 -63.32,2.1 -82.58,40.12 -81.82,98.55 0.57,48.81 -8.72,97.73 -7.99,146.49 0.83,54.61 -1.16,95.7 -75.23,97.47 -42.91,1 -82.23,28.19 -69.93,86.69 8.55,40.59 -10.62,72.86 -50.28,61.72 -25.07,-7 -84.42,-7.83 -57.8,-74.81 31.14,-78.48 -23.94,-112.44 -89.56,-115.45 -71.05,-3.17 -142.86,9.02 -214.19,15.56 -45.06,4.11 -58.57,34.22 -63,75.11 -12.96,118.64 -104.68,85.97 -174.37,84.03 -68.95,-1.95 -109.67,-38.88 -102.78,-115.72 1.94,-22.01 -8.05,-44.93 -11.45,-67.59 -11.52,-77.02 32.34,-121.82 107.89,-110.41 9.72,1.49 18.77,6.56 28.43,8.72 192.64,43.25 197.97,39.58 221.27,-151.99 124.65,24.81 146.77,1.88 134.83,-126.82 -7.88,-84.92 13.75,-163.14 76.5,-225.75 68.37,-20.8 104.24,-57.82 57.16,-138.68 92.07,1.95 165.92,-13.68 158.66,-123.01z"/>
  <path class="fil0" d="M9688.15 2438.17c-30.57,12 -14.66,48.73 -35.29,66.68 -9.2,8.01 -11.5,23.1 -28.58,22.31 -113.34,-5.25 -113.39,-5.05 -175.67,126.4 -25.1,-80.47 -99.97,-114.28 -131.05,-190.31l88.48 0c-0.08,-60.44 -57.86,-64.22 -83.74,-103.23 68.14,26.9 137.74,-45.46 202.17,15.49 5.33,5.01 28.47,-16.82 28.67,-34.39 0.46,-42.75 15.1,-64.32 59.24,-43.18 36.26,17.37 38.95,-1.16 37.7,-29.88 -0.39,-10.14 -1.55,-35.51 15.94,-23.12 104.54,74.04 62.67,-76.34 118.09,-75.22 -5.04,-17.83 -10.09,-35.67 -15.14,-53.46 65.27,78.96 148.02,21.84 197.23,2.65 103.67,-40.43 197.75,-64.89 305.88,-29.4 50.22,16.55 107.48,42.24 148.96,-23.31 12.74,-20.15 31.27,-7.83 38.53,6.97 61.03,124.78 187.26,61.65 280.07,94.06 48.68,16.96 109.77,22.44 165.04,-28.61 41.96,-38.75 108.38,-12.35 159.01,14.73 29.88,15.93 24.54,50.68 10.45,70.28 -33.33,46.18 -58.83,103.63 -132.72,102.96 -107.02,-1.01 -214.12,2.7 -318.73,30.57 -11.5,3.06 -28.2,3.23 -36.98,-2.98 -99.79,-70.65 -201.87,-37.52 -305.35,-11.56 -41.36,10.39 -81.53,-26.79 -130.28,0.86 -37.71,21.35 -109.21,-18.1 -114.3,67.18 -0.2,3.53 -49.52,34.09 -73.47,-6.65 -13.99,-23.84 -36.12,-29.96 -54.35,-2.67 -24.94,37.31 -18.66,22.78 -36.3,-8.36 -27.56,-48.58 -44.56,1.07 -57.32,23.55 -57.2,100.79 -56.76,101.05 -126.19,21.64z"/>
  <path class="fil0" d="M11234.41 818.69c-47.75,-4.59 -90.17,-12.4 -89.73,-56.82 0.37,-37.92 38.33,-75.38 73.34,-61.69 40.04,15.66 113.09,7.56 115.06,55.04 2.03,50.16 -66.98,47.71 -98.67,63.47z"/>
  <path class="fil0" d="M11463.69 846.18c-27.88,-7.35 -61.03,-8.07 -65.14,-47.28 -2.73,-25.98 115.69,-78.16 159.22,-70.86 22.27,3.71 21.14,21.71 21.6,37.02 1.13,36.84 -65.76,83.19 -115.68,81.12z"/>
  <path class="fil0" d="M11030.5 671.36c31.87,27.36 68.43,54.39 41.75,95.83 -8.84,13.74 -71.22,15.33 -77.57,4.34 -22.4,-38.87 12.81,-67.87 35.82,-100.17z"/>
  <path class="fil0" d="M11028.94 402.89c43.07,45.35 66.52,95.7 46.42,167.25 -34.38,-56.59 -42.86,-111.42 -46.42,-167.25z"/>
  <path class="fil0" d="M905.66 2101.17c118.21,105.9 102.76,-18.87 144.35,-50.16 10.53,7.1 29.04,12.94 35.66,25.15 48.78,90.15 79.25,181.48 167.69,258.08 97.71,84.55 29.39,235.58 -85.91,251.71 -79.61,11.14 -107.78,-43.21 -128.5,-96.86 -45.87,-118.75 -83.37,-240.72 -133.29,-387.92z"/>
  <path class="fil0" d="M10682.89 377.33c-13.7,-4.68 -39.09,-11.2 -62.59,-21.93 -37.52,-17.11 -70.41,-47.05 -114.22,-6.2 -16.22,15.05 -55.12,20.59 -59.16,-20.15 -2.71,-27.41 -1.58,-64.93 45.93,-53.26 31.58,7.78 65.32,-30.49 97.28,12.83 21.67,29.46 52.38,11.1 75.61,-12.57 16.3,-16.56 29.74,-58.87 58.37,-30.9 26.05,25.44 46.81,66.5 38.37,105.27 -6.16,28.34 -40.55,28.41 -79.59,26.91z"/>
  <path class="fil0" d="M10642.71 208.05c-50.48,-73.91 -206.37,38.14 -215.35,-145.28 68.58,78.32 175.22,53.15 215.35,145.28z"/>
  <path class="fil0" d="M7801.99 3286.75c-36.1,0 -68.77,-4.26 -93.8,-29.92 -8.46,-8.72 -17.24,-19.47 -20.02,-30.7 -2.81,-11.43 158.18,-120.16 173.13,-117.93 81.32,12.39 48.45,89.49 73.78,133.73 9.74,17.08 -7.43,25.87 -27.38,27.86 -36.19,3.63 -71.99,11.3 -105.71,16.96z"/>
  <path class="fil0" d="M11521.88 3825.17c12.9,45.13 -1.09,74.41 -13.24,105.67 -41.39,-56.04 -41.39,-56.04 13.24,-105.67z"/>
  <path class="fil0" d="M10801.93 569.03c-50.45,16.61 -79.89,12.18 -96.61,-23.64 -2.71,-5.75 4.04,-22.99 8.83,-24.04 38.42,-8.48 55.88,20.61 87.78,47.68z"/>
  <path class="fil0" d="M117.67 7440.1c-2.52,-23.7 4.36,-45.11 27.75,-59.44 40.67,-24.92 51.08,13.96 65.83,36.52 5.06,7.73 10.12,15.39 15.23,22.92l-108.81 0z"/>
  <path class="fil0" d="M156.25 7440.1c0.43,-9.49 3.18,-19.94 9.24,-31.74 7.17,10.47 13.98,21.1 20.65,31.74l-29.89 0z"/>
  <path class="fil0" d="M4004.42 6622.79c-0.45,97.06 -173.73,360.66 -173.43,362.63 0.2,1 -173.41,-266.86 -173.41,-362.63 0,-95.78 77.67,-173.43 173.41,-173.43 95.81,0 173.91,77.65 173.43,173.43z"/>
 </g>
</svg>
