<?xml version="1.0" encoding="UTF-8"?>
<!DOCTYPE svg PUBLIC "-//W3C//DTD SVG 1.1//EN" "http://www.w3.org/Graphics/SVG/1.1/DTD/svg11.dtd">
<!-- Creator: CorelDRAW X7 -->
<svg xmlns="http://www.w3.org/2000/svg" xml:space="preserve" width="109px" height="66px" version="1.1" shape-rendering="geometricPrecision" text-rendering="geometricPrecision" image-rendering="optimizeQuality" fill-rule="evenodd" clip-rule="evenodd"
viewBox="0 0 10559 6422"
 xmlns:xlink="http://www.w3.org/1999/xlink">
 <g id="Слой_x0020_1">
  <metadata id="CorelCorpID_0Corel-Layer"/>
  <path fill="#737D85" fill-rule="nonzero" d="M9774 6397l0 -563c71,92 219,152 339,152 316,0 446,-141 446,-616 0,-476 -130,-614 -446,-614 -120,0 -268,60 -339,152l0 -120 -150 0 0 1609 150 0zm0 -1422c92,-51 189,-76 293,-76 279,0 325,46 325,471 0,429 -46,473 -325,473 -104,0 -201,-25 -293,-77l0 -791z"/>
  <path fill="#737D85" fill-rule="nonzero" d="M9291 5810l0 -1022 -150 0 0 978c-92,52 -189,65 -293,65 -279,0 -314,-25 -314,-415l0 -628 -150 0 0 658c0,447 125,540 402,540 159,0 284,-74 355,-152l42 141 147 -36 -39 -129z"/>
  <path fill="#737D85" fill-rule="nonzero" d="M7620 5986c363,0 487,-143 487,-621 0,-475 -127,-609 -487,-609 -360,0 -487,134 -487,609 0,478 125,621 487,621zm0 -1087c273,0 321,50 321,471 0,438 -48,473 -321,473 -272,0 -320,-35 -320,-473 0,-421 48,-471 320,-471z"/>
  <path fill="#737D85" fill-rule="nonzero" d="M6949 4933c3,1 10,4 18,8l41 -154c-10,-4 -18,-8 -20,-8 -40,-14 -95,-23 -160,-23 -128,0 -228,71 -322,152l-43 -142 -145 39 49 149 0 1000 150 0 0 -979c92,-42 171,-67 275,-67 57,0 118,11 157,25z"/>
  <path fill="#737D85" fill-rule="nonzero" d="M5575 5873c312,0 342,37 342,207 0,139 -74,199 -351,199 -274,0 -342,-46 -342,-199 0,-69 19,-165 53,-233 65,17 162,26 298,26zm259 -702c0,199 -33,249 -309,249 -261,0 -298,-55 -298,-256 0,-205 46,-249 304,-249l250 0c30,60 53,141 53,256zm272 -383l-581 0c-289,0 -460,83 -460,388 0,180 49,288 180,339 -57,37 -115,90 -115,164 0,64 11,122 113,159 -99,55 -189,151 -189,284 0,219 154,300 498,300 393,0 533,-108 533,-362 0,-263 -143,-321 -510,-321 -288,0 -298,-32 -298,-125 0,-25 5,-55 12,-83 65,19 141,26 236,26 313,0 473,-102 473,-360 0,-104 -63,-206 -148,-282l256 0 0 -127z"/>
  <path fill="#E95821" fill-rule="nonzero" d="M5089 0l0 1100c555,37 1001,484 1039,1038l1099 0 0 -855 -1207 0c-40,0 -76,-36 -76,-76l0 -1207 -855 0z"/>
  <path fill="#737D85" fill-rule="nonzero" d="M5944 3421l0 -1207c0,-512 -418,-931 -931,-931l-1207 0 0 855 1207 0c40,0 76,36 76,76l0 1207 855 0z"/>
  <path fill="#737D85" fill-rule="nonzero" d="M1283 2214c0,-40 -36,-76 -76,-76l-1207 0 0 -855 1100 0c37,555 484,1001 1038,1039l0 2691c0,40 36,76 77,76l1206 0 0 855 -1206 0c-513,0 -932,-419 -932,-931l0 -2799z"/>
  <path fill="#E95821" fill-rule="nonzero" d="M3421 2138l-1206 0c-513,0 -932,-419 -932,-931l0 -1207 855 0 0 1207c0,40 36,76 77,76l1206 0 0 855z"/>
 </g>
</svg>
