<?xml version="1.0" encoding="UTF-8"?>
<!DOCTYPE svg PUBLIC "-//W3C//DTD SVG 1.1//EN" "http://www.w3.org/Graphics/SVG/1.1/DTD/svg11.dtd">
<!-- Creator: CorelDRAW X7 -->
<svg xmlns="http://www.w3.org/2000/svg" xml:space="preserve" width="206px" height="60px" version="1.1" shape-rendering="geometricPrecision" text-rendering="geometricPrecision" image-rendering="optimizeQuality" fill-rule="evenodd" clip-rule="evenodd"
viewBox="0 0 44998 13196"
 xmlns:xlink="http://www.w3.org/1999/xlink">
 <g id="Слой_x0020_1">
  <metadata id="CorelCorpID_0Corel-Layer"/>
  <g id="_826114960">
   <path fill="#E85222" fill-rule="nonzero" d="M10849 8323l-2647 0 0 -1022 3706 0 0 -1022 -4765 0 0 5109 3706 0c1059,0 1588,-511 1588,-1532 0,-1022 -529,-1533 -1588,-1533zm0 2044l-2647 0 0 -1022 2647 0c353,0 529,170 529,511 0,340 -176,511 -529,511zm7411 1021l-1059 0 0 -1021 -3176 0 0 1021 -1059 0 0 -3661c0,-1022 530,-1533 1589,-1533l2117 0c1059,0 1588,511 1588,1533l0 3661zm-1059 -2043l0 -1618c0,-341 -176,-511 -529,-511l-2117 0c-353,0 -530,170 -530,511l0 1618 3176 0zm6883 2043l-3706 0c-1059,0 -1588,-511 -1588,-1532l0 -2044c0,-1022 529,-1533 1588,-1533l3706 0 0 1022 -3706 0c-353,0 -529,170 -529,511l0 2044c0,340 176,511 529,511l3706 0 0 1021zm5823 0l-1350 0 -1694 -2043 -1191 0 0 2043 -1059 0 0 -5109 1059 0 0 2044 1191 0 1694 -2044 1350 0 -2118 2555 2118 2554zm5558 -4087l-4235 0 0 1022 3177 0 0 1022 -3177 0 0 1022 4235 0 0 1021 -5293 0 0 -5109 5293 0 0 1022zm5824 0l-2118 0 0 4087 -1059 0 0 -4087 -2117 0 0 -1022 5294 0 0 1022z"/>
   <path fill="#737D85" fill-rule="nonzero" d="M39286 5767l-7031 0c-952,0 -1427,-490 -1427,-1468l0 -2849c0,-469 120,-825 362,-1068 242,-242 597,-364 1065,-364l9233 0 133 0 0 133 0 1097 0 133 -133 0 -8987 0c-109,0 -187,22 -234,67 -45,43 -68,116 -68,219l0 2425c0,114 23,195 68,243 43,46 115,69 216,69l6803 0 0 1363zm-23154 -2884l2769 2884 -2066 0 -2064 -2190 -6272 0 0 2056 0 134 -133 0 -1097 0 -132 0 -1 -134 -13 -5500 0 -133 133 1 1110 6 133 0 0 132 0 2070 6308 0 2191 -2191 1888 -1 -2754 2866zm12615 2874l-9200 9 -133 0 0 -133 0 -1105 0 -133 133 0 8989 0c110,0 188,-23 236,-70 46,-45 70,-122 70,-230l0 -530 -6666 0 -133 0 0 -133 0 -1097 0 -133 133 0 6664 0 0 -529c0,-105 -23,-180 -68,-225 -44,-44 -120,-67 -224,-67l-9001 0 -133 0 0 -133 0 -1097 0 -133 133 0 9227 0c469,0 826,112 1069,335 247,226 370,559 370,997l0 2967c0,473 -124,831 -373,1075 -249,244 -613,366 -1093,366l0 -1z"/>
   <path fill="#E85222" d="M41621 2379l0 1737c876,59 1581,764 1641,1640l1736 0 0 -1351 -1906 0c-64,0 -120,-56 -120,-120l0 -1906 -1351 0z"/>
   <path fill="#737D85" d="M42972 7782l0 -1906c0,-809 -661,-1471 -1471,-1471l-1907 0 0 1351 1907 0c63,0 120,57 120,120l0 1906 1351 0z"/>
   <path fill="#E85222" d="M6021 49c568,206 244,8528 284,10321l-896 -43c-106,-183 -249,-1371 -750,-2150 -402,-626 -753,-1079 -1094,-1761 -801,-1862 -841,-4186 -729,-4933 111,-746 2618,-1639 3185,-1434z"/>
   <path fill="#E85222" d="M2096 1670c426,1593 -16,2612 863,4627 495,1133 1921,2680 1824,3788 -1531,38 -3708,-2010 -4404,-3260 -616,-1106 -397,-1834 93,-2954 214,-491 1131,-2106 1624,-2201z"/>
   <path fill="#E85222" d="M15 7334c419,174 1587,2215 3761,3046 846,323 1156,284 280,1100 -1971,1836 -4266,-2962 -4041,-4146z"/>
   <path fill="#E85222" d="M6282 11047c109,198 99,1900 -20,2043 -320,338 -2402,-233 -2621,-725 1404,-615 1199,-1442 1702,-1519 289,-44 787,20 939,201z"/>
   <path fill="#737D85" fill-rule="nonzero" d="M8533 11994l-237 0 0 946 -354 0 0 -946 -237 0 0 946 -354 0 0 -946 -237 0 0 1182 1419 0 0 -1182zm1300 1182l-301 0 -378 -472 -266 0 0 472 -237 0 0 -1182 237 0 0 473 266 0 378 -473 301 0 -473 591 473 591zm1242 -335c0,237 -119,355 -355,355l-473 0c-236,0 -355,-118 -355,-355l0 -512c0,-236 119,-355 355,-355l473 0c236,0 355,119 355,355l0 512zm-237 0l0 -512c0,-79 -39,-118 -118,-118l-473 0c-79,0 -118,39 -118,118l0 512c0,79 39,119 118,119l473 0c79,0 118,-40 118,-119zm1537 -847l-591 0c-167,0 -285,118 -355,355 -12,79 -90,355 -236,827l240 0 233 -827c21,-79 60,-118 118,-118l355 0 0 945 236 0 0 -1182zm1300 828l0 -118c0,-237 -118,-355 -354,-355l-591 0 0 -355 -237 0 0 1182 828 0c236,0 354,-118 354,-354zm-236 0c0,78 -39,118 -118,118l-591 0 0 -355 591 0c79,0 118,40 118,119l0 118zm1537 354l-236 0 0 -472 -710 0 0 472 -236 0 0 -1182 236 0 0 473 710 0 0 -473 236 0 0 1182zm1301 0l-237 0 0 -236 -709 0 0 236 -237 0 0 -847c0,-236 118,-355 355,-355l473 0c236,0 355,119 355,355l0 847zm-237 -472l0 -375c0,-79 -39,-118 -118,-118l-473 0c-79,0 -118,39 -118,118l0 375 709 0zm355 -355l0 118c0,237 118,355 354,355l-354 354 335 0 354 -354 257 0 0 354 236 0 0 -1182 -828 0c-236,0 -354,118 -354,355zm236 0c0,-79 40,-118 118,-118l592 0 0 354 -592 0c-78,0 -118,-39 -118,-118l0 -118zm2877 118l-591 0 0 -236 827 0 0 -237 -1064 0 0 1182 828 0c236,0 354,-118 354,-354 0,-237 -118,-355 -354,-355zm0 473l-591 0 0 -236 591 0c79,0 118,39 118,118 0,78 -39,118 -118,118zm1655 236l-237 0 0 -236 -709 0 0 236 -236 0 0 -847c0,-236 118,-355 354,-355l473 0c237,0 355,119 355,355l0 847zm-237 -472l0 -375c0,-79 -39,-118 -118,-118l-473 0c-78,0 -118,39 -118,118l0 375 709 0zm1537 472l-827 0c-237,0 -355,-118 -355,-354l0 -473c0,-237 118,-355 355,-355l827 0 0 237 -827 0c-79,0 -118,39 -118,118l0 473c0,78 39,118 118,118l827 0 0 236zm1301 0l-302 0 -378 -472 -266 0 0 472 -236 0 0 -1182 236 0 0 473 266 0 378 -473 302 0 -473 591 473 591zm1241 -945l-946 0 0 236 710 0 0 237 -710 0 0 236 946 0 0 236 -1182 0 0 -1182 1182 0 0 237zm1301 0l-473 0 0 945 -237 0 0 -945 -473 0 0 -237 1183 0 0 237zm945 236l-591 0 0 -236 828 0 0 -237 -1064 0 0 1182 827 0c237,0 355,-118 355,-354 0,-237 -118,-355 -355,-355zm0 473l-591 0 0 -236 591 0c79,0 119,39 119,118 0,78 -40,118 -119,118zm1656 -99c0,237 -119,355 -355,355l-473 0c-237,0 -355,-118 -355,-355l0 -512c0,-236 118,-355 355,-355l473 0c236,0 355,119 355,355l0 512zm-237 0l0 -512c0,-79 -39,-118 -118,-118l-473 0c-79,0 -118,39 -118,118l0 512c0,79 39,119 118,119l473 0c79,0 118,-40 118,-119zm1537 -847l-591 0c-167,0 -285,118 -355,355 -12,79 -90,355 -236,827l240 0 233 -827c21,-79 60,-118 118,-118l355 0 0 945 236 0 0 -1182zm1300 828l0 -118c0,-237 -118,-355 -354,-355l-591 0 0 -355 -237 0 0 1182 828 0c236,0 354,-118 354,-354zm-236 0c0,78 -40,118 -118,118l-591 0 0 -355 591 0c78,0 118,40 118,119l0 118zm1537 354l-237 0 0 -472 -709 0 0 472 -236 0 0 -1182 236 0 0 473 709 0 0 -473 237 0 0 1182zm1300 0l-236 0 0 -236 -709 0 0 236 -237 0 0 -847c0,-236 118,-355 355,-355l473 0c236,0 354,119 354,355l0 847zm-236 -472l0 -375c0,-79 -40,-118 -118,-118l-473 0c-79,0 -118,39 -118,118l0 375 709 0zm355 -355l0 118c0,237 118,355 354,355l-354 354 334 0 355 -354 256 0 0 354 237 0 0 -1182 -828 0c-236,0 -354,118 -354,355zm236 0c0,-79 39,-118 118,-118l591 0 0 354 -591 0c-79,0 -118,-39 -118,-118l0 -118zm3231 -355l-591 0c-167,0 -285,118 -355,355 -11,79 -90,355 -236,827l241 0 232 -827c21,-79 60,-118 118,-118l355 0 0 945 236 0 0 -1182zm1301 0l-237 0 -709 820 0 -820 -237 0 0 1182 237 0 709 -819 0 819 237 0 0 -1182zm1064 0l-946 0 0 1182 236 0 0 -945 710 0 0 -237zm1241 1182l-236 0 0 -236 -710 0 0 236 -236 0 0 -847c0,-236 118,-355 355,-355l472 0c237,0 355,119 355,355l0 847zm-236 -472l0 -375c0,-79 -40,-118 -119,-118l-472 0c-79,0 -119,39 -119,118l0 375 710 0z"/>
  </g>
 </g>
</svg>
